<?xml version="1.0" encoding="UTF-8"?>
<svg version="1.1" xmlns="http://www.w3.org/2000/svg" width="64" height="64">
<path d="M0 0 C7.91658722 4.70001467 13.17394686 11.45543432 16.10546875 20.25 C16.23328661 22.92394964 16.14938746 25.57095857 16.10546875 28.25 C15.15671875 28.064375 14.20796875 27.87875 13.23046875 27.6875 C10.20678082 26.96313368 10.20678082 26.96313368 8.10546875 28.25 C7.88632812 27.53714844 7.6671875 26.82429688 7.44140625 26.08984375 C4.71495656 17.85507904 1.80623077 11.8509823 -6.14453125 7.8125 C-12.07872972 5.52629288 -17.51483317 5.09223171 -23.57421875 7.16796875 C-31.83239915 10.95398914 -35.19872205 15.26322933 -38.39453125 23.5625 C-38.9359375 25.13451172 -38.9359375 25.13451172 -39.48828125 26.73828125 C-40.89453125 29.25 -40.89453125 29.25 -43.42578125 30.23046875 C-44.24046875 30.23691406 -45.05515625 30.24335937 -45.89453125 30.25 C-47.89453125 28.25 -47.89453125 28.25 -48.33203125 24.75 C-48.1329272 16.92805507 -43.28146835 9.6369371 -37.89453125 4.25 C-27.11601404 -3.77798273 -12.34577276 -5.95574968 0 0 Z " fill="#000000" transform="translate(47.89453125,2.75)"/>
<path d="M0 0 C2.625 0.9375 2.625 0.9375 5 2 C5.67797404 9.79670147 3.12577223 16.69780204 -1.75 22.8125 C-7.40769487 28.8702339 -14.45426092 32.59107368 -22.734375 33.3359375 C-33.35408596 33.57487771 -42.28335701 32.36660524 -50.3984375 24.84765625 C-56.55931307 17.74010955 -59.15140941 11.23597413 -59 2 C-58.4225 2.37125 -57.845 2.7425 -57.25 3.125 C-56.5075 3.41375 -55.765 3.7025 -55 4 C-52.87269715 3.10318584 -52.87269715 3.10318584 -51 2 C-50.67128906 3.06927734 -50.67128906 3.06927734 -50.3359375 4.16015625 C-47.60948781 12.39492096 -44.70076202 18.3990177 -36.75 22.4375 C-30.81580153 24.72370712 -25.37969808 25.15776829 -19.3203125 23.08203125 C-9.77977153 18.70810371 -6.71028353 13.03733064 -3.11328125 3.51171875 C-2 1 -2 1 0 0 Z " fill="#000000" transform="translate(59,31)"/>
<path d="M0 0 C2.31 0 4.62 0 7 0 C8.32 2.64 9.64 5.28 11 8 C11.33 5.36 11.66 2.72 12 0 C13.65 0 15.3 0 17 0 C17 6.6 17 13.2 17 20 C14.69 20 12.38 20 10 20 C8.68 17.36 7.36 14.72 6 12 C5.67 14.64 5.34 17.28 5 20 C3.35 20 1.7 20 0 20 C0 13.4 0 6.8 0 0 Z " fill="#000000" transform="translate(28,28)"/>
<path d="M0 0 C1.98 0 3.96 0 6 0 C6 6.6 6 13.2 6 20 C4.02 20 2.04 20 0 20 C0 13.4 0 6.8 0 0 Z " fill="#000000" transform="translate(19,28)"/>
<path d="M0 0 C1.2065625 0.0309375 1.2065625 0.0309375 2.4375 0.0625 C3.63037411 3.93934087 4.4375 6.97871923 4.4375 11.0625 C3.1175 11.0625 1.7975 11.0625 0.4375 11.0625 C0.4375 10.0725 0.4375 9.0825 0.4375 8.0625 C-0.2225 8.0625 -0.8825 8.0625 -1.5625 8.0625 C-1.5625 9.0525 -1.5625 10.0425 -1.5625 11.0625 C-2.8825 11.0625 -4.2025 11.0625 -5.5625 11.0625 C-5.25467504 9.41578588 -4.94110766 7.77014424 -4.625 6.125 C-4.45097656 5.20847656 -4.27695312 4.29195312 -4.09765625 3.34765625 C-3.35353878 0.17022035 -3.31733379 0.08091058 0 0 Z " fill="#000000" transform="translate(24.5625,15.9375)"/>
<path d="M0 0 C0.99 0 1.98 0 3 0 C3 2.31 3 4.62 3 7 C4.32 7 5.64 7 7 7 C7 8.32 7 9.64 7 11 C4.69 11 2.38 11 0 11 C0 7.37 0 3.74 0 0 Z " fill="#000000" transform="translate(38,16)"/>
<path d="M0 0 C0.99 0 1.98 0 3 0 C3 2.31 3 4.62 3 7 C4.32 7 5.64 7 7 7 C7 8.32 7 9.64 7 11 C4.69 11 2.38 11 0 11 C0 7.37 0 3.74 0 0 Z " fill="#000000" transform="translate(30,16)"/>
</svg>
