<?xml version="1.0" encoding="UTF-8"?>
<!-- Generator: visioncortex VTracer 0.6.2 -->
<svg version="1.1" xmlns="http://www.w3.org/2000/svg" width="1280" height="1280">
<path d="M0 0 C10.35212718 0.8531828 20.69876791 1.51667559 31.07235718 2.04293823 C74.02868701 4.24337122 74.02868701 4.24337122 87.7409668 15.15722656 C88.13791748 15.66777588 88.53486816 16.1783252 88.94384766 16.7043457 C91.76476432 18.98491561 95.07054245 19.25190987 98.55737305 19.84082031 C99.32846909 19.98246109 100.09956512 20.12410187 100.89402771 20.27003479 C103.36196727 20.72280819 105.83221707 21.16040906 108.3034668 21.59472656 C135.11037357 26.3194273 135.11037357 26.3194273 141.7409668 33.15722656 C141.9884668 34.00285156 142.2359668 34.84847656 142.4909668 35.71972656 C143.9724149 38.60855036 144.52564267 38.74109254 147.4909668 39.78222656 C151.46768779 40.9375821 155.48874157 41.69099183 159.5534668 42.46972656 C167.75461249 44.17386073 176.31472175 46.90418952 181.9909668 53.40722656 C183.7409668 56.15722656 183.7409668 56.15722656 183.7409668 58.15722656 C187.16004645 59.59821799 190.60810708 60.73716091 194.15966797 61.80541992 C202.15414319 64.26472123 208.15039788 66.74408925 212.5065918 74.16503906 C215.18175372 77.74751115 217.14460969 78.56593998 221.3034668 80.09472656 C230.80663513 83.83198356 239.53132759 87.99544727 244.7409668 97.15722656 C244.7409668 97.81722656 244.7409668 98.47722656 244.7409668 99.15722656 C245.4525293 99.43050781 246.1640918 99.70378906 246.8972168 99.98535156 C257.60496289 104.39788429 263.62680025 108.69643135 268.7409668 119.15722656 C271.01531967 121.8753556 273.40044831 123.04766595 276.6159668 124.46972656 C282.84991352 127.51421217 285.76390666 130.80027528 288.4909668 137.21972656 C290.52222405 141.57949824 293.2985866 142.82446538 297.49487305 144.89160156 C303.23579081 148.12648392 306.15065714 153.59398179 308.8894043 159.37207031 C311.0527588 163.90717585 313.35728138 165.73778055 317.92456055 167.93457031 C322.92923004 171.30330483 325.23518682 176.82377923 327.7409668 182.09472656 C331.03313884 188.98128176 334.07347612 195.13375775 340.2409668 199.90722656 C345.10432486 204.09401272 346.85683588 208.13164847 348.7409668 214.15722656 C350.93026154 221.06114208 352.77919457 224.69620847 358.8503418 228.75488281 C367.91203402 235.47626196 370.17590881 253.08482219 372.1862793 263.45410156 C372.36932617 264.01613281 372.55237305 264.57816406 372.7409668 265.15722656 C373.4628418 265.40472656 374.1847168 265.65222656 374.9284668 265.90722656 C379.70458195 268.02994441 382.56301587 272.27087636 384.51733398 277.05957031 C386.60418217 282.94568666 387.72135704 288.88528418 388.7409668 295.03222656 C390.72347178 310.24351986 390.72347178 310.24351986 399.03393555 322.39941406 C408.99451723 332.65630596 408.246817 355.74031081 408.7409668 369.15722656 C408.82024414 370.85878906 408.82024414 370.85878906 408.90112305 372.59472656 C409.07488846 379.24314225 408.56276964 385.6090485 407.4909668 392.15722656 C407.38171875 392.86347168 407.2724707 393.5697168 407.15991211 394.29736328 C405.85681831 401.4677994 402.61510407 405.98349745 396.7409668 410.15722656 C390.45311817 413.30115088 378.56411966 411.57351753 371.8894043 409.96582031 C366.51714469 407.94389715 363.06713006 404.34738967 360.4909668 399.28222656 C358.51042798 394.35605586 357.68497324 389.15429837 356.95483398 383.91748047 C356.21242478 379.11303233 354.79796591 375.93123092 351.7409668 372.15722656 C349.86854752 370.79288622 349.86854752 370.79288622 347.8659668 369.90722656 C343.36142637 367.34516453 341.50287784 363.99057206 339.1628418 359.46191406 C336.40767926 354.99612864 333.19477364 353.75111268 328.15966797 352.52050781 C306.51415965 347.78355446 281.9470158 346.35360636 261.99487305 357.64941406 C257.31224613 360.78198597 254.37657858 364.22977844 251.7409668 369.15722656 C251.08612305 370.26324219 250.4312793 371.36925781 249.7565918 372.50878906 C246.95448725 378.143087 246.61760685 384.02793502 246.0534668 390.21972656 C245.93028076 391.41750732 245.80709473 392.61528809 245.68017578 393.84936523 C244.93302415 401.30825225 244.37922919 408.74218485 244.24487305 416.23925781 C243.42979497 420.95912855 241.04978887 423.99535995 237.5144043 427.13378906 C229.22667171 432.82991798 220.13523903 437.97701291 209.7409668 437.15722656 C199.08790185 434.65317733 190.30988394 427.54956641 184.01831055 418.74707031 C180.75215865 412.76411928 179.31575458 406.17874825 177.83081055 399.57519531 C176.48294036 395.34800388 174.79772803 392.27304035 170.8112793 390.11035156 C170.16932617 389.87832031 169.52737305 389.64628906 168.8659668 389.40722656 C164.39416303 387.39118145 162.60701104 384.48219405 160.26049805 380.27832031 C157.90216359 376.98635216 155.11480285 375.42235055 151.14624023 374.65649414 C149.76227051 374.57371216 149.76227051 374.57371216 148.3503418 374.48925781 C147.2965332 374.42561035 146.24272461 374.36196289 145.15698242 374.29638672 C128.18215452 373.60487358 112.04336929 372.94789966 95.7409668 378.15722656 C94.7509668 378.15722656 93.7609668 378.15722656 92.7409668 378.15722656 C92.59401367 378.72570312 92.44706055 379.29417969 92.2956543 379.87988281 C90.59455473 385.73596697 88.46214397 390.18201501 83.7409668 394.15722656 C82.04142242 395.0083412 80.33240508 395.84071763 78.6159668 396.65722656 C74.1276749 399.26920997 72.69664144 401.51480493 71.1784668 406.46972656 C69.27213185 414.46545759 69.36031435 422.69049393 69.16137695 430.86523438 C68.80877283 442.67478774 67.81033813 455.53598887 58.7409668 464.15722656 C58.08870117 464.87265625 57.43643555 465.58808594 56.7644043 466.32519531 C52.10725074 469.14716562 47.64453026 468.77665326 42.3034668 468.71972656 C41.27930664 468.74357422 40.25514648 468.76742188 39.19995117 468.79199219 C30.81333787 468.7757075 30.81333787 468.7757075 27.2097168 465.88378906 C20.54275118 458.5205897 17.76004142 450.84021221 15.47705078 441.31469727 C15.29215088 440.562771 15.10725098 439.81084473 14.91674805 439.03613281 C14.68338745 438.02401733 14.68338745 438.02401733 14.4453125 436.99145508 C13.0530439 433.36576565 9.74345667 431.34541895 6.8034668 428.96972656 C3.27148386 425.92758068 1.53864379 423.16185199 -0.34887695 418.96191406 C-1.82866066 416.02775066 -3.36297629 414.67107449 -6.2590332 413.15722656 C-11.44971103 412.84072182 -14.92361199 414.37984734 -19.2590332 417.15722656 C-19.00508789 418.25292969 -18.75114258 419.34863281 -18.48950195 420.47753906 C-13.90639265 441.18872178 -12.4405056 462.24674931 -11.37716675 483.38201904 C-10.65623709 510.07693971 -10.65623709 510.07693971 -1.96606445 534.87207031 C5.7913358 549.80107172 6.17853519 568.93071922 7.5222168 585.39550781 C7.62058083 586.60064278 7.62058083 586.60064278 7.72093201 587.8301239 C8.0460296 591.85508079 8.35788386 595.88057322 8.65136719 599.90795898 C8.73813721 601.0442701 8.73813721 601.0442701 8.82666016 602.20353699 C8.9350003 603.62285777 9.03773685 605.04262307 9.13354492 606.46284485 C9.56566744 613.80560988 9.56566744 613.80560988 12.7409668 620.15722656 C14.37274777 620.25611087 16.00883721 620.28440277 17.64361119 620.28553575 C18.71410724 620.28870401 19.78460329 620.29187227 20.88753861 620.29513654 C22.08056354 620.29354218 23.27358846 620.29194781 24.50276566 620.29030514 C25.76221986 620.29254816 27.02167407 620.29479119 28.31929356 620.29710218 C31.84702546 620.30324782 35.37473447 620.30310543 38.90247055 620.30202924 C42.72863843 620.30195697 46.55479814 620.30766377 50.38096213 620.31267411 C57.09788596 620.32067211 63.81480436 620.32496619 70.53173256 620.32689095 C80.5207942 620.32978297 90.50984502 620.33839747 100.49890187 620.34830406 C117.30479028 620.36484769 134.11067912 620.37702004 150.91657257 620.38702202 C174.93974601 620.40142325 198.96290757 620.4241841 222.98607255 620.44868713 C232.62272245 620.45847925 242.25937262 620.46799966 251.8960228 620.47751713 C253.50222676 620.47910528 253.50222676 620.47910528 255.14087928 620.48072551 C280.65063973 620.50589649 306.16040237 620.52838066 331.67016602 620.55004883 C333.34507854 620.55147449 333.34507854 620.55147449 335.05382768 620.55292894 C361.08566835 620.57506438 387.11750965 620.59593631 413.14935303 620.61462402 C414.26765157 620.61542777 415.38595012 620.61623153 416.5381365 620.61705963 C422.17653692 620.62111014 427.81493734 620.62515174 433.45333776 620.6291929 C435.12473798 620.63039138 435.12473798 620.63039138 436.82990387 620.63161408 C439.07893198 620.6332264 441.32796008 620.63483722 443.57698819 620.63644655 C480.76306101 620.66309726 517.94912309 620.6964781 555.13518321 620.73722469 C560.39117542 620.74297449 565.64716772 620.74863316 570.9031601 620.75422859 C572.45478608 620.7558813 572.45478608 620.7558813 574.03775805 620.75756739 C590.66733924 620.77505438 607.29691724 620.78523431 623.92650572 620.79248104 C640.65705548 620.79988629 657.38758712 620.81431489 674.11812469 620.8359068 C684.04954448 620.848496 693.98093226 620.85557496 703.91236017 620.8546566 C710.55914393 620.85458672 717.20589502 620.86178448 723.85266613 620.87470665 C727.63177674 620.88184803 731.41081898 620.88599022 735.18993488 620.88118415 C739.28080189 620.87605351 743.3714917 620.88657116 747.46234512 620.89830685 C748.60854672 620.89437132 749.75474833 620.89043579 750.93568331 620.886381 C761.71454678 620.94093852 771.85368044 622.12034215 782.7409668 623.15722656 C782.7409668 638.99722656 782.7409668 654.83722656 782.7409668 671.15722656 C757.47177573 673.45442575 757.47177573 673.45442575 746.66840458 673.40776634 C745.41429276 673.41056402 744.16018095 673.41336169 742.86806574 673.41624415 C739.45328311 673.4236016 736.03861727 673.41890179 732.62383808 673.41189271 C728.88384588 673.40650082 725.14386903 673.41293309 721.40387863 673.41778338 C714.87123481 673.42469751 708.33862372 673.42439412 701.80597878 673.41917992 C692.09203451 673.41148672 682.37811856 673.41542273 672.66417454 673.42180238 C656.31645868 673.43229578 639.96875314 673.43416651 623.62103462 673.43162155 C600.27370885 673.42819666 576.92640883 673.44158855 553.57909 673.45839602 C544.20005275 673.46507466 534.82101512 673.4712142 525.4419775 673.47735023 C524.40022536 673.47803423 523.35847322 673.47871823 522.28515284 673.47942295 C497.52457623 673.49557852 472.76399804 673.50642977 448.00341797 673.515625 C446.92081646 673.51603103 445.83821495 673.51643707 444.72280733 673.51685541 C419.44053067 673.52629206 394.15825491 673.53315294 368.87597656 673.5355835 C367.78698905 673.53569006 366.69800153 673.53579662 365.5760144 673.53590642 C360.08401169 673.53643963 354.59200898 673.53695437 349.10000627 673.53746779 C347.47168816 673.53762111 347.47168816 673.53762111 345.81047473 673.53777752 C343.61938871 673.53798307 341.42830269 673.53818563 339.23721667 673.53838518 C303.05937474 673.54176378 266.88155876 673.55865115 230.70373034 673.59048672 C225.59886803 673.59496003 220.49400557 673.59924985 215.38914299 673.60341263 C214.38452126 673.60423309 213.37989953 673.60505354 212.34483471 673.60589886 C196.16645951 673.61865568 179.98811793 673.61664887 163.80974097 673.60877818 C147.56927429 673.6011068 131.32886378 673.60746629 115.0884083 673.62841724 C105.4360609 673.64040654 95.78386259 673.64111857 86.13151891 673.62592472 C79.68936984 673.61686765 73.24733792 673.62220671 66.80520558 673.63936719 C63.13179602 673.64873075 59.45868242 673.65169694 55.78528327 673.63709657 C51.83200387 673.62152379 47.87918759 673.63670417 43.9259119 673.6550045 C42.78102182 673.6455291 41.63613173 673.63605369 40.45654801 673.62629116 C33.99621877 673.68697307 30.02684068 674.35731619 24.7409668 678.15722656 C24.82137207 678.97884277 24.90177734 679.80045898 24.98461914 680.64697266 C25.36830963 684.60812539 25.74478208 688.56988426 26.1159668 692.53222656 C26.18477051 693.26607574 26.25357422 693.99992493 26.32446289 694.75601196 C27.31213125 705.39287213 28.06879985 716.02169807 28.62658691 726.68930054 C29.78498285 754.36791768 29.78498285 754.36791768 38.8190918 780.20410156 C41.33571418 785.12624784 42.52038104 790.13586745 43.8034668 795.50878906 C45.08526358 800.49711489 46.858454 805.22145763 48.69018555 810.03613281 C49.71620899 813.08368942 50.30571359 815.97653002 50.7409668 819.15722656 C51.4422168 819.32738281 52.1434668 819.49753906 52.8659668 819.67285156 C65.00535284 822.773673 73.122653 827.69371685 81.5456543 837.19238281 C85.11349945 840.38566771 89.40601128 842.07175087 93.72143555 844.06933594 C99.56538391 846.85924349 104.7003817 849.7271002 107.57299805 855.77832031 C109.17239693 858.82302864 110.51211685 859.80170848 113.75268555 860.94238281 C115.30526333 861.38960354 116.8643641 861.81465015 118.4284668 862.21972656 C126.96517094 864.75198725 134.01231993 867.3617764 139.4909668 874.71972656 C144.81060811 881.37294187 154.66289942 882.85551386 162.4909668 885.09472656 C169.51542652 887.18675694 175.86100123 890.56496788 180.7409668 896.15722656 C180.7409668 896.81722656 180.7409668 897.47722656 180.7409668 898.15722656 C188.63111873 900.83310614 196.5241521 902.19772376 204.7409668 903.46972656 C219.20868078 905.84133342 232.86556406 909.01654655 245.7956543 916.17675781 C249.10046507 917.84243553 252.26175584 918.28529565 255.93261719 918.39770508 C256.75190201 918.42345108 257.57118683 918.44919708 258.41529846 918.47572327 C262.20930768 918.5614571 266.00315374 918.62598958 269.79785156 918.67211914 C271.77507062 918.70343729 273.75211154 918.75084395 275.72851562 918.81567383 C289.7877761 919.26942766 300.11666003 917.3387964 312.72047424 911.08036804 C325.12502724 905.41286019 340.177724 904.55263198 353.52172852 902.62304688 C357.49738011 902.04777437 361.47044663 901.45607442 365.44311523 900.8605957 C367.13225309 900.60766737 368.82168944 900.35672122 370.51147461 900.1081543 C376.16663442 899.33634345 376.16663442 899.33634345 381.7409668 898.15722656 C382.0297168 897.57972656 382.3184668 897.00222656 382.6159668 896.40722656 C384.39103532 892.85708952 387.3306871 890.99122988 390.7409668 889.15722656 C394.18295207 888.08813563 397.61057738 887.56385204 401.1784668 887.09472656 C402.08145508 886.94068359 402.98444336 886.78664063 403.91479492 886.62792969 C410.23799385 885.73508118 414.51759763 886.35992009 419.7409668 890.15722656 C426.79967379 897.28652063 430.33570726 908.62768464 430.8972168 918.45410156 C430.58489123 923.85733381 428.89943818 928.70042987 425.29956055 932.79785156 C423.51610994 934.36213113 421.64811382 935.74621926 419.7409668 937.15722656 C417.92728493 938.69750266 416.11487048 940.23927191 414.3034668 941.78222656 C402.47495826 951.32186268 389.69326086 952.64207239 374.9909668 954.65722656 C360.37793221 956.55588047 360.37793221 956.55588047 347.7878418 963.67285156 C341.24270982 968.41932132 333.17822205 969.6052086 325.3659668 970.84472656 C324.63152344 970.96420654 323.89708008 971.08368652 323.14038086 971.20678711 C306.47961331 973.58665057 289.34883205 973.36515589 272.5534668 973.34472656 C271.15987442 973.34382019 271.15987442 973.34382019 269.73812866 973.34289551 C213.36880671 973.24390348 213.36880671 973.24390348 199.97924805 960.53613281 C196.12281085 957.26510354 191.80588293 956.83153528 186.9284668 956.09472656 C185.0491541 955.76893749 183.17025092 955.44077805 181.29174805 955.11035156 C179.89110107 954.87155273 179.89110107 954.87155273 178.4621582 954.62792969 C152.81269462 950.1911662 152.81269462 950.1911662 145.89331055 940.59472656 C143.08432339 937.41358684 140.66157888 936.78681144 136.6159668 935.59472656 C135.2703964 935.17581488 133.9253438 934.75523644 132.58081055 934.33300781 C131.92580566 934.13271973 131.27080078 933.93243164 130.59594727 933.72607422 C122.97674371 931.38957194 117.04180761 929.25536222 112.7409668 922.15722656 C112.7409668 921.49722656 112.7409668 920.83722656 112.7409668 920.15722656 C112.0809668 920.15722656 111.4209668 920.15722656 110.7409668 920.15722656 C110.7409668 919.49722656 110.7409668 918.83722656 110.7409668 918.15722656 C109.5324707 918.00833984 109.5324707 918.00833984 108.29956055 917.85644531 C103.92406202 916.99671509 99.95714603 915.56570456 95.8034668 913.96972656 C95.03067383 913.69064453 94.25788086 913.4115625 93.46166992 913.12402344 C86.93878314 910.62624853 81.33020934 907.39928136 78.1784668 900.96972656 C75.92663499 896.56396868 72.59830805 895.80361405 68.08081055 894.23144531 C58.12695073 890.76166107 58.12695073 890.76166107 54.7409668 887.15722656 C54.06747519 885.49330611 53.4000509 883.82690628 52.7409668 882.15722656 C50.72361474 880.81312395 50.72361474 880.81312395 48.7409668 880.15722656 C48.7409668 879.49722656 48.7409668 878.83722656 48.7409668 878.15722656 C47.5653418 877.82722656 46.3897168 877.49722656 45.1784668 877.15722656 C34.41012348 873.48813969 25.31278155 869.31858448 19.33081055 859.34863281 C16.61756508 855.60875393 12.96596945 854.64557977 8.7409668 853.15722656 C2.44328568 850.48071209 -2.01970041 848.50091995 -5.2590332 842.15722656 C-5.4652832 841.49464844 -5.6715332 840.83207031 -5.8840332 840.14941406 C-8.03586601 837.03170176 -11.29632828 836.45042448 -14.7590332 835.34472656 C-24.79882612 831.84609574 -31.76871499 827.17264748 -38.5559082 818.94238281 C-41.33880997 816.0254422 -44.56806595 814.65135194 -48.2590332 813.15722656 C-53.89714772 810.86231563 -58.32011243 809.02295222 -62.2590332 804.15722656 C-62.61352539 803.17496094 -62.96801758 802.19269531 -63.33325195 801.18066406 C-66.12574795 796.79650199 -69.33063195 796.39968439 -74.1965332 795.15722656 C-75.91992753 794.66166313 -77.64130668 794.1590378 -79.3605957 793.64941406 C-80.61791504 793.27768066 -80.61791504 793.27768066 -81.90063477 792.8984375 C-89.83334208 790.40530091 -96.50461861 787.48870554 -100.5871582 779.98925781 C-105.1822953 774.95393234 -113.72520699 774.35654042 -120.1340332 773.21972656 C-131.20431511 771.11509869 -140.39776973 768.87405573 -148.05200195 760.10253906 C-162.95905376 746.96322614 -205.65635732 752.8374643 -225.24316406 752.89648438 C-229.05993312 752.90788805 -232.87642332 752.90108613 -236.69318295 752.88959789 C-276.34947803 750.17578871 -276.34947803 750.17578871 -312.5559082 759.76660156 C-314.33204067 761.55207207 -314.33204067 761.55207207 -315.82543945 763.45410156 C-322.2160163 771.04617651 -336.8907396 772.67517949 -346.1340332 774.15722656 C-354.75444428 775.66420213 -360.3766692 778.61742183 -366.23950195 785.15722656 C-371.02977674 789.90117374 -376.11911095 792.03105991 -382.4465332 793.84472656 C-383.15745117 794.05677734 -383.86836914 794.26882813 -384.60083008 794.48730469 C-386.48531462 795.04928173 -388.37205359 795.60368511 -390.2590332 796.15722656 C-391.2490332 796.48722656 -392.2390332 796.81722656 -393.2590332 797.15722656 C-393.4859082 798.02347656 -393.7127832 798.88972656 -393.9465332 799.78222656 C-396.62205388 806.66213686 -402.85705554 810.16256528 -409.3137207 813.13769531 C-413.99342724 815.59031259 -417.65388006 819.28148579 -420.8840332 823.40722656 C-423.36344172 826.27812063 -424.82311263 826.85714851 -428.2590332 828.15722656 C-428.94498426 829.48074209 -429.60873393 830.81583434 -430.2590332 832.15722656 C-431.30222315 833.46121399 -432.3889928 834.73112333 -433.5090332 835.96972656 C-435.84720842 838.56931267 -438.11279967 841.19730284 -440.3215332 843.90722656 C-442.94818964 846.99494503 -445.8351819 848.97178956 -449.2590332 851.15722656 C-452.51074367 854.07542826 -455.09165137 857.23512586 -457.6965332 860.71972656 C-461.13206054 865.13158966 -463.91012073 868.52760931 -469.66918945 869.61035156 C-478.79873228 870.56474669 -488.13339437 870.15722656 -497.2590332 870.15722656 C-497.2590332 852.00722656 -497.2590332 833.85722656 -497.2590332 815.15722656 C-493.9590332 814.82722656 -490.6590332 814.49722656 -487.2590332 814.15722656 C-484.86973865 810.14073533 -484.86973865 810.14073533 -483.68188477 807.05371094 C-481.1807041 801.96208304 -477.1076013 798.26590937 -473.08666992 794.33300781 C-471.63910109 792.91220075 -470.22018719 791.46667266 -468.80200195 790.01660156 C-463.41230056 784.66407053 -458.32943358 780.82950639 -451.54467773 777.43652344 C-448.5999554 775.78833448 -447.1435004 773.96141216 -445.5090332 771.03222656 C-442.01524405 765.51484795 -438.88965193 763.37693207 -432.77075195 761.32128906 C-428.02977315 759.67774974 -425.05331593 758.59780282 -422.4465332 754.15722656 C-422.13071289 753.49722656 -421.81489258 752.83722656 -421.48950195 752.15722656 C-417.44877201 745.58943695 -409.68802611 743.84079378 -402.82739258 741.42089844 C-396.47305402 739.03742201 -392.08881886 735.89187243 -387.2590332 731.15722656 C-381.50730098 725.98066756 -375.26994421 724.26909211 -367.81762695 722.83300781 C-366.65682617 722.60806641 -365.49602539 722.383125 -364.30004883 722.15136719 C-361.89742097 721.69688636 -359.4910103 721.26196762 -357.08129883 720.84667969 C-350.01673788 719.43690905 -345.9250041 718.01450044 -341.69628906 712.02270508 C-337.45386504 706.51627363 -329.74147678 705.29791058 -323.2590332 704.15722656 C-318.78760525 703.59544538 -314.30606591 703.19012763 -309.81762695 702.79003906 C-307.85898405 702.60525693 -305.90034248 702.42045929 -303.94178104 702.2348156 C-299.16429789 701.78353271 -294.38578082 701.3437944 -289.60644531 700.91259766 C-275.14944369 699.60344342 -261.24528281 698.13629605 -247.2590332 694.15722656 C-233.68343675 691.43624749 -221.29738629 692.2671481 -207.8762207 695.34082031 C-199.83083271 697.15668002 -191.82125527 698.59149068 -183.6340332 699.59472656 C-182.62493896 699.72105469 -181.61584473 699.84738281 -180.57617188 699.97753906 C-174.40414699 700.72661846 -168.22881024 701.36258275 -162.03637695 701.91113281 C-161.33482483 701.97384872 -160.63327271 702.03656464 -159.91046143 702.10118103 C-156.46235849 702.40766423 -153.01386268 702.7026773 -149.56323242 702.97924805 C-125.45316773 705.05696922 -125.45316773 705.05696922 -117.2590332 712.15722656 C-116.5165332 713.18847656 -115.7740332 714.21972656 -115.0090332 715.28222656 C-110.81217476 719.6698513 -106.08252218 720.01784828 -100.2590332 721.15722656 C-80.24558071 725.26110868 -80.24558071 725.26110868 -75.2590332 730.15722656 C-74.47551316 731.4621927 -73.70550067 732.77532948 -72.9465332 734.09472656 C-68.90349006 740.06944587 -61.4059009 740.93351498 -54.8527832 742.79785156 C-47.085456 745.01798132 -41.52318744 748.07899215 -36.5480957 754.50878906 C-34.36056338 757.30617888 -32.23053417 759.17622592 -29.2590332 761.15722656 C-26.47048198 760.761509 -26.47048198 760.761509 -24.2590332 759.15722656 C-23.32014731 747.06551424 -23.85583347 734.59460111 -25.5090332 722.59472656 C-25.67290527 721.34030762 -25.67290527 721.34030762 -25.84008789 720.06054688 C-26.70465134 714.4669802 -28.53258412 710.08622147 -31.2590332 705.15722656 C-34.88216176 697.68516541 -37.04404364 690.63459572 -38.00732422 682.41308594 C-38.27596759 680.18744189 -38.27596759 680.18744189 -39.2590332 677.15722656 C-41.64500886 675.65440479 -41.64500886 675.65440479 -44.2590332 675.15722656 C-44.9190332 674.82722656 -45.5790332 674.49722656 -46.2590332 674.15722656 C-48.54601919 674.05830087 -50.83599447 674.02694754 -53.1251173 674.02414799 C-53.84315821 674.02190496 -54.56119911 674.01966194 -55.30099884 674.01735094 C-57.73178362 674.01098268 -60.16251519 674.01177667 -62.5933075 674.01246643 C-64.34405705 674.00933467 -66.09480586 674.00576033 -67.8455537 674.00177902 C-72.6765056 673.99205005 -77.50744568 673.98852545 -82.33840597 673.98593605 C-87.54200076 673.98205087 -92.74558502 673.97241248 -97.94917297 673.96337891 C-106.97656223 673.94841663 -116.00395065 673.93688197 -125.03134727 673.92743111 C-138.10862231 673.91356334 -151.18587797 673.89237397 -164.26313911 673.86900257 C-185.51135897 673.83104564 -206.75958238 673.79609704 -228.0078125 673.7644043 C-229.91704097 673.76155356 -229.91704097 673.76155356 -231.86483971 673.75864523 C-249.88813298 673.73187025 -267.91142893 673.7079847 -285.93472771 673.68526023 C-287.20117967 673.68366293 -288.46763164 673.68206563 -289.77246094 673.68041992 C-291.03736532 673.67882646 -292.30226971 673.67723299 -293.60550454 673.67559124 C-314.74709501 673.64876047 -335.88866513 673.61432934 -357.03023368 673.57376617 C-370.06032656 673.54906949 -383.09039761 673.53069913 -396.12051014 673.52061056 C-405.06975586 673.51318092 -414.0189723 673.49859684 -422.96819856 673.47854633 C-428.12132603 673.4672307 -433.27440645 673.45901592 -438.42754745 673.45955467 C-443.16271402 673.45998813 -447.89777529 673.45107539 -452.63291476 673.43530487 C-454.32907587 673.43121206 -456.02524903 673.43030906 -457.7214125 673.43326897 C-471.0594778 673.45365362 -483.87859951 672.32074254 -497.2590332 671.15722656 C-497.2590332 655.31722656 -497.2590332 639.47722656 -497.2590332 623.15722656 C-483.45062045 621.90191631 -470.15772383 620.86234668 -456.37835693 620.89221191 C-454.59537866 620.88862741 -452.81240196 620.88417106 -451.02942777 620.87893534 C-446.20310189 620.86718051 -441.37684473 620.86743213 -436.55050802 620.86987042 C-431.31834925 620.87029424 -426.08621288 620.85915185 -420.85406494 620.84941101 C-411.81279128 620.8340395 -402.77153308 620.82556499 -393.7302475 620.82170105 C-380.65626593 620.81592843 -367.58232582 620.7973042 -354.50836268 620.77526051 C-333.28821537 620.73964103 -312.06806571 620.71127954 -290.84790039 620.68896484 C-288.94737419 620.68696236 -288.94737419 620.68696236 -287.00845352 620.68491942 C-276.71809804 620.67413307 -266.42774221 620.66370422 -256.13738632 620.65331936 C-247.11250543 620.64420219 -238.08762468 620.63495204 -229.06274414 620.62548828 C-227.79122076 620.62415754 -226.51969737 620.6228268 -225.20964298 620.62145573 C-204.03927235 620.59905834 -182.86891975 620.56888842 -161.69856763 620.53309584 C-148.64712163 620.51140798 -135.59570365 620.49680392 -122.54424062 620.49125707 C-113.62150486 620.48702312 -104.6987959 620.47582062 -95.77607498 620.45903313 C-90.62338264 620.44959441 -85.47074045 620.44352651 -80.31803894 620.44609642 C-75.60882666 620.448395 -70.89972005 620.44166023 -66.19052926 620.42751759 C-64.48053354 620.42403463 -62.77052694 620.42398841 -61.06053147 620.42759019 C-58.74952857 620.43198552 -56.43888408 620.42428104 -54.12791061 620.41335297 C-52.84043324 620.41215879 -51.55295587 620.41096461 -50.22646403 620.40973425 C-47.14030505 620.46823667 -47.14030505 620.46823667 -45.2590332 618.15722656 C-45.04167229 616.07214685 -45.04167229 616.07214685 -45.2121582 613.68457031 C-45.2759668 612.33395508 -45.2759668 612.33395508 -45.34106445 610.95605469 C-45.39649414 610.01181641 -45.45192383 609.06757812 -45.5090332 608.09472656 C-45.54899414 607.17755859 -45.58895508 606.26039063 -45.63012695 605.31542969 C-46.19569113 594.28996359 -46.19569113 594.28996359 -50.6340332 584.40722656 C-62.87889072 566.03994029 -61.73260223 536.65157049 -62.83662415 515.43933105 C-63.2491118 486.2725849 -63.2491118 486.2725849 -72.20581055 459.13354492 C-76.3209602 451.71093605 -77.88473752 443.73863164 -79.72094727 435.51660156 C-80.5239722 431.99553399 -81.43431209 428.51691756 -82.3840332 425.03222656 C-82.67536133 423.93652344 -82.96668945 422.84082031 -83.2668457 421.71191406 C-84.09653605 418.85043322 -84.09653605 418.85043322 -87.2590332 417.15722656 C-91.35855655 428.43091577 -93.80481855 440.08269528 -95.70898438 451.90185547 C-98.13324771 466.84561191 -100.64749957 480.21878973 -113.2590332 490.15722656 C-120.0958706 493.67618699 -126.62427365 495.06299056 -134.10668945 492.98925781 C-139.44078485 490.92725723 -143.12479571 487.91662424 -146.2590332 483.15722656 C-146.4034082 482.27035156 -146.5477832 481.38347656 -146.6965332 480.46972656 C-146.8821582 479.70660156 -147.0677832 478.94347656 -147.2590332 478.15722656 C-148.89937513 477.4281857 -150.57205238 476.77067413 -152.2590332 476.15722656 C-158.23928898 471.34384996 -160.27223017 464.89469447 -162.8215332 457.90722656 C-165.19794928 451.57845534 -167.92769948 448.51088626 -173.4152832 444.63378906 C-175.2590332 443.15722656 -175.2590332 443.15722656 -176.7590332 440.53222656 C-179.129952 436.7782718 -182.15319397 435.4210097 -186.2590332 434.15722656 C-196.19941274 432.37098577 -206.1666639 431.75802283 -216.2590332 432.15722656 C-217.9006543 432.21910156 -217.9006543 432.21910156 -219.57543945 432.28222656 C-226.27564883 432.6481083 -232.83818488 433.46782484 -239.4465332 434.59472656 C-240.17775391 434.7169458 -240.90897461 434.83916504 -241.66235352 434.96508789 C-245.11664548 435.58992984 -247.29740757 436.18280947 -250.2590332 438.15722656 C-251.30979403 440.40046911 -251.30979403 440.40046911 -252.1340332 442.96972656 C-253.83623333 447.41720434 -255.41155057 450.1841718 -259.2590332 453.15722656 C-260.64858724 453.77569859 -262.04489107 454.37916125 -263.4465332 454.96972656 C-266.883501 456.60115781 -267.14290866 456.86163681 -268.6340332 460.65722656 C-268.8697815 462.1531629 -269.07541892 463.65400051 -269.2590332 465.15722656 C-269.41919922 466.02202637 -269.57936523 466.88682617 -269.74438477 467.77783203 C-271.30173371 476.2113211 -271.60780498 484.41855519 -271.6496582 492.97753906 C-271.8206965 500.65525816 -272.70001776 508.27853341 -278.09643555 514.15966797 C-282.50060708 518.15722656 -282.50060708 518.15722656 -285.2590332 518.15722656 C-285.2590332 518.81722656 -285.2590332 519.47722656 -285.2590332 520.15722656 C-292.69241186 522.82518865 -300.31028843 524.69150433 -308.2590332 524.15722656 C-311.1340332 522.09472656 -311.1340332 522.09472656 -313.2590332 519.15722656 C-314.43176332 518.2217384 -315.62051165 517.30610433 -316.8215332 516.40722656 C-322.26741443 511.77645554 -323.88563317 505.71698296 -325.5090332 498.96972656 C-326.88762365 494.03422042 -329.12975276 492.30972707 -333.3293457 489.58691406 C-336.43581728 487.2853582 -337.56540093 484.60721824 -339.2590332 481.15722656 C-342.24839042 475.69840034 -345.54083799 471.82575903 -351.2590332 469.21972656 C-355.5191332 467.24182299 -357.45318433 464.89835839 -360.2590332 461.15722656 C-366.11002685 454.97189042 -371.67075294 455.36801294 -379.9152832 454.98925781 C-396.0520702 454.16325334 -396.0520702 454.16325334 -410.1965332 459.99707031 C-411.39298489 462.0048658 -412.32238744 464.01941934 -413.2590332 466.15722656 C-416.93335772 469.93653178 -421.03897353 471.32848366 -425.9543457 472.93457031 C-429.04289734 474.57307313 -429.80896867 475.97561438 -431.2590332 479.15722656 C-432.11561041 482.0242325 -432.76356843 484.91861469 -433.3840332 487.84472656 C-435.16022191 495.95960398 -435.16022191 495.95960398 -436.2590332 498.15722656 C-436.48764003 499.63127183 -436.67405862 501.11200304 -436.8371582 502.59472656 C-439.26842045 522.96023159 -439.26842045 522.96023159 -445.79418945 531.06347656 C-447.4951269 533.49468315 -448.28556995 535.77582311 -449.1965332 538.59472656 C-451.42800561 544.85617152 -453.44759733 548.45460409 -459.5090332 551.46972656 C-467.55934509 554.67941331 -474.2297373 552.89469931 -482.40356445 550.91113281 C-487.29710161 549.95424054 -492.29329469 549.60865734 -497.2590332 549.15722656 C-497.2590332 480.18722656 -497.2590332 411.21722656 -497.2590332 340.15722656 C-493.9590332 340.15722656 -490.6590332 340.15722656 -487.2590332 340.15722656 C-486.65057143 336.90797892 -486.04646993 333.65805275 -485.4465332 330.40722656 C-485.26348633 329.41891846 -485.08043945 328.43061035 -484.8918457 327.41235352 C-483.99097866 322.4713655 -483.14507146 317.53629228 -482.46606445 312.55957031 C-482.34529541 311.68075195 -482.22452637 310.80193359 -482.10009766 309.89648438 C-481.87971523 308.24763889 -481.67042879 306.59725517 -481.47460938 304.9453125 C-480.4471641 297.28042475 -477.8260435 289.72423686 -472.2590332 284.15722656 C-471.43274414 283.96386719 -470.60645508 283.77050781 -469.75512695 283.57128906 C-467.17508997 282.44857182 -467.17508997 282.44857182 -466.56005859 280.46069336 C-466.02696072 278.13888026 -465.62628076 275.82349105 -465.2590332 273.46972656 C-464.94291463 271.7432076 -464.61989406 270.01793933 -464.2902832 268.29394531 C-464.1252832 267.43075684 -463.9602832 266.56756836 -463.7902832 265.67822266 C-463.00797867 261.96587126 -461.95100522 258.38145189 -460.7590332 254.78222656 C-460.3774707 253.61949219 -459.9959082 252.45675781 -459.6027832 251.25878906 C-457.4797377 246.3585038 -455.57545151 243.78939667 -450.7043457 241.45019531 C-447.46509233 239.72518492 -446.5589995 238.1836904 -445.4387207 234.70800781 C-444.97655224 232.9689339 -444.54231003 231.22223557 -444.1340332 229.46972656 C-442.03711571 220.98674217 -439.70652158 211.77824865 -432.0715332 206.59472656 C-431.39735352 206.1190625 -430.72317383 205.64339844 -430.02856445 205.15332031 C-428.2590332 204.15722656 -428.2590332 204.15722656 -426.2590332 204.15722656 C-426.08887695 203.61195313 -425.9187207 203.06667969 -425.7434082 202.50488281 C-420.17461713 185.17646377 -420.17461713 185.17646377 -412.2590332 180.15722656 C-411.4030957 179.88265625 -410.5471582 179.60808594 -409.6652832 179.32519531 C-407.05941714 178.3587007 -407.05941714 178.3587007 -406.03637695 175.76660156 C-405.75922852 174.82300781 -405.48208008 173.87941406 -405.1965332 172.90722656 C-401.55162742 161.84335901 -393.35579078 154.25398414 -385.2590332 146.15722656 C-383.68373583 144.29049918 -382.12630962 142.41251057 -380.59106445 140.51269531 C-380.15149414 140.06539062 -379.71192383 139.61808594 -379.2590332 139.15722656 C-378.5990332 139.15722656 -377.9390332 139.15722656 -377.2590332 139.15722656 C-377.0734082 138.45597656 -376.8877832 137.75472656 -376.6965332 137.03222656 C-374.73835806 133.11587628 -371.85227089 130.62334016 -368.2590332 128.15722656 C-367.5990332 128.15722656 -366.9390332 128.15722656 -366.2590332 128.15722656 C-366.01926758 127.5784375 -365.77950195 126.99964844 -365.5324707 126.40332031 C-364.00865925 123.71561605 -362.24698058 122.20193325 -359.8840332 120.21972656 C-357.41647742 118.14417378 -355.29874743 116.20708561 -353.28637695 113.68066406 C-348.26863338 107.43507186 -341.64725293 102.69187606 -334.5090332 99.15722656 C-329.5477919 96.63073383 -326.98342468 93.69257401 -323.7902832 89.20410156 C-319.86550683 83.95771682 -314.59784553 82.45307617 -308.52856445 80.86816406 C-306.01539295 80.19746408 -306.01539295 80.19746408 -303.2590332 78.15722656 C-302.40097117 76.39836911 -302.40097117 76.39836911 -301.6965332 74.40722656 C-298.67645139 68.24492728 -293.40192708 65.63271413 -287.08325195 63.38232422 C-285.46367764 62.83992586 -283.84396256 62.29794766 -282.22412109 61.75634766 C-273.79956927 58.92619299 -268.83866793 56.5980824 -263.2590332 49.38378906 C-259.28064594 44.95472512 -253.82223319 44.0800945 -248.23803711 42.63378906 C-238.85112273 40.17606299 -232.19732793 38.24176169 -225.2590332 31.15722656 C-217.59213715 25.04997746 -208.7546286 23.70229046 -199.32543945 22.19238281 C-198.25874023 22.02101807 -197.19204102 21.84965332 -196.09301758 21.6730957 C-193.93863776 21.33337895 -191.78236418 21.0054298 -189.62426758 20.69018555 C-188.11509766 20.45730835 -188.11509766 20.45730835 -186.57543945 20.21972656 C-185.22107788 20.02056641 -185.22107788 20.02056641 -183.83935547 19.81738281 C-179.41210205 18.68470297 -176.20673666 16.26372315 -172.9465332 13.15722656 C-158.10207083 0.36572175 -129.51231304 2.77491977 -111.13793945 1.66113281 C-110.11061203 1.59881973 -110.11061203 1.59881973 -109.06253052 1.5352478 C-108.37617523 1.49364532 -107.68981995 1.45204285 -106.98266602 1.40917969 C-106.29579712 1.36752686 -105.60892822 1.32587402 -104.90124512 1.28295898 C-103.51496201 1.19914895 -102.12865 1.11581547 -100.74230957 1.03295898 C-92.80990823 0.55687405 -84.90551839 -0.00081156 -77.0090332 -0.90527344 C-51.18739645 -3.81455453 -25.81260147 -2.1443156 0 0 Z M-108.2590332 58.15722656 C-111.82875566 70.06605476 -113.90959993 81.93746282 -115.2590332 94.28222656 C-115.33778687 95.00188599 -115.41654053 95.72154541 -115.49768066 96.4630127 C-115.57715942 97.19000366 -115.65663818 97.91699463 -115.73852539 98.66601562 C-115.90134382 100.15269859 -116.06443169 101.63935207 -116.2277832 103.12597656 C-116.30941711 103.86918152 -116.39105103 104.61238647 -116.47515869 105.37811279 C-117.3876061 113.53943566 -118.55084938 121.66017036 -119.7590332 129.78222656 C-119.91630386 130.84889053 -119.91630386 130.84889053 -120.07675171 131.93710327 C-121.11486266 138.96092844 -122.2021111 145.97049213 -123.46606445 152.95800781 C-123.65297852 154.00456543 -123.83989258 155.05112305 -124.0324707 156.12939453 C-124.3696529 157.98420202 -124.72034007 159.83666305 -125.09106445 161.68505859 C-127.95187801 177.32119267 -126.1218317 193.68057725 -124.8840332 209.40722656 C-124.60007113 213.13228363 -124.32022843 216.85764702 -124.0402832 220.58300781 C-123.97084503 221.49756241 -123.90140686 222.412117 -123.8298645 223.35438538 C-123.43117233 228.65535423 -123.08109487 233.95470915 -122.7902832 239.26269531 C-121.92046203 255.11242244 -120.32911195 270.76254485 -118.42034912 286.51473999 C-116.19391248 304.94266337 -114.4847431 323.35391404 -114.09887695 341.92675781 C-114.07148438 342.9918457 -114.0440918 344.05693359 -114.01586914 345.15429688 C-113.97127377 347.12591483 -113.94803794 349.09819316 -113.95141602 351.0703125 C-113.85474434 355.62405711 -113.74998202 357.53620407 -110.84106445 361.21582031 C-108.44273161 363.14040861 -108.44273161 363.14040861 -106.2590332 364.15722656 C-103.91297904 363.36628815 -101.71171364 362.51264312 -99.4465332 361.53222656 C-98.8297168 361.2834375 -98.21290039 361.03464844 -97.57739258 360.77832031 C-93.21546033 358.91488061 -90.46042126 356.60572004 -87.2590332 353.15722656 C-73.69541694 342.34067182 -54.7396639 344.09395049 -38.3840332 344.03222656 C-36.83401611 344.02509644 -36.83401611 344.02509644 -35.25268555 344.01782227 C-29.37023907 344.0305426 -23.59560015 344.31174212 -17.74560547 344.93676758 C-13.90718468 345.27708117 -10.11011632 345.22035907 -6.2590332 345.15722656 C-2.57299644 339.55445068 -3.14772174 335.44604339 -4.2590332 329.15722656 C-4.52393555 327.52914062 -4.52393555 327.52914062 -4.79418945 325.86816406 C-6.00864603 319.54135433 -7.26574845 315.45854665 -11.7746582 310.86035156 C-20.50850821 300.83940787 -20.38249932 282.60632359 -21.56942749 270.0921936 C-21.97397128 250.782018 -21.97397128 250.782018 -29.6965332 234.21972656 C-30.27274414 233.79820312 -30.84895508 233.37667969 -31.44262695 232.94238281 C-36.15284765 228.31319817 -37.95579347 221.65347375 -39.2590332 215.34472656 C-39.42072998 214.60134033 -39.58242676 213.8579541 -39.74902344 213.09204102 C-41.52184374 204.56317615 -42.67242881 195.92229693 -43.77661133 187.28491211 C-43.92678711 186.17414307 -44.07696289 185.06337402 -44.23168945 183.91894531 C-44.35809814 182.92854248 -44.48450684 181.93813965 -44.61474609 180.91772461 C-45.72509352 176.16035503 -48.18917222 173.1023867 -51.6340332 169.78222656 C-58.34510867 162.22164787 -60.12663593 151.60689803 -61.8215332 141.90722656 C-63.6307488 131.57594736 -65.49664176 124.25102781 -73.36450195 117.04003906 C-77.62491406 112.80598002 -79.19456344 107.66400752 -80.6965332 101.96972656 C-81.21514119 100.03162972 -81.73608726 98.09415742 -82.2590332 96.15722656 C-82.65735352 94.60455078 -82.65735352 94.60455078 -83.0637207 93.02050781 C-85.65848168 84.68307815 -89.68486487 80.47135045 -96.15136719 74.9909668 C-101.75602666 70.10395439 -104.252212 65.38960167 -106.2590332 58.15722656 C-106.9190332 58.15722656 -107.5790332 58.15722656 -108.2590332 58.15722656 Z M-27.2590332 71.15722656 C-30.30485157 75.03777564 -30.30485157 75.03777564 -31.1965332 79.65722656 C-29.16440002 85.07624839 -27.40100094 88.04905078 -22.80981445 91.63769531 C-16.08762914 98.22442097 -14.52338373 108.95073242 -12.72875977 117.76025391 C-12.33117915 119.70945739 -11.92633178 121.65719028 -11.51489258 123.60351562 C-11.10082373 125.5668173 -10.7031183 127.533656 -10.32348633 129.50390625 C-9.1108776 135.22653318 -7.90037563 138.29781045 -3.2590332 142.15722656 C6.61291788 154.30553342 7.24759585 172.47518528 9.34692383 187.38574219 C9.50016113 188.45115234 9.65339844 189.5165625 9.8112793 190.61425781 C9.9429248 191.56276611 10.07457031 192.51127441 10.21020508 193.48852539 C11.36662189 199.30305722 13.13135888 201.54239725 17.7409668 205.15722656 C26.89100711 218.39737707 27.16525066 235.55960565 28.56396484 251.04589844 C29.690751 264.8474146 29.690751 264.8474146 36.4128418 276.47363281 C44.44576363 286.65654254 45.42048806 301.68432132 46.4128418 314.12207031 C46.50092606 315.18915726 46.50092606 315.18915726 46.59078979 316.27780151 C46.88835185 319.90075268 47.16013742 323.5223709 47.38793945 327.15039062 C47.4917722 328.51080519 47.59639486 329.87115976 47.7019043 331.23144531 C47.78230957 332.44405029 47.86271484 333.65665527 47.94555664 334.90600586 C48.92677342 338.91670684 50.63718605 340.52240487 53.7409668 343.15722656 C60.03326777 339.3051101 60.03326777 339.3051101 65.1784668 334.09472656 C77.22295923 320.28762548 105.92509745 320.65750603 122.92871094 319.49389648 C131.48394789 319.00768592 139.66718563 319.26744619 148.14648438 320.57006836 C152.69202752 321.29929296 152.69202752 321.29929296 156.7409668 319.15722656 C157.02277446 316.56338396 157.11780512 314.24640129 157.0534668 311.65722656 C157.0436377 310.93688232 157.03380859 310.21653809 157.02368164 309.47436523 C156.88945382 303.87254912 156.25873907 298.56562636 154.7409668 293.15722656 C154.4934668 292.22910156 154.2459668 291.30097656 153.9909668 290.34472656 C152.79264794 287.91174115 152.79264794 287.91174115 149.9909668 286.09472656 C141.5851661 279.36599559 139.61336141 267.68012782 137.47705078 257.71972656 C135.47023124 246.89884104 135.47023124 246.89884104 128.8034668 238.65722656 C121.79544932 232.94319403 120.25635429 225.71826974 117.72924805 217.27832031 C115.90752458 211.52513038 114.16314754 207.0883414 109.3659668 203.28222656 C102.00319461 197.40464876 99.42306027 189.71162312 97.4362793 180.79394531 C96.10820044 175.75769122 93.40519146 173.43427921 89.1159668 170.84472656 C86.07171852 169.00815536 86.07171852 169.00815536 83.7409668 169.15722656 C82.35133436 166.45110024 81.14463917 163.72056796 79.9909668 160.90722656 C77.21464722 154.62942932 73.55082552 148.97580306 67.7409668 145.15722656 C67.0809668 145.15722656 66.4209668 145.15722656 65.7409668 145.15722656 C65.4934668 144.62097656 65.2459668 144.08472656 64.9909668 143.53222656 C58.8973641 131.95438145 48.78512315 122.91100353 39.3034668 114.09472656 C38.75625977 113.57845703 38.20905273 113.0621875 37.64526367 112.53027344 C35.00491832 110.07740823 32.49402405 107.99407323 29.47143555 105.99707031 C26.94985103 104.29797688 25.91832001 103.35872008 24.4909668 100.78222656 C20.84609924 95.33239264 14.95929494 92.57026638 9.08081055 89.98925781 C3.13803419 87.36296298 0.20417085 84.84560391 -3.00512695 79.14550781 C-4.66497587 76.51353553 -6.44592346 75.37922422 -9.43554688 74.56298828 C-10.66881714 74.32733154 -10.66881714 74.32733154 -11.92700195 74.08691406 C-13.26601563 73.82587891 -13.26601563 73.82587891 -14.63208008 73.55957031 C-15.56084961 73.38554687 -16.48961914 73.21152344 -17.4465332 73.03222656 C-18.3869043 72.85046875 -19.32727539 72.66871094 -20.29614258 72.48144531 C-22.61601149 72.03395791 -24.9369038 71.59280415 -27.2590332 71.15722656 Z M86.3659668 75.09472656 C85.49198242 75.475 84.61799805 75.85527344 83.7175293 76.24707031 C82.73913086 76.69759766 82.73913086 76.69759766 81.7409668 77.15722656 C82.82392381 80.4060976 83.47043928 80.98571654 86.0534668 83.03222656 C88.3573326 84.92233688 90.05233287 86.5486582 91.9284668 88.90722656 C93.53589694 91.23953377 93.53589694 91.23953377 95.7409668 92.09472656 C98.76728428 93.70245772 99.90562213 96.2962481 101.7409668 99.15722656 C102.6879953 100.20918152 103.64713366 101.25031835 104.6159668 102.28222656 C107.36353221 105.35102475 108.84356094 108.45489228 110.4909668 112.21972656 C113.18266742 117.95205197 115.95094087 119.91256559 121.47143555 122.74316406 C125.18917751 125.05955406 126.33745977 128.14184551 127.7409668 132.15722656 C128.01295898 132.8778125 128.28495117 133.59839844 128.56518555 134.34082031 C129.29396342 136.27830296 130.01774038 138.21766482 130.7409668 140.15722656 C133.11192627 143.71366577 134.82827512 144.21390127 138.6706543 145.70410156 C144.75516433 149.97473879 147.07548538 159.63182178 149.65307617 166.30566406 C151.65397539 171.26252682 153.58312972 174.61361541 157.7409668 178.15722656 C164.14261712 183.62205001 166.01735406 190.55389629 168.3034668 198.40722656 C169.87107779 203.73543626 171.11967386 207.87957724 175.6159668 211.42285156 C183.56793186 217.90476599 186.27126779 229.13805088 188.0847168 238.76660156 C189.85061551 247.89041161 191.93010744 253.90871806 198.84643555 260.19628906 C207.32385695 268.9708572 207.63898933 286.52506977 209.1159668 298.09472656 C209.91227904 301.99665654 211.27318646 305.45586746 212.7409668 309.15722656 C227.11095993 309.40507443 227.11095993 309.40507443 240.25268555 304.46972656 C243.48431124 302.76513279 246.82816646 302.11836462 250.3659668 301.34472656 C256.70537537 299.78857396 259.83862548 297.84390272 264.08081055 292.98925781 C269.74216656 286.74178494 279.85418817 286.67591605 287.7409668 286.15722656 C289.93466271 286.0994351 292.12877217 286.05626422 294.32299805 286.02441406 C296.06166138 285.99178467 296.06166138 285.99178467 297.83544922 285.95849609 C300.16219961 285.92470745 302.489503 285.91724323 304.81640625 285.93798828 C310.47655624 285.96465723 310.47655624 285.96465723 315.65795898 284.01855469 C317.36391707 282.40059569 317.36391707 282.40059569 318.7409668 279.15722656 C318.76606993 275.70830017 318.76606993 275.70830017 317.7409668 272.15722656 C317.51651684 270.83396201 317.29791814 269.50969372 317.0847168 268.18457031 C315.73903863 260.44522325 315.73903863 260.44522325 311.6159668 253.99707031 C310.05991379 253.03733367 308.47045976 252.12934707 306.8503418 251.28222656 C301.05975034 248.19391112 299.25013354 240.82484152 296.98706055 235.05957031 C294.98742397 230.40210957 293.03017988 227.11818536 288.9909668 224.03222656 C282.20916877 218.27080915 278.34943348 211.08553395 275.4284668 202.78222656 C273.63555772 198.15054478 272.19435165 196.32581906 267.6784668 194.21972656 C266.80834961 193.86394531 265.93823242 193.50816406 265.04174805 193.14160156 C261.78905203 191.74995573 260.50397298 190.20858341 258.7409668 187.15722656 C258.08205377 185.45389539 257.43737469 183.74502084 256.8034668 182.03222656 C255.34644729 178.17866452 255.34644729 178.17866452 252.4909668 175.28222656 C251.1297168 174.72535156 251.1297168 174.72535156 249.7409668 174.15722656 C242.48961005 171.04536688 239.23638126 167.80091797 236.1159668 160.40722656 C234.97317343 157.13896312 234.97317343 157.13896312 232.7409668 155.15722656 C230.98546302 154.50986688 229.21154379 153.91174022 227.4284668 153.34472656 C222.74056471 151.67397295 219.79687302 150.23176819 216.7409668 146.15722656 C216.53729492 145.54621094 216.33362305 144.93519531 216.1237793 144.30566406 C215.03997173 141.15166225 214.05276167 138.93255376 211.08374023 137.17773438 C207.65402899 135.52815007 204.14199342 134.1540998 200.58862305 132.79785156 C197.1095642 131.42453886 194.54694715 129.66627778 191.7409668 127.15722656 C191.1325293 126.65320313 190.5240918 126.14917969 189.8972168 125.62988281 C187.21931152 123.34987384 184.70166282 121.11489921 182.3034668 118.53222656 C177.57398165 114.14880131 172.11265876 112.26390038 166.0534668 110.28222656 C159.92612706 108.12113164 157.36801074 105.4493776 154.46777344 99.58105469 C152.25460919 96.47455183 150.78611772 96.1693399 147.11206055 95.31347656 C145.99379883 95.03632813 144.87553711 94.75917969 143.72338867 94.47363281 C142.55356445 94.20421875 141.38374023 93.93480469 140.1784668 93.65722656 C119.34804222 88.7462748 119.34804222 88.7462748 115.41479492 83.33154297 C115.10993164 82.75839355 114.80506836 82.18524414 114.4909668 81.59472656 C111.55919054 76.73665689 106.4099793 76.18429172 101.21362305 74.88378906 C100.06764648 74.64402344 98.92166992 74.40425781 97.7409668 74.15722656 C96.71616211 73.91875 95.69135742 73.68027344 94.63549805 73.43457031 C91.2603026 73.11117102 89.44080544 73.72351473 86.3659668 75.09472656 Z M-187.2590332 94.15722656 C-190.56648359 96.75593758 -191.80302882 99.30091648 -193.1965332 103.15722656 C-194.84278422 107.49214237 -196.15859374 109.73423961 -200.2590332 112.15722656 C-200.91645508 112.4446875 -201.57387695 112.73214844 -202.2512207 113.02832031 C-206.99651182 115.10985527 -206.99651182 115.10985527 -210.0090332 119.28222656 C-210.44885958 120.56619177 -210.86356939 121.8589114 -211.2590332 123.15722656 C-214.70600752 133.30761326 -219.82189313 141.45469588 -228.2590332 148.15722656 C-231.34912197 153.1200964 -232.80174686 158.01493414 -234.1965332 163.65722656 C-236.02119113 170.98738001 -238.38954929 176.35773007 -243.8215332 181.65722656 C-249.41705891 187.39622729 -251.26298703 194.90184089 -253.33325195 202.43383789 C-254.98798501 208.16640512 -256.93273857 211.74276209 -262.0793457 214.87207031 C-265.42993869 216.22630261 -268.58874562 217.02882976 -272.1340332 217.71972656 C-276.12351042 218.50164728 -279.95635073 219.34314367 -283.8215332 220.59472656 C-287.2590332 221.15722656 -287.2590332 221.15722656 -289.8840332 219.53222656 C-290.6677832 218.74847656 -291.4515332 217.96472656 -292.2590332 217.15722656 C-293.2696582 216.60035156 -294.2802832 216.04347656 -295.3215332 215.46972656 C-300.36319875 211.50075581 -302.04824122 206.29168818 -302.9387207 200.06738281 C-303.47321883 194.54043263 -302.83374014 189.26126622 -302.0715332 183.78222656 C-301.93424805 182.76725098 -301.79696289 181.75227539 -301.65551758 180.70654297 C-300.5031237 172.75118391 -298.88931182 165.51033767 -294.6965332 158.57128906 C-293.13746153 156.14862931 -293.13746153 156.14862931 -292.2590332 153.15722656 C-291.3102832 152.78597656 -290.3615332 152.41472656 -289.3840332 152.03222656 C-285.44605129 149.66943741 -284.84542974 147.81882525 -283.6652832 143.51269531 C-283.0758241 140.09496611 -283.24532449 137.46867504 -284.2590332 134.15722656 C-286.25504981 132.94266266 -286.25504981 132.94266266 -288.2590332 132.15722656 C-293.75272551 135.36110543 -293.75272551 135.36110543 -297.1418457 140.48925781 C-297.41641602 141.68615234 -297.41641602 141.68615234 -297.6965332 142.90722656 C-298.30200195 145.25488281 -298.30200195 145.25488281 -299.2590332 147.15722656 C-301.49241062 148.09497327 -303.52017536 148.34611707 -305.91918945 148.64550781 C-309.34887145 149.39557182 -311.15656789 151.27858149 -313.64575195 153.65332031 C-315.2590332 155.15722656 -315.2590332 155.15722656 -318.2590332 157.09472656 C-324.54710387 161.41777515 -329.05499775 167.06872548 -333.64575195 173.09472656 C-336.09463736 176.225505 -338.74637031 179.01385226 -341.9230957 181.41503906 C-347.87235849 186.09120858 -351.80106145 191.87203363 -355.95849609 198.11523438 C-358.71781806 202.20903142 -361.232806 205.20979708 -365.2590332 208.15722656 C-369.41612909 211.81473081 -371.23263792 214.91370569 -373.1340332 220.09472656 C-376.43068241 228.4659809 -380.76956349 231.66354473 -388.2590332 236.15722656 C-390.50468138 239.52569883 -391.08402709 242.1634506 -392.0090332 246.09472656 C-394.2424479 254.86566512 -396.75146757 264.06802399 -404.4465332 269.53222656 C-405.10008789 269.91121094 -405.75364258 270.29019531 -406.42700195 270.68066406 C-411.0945154 274.44254058 -411.83658881 280.23110682 -412.6965332 285.84472656 C-414.24337882 294.87647659 -416.30767109 303.9434543 -422.2590332 311.15722656 C-423.91165159 312.18027604 -425.57694686 313.1833871 -427.2590332 314.15722656 C-429.07858536 317.11006944 -429.69757486 319.87379407 -430.22387695 323.27832031 C-430.46170898 324.79002808 -430.46170898 324.79002808 -430.7043457 326.33227539 C-430.86676758 327.40888428 -431.02918945 328.48549316 -431.1965332 329.59472656 C-431.37055664 330.70549561 -431.54458008 331.81626465 -431.72387695 332.96069336 C-432.5554119 338.31866742 -433.34120931 343.67928655 -434.04418945 349.05566406 C-436.02760013 364.19560944 -439.7761711 376.73288216 -447.3762207 390.12597656 C-449.9225096 395.98469437 -449.4747207 402.63661705 -449.5090332 408.90722656 C-449.5296582 409.865 -449.5502832 410.82277344 -449.5715332 411.80957031 C-449.57668945 412.72351563 -449.5818457 413.63746094 -449.5871582 414.57910156 C-449.59650391 415.41022461 -449.60584961 416.24134766 -449.61547852 417.09765625 C-449.49785156 417.77731445 -449.38022461 418.45697266 -449.2590332 419.15722656 C-448.2690332 419.81722656 -447.2790332 420.47722656 -446.2590332 421.15722656 C-442.11280447 418.24366043 -440.45936976 415.65356649 -438.2590332 411.15722656 C-434.71057969 407.60877305 -430.37566038 407.0119016 -425.6340332 406.03222656 C-424.87735352 405.86335938 -424.12067383 405.69449219 -423.34106445 405.52050781 C-411.92786237 403.06792462 -400.65451265 402.99955356 -389.03125 403.02685547 C-386.35907143 403.03215216 -383.68706561 403.02692004 -381.01489258 403.02050781 C-379.25382443 403.02087353 -377.49275622 403.02217308 -375.73168945 403.02441406 C-374.43057724 403.02341705 -374.43057724 403.02341705 -373.10317993 403.0223999 C-368.69344762 403.04386195 -364.34641774 403.19896714 -359.95385742 403.59960938 C-359.10053329 403.67132355 -358.24720917 403.74303772 -357.36802673 403.81692505 C-355.76197129 403.96095556 -354.15799348 404.13183452 -352.55836487 404.33517456 C-348.29881966 404.71008615 -345.74847175 404.27853055 -342.25854492 401.70239258 C-339.79923215 399.28225719 -338.80246374 397.58114514 -338.49609375 394.14086914 C-338.51044126 392.6104194 -338.56249093 391.0800084 -338.64575195 389.55175781 C-338.6613063 388.72326324 -338.67686066 387.89476868 -338.69288635 387.04116821 C-338.72906397 385.26884722 -338.7806536 383.49678505 -338.84631348 381.72531128 C-339.0153926 377.07640757 -339.06364827 372.42571286 -339.13012695 367.77441406 C-339.14645172 366.85387741 -339.16277649 365.93334076 -339.17959595 364.98490906 C-339.55056352 341.8837113 -339.68226489 309.8464336 -326.2590332 290.15722656 C-325.04664937 286.46188696 -325.04664937 286.46188696 -324.1965332 282.59472656 C-323.08493787 277.85732671 -321.87327793 274.25262977 -319.2590332 270.15722656 C-319.2590332 269.49722656 -319.2590332 268.83722656 -319.2590332 268.15722656 C-317.59236654 267.4905599 -315.92569987 266.82389323 -314.2590332 266.15722656 C-313.48043945 265.80144531 -312.7018457 265.44566406 -311.8996582 265.07910156 C-303.79265709 262.24884674 -293.7808289 265.88018692 -286.2590332 269.15722656 C-280.58131204 272.48785827 -278.13291868 277.24774278 -276.2746582 283.43457031 C-273.21953015 298.03995289 -274.56917016 312.26541478 -276.00512695 327.02050781 C-276.07144821 327.70282471 -276.13776947 328.3851416 -276.20610046 329.08813477 C-276.27327774 329.77818604 -276.34045502 330.4682373 -276.40966797 331.17919922 C-276.47743439 331.87571594 -276.54520081 332.57223267 -276.61502075 333.28985596 C-276.75238662 334.69826714 -276.89062734 336.10659327 -277.02975464 337.51483154 C-278.38866509 351.42666971 -278.59950276 365.17702273 -278.2590332 379.15722656 C-269.7584212 384.427606 -264.14003358 384.36227412 -254.5090332 382.15722656 C-253.03394287 381.82307739 -253.03394287 381.82307739 -251.52905273 381.48217773 C-244.20718825 379.686743 -238.98834247 377.08046418 -233.2590332 372.15722656 C-228.79438363 369.50855549 -224.34957328 369.4460039 -219.2590332 369.15722656 C-218.17879883 369.09148437 -217.09856445 369.02574219 -215.9855957 368.95800781 C-204.70458775 368.59042441 -195.09227171 370.99191236 -185.1340332 376.28222656 C-179.46300586 379.2854319 -173.72501552 381.07297924 -167.2590332 381.15722656 C-165.0775915 379.38234525 -165.0775915 379.38234525 -164.9934082 377.11816406 C-165.05880704 366.29465578 -165.71383875 355.62604573 -169.6340332 345.46972656 C-175.00893613 331.35270211 -176.51562743 316.35691415 -177.9465332 301.40722656 C-178.06593262 300.17311035 -178.18533203 298.93899414 -178.30834961 297.66748047 C-180.22413374 276.05044877 -180.41250208 254.36342875 -180.3918457 232.67675781 C-180.39252221 230.11960338 -180.39349509 227.56244901 -180.39474487 225.0052948 C-180.39620477 219.69175534 -180.39422244 214.37823344 -180.3894043 209.06469727 C-180.38395782 202.98944371 -180.3857368 196.91422372 -180.3912307 190.83897096 C-180.39637694 184.90215779 -180.39575479 178.96535472 -180.39284897 173.02853966 C-180.39219092 170.54311811 -180.39296792 168.05769568 -180.39532852 165.57227516 C-180.4054516 151.93028719 -180.20901469 138.34279288 -179.48265076 124.71876526 C-179.17663863 118.90430879 -179.14308162 113.10433798 -179.1965332 107.28222656 C-179.20330078 105.785625 -179.20330078 105.785625 -179.21020508 104.25878906 C-179.22158592 101.89157297 -179.23948782 99.52438933 -179.2590332 97.15722656 C-183.2190332 95.67222656 -183.2190332 95.67222656 -187.2590332 94.15722656 Z " fill="#000000" transform="translate(497.259033203125,171.8427734375)"/>
<path d="M0 0 C3.4752081 2.23359311 6.04258496 4.71092202 8.06640625 8.328125 C8.46859375 10.184375 8.46859375 10.184375 8.87890625 12.078125 C9.66938851 15.40637328 9.66938851 15.40637328 11.96875 16.2578125 C13.55710759 16.7282412 15.15122244 17.17958397 16.75 17.61328125 C20.45898482 18.75787522 22.45979414 20.47903734 25.06640625 23.328125 C27.10637517 27.29010546 28.50535775 31.42870941 29.765625 35.6953125 C31.2895802 40.78690849 33.30300889 44.33961003 36.65234375 48.47265625 C38.06640625 50.328125 38.06640625 50.328125 39.69140625 53.703125 C40.85186696 56.3375241 40.85186696 56.3375241 42.75390625 57.703125 C49.71553575 59.58464649 54.49365307 58.21624866 60.69140625 54.890625 C63.67915905 52.92499816 65.87569554 50.57895112 68.29296875 47.96875 C79.62479242 37.48556511 102.10526894 38.00462643 116.48291016 38.39624023 C148.2375399 39.76434719 148.2375399 39.76434719 158.06640625 47.328125 C159.50059313 49.06908982 160.68865138 50.84916724 161.88671875 52.7578125 C165.11654197 57.05711361 171.27865864 57.62634979 176.19140625 58.765625 C184.22302601 60.75096921 184.22302601 60.75096921 187.06640625 64.328125 C187.51650402 66.0070173 187.92969873 67.69600863 188.31640625 69.390625 C188.90361117 72.04883082 188.90361117 72.04883082 190.06640625 74.328125 C192.30636393 75.63985119 194.33066528 76.1765184 196.84765625 76.78125 C200.13579751 77.59170735 201.81389568 78.81061319 204.06640625 81.328125 C205.75213026 85.06736736 206.72662186 88.9966443 207.73828125 92.9609375 C209.21545594 98.45930997 210.56062961 101.57331114 215.06640625 105.328125 C224.01062957 113.42051753 225.15259859 124.83375514 226.06640625 136.328125 C226.29799404 141.76692909 226.36982775 147.19739314 226.37890625 152.640625 C226.3841481 153.64946243 226.3841481 153.64946243 226.38949585 154.67868042 C226.43967914 172.10343355 225.63906366 187.94901933 213.1953125 200.92578125 C208.42224921 206.31189855 206.33742417 212.14007557 206.76171875 219.328125 C207.23849013 222.45770127 207.90486991 223.97008536 210.06640625 226.328125 C212.23008495 227.72055021 214.42481131 228.94462793 216.71484375 230.1171875 C219.06640625 231.328125 219.06640625 231.328125 221.359375 232.828125 C225.36558857 235.04801823 229.69449876 236.0907331 234.09570312 237.2578125 C239.96338664 238.94859524 244.23180281 241.330952 247.52734375 246.71484375 C247.97980469 247.85373047 247.97980469 247.85373047 248.44140625 249.015625 C248.75851562 249.78261719 249.075625 250.54960937 249.40234375 251.33984375 C250.06640625 253.328125 250.06640625 253.328125 250.06640625 255.328125 C250.64648438 255.46347656 251.2265625 255.59882813 251.82421875 255.73828125 C258.14158572 257.47920581 261.56640158 259.79061066 265.06640625 265.328125 C268.08028248 271.90616616 268.55797829 278.23836845 268.50390625 285.390625 C268.52388672 286.33228516 268.54386719 287.27394531 268.56445312 288.24414062 C268.56013418 294.45045977 267.67535214 299.18844728 264.06640625 304.328125 C262.171875 306.16796875 262.171875 306.16796875 260.25390625 307.265625 C259.62871094 307.64589844 259.00351563 308.02617187 258.359375 308.41796875 C251.85108138 311.00132891 245.7190999 310.17258126 239.00390625 309.140625 C238.13185547 309.02654297 237.25980469 308.91246094 236.36132812 308.79492188 C229.67744537 307.79815813 225.53720968 306.08961119 220.94140625 300.953125 C219.60802673 299.08639367 218.32075796 297.18635106 217.06640625 295.265625 C213.68034483 290.29234728 210.69917779 287.9139222 205.1640625 285.74609375 C198.88287316 281.50015012 196.94657328 274.87773253 195.25390625 267.890625 C195.03798828 267.08302734 194.82207031 266.27542969 194.59960938 265.44335938 C192.34099898 256.54515142 192.57677401 248.91232582 196.06640625 240.328125 C198.12890625 237.203125 198.12890625 237.203125 200.06640625 235.328125 C200.72640625 235.328125 201.38640625 235.328125 202.06640625 235.328125 C200.34414129 232.07962523 200.34414129 232.07962523 197.06640625 231.328125 C192.45270104 230.79771172 192.45270104 230.79771172 188.4296875 232.6015625 C186.56566035 234.96230749 185.99550305 237.32926425 185.203125 240.1953125 C182.92523977 244.46928272 179.90204109 246.70054888 175.41137695 248.23583984 C172.24507129 249.07173838 169.06756803 249.83222553 165.87890625 250.578125 C156.98689431 252.83586984 151.11474746 254.82230465 144.515625 261.2578125 C139.81537103 265.23091394 133.85097055 266.51533445 128.06640625 268.328125 C125.62171809 269.22544537 123.18373846 270.14132222 120.75390625 271.078125 C119.15095703 271.68914062 119.15095703 271.68914062 117.515625 272.3125 C115.16115707 273.10593381 115.16115707 273.10593381 114.06640625 274.328125 C114.97261719 274.61945313 115.87882812 274.91078125 116.8125 275.2109375 C127.3176084 278.74598985 137.81132712 282.81796675 143.06640625 293.328125 C144.17403478 302.48487501 144.30617566 311.74058335 144.37890625 320.953125 C144.40791016 322.18546875 144.43691406 323.4178125 144.46679688 324.6875 C144.54252845 335.66275305 142.67781796 344.32754821 134.91796875 352.3515625 C132.93245334 354.47112115 131.31447724 356.71524694 129.62890625 359.078125 C125.62535598 364.31979353 121.18149999 366.28976042 115.06640625 368.328125 C109.13992405 368.90915267 104.81068839 367.85875357 100.06640625 364.328125 C95.71876036 359.42671392 93.72415273 353.0993173 91.328125 347.10546875 C89.69917549 343.51976256 87.76475854 341.17233417 85.06640625 338.328125 C82.00168789 333.73104746 82.68347526 329.11642395 82.69140625 323.703125 C82.69382324 322.02343628 82.69382324 322.02343628 82.69628906 320.30981445 C82.79512139 313.54803587 83.27124647 307.10584237 84.81640625 300.515625 C84.97318848 299.83612793 85.1299707 299.15663086 85.29150391 298.45654297 C86.39553147 294.34210849 87.92350059 292.13562175 91.06640625 289.328125 C91.68515625 288.19375 92.30390625 287.059375 92.94140625 285.890625 C96.42690341 279.55705624 101.66187798 276.96572954 108.06640625 274.328125 C105.58853157 273.07550614 103.10941085 271.82551939 100.62890625 270.578125 C99.89623535 270.20905029 99.16356445 269.83997559 98.40869141 269.4597168 C94.62767796 267.56669888 90.84908008 265.76153618 86.94140625 264.140625 C82.41852099 262.18991494 78.97055974 259.49235301 75.69897461 255.77392578 C73.65808758 253.96651842 71.94360125 253.47506486 69.3203125 252.7578125 C68.40056641 252.50128906 67.48082031 252.24476563 66.53320312 251.98046875 C65.57478516 251.72394531 64.61636719 251.46742188 63.62890625 251.203125 C62.67435547 250.93886719 61.71980469 250.67460937 60.73632812 250.40234375 C58.1828008 249.69829213 55.62733709 249.00471859 53.06640625 248.328125 C52.04148071 248.02672607 52.04148071 248.02672607 50.99584961 247.71923828 C47.93678824 247.09914258 45.10853318 247.80160303 42.06640625 248.328125 C41.90785156 248.90820312 41.74929688 249.48828125 41.5859375 250.0859375 C39.76885621 256.16964614 37.60607318 260.43458775 32.58984375 264.53515625 C29.91408027 267.68432404 28.8571882 271.76044189 27.4921875 275.61523438 C25.32402279 281.406669 22.80590195 285.88551822 17.12890625 288.875 C16.11828125 289.27203125 15.10765625 289.6690625 14.06640625 290.078125 C8.26298176 292.76043949 6.60229529 295.18073656 4.27734375 300.984375 C1.80519928 305.76917076 -3.02595406 307.6922451 -7.93359375 309.328125 C-11.65740679 309.63704155 -15.38598645 309.65199099 -19.12109375 309.703125 C-20.13751953 309.74050781 -21.15394531 309.77789062 -22.20117188 309.81640625 C-29.04060256 309.89588317 -33.8398256 309.09853749 -38.93359375 304.328125 C-44.23146607 298.54669398 -44.66110899 292.91886057 -44.43359375 285.328125 C-44.43746094 283.90886719 -44.43746094 283.90886719 -44.44140625 282.4609375 C-44.33955285 275.10712236 -43.31140462 268.73968056 -38.24609375 263.078125 C-35.94011959 260.91520134 -33.86497164 259.83532067 -30.93359375 258.703125 C-26.80728522 256.8666051 -25.75410096 254.44224295 -23.93359375 250.390625 C-19.59248112 240.89084271 -12.77383119 239.20729016 -3.44384766 235.70654297 C1.41863364 233.80234595 4.74091036 231.44959576 8.4140625 227.80859375 C10.70827417 225.75302349 13.09565966 224.99654298 16.06640625 224.328125 C18.31194626 217.33357132 18.07575636 212.93506659 15.20703125 206.203125 C13.99217922 203.14103221 13.30768065 200.17335703 12.62890625 196.953125 C11.44321114 191.96679639 10.01323476 189.71112087 6.06640625 186.328125 C2.02265222 180.78986757 -0.83632311 174.59805847 -3.68359375 168.390625 C-4.46821175 166.69315855 -5.25457447 164.99649709 -6.04296875 163.30078125 C-6.38295898 162.56093994 -6.72294922 161.82109863 -7.07324219 161.05883789 C-7.81073617 159.34484119 -7.81073617 159.34484119 -8.93359375 158.328125 C-9.42859375 159.50375 -9.92359375 160.679375 -10.43359375 161.890625 C-13.97437157 168.98473659 -20.42640197 173.14493029 -26.93359375 177.328125 C-27.59359375 177.988125 -28.25359375 178.648125 -28.93359375 179.328125 C-37.94370009 182.70304456 -47.74980855 182.75937363 -57.24609375 182.953125 C-58.44991699 183.00033691 -59.65374023 183.04754883 -60.89404297 183.09619141 C-68.35258295 183.14058133 -72.34985488 182.14993996 -77.89331055 177.11914062 C-81.50778304 173.94625918 -85.8814604 172.27934849 -90.24609375 170.35742188 C-95.96517179 167.69184384 -99.05217426 164.49233051 -102.30859375 159.015625 C-103.64358718 153.27515327 -102.71646713 148.14692345 -99.74609375 143.078125 C-97.24605159 139.44434279 -94.52351397 136.88095716 -90.93359375 134.328125 C-90.27359375 134.328125 -89.61359375 134.328125 -88.93359375 134.328125 C-88.67707031 133.73128906 -88.42054688 133.13445312 -88.15625 132.51953125 C-86.81111105 130.10859531 -85.56177138 128.92522926 -83.37109375 127.265625 C-82.75105469 126.77964844 -82.13101563 126.29367188 -81.4921875 125.79296875 C-73.82211364 121.40170509 -66.57598871 120.89974055 -57.87109375 121.078125 C-56.77361816 121.09198242 -55.67614258 121.10583984 -54.54541016 121.12011719 C-51.34071399 121.16997742 -48.13759515 121.24566719 -44.93359375 121.328125 C-44.07491699 121.34359375 -43.21624023 121.3590625 -42.33154297 121.375 C-27.59862317 121.67021192 -27.59862317 121.67021192 -21.93359375 126.328125 C-18.18865211 130.46254057 -15.57356828 134.49453502 -13.18359375 139.515625 C-12.88066406 140.13115234 -12.57773437 140.74667969 -12.265625 141.38085938 C-10.98719339 144.00306466 -9.85717508 146.55738101 -8.93359375 149.328125 C-6.49124161 144.83246797 -4.23110366 140.33828243 -2.58203125 135.48828125 C1.49859678 123.48941224 1.49859678 123.48941224 6.50390625 118.390625 C13.5208694 110.7110144 14.93992632 99.88819158 17.22607422 90.01611328 C18.58381762 85.67307005 19.98023732 82.96565894 23.94140625 80.640625 C25.8889078 79.82267435 27.84605802 79.02689591 29.81640625 78.265625 C32.21428675 77.4340777 32.21428675 77.4340777 34.06640625 75.328125 C34.20311083 73.17819023 34.20311083 73.17819023 33.87890625 70.828125 C33.80285156 70.0340625 33.72679687 69.24 33.6484375 68.421875 C33.20682156 65.95006088 33.20682156 65.95006088 30.06640625 64.328125 C30.06640625 64.988125 30.06640625 65.648125 30.06640625 66.328125 C28.5078887 67.14823812 26.94438909 67.95888713 25.37890625 68.765625 C24.50878906 69.21808594 23.63867188 69.67054687 22.7421875 70.13671875 C14.34886244 73.87389268 6.05563619 72.42700132 -2.49609375 70.140625 C-3.71329102 69.84575195 -3.71329102 69.84575195 -4.95507812 69.54492188 C-11.22533284 67.90018194 -16.71270551 65.58580546 -20.46484375 60.08203125 C-20.78453125 59.35886719 -21.10421875 58.63570312 -21.43359375 57.890625 C-24.43048532 51.97544886 -28.63354185 48.81639388 -34.12109375 45.265625 C-39.78129289 41.3663767 -42.04555726 36.88565512 -43.34375 30.22314453 C-46.38301885 11.10107799 -46.38301885 11.10107799 -40.93359375 3.328125 C-31.74540703 -6.09565625 -11.30671553 -5.15426519 0 0 Z M95.06640625 100.328125 C87.83665237 105.02454194 81.03658605 108.29046345 72.68359375 110.50390625 C69.94014378 111.14635421 69.94014378 111.14635421 68.06640625 113.328125 C67.32210429 116.05820134 66.66409569 118.75364606 66.06640625 121.515625 C65.73472583 123.00948254 65.40140863 124.50297766 65.06640625 125.99609375 C64.90245361 126.72860352 64.73850098 127.46111328 64.56958008 128.21582031 C64.11074103 130.14200926 63.5674488 132.04758061 63.015625 133.94921875 C62.05585084 137.36569878 61.40787645 140.69521737 60.87890625 144.203125 C60.69972656 145.33492187 60.52054688 146.46671875 60.3359375 147.6328125 C59.63572221 157.23286565 62.23632257 166.69658517 64.49267578 175.96191406 C64.87199162 177.52630942 65.24036227 179.09340348 65.59716797 180.66308594 C67.21372291 189.07585652 67.21372291 189.07585652 71.89453125 195.8125 C74.27723179 196.60673351 76.5856662 196.93680711 79.06640625 197.328125 C81.28630692 198.13013597 83.49394813 198.96652278 85.69140625 199.828125 C97.62677991 204.0678164 108.47406035 206.13381988 121.06640625 204.328125 C122.03964844 204.20179688 123.01289062 204.07546875 124.015625 203.9453125 C133.56255477 202.54322669 144.36279583 200.56315547 153.06640625 196.328125 C155.15240043 193.19913372 155.84395227 190.81144109 156.81640625 187.203125 C158.66504219 181.01122545 161.24855629 176.47435059 165.06640625 171.328125 C169.96363177 164.2436555 173.86370372 157.68681347 172.56640625 148.828125 C170.93434598 141.69283712 167.61893542 136.17457809 163.00390625 130.578125 C159.59417218 126.25273344 158.43633878 121.56728242 157.12109375 116.28125 C155.90916232 112.88784199 154.94104731 111.4877051 152.06640625 109.328125 C149.61136781 108.41553374 147.26486972 107.65035719 144.75390625 106.953125 C139.47784096 105.35498597 135.53991549 103.67663424 131.61328125 99.75 C125.46261732 94.09635942 117.32993959 92.78717684 109.28125 92.85546875 C103.58423777 93.69306107 99.63810802 97.01847048 95.06640625 100.328125 Z M21.06640625 230.328125 C20.34258158 232.38737639 20.34258158 232.38737639 20.06640625 234.328125 C21.11828125 235.05 22.17015625 235.771875 23.25390625 236.515625 C26.54997275 238.86038775 29.29508165 241.38884133 32.06640625 244.328125 C34.70807853 242.80021296 34.70807853 242.80021296 37.06640625 240.328125 C37.86361121 235.94349771 37.58253934 234.08619548 35.06640625 230.390625 C30.30310993 227.11585878 26.01993986 227.02576926 21.06640625 230.328125 Z " fill="#000000" transform="translate(958.93359375,55.671875)"/>
<path d="M0 0 C3.69321401 0.00041339 7.38639816 -0.01067923 11.07959771 -0.02011514 C18.28817108 -0.03660798 25.49671172 -0.04221912 32.7053024 -0.04333989 C38.56671185 -0.04429496 44.42811062 -0.04842788 50.28951669 -0.05474114 C66.94499611 -0.0723132 83.60044993 -0.08158511 100.25593869 -0.0800802 C101.15065541 -0.08000028 102.04537213 -0.07992037 102.96720147 -0.07983804 C104.31093168 -0.0797154 104.31093168 -0.0797154 105.68180795 -0.07959028 C120.22228573 -0.07877613 134.76266025 -0.09795671 149.30310814 -0.12611477 C164.26962753 -0.15486748 179.23609653 -0.16865409 194.20264423 -0.16692722 C202.59097802 -0.16626466 210.9792032 -0.1716993 219.36751199 -0.19328332 C226.50188826 -0.21152549 233.63610651 -0.21581674 240.77049606 -0.20226447 C244.40554678 -0.19575315 248.04029455 -0.19555117 251.6753161 -0.21297097 C255.62458711 -0.23170178 259.57342015 -0.21910129 263.52271295 -0.20370889 C264.65832898 -0.21399601 265.793945 -0.22428314 266.96397364 -0.234882 C276.65055609 -0.15175281 286.63798077 1.51780774 293.6981585 8.66576743 C296.46482953 11.39691139 299.14536916 13.90668238 302.2606585 16.22826743 C307.29196799 20.51023296 309.00816792 26.55396071 309.8856585 32.91576743 C309.07643033 38.37805759 307.22920438 42.60350831 303.127846 46.35717368 C300.23456685 48.39730642 297.47838886 49.72052565 294.1981585 51.04076743 C293.15272882 51.46873618 292.10729913 51.89670493 291.03018975 52.33764243 C288.3856585 53.29076743 288.3856585 53.29076743 286.3856585 53.29076743 C286.3856585 53.95076743 286.3856585 54.61076743 286.3856585 55.29076743 C279.91300957 61.57626608 273.42258951 62.15122044 264.77390313 62.04594016 C263.52581864 62.05459454 262.27773415 62.06324892 260.99182892 62.07216555 C257.54803046 62.09516418 254.10525718 62.08102082 250.66148067 62.0604564 C246.93941811 62.044772 243.2175058 62.0637677 239.49546075 62.07825828 C232.21099688 62.10105156 224.92691743 62.09162642 217.64246133 62.07075741 C211.71836929 62.05445028 205.79438192 62.05027951 199.87027001 62.0547235 C199.02598228 62.05535418 198.18169455 62.05598485 197.31182234 62.05663464 C195.59642863 62.05798075 193.88103494 62.05936033 192.16564128 62.06077299 C176.08905842 62.07270298 160.01268576 62.04866376 143.93615076 62.01175491 C130.1604564 61.98088544 116.38500425 61.97848059 102.60929132 61.99755454 C86.59510467 62.01970251 70.58105368 62.02577644 54.5668602 62.00523192 C52.85667683 62.0030691 51.14649345 62.00092 49.43631005 61.99878478 C48.59497646 61.99771842 47.75364286 61.99665205 46.88681431 61.99555337 C40.97618914 61.98910135 35.06563409 61.99383082 29.15501428 62.00280929 C21.94243161 62.01338182 14.73013216 62.00572735 7.51760152 61.9753535 C3.84195036 61.96029747 0.16674488 61.95296544 -3.50891852 61.96754432 C-7.50456589 61.98310571 -11.49906566 61.95950866 -15.49465156 61.93241477 C-17.2145878 61.948122 -17.2145878 61.948122 -18.96927023 61.96414655 C-27.34778189 61.85881908 -34.006313 59.72166099 -41.6143415 56.29076743 C-42.32309102 55.97287889 -43.03184054 55.65499034 -43.76206732 55.32746881 C-52.08083355 51.39858623 -57.80699842 47.8179573 -61.6143415 39.29076743 C-64.0405975 31.11593897 -60.72766412 22.13964175 -57.1768415 14.72826743 C-54.14885712 9.21462423 -51.31434968 5.1884971 -45.6143415 2.29076743 C-43.07404992 1.74937765 -40.73070146 1.37341128 -38.16179633 1.12142539 C-37.3880049 1.04173621 -36.61421346 0.96204702 -35.81697381 0.87994301 C-23.9143971 -0.19753305 -11.93993784 -0.00836314 0 0 Z " fill="#000000" transform="translate(874.6143414974213,876.7092325687408)"/>
<path d="M0 0 C3.84464462 0.01142388 7.68901309 0.00457827 11.53364849 -0.00687695 C26.57744522 -0.04487563 41.55969333 0.14618259 56.57348633 1.16308594 C57.74070724 1.24214172 58.90792816 1.32119751 60.11051941 1.40264893 C73.40862705 2.41581241 86.04317629 4.26960812 96.05004883 13.75683594 C99.83898815 16.92447385 103.93035318 17.81159995 108.66723633 18.88574219 C110.36788563 19.30709902 112.06840794 19.72896876 113.76879883 20.15136719 C116.36568847 20.77545005 118.96464844 21.3884264 121.56567383 21.99511719 C128.67331549 23.83368695 133.64293876 27.64123044 138.90551758 32.68798828 C144.19686606 37.58094744 149.87230411 39.73736138 156.56567383 42.18261719 C164.70679935 45.34572965 167.52220186 49.47067325 171.41723633 57.26074219 C175.21296039 60.13005922 175.21296039 60.13005922 184.41723633 60.26074219 C184.41723633 76.43074219 184.41723633 92.60074219 184.41723633 109.26074219 C179.09598633 109.34324219 173.77473633 109.42574219 168.29223633 109.51074219 C165.78992432 109.56536621 165.78992432 109.56536621 163.23706055 109.62109375 C161.89869469 109.63278806 160.56031449 109.64297813 159.22192383 109.65136719 C158.54009033 109.67183105 157.85825684 109.69229492 157.15576172 109.71337891 C151.33315982 109.71758447 147.91231975 107.63136776 143.77270508 103.69824219 C140.48419412 99.65084408 140.48419412 99.65084408 140.05786133 97.16699219 C139.84645508 96.53792969 139.63504883 95.90886719 139.41723633 95.26074219 C137.44159296 94.25459523 137.44159296 94.25459523 134.97973633 93.76074219 C125.45980754 91.20396131 119.07638362 88.65239568 112.41723633 81.26074219 C105.35385447 74.35789174 97.03877333 72.43916876 87.54223633 70.82324219 C75.58775323 68.76666346 65.12029814 64.963804 56.41723633 56.26074219 C40.55867628 52.36446293 24.081002 52.79298114 7.86376953 52.86962891 C4.2154901 52.88670401 0.56786791 52.876562 -3.08038902 52.85931778 C-16.0446708 52.80720608 -28.96963722 52.79825443 -41.83666992 54.59667969 C-42.66947983 54.7129068 -43.50228973 54.82913391 -44.3603363 54.94888306 C-48.72282668 55.66087035 -51.91866456 56.64986935 -55.58276367 59.26074219 C-60.36503009 62.57154202 -63.31363359 63.96029404 -69.12963867 63.01074219 C-73.02850634 61.81873169 -76.37307007 59.80420298 -79.87182617 57.74121094 C-82.40426432 56.35822238 -84.69571344 55.49198752 -87.45776367 54.69824219 C-92.66530077 53.10808354 -95.29479827 50.14669153 -98.33276367 45.69824219 C-100.99093548 40.51480716 -101.45639883 35.45575075 -99.89916992 29.76074219 C-97.82671762 23.98195403 -95.67480884 20.88392817 -90.58276367 17.26074219 C-89.26035556 16.1053184 -87.94840435 14.93785379 -86.64526367 13.76074219 C-85.29427635 12.59039535 -83.9402523 11.42354187 -82.58276367 10.26074219 C-81.7687207 9.54144531 -81.7687207 9.54144531 -80.93823242 8.80761719 C-72.2128379 1.75936663 -59.80909853 1.66460921 -49.09448242 1.08886719 C-48.07258096 1.02980572 -48.07258096 1.02980572 -47.03003502 0.96955109 C-31.35998432 0.06992583 -15.69184493 -0.04684051 0 0 Z " fill="#000000" transform="translate(1095.582763671875,1013.7392578125)"/>
<path d="M0 0 C1.87763283 -0.00284752 1.87763283 -0.00284752 3.79319763 -0.00575256 C7.1982862 -0.00880437 10.60312793 -0.00299557 14.00818706 0.00720048 C17.59046295 0.01605252 21.17273554 0.01422213 24.75502014 0.01383972 C30.7693196 0.01477346 36.78356832 0.02341687 42.79785156 0.03710938 C49.72563642 0.05282455 56.65336576 0.05810751 63.58116716 0.05737382 C70.99217348 0.05669527 78.40315875 0.06365395 85.81415868 0.07282043 C87.93372826 0.07493935 90.05329438 0.07565991 92.17286491 0.07605934 C96.14260651 0.07726212 100.11230325 0.08701987 104.08203125 0.09765625 C105.24236877 0.09720306 106.4027063 0.09674988 107.59820557 0.09628296 C127.31331071 0.17310695 127.31331071 0.17310695 133.54321289 3.49291992 C134.32567383 3.88995117 135.10813477 4.28698242 135.91430664 4.69604492 C141.03516627 8.31076937 143.76027728 13.87633292 146.73071289 19.24291992 C147.12516602 19.9415918 147.51961914 20.64026367 147.92602539 21.36010742 C152.98395378 30.41653325 152.98395378 30.41653325 153.29321289 35.05541992 C150.21419929 43.32014065 141.41796845 47.46567417 133.90258789 51.11401367 C128.7025026 53.21293078 123.47685044 53.51573636 117.92114258 53.79711914 C117.09615643 53.83922956 116.27117027 53.88133999 115.42118454 53.92472649 C103.97276064 54.45090211 92.51666392 54.3869125 81.05883789 54.37573242 C78.58843984 54.37640807 76.11804186 54.37738026 73.64764404 54.37863159 C68.50426594 54.38009519 63.36090535 54.37799669 58.2175293 54.37329102 C51.66279335 54.36758247 45.10809827 54.37088842 38.5533638 54.37686348 C33.46410825 54.38049512 28.37486223 54.37931879 23.28560638 54.37673569 C20.86975856 54.37607424 18.45390983 54.37686712 16.03806305 54.37921524 C-29.48818356 54.41378373 -29.48818356 54.41378373 -43.69897461 41.61791992 C-45.81868698 39.1430125 -46.90047325 37.38529326 -46.88256836 34.07885742 C-45.34503374 25.8692689 -41.31360595 19.45530981 -35.89428711 13.24291992 C-35.11883737 12.03754397 -34.34810876 10.82911958 -33.58178711 9.61791992 C-29.26518706 3.54518755 -22.77602412 1.97922442 -15.76247978 0.64508629 C-10.51829158 -0.09023255 -5.28660933 -0.02555843 0 0 Z " fill="#000000" transform="translate(745.894287109375,954.757080078125)"/>
<path d="M0 0 C5.06160852 1.351524 5.06160852 1.351524 14.94921875 1.97265625 C14.94921875 17.48265625 14.94921875 32.99265625 14.94921875 48.97265625 C10.65921875 49.30265625 6.36921875 49.63265625 1.94921875 49.97265625 C-1.7962188 51.40502415 -1.7962188 51.40502415 -4.67578125 53.47265625 C-15.02644125 60.24359738 -29.67224247 59.74518439 -41.67822266 57.47607422 C-46.41801745 56.17205164 -50.6924295 54.22679784 -55.05078125 51.97265625 C-56.54158203 51.25335938 -56.54158203 51.25335938 -58.0625 50.51953125 C-63.81626777 47.46205466 -67.43211738 43.98949324 -70.05078125 37.97265625 C-72.7796712 29.0289395 -70.76783054 20.1323054 -66.50390625 12.03515625 C-62.50653737 5.38466643 -59.11437571 1.12875319 -51.37109375 -1.07421875 C-49.97652858 -1.33063067 -48.57754185 -1.56374063 -47.17578125 -1.77734375 C-46.02251343 -1.95728882 -46.02251343 -1.95728882 -44.84594727 -2.14086914 C-29.78121317 -4.23513659 -14.65008571 -4.27102812 0 0 Z " fill="#000000" transform="translate(1265.05078125,180.02734375)"/>
<path d="M0 0 C15.84 0 31.68 0 48 0 C48.495 6.435 48.495 6.435 49 13 C49.515625 15.02125 50.03125 17.0425 50.5625 19.125 C54.09558208 34.66708027 55.37474794 58.76683884 47.74609375 73.40625 C46.29157002 75.27691812 44.89923422 76.59061352 43 78 C42.08347656 78.69609375 42.08347656 78.69609375 41.1484375 79.40625 C34.68688467 83.834087 25.93960662 87.47038962 18 87 C11.62373683 85.48012909 5.88622972 83.48644195 2 78 C0.63715869 75.10938755 -0.57161914 72.19164595 -1.734375 69.21484375 C-3.33049185 65.16050991 -5.15093349 61.22852624 -6.984375 57.27734375 C-10.89359595 48.51166754 -11.15989 33.94383377 -7.73046875 24.953125 C-6.29965392 22.15415877 -4.7710502 19.59234031 -3 17 C-0.08534088 11.7995099 -0.08534088 11.7995099 0 0 Z " fill="#000000" transform="translate(1051,0)"/>
<path d="M0 0 C4.37208983 4.6708659 5.8447998 9.64221356 6 16 C5.68617824 19.5511777 5.06216322 23.0039944 4.375 26.5 C4.14490234 27.84771484 4.14490234 27.84771484 3.91015625 29.22265625 C2.51616604 36.53312398 0.29968095 42.5537635 -5.82421875 47.09375 C-6.76910156 47.5578125 -7.71398438 48.021875 -8.6875 48.5 C-9.64011719 48.9846875 -10.59273437 49.469375 -11.57421875 49.96875 C-14 51 -14 51 -16 51 C-16.13535156 51.58007812 -16.27070312 52.16015625 -16.41015625 52.7578125 C-18.13189641 59.00556422 -20.42297726 62.610045 -26 66 C-37.31288794 71.63354339 -53.02099993 72.77594515 -65.01953125 69.14453125 C-67.77474223 67.55226928 -68.65031945 65.8583869 -70 63 C-71.75705778 55.41573795 -70.94722053 47.79531909 -69.8125 40.1875 C-69.64306885 39.00583252 -69.64306885 39.00583252 -69.47021484 37.80029297 C-68.39113358 31.35159475 -66.44731365 25.44731365 -61.75 20.75 C-59 19 -59 19 -57.11328125 18.26171875 C-50.98996886 15.80073034 -49.24049907 12.37127086 -46.3515625 6.5625 C-43.91877325 1.95004408 -40.77368194 0.16559682 -36.0625 -1.625 C-23.95928788 -5.33502985 -10.83584503 -7.57225719 0 0 Z " fill="#000000" transform="translate(1223,57)"/>
<path d="M0 0 C5.73113411 3.90759144 8.37869126 8.13273201 9.75 14.875 C10.24771322 17.87285405 10.54818407 20.84306759 10.75 23.875 C10.84861328 25.34066406 10.84861328 25.34066406 10.94921875 26.8359375 C11.18677571 33.34008319 10.8883564 38.62295748 6.75 43.875 C0.54573878 48.81308546 -4.58137174 49.44573688 -12.25 48.875 C-21.2562885 47.40670906 -28.80364346 44.67046436 -35.25 38.0625 C-37.78282361 34.02581238 -37.97331082 31.42553795 -37.25 26.875 C-37.06566406 25.7096875 -36.88132813 24.544375 -36.69140625 23.34375 C-35.00417365 15.27086676 -32.73072767 9.83883921 -26.03125 4.6171875 C-17.95601037 -0.4411789 -9.24880606 -3.20150979 0 0 Z " fill="#000000" transform="translate(96.25,1057.125)"/>
<path d="M0 0 C7.57625471 5.80792117 10.75332028 15.11654659 12.66796875 24.15234375 C13.5860223 31.21499332 12.72991998 36.86985961 9 43 C5.49346996 47.30299852 0.4195241 49.96827814 -5 51 C-8.68263111 50.64337306 -12.0473514 49.62404466 -15.5625 48.5 C-16.46935547 48.2421875 -17.37621094 47.984375 -18.31054688 47.71875 C-24.75418693 45.77491079 -30.23378898 43.39674441 -34.59375 38.04296875 C-36.96304434 33.19204285 -37.59775336 29.27463448 -36 24 C-33.98561761 18.67768575 -31.39440703 14.71834441 -27 11 C-26.01 10.67 -25.02 10.34 -24 10 C-23.67 9.01 -23.34 8.02 -23 7 C-16.17689312 1.95012994 -8.56550648 -2.70489678 0 0 Z " fill="#000000" transform="translate(354,1160)"/>
<path d="M0 0 C3.99964618 2.88444085 6.32426026 6.72668703 7.86328125 11.34375 C8.01507139 13.6992948 8.11227414 16.05850123 8.1796875 18.41796875 C8.23684937 20.29488403 8.23684937 20.29488403 8.29516602 22.2097168 C8.33826904 23.80082275 8.38137207 25.39192871 8.42578125 27.03125 C8.57015625 32.084375 8.71453125 37.1375 8.86328125 42.34375 C-6.64671875 42.34375 -22.15671875 42.34375 -38.13671875 42.34375 C-38.13671875 13.99080882 -38.13671875 13.99080882 -34.01171875 8.53125 C-33.06296875 7.809375 -32.11421875 7.0875 -31.13671875 6.34375 C-30.55792969 5.84230469 -29.97914063 5.34085938 -29.3828125 4.82421875 C-20.96480581 -2.16527772 -10.04581238 -5.4618009 0 0 Z " fill="#000000" transform="translate(919.13671875,1237.65625)"/>
<path d="M0 0 C5.46482436 3.39154669 7.58289261 8.41518496 10.03125 14.16796875 C10.7167258 15.75217948 11.40412002 17.33556198 12.09375 18.91796875 C12.40828125 19.65015625 12.7228125 20.38234375 13.046875 21.13671875 C14.10306411 23.45968808 14.10306411 23.45968808 16.34375 26.41796875 C18.03125 29.16796875 18.03125 29.16796875 18.09375 31.79296875 C16.680521 34.95195121 14.79072073 36.06837146 12.03125 38.16796875 C10.9552252 39.49041144 9.89389139 40.82488011 8.84375 42.16796875 C4.49150826 47.21883498 -0.57709865 49.80824304 -7.2578125 50.35546875 C-14.02095284 49.97310039 -20.85229207 47.14833681 -25.7578125 42.45703125 C-26.75450705 41.28655406 -27.72010241 40.08868357 -28.6484375 38.86328125 C-30.10513857 36.88858709 -30.10513857 36.88858709 -32.90625 34.54296875 C-33.586875 33.75921875 -34.2675 32.97546875 -34.96875 32.16796875 C-34.66678681 28.07087731 -33.0657545 25.44901507 -30.78125 22.10546875 C-28.12689532 18.11042169 -25.96339004 14.15321961 -23.96875 9.79296875 C-21.39483662 4.47262768 -19.13920415 1.99708517 -13.96875 -0.83203125 C-9.23129767 -2.41118203 -4.61202389 -1.94912914 0 0 Z " fill="#000000" transform="translate(417.96875,1018.83203125)"/>
<path d="M0 0 C4.19418166 3.49515139 7.02186035 6.94018644 8.625 12.1875 C8.37381591 16.91432782 7.45977673 21.53141614 6.625 26.1875 C6.48964844 27.05632812 6.35429688 27.92515625 6.21484375 28.8203125 C5.11415098 34.95427029 2.97218927 40.84311237 -2.3046875 44.5390625 C-4.29690536 45.58403715 -6.26082229 46.42344399 -8.375 47.1875 C-9.179375 47.496875 -9.98375 47.80625 -10.8125 48.125 C-17.20016851 48.28079679 -23.18034015 45.47704064 -27.81640625 41.18359375 C-30.42043513 37.84860939 -31.77150264 34.08945336 -33.24609375 30.15234375 C-34.2221719 27.58887207 -35.31764514 25.27884604 -36.625 22.875 C-38.4307312 19.29326156 -39.45205919 16.27163704 -39.375 12.1875 C-37.4375 9.6875 -37.4375 9.6875 -34.375 7.1875 C-33.76914063 6.60742188 -33.16328125 6.02734375 -32.5390625 5.4296875 C-23.16838269 -3.42245667 -11.68660845 -6.27614158 0 0 Z " fill="#000000" transform="translate(1142.375,1136.8125)"/>
</svg>
