<?xml version="1.0" encoding="UTF-8"?>
<!-- Generator: visioncortex VTracer 0.6.2 -->
<svg version="1.1" xmlns="http://www.w3.org/2000/svg" width="1280" height="1280">
<path d="M0 0 C10.86700898 -0.35054868 23.97439755 1.03892128 33.16796875 7.16796875 C37.49110279 11.81101471 39.62707984 17.26114328 42.08007812 23.01757812 C44.13785585 27.62424028 45.93801902 30.21371815 50.16796875 33.16796875 C58.73076555 41.87871884 61.0858688 54.73041292 63.63818359 66.29931641 C64.42429726 69.94088812 64.42429726 69.94088812 67.0703125 72.34765625 C67.76253906 72.61835938 68.45476563 72.8890625 69.16796875 73.16796875 C70.984375 75.05078125 70.984375 75.05078125 72.73046875 77.29296875 C73.30925781 78.01742187 73.88804687 78.741875 74.484375 79.48828125 C77.98106185 85.05377355 79.51776114 91.29118055 81.20947266 97.57788086 C83.4860373 105.90044266 85.45567385 112.37247511 92.16796875 118.16796875 C97.30563145 124.01919571 99.34216074 130.27662136 101.23046875 137.73046875 C102.3894597 142.27799551 103.63045486 146.73309534 105.16796875 151.16796875 C106.01359375 150.76964844 106.85921875 150.37132812 107.73046875 149.9609375 C108.86484375 149.43113281 109.99921875 148.90132812 111.16796875 148.35546875 C112.35261719 147.79988281 113.53726562 147.24429688 114.7578125 146.671875 C117.4316821 145.49267706 119.93659213 144.59349127 122.73046875 143.79296875 C127.46285967 141.5558385 128.33146004 138.87244996 130.16796875 134.16796875 C132.72201526 128.35567361 134.9016651 123.96293797 141.08984375 121.359375 C146.58951466 119.03338636 148.40424209 116.59925438 151.03515625 111.28515625 C153.62356566 106.44750832 157.82019693 104.65162068 162.80200195 102.83203125 C167.17568961 101.60445614 171.58541674 101.49576318 176.10546875 101.35546875 C177.61475952 101.30193237 177.61475952 101.30193237 179.15454102 101.24731445 C206.12180292 100.55167511 206.12180292 100.55167511 214.640625 108.55078125 C216.79654496 110.95183497 218.27469967 113.39032484 219.66796875 116.29296875 C221.67216781 120.13435028 224.17632056 122.12168462 228.00366211 124.13232422 C233.98078567 127.38410079 236.53606875 131.24083997 239.54296875 137.23046875 C240.17912109 138.43413086 240.17912109 138.43413086 240.828125 139.66210938 C242.32978916 142.5162187 243.80294178 145.37464468 245.15112305 148.3046875 C246.60467665 150.96819797 248.78376597 152.32224862 251.16796875 154.16796875 C256.54729861 159.78771559 260.06079913 165.29171473 262.37890625 172.72265625 C263.68901891 177.17650444 263.68901891 177.17650444 266.9375 180.22265625 C267.61167969 180.49335938 268.28585937 180.7640625 268.98046875 181.04296875 C277.0914315 184.85644129 279.1700781 191.24021348 282.16796875 199.16796875 C283.91603679 203.21612632 285.7760056 204.58088897 289.48046875 206.73046875 C298.49670155 212.52661841 300.70413898 223.04975155 302.90917969 232.93188477 C303.78761035 237.07820862 304.53638917 241.2365625 305.23046875 245.41796875 C305.87597439 249.29687083 307.04551406 251.8326828 309.16796875 255.16796875 C309.00609676 257.75792065 308.2309125 259.07355313 306.79296875 261.23046875 C301.49678814 270.8043337 297.29231431 288.44478182 299.62792969 299.30712891 C300.95775171 302.93914635 302.97907395 306.00824182 305.16796875 309.16796875 C305.16796875 309.82796875 305.16796875 310.48796875 305.16796875 311.16796875 C306.00328125 311.50828125 306.00328125 311.50828125 306.85546875 311.85546875 C314.00159829 315.91138011 319.22063105 323.47646959 321.4140625 331.28515625 C321.81641151 332.78637279 322.21346357 334.28901803 322.60546875 335.79296875 C324.16347956 341.76437821 325.55528972 345.92667168 330.6171875 349.84375 C333.5124564 352.31603251 334.12249178 354.76625553 334.54296875 358.48046875 C334.34595221 365.45485414 332.67984414 376.10850433 327.73046875 381.35546875 C323.12051076 386.41517874 320.1379905 391.64213445 320.18457031 398.67431641 C320.74094235 405.91362237 321.38782769 414.22752302 326.5390625 419.67578125 C329.09032576 421.21935627 329.09032576 421.21935627 331.73046875 422.10546875 C336.23480352 424.06889673 338.09320023 427.70499871 339.87109375 432.0859375 C340.39639741 433.50557063 340.91188194 434.928872 341.41796875 436.35546875 C341.68609375 437.07927734 341.95421875 437.80308594 342.23046875 438.54882812 C344.16796875 443.86212532 344.16796875 443.86212532 344.16796875 446.16796875 C347.79796875 446.16796875 351.42796875 446.16796875 355.16796875 446.16796875 C355.16796875 462.33796875 355.16796875 478.50796875 355.16796875 495.16796875 C351.86796875 495.49796875 348.56796875 495.82796875 345.16796875 496.16796875 C344.29273748 498.97537146 343.44286081 501.78676711 342.60546875 504.60546875 C342.23518555 505.78012695 342.23518555 505.78012695 341.85742188 506.97851562 C339.37548748 515.47302347 340.7259124 522.4088783 343.23046875 530.73046875 C343.59269531 531.94863281 343.95492188 533.16679688 344.328125 534.421875 C344.60527344 535.32808594 344.88242188 536.23429688 345.16796875 537.16796875 C348.46796875 537.49796875 351.76796875 537.82796875 355.16796875 538.16796875 C355.16796875 582.05796875 355.16796875 625.94796875 355.16796875 671.16796875 C351.53796875 671.16796875 347.90796875 671.16796875 344.16796875 671.16796875 C343.83796875 672.81796875 343.50796875 674.46796875 343.16796875 676.16796875 C339.87058246 688.5370375 334.72057647 696.76528873 325.59375 705.7109375 C324.02940005 707.30957457 322.73951233 708.98883903 321.41796875 710.79296875 C320.6290625 711.84871094 320.6290625 711.84871094 319.82421875 712.92578125 C318.72736147 714.41067766 317.64375678 715.90546304 316.57421875 717.41015625 C310.5295461 725.65029963 302.84386819 731.35482721 294.17578125 736.6484375 C291.70066331 738.52162987 290.07599334 740.72643825 288.16796875 743.16796875 C281.63427201 749.7390009 275.11469126 752.60414155 266.390625 755.0625 C261.934449 756.5911034 260.78113515 758.17421632 258.35546875 762.10546875 C253.86714264 768.3891253 248.01598992 770.07217947 240.85546875 771.79296875 C240.05173828 771.99664063 239.24800781 772.2003125 238.41992188 772.41015625 C235.17763033 773.22398969 231.94456323 774.01691802 228.66259766 774.65527344 C227.86644043 774.81157227 227.0702832 774.96787109 226.25 775.12890625 C225.18036011 775.32299072 225.18036011 775.32299072 224.08911133 775.52099609 C220.5185267 776.72344231 218.74907313 779.70915043 216.54296875 782.60546875 C209.52313866 790.65982359 198.60063599 791.48926905 188.60546875 793.23046875 C173.75410112 795.10062142 173.75410112 795.10062142 161.41796875 802.60546875 C153.34203938 810.1215254 141.55251045 810.96711445 131.04296875 812.23046875 C128.48807212 812.56219533 125.93338343 812.89552742 123.37890625 813.23046875 C122.14881836 813.38902344 120.91873047 813.54757812 119.65136719 813.7109375 C114.97993382 814.32384213 110.32125537 814.99289756 105.66796875 815.73046875 C104.96397949 815.83302979 104.25999023 815.93559082 103.53466797 816.04125977 C99.44456337 816.70494673 96.58651586 817.85492195 93.16796875 820.16796875 C86.54388402 824.07982981 80.02186666 826.73773094 72.54296875 828.41796875 C71.88272705 828.5687085 71.22248535 828.71944824 70.54223633 828.87475586 C53.72588159 832.34746503 36.2837542 832.8265311 19.19042969 833.76977539 C9.0752209 834.33478253 -0.96100208 834.98739961 -10.96875 836.6171875 C-11.69839966 836.73420517 -12.42804932 836.85122284 -13.17980957 836.9717865 C-18.02413888 837.82802552 -21.68737669 839.42604089 -25.91015625 841.8359375 C-30.10561182 843.74857166 -34.42026208 844.78241578 -38.89453125 845.85546875 C-39.71477783 846.05769043 -40.53502441 846.25991211 -41.38012695 846.46826172 C-55.89310841 849.80640033 -70.74123517 850.53195224 -85.57055664 851.1184082 C-88.3123784 851.22720877 -91.05360214 851.34607866 -93.79492188 851.46679688 C-126.64021124 852.86615797 -159.52408053 853.3604646 -192.39453125 853.73046875 C-193.29484322 853.74080894 -194.19515518 853.75114914 -195.12274933 853.76180267 C-267.44192478 854.58954642 -339.7703213 854.54933679 -412.08294678 853.234375 C-416.84013744 853.15011251 -421.59745716 853.07582368 -426.35481262 853.00157166 C-529.3080449 851.37283372 -529.3080449 851.37283372 -550.89453125 840.10546875 C-562.59764228 834.43945036 -576.33199423 834.39805655 -589.1171875 833.65234375 C-590.18302818 833.58965302 -590.18302818 833.58965302 -591.270401 833.5256958 C-594.78936931 833.32278041 -598.30773082 833.13955104 -601.8293457 832.98925781 C-611.97303697 832.48292344 -620.50863465 831.66573193 -627.83203125 824.16796875 C-630.4469388 819.6852701 -631.64235698 815.29698898 -632.51953125 810.23046875 C-632.64908203 809.55306641 -632.77863281 808.87566406 -632.91210938 808.17773438 C-634.3548013 800.21621226 -634.47660973 794.01261072 -629.83203125 787.16796875 C-625.46636012 782.18581956 -620.16376715 780.4186868 -613.65258789 779.92871094 C-599.84508156 780.07236724 -586.05926834 780.72790479 -572.26953125 781.41796875 C-571.60957153 781.45076557 -570.94961182 781.48356239 -570.26965332 781.51735306 C-496.93391197 785.1723306 -496.93391197 785.1723306 -471.3910675 794.9961853 C-460.910564 798.44680498 -448.94234462 798.59919055 -438.0078125 799.25390625 C-437.32775965 799.29538158 -436.64770679 799.33685692 -435.94704628 799.37958908 C-420.42189104 800.31408616 -404.90186875 800.61518575 -389.35205078 800.76926422 C-386.95936313 800.79358022 -384.56672148 800.82074074 -382.17407227 800.84857178 C-333.72953125 801.40550444 -285.27867174 801.36565254 -236.83203125 801.16796875 C-235.78808701 801.16371132 -234.74414276 801.15945389 -233.66856384 801.15506744 C-220.96217311 801.10145044 -208.25625069 801.0217651 -195.55029297 800.90350342 C-192.07700184 800.87118227 -188.60374304 800.84399897 -185.13037109 800.82208252 C-166.55733575 800.69894124 -148.08683541 800.08963888 -129.55859375 798.75 C-128.68444195 798.68797583 -127.81029015 798.62595165 -126.9096489 798.56204796 C-118.10639123 797.92555749 -109.42684882 797.29124408 -100.83203125 795.16796875 C-99.8152832 794.93223145 -98.79853516 794.69649414 -97.75097656 794.45361328 C-96.46852051 794.13046143 -96.46852051 794.13046143 -95.16015625 793.80078125 C-85.01131804 791.28104674 -74.86310312 788.84073594 -64.58203125 786.91796875 C-63.41849121 786.69197998 -63.41849121 786.69197998 -62.23144531 786.46142578 C-47.90504166 783.88638072 -33.27752403 783.11277406 -18.76171875 782.45703125 C-17.53706909 782.40144043 -16.31241943 782.34584961 -15.05065918 782.28857422 C-9.9981639 782.06314989 -4.94564131 781.84211365 0.10791016 781.64160156 C26.9838347 781.58397906 26.9838347 781.58397906 51.109375 771.6171875 C63.49567349 762.89742139 83.8767989 763.15965213 98.35546875 761.66796875 C116.49744734 761.12029164 116.49744734 761.12029164 131.98046875 753.79296875 C132.44936523 753.20902344 132.91826172 752.62507812 133.40136719 752.0234375 C141.24675644 743.78339351 155.48342668 743.15992526 166.10546875 741.41796875 C168.77276294 740.96542755 171.43932191 740.50872614 174.10585022 740.05169678 C175.75354072 739.77092467 177.40182634 739.49361632 179.05076599 739.22027588 C184.16985294 738.44966055 184.16985294 738.44966055 189.16796875 737.16796875 C189.43609375 736.44609375 189.70421875 735.72421875 189.98046875 734.98046875 C192.09818908 729.96481533 195.83279101 727.22715135 200.734375 725.00390625 C207.26328794 722.67659307 213.88601079 721.3290091 220.73608398 720.38208008 C225.21472302 719.67973412 227.36926567 718.72564215 230.16796875 715.16796875 C231.204375 713.48380859 231.204375 713.48380859 232.26171875 711.765625 C235.61336552 706.95980426 240.48652754 705.0322648 245.66796875 702.60546875 C252.2167806 699.51122271 256.90570825 697.10349949 261.16796875 691.16796875 C262.83463542 689.83463542 264.50130208 688.50130208 266.16796875 687.16796875 C267.35340241 685.69418637 268.53858192 684.22018979 269.71875 682.7421875 C271.90647031 680.36576894 274.46186062 678.59661251 277.10546875 676.7578125 C285.5160572 670.27465057 289.97522847 661.08089316 293.29296875 651.16796875 C295.17955442 645.63666012 297.82608569 642.71119698 302.71582031 639.48901367 C308.49684868 634.01706657 308.25551307 622.56134574 308.47033691 614.85910034 C308.50489969 612.06037582 308.49081882 609.26464444 308.44921875 606.46606445 C308.41771789 604.33852574 308.40818588 602.21173499 308.40234375 600.08398438 C308.62851634 584.83395688 308.62851634 584.83395688 305.16796875 570.16796875 C303.8502307 569.47098334 302.51497834 568.80655107 301.16796875 568.16796875 C293.64487958 561.56843017 290.61835473 552.34908023 288.60546875 542.85546875 C287.49527564 538.6358136 286.93569369 536.73377447 283.390625 534.12109375 C280.2250826 532.57145223 280.2250826 532.57145223 277.04296875 531.4765625 C273.5987754 529.90889297 272.22202898 528.31690391 270.16796875 525.16796875 C269.64189172 523.68377077 269.15989375 522.1829588 268.73046875 520.66796875 C267.35294059 517.3343506 266.53366745 516.35476095 263.26953125 514.6875 C260.97517511 513.87633748 258.67135783 513.09149824 256.359375 512.33203125 C251.30258687 510.48757242 247.96585946 507.56349626 244.7578125 503.2890625 C239.92205451 496.96918441 234.0809677 494.28162721 227.0078125 491.02734375 C221.40296101 488.39221664 217.08970852 485.68476427 213.66796875 480.41796875 C213.08015625 479.54140625 212.49234375 478.66484375 211.88671875 477.76171875 C211.31953125 476.90578125 210.75234375 476.04984375 210.16796875 475.16796875 C207.3202584 471.04169457 204.65884692 467.42739471 200.66796875 464.35546875 C192.82430366 457.87968345 190.30732618 448.13836437 188.02734375 438.6484375 C187.22502346 435.39904034 186.40008437 432.28092753 185.16796875 429.16796875 C184.42546875 428.87921875 183.68296875 428.59046875 182.91796875 428.29296875 C177.82997699 426.21151758 175.27672907 421.5305956 173.00390625 416.6875 C170.56442814 410.38396305 169.18309227 403.97169199 167.9765625 397.33203125 C166.65492677 392.16041317 164.55616447 389.21577691 160.29296875 386.10546875 C153.45731929 380.31275846 150.71099337 371.15698651 149.3828125 362.4921875 C149.09056227 357.97027941 149.17638926 353.50614573 149.35546875 348.98046875 C149.38527832 348.13677734 149.41508789 347.29308594 149.44580078 346.42382812 C149.87762321 338.76236537 151.56258967 331.77334783 157.16796875 326.16796875 C162.7216426 322.14155521 168.61485435 322.7481963 175.16796875 323.16796875 C176.28558594 323.23757813 177.40320312 323.3071875 178.5546875 323.37890625 C184.83144502 324.03501331 189.84377629 325.01986321 194.390625 329.5859375 C199.45640964 336.94524221 202.28936301 345.95079112 204.73046875 354.48046875 C206.45807398 358.91215172 208.11693393 359.85309171 212.16796875 362.16796875 C217.8422594 367.6753685 219.66821457 375.63607868 221.25 383.15625 C221.44408447 384.04175537 221.63816895 384.92726074 221.83813477 385.83959961 C222.21822844 387.61171635 222.57008434 389.39017791 222.89038086 391.17407227 C223.89018067 396.00545205 223.89018067 396.00545205 226.98242188 399.66894531 C228.38613355 400.48528366 229.80383754 401.27802655 231.234375 402.04638672 C238.00776757 405.9752965 239.36453919 415.45151883 241.41796875 422.41796875 C241.78148437 423.61421875 242.145 424.81046875 242.51953125 426.04296875 C245.16796875 434.844543 245.16796875 434.844543 245.16796875 437.16796875 C246.1115625 437.38839844 246.1115625 437.38839844 247.07421875 437.61328125 C254.03883713 439.43834691 259.96843266 442.19735333 264.578125 447.91796875 C266.18764534 449.48561274 266.18764534 449.48561274 268.85546875 448.85546875 C269.61859375 448.62859375 270.38171875 448.40171875 271.16796875 448.16796875 C272.2341299 437.82789793 270.36714084 430.57642026 264.16796875 422.16796875 C262.51128391 420.59103116 260.80221013 419.06711391 259.04296875 417.60546875 C252.82919515 412.32944452 249.69635834 406.94472263 248.94287109 398.70703125 C247.71696897 374.79544218 247.71696897 374.79544218 255.16796875 366.16796875 C257.08081892 364.9760839 259.00507714 364.03198039 261.0625 363.11328125 C264.23282749 361.68986891 267.16795268 359.91797813 270.16796875 358.16796875 C267.55988018 349.47434018 264.23981756 343.6800865 257.43359375 337.625 C252.23760835 332.77319312 249.47629249 327.79616398 247.54296875 320.95703125 C246.37682271 316.84814212 246.37682271 316.84814212 243.37890625 313.9921875 C241.3335045 313.02317527 241.3335045 313.02317527 239.30078125 312.34765625 C234.43483776 309.65623695 232.13815101 305.77165968 230.62109375 300.6015625 C230.2034743 298.94027757 229.80267539 297.27468246 229.41796875 295.60546875 C229.10666016 294.34959961 229.10666016 294.34959961 228.7890625 293.06835938 C225.99054774 281.66666861 224.95710556 274.69454856 230.3671875 263.90234375 C232.16796875 261.16796875 232.16796875 261.16796875 234.67578125 259.18359375 C237.63991382 256.78627023 238.75268279 254.60557939 240.35546875 251.16796875 C241.08830078 249.62109375 241.08830078 249.62109375 241.8359375 248.04296875 C242.27550781 247.09421875 242.71507812 246.14546875 243.16796875 245.16796875 C243.55339844 244.4409375 243.93882813 243.71390625 244.3359375 242.96484375 C245.41724015 240.62963616 245.30909458 238.70823366 245.16796875 236.16796875 C244.38873047 235.83925781 244.38873047 235.83925781 243.59375 235.50390625 C235.22174212 231.6970413 232.22482475 226.85763458 229.0546875 218.5 C227.04726495 213.22056712 225.34832114 210.84580009 220.08203125 208.453125 C214.52524406 204.72213931 211.67969977 198.77007552 208.85546875 192.91796875 C208.49646484 192.19867188 208.13746094 191.479375 207.76757812 190.73828125 C205.16796875 185.44993304 205.16796875 185.44993304 205.16796875 183.16796875 C204.33265625 182.82765625 204.33265625 182.82765625 203.48046875 182.48046875 C194.82353688 177.56707499 189.89183628 168.57551072 187.125 159.390625 C186.80917969 158.65714844 186.49335937 157.92367187 186.16796875 157.16796875 C185.17796875 156.83796875 184.18796875 156.50796875 183.16796875 156.16796875 C182.9978125 156.75964844 182.82765625 157.35132813 182.65234375 157.9609375 C180.84470884 163.85498112 179.33073851 168.31746651 173.7578125 171.578125 C166.80811499 175.16796875 166.80811499 175.16796875 164.16796875 175.16796875 C163.91273438 176.21984375 163.91273438 176.21984375 163.65234375 177.29296875 C160.83844875 188.30906833 156.64223538 197.79932574 147.07421875 204.671875 C143.24620224 207.67624041 141.90495898 211.44323296 141.16796875 216.16796875 C141.3738274 219.17694799 141.93123464 222.04390247 142.60546875 224.98046875 C142.76917969 225.70959473 142.93289063 226.4387207 143.1015625 227.18994141 C144.40616464 232.11277606 146.22431232 234.77812827 150.16796875 238.16796875 C157.65397513 245.21362182 160.03958341 253.6416394 160.515625 263.69140625 C160.56030727 265.6624815 160.59019948 267.63394625 160.60546875 269.60546875 C160.61562012 270.55301025 160.62577148 271.50055176 160.63623047 272.47680664 C160.56945888 277.77292212 160.16185127 281.61698421 157.16796875 286.16796875 C149.92094633 293.09990324 143.97231237 293.55317172 134.35546875 293.60546875 C133.30037109 293.63833984 132.24527344 293.67121094 131.15820312 293.70507812 C124.26203477 293.75234158 119.40920275 292.8499044 114.16796875 288.16796875 C111.73509965 284.83146256 110.4435218 281.96737541 109.1015625 278.07421875 C106.82260818 271.51564393 105.11188995 267.05785149 99.23046875 263.12109375 C93.28928209 257.49497002 91.18851693 249.73418573 89.48046875 241.98046875 C88.72478823 238.70585318 87.95440859 235.43532767 87.16796875 232.16796875 C86.89339844 231.01683594 86.61882813 229.86570312 86.3359375 228.6796875 C85.40608803 225.95818068 85.40608803 225.95818068 82.76953125 225.109375 C81.91101563 224.79871094 81.0525 224.48804688 80.16796875 224.16796875 C73.62651691 216.35827624 71.00396005 207.65814698 68.66796875 197.98046875 C66.84448044 190.22097881 66.84448044 190.22097881 61.78515625 184.328125 C53.72958707 177.67927462 51.10406825 167.60985297 48.85351562 157.84350586 C47.03490946 149.66802871 47.03490946 149.66802871 41.85546875 143.35546875 C32.7308533 135.92845617 30.87088108 125.04324596 28.16796875 114.16796875 C27.66283243 112.16394663 27.1455682 110.16285219 26.60546875 108.16796875 C26.32509766 107.05421875 26.32509766 107.05421875 26.0390625 105.91796875 C24.86874139 103.56683038 23.51546158 103.26202963 21.16796875 102.16796875 C14.99494444 96.13031778 12.46079918 89.31694616 10.16796875 81.16796875 C9.4655898 78.8120187 8.75730891 76.45781969 8.04296875 74.10546875 C7.73101563 73.04199219 7.4190625 71.97851562 7.09765625 70.8828125 C6.23857932 67.99739844 6.23857932 67.99739844 4.16796875 65.16796875 C3.71808594 65.54308594 3.26820313 65.91820312 2.8046875 66.3046875 C-1.16949985 69.46651591 -4.5447527 71.45636296 -9.3828125 73.04296875 C-12.93947788 74.62367587 -14.47674397 75.48847664 -16.29711914 78.9699707 C-17.31353491 82.45912462 -18.05930832 85.90465718 -18.70703125 89.48046875 C-21.29078246 102.25491956 -23.76464644 109.78971221 -34.83203125 117.16796875 C-35.83184873 119.7269254 -35.83184873 119.7269254 -36.515625 122.76953125 C-36.9477832 124.46529297 -36.9477832 124.46529297 -37.38867188 126.1953125 C-37.67935547 127.38253906 -37.97003906 128.56976563 -38.26953125 129.79296875 C-43.3733059 150.5062654 -43.3733059 150.5062654 -50.83203125 155.16796875 C-52.15646599 155.53506751 -53.4892623 155.87494925 -54.83203125 156.16796875 C-55.074375 157.24433594 -55.31671875 158.32070313 -55.56640625 159.4296875 C-62.41789469 189.47056346 -62.41789469 189.47056346 -72.83203125 197.16796875 C-73.49203125 197.16796875 -74.15203125 197.16796875 -74.83203125 197.16796875 C-75.05890625 198.44671875 -75.28578125 199.72546875 -75.51953125 201.04296875 C-81.20611642 229.07543086 -81.20611642 229.07543086 -90.296875 235.80078125 C-94.504497 239.35515509 -95.65326019 243.08182088 -97.01953125 248.29296875 C-97.5114379 249.98706074 -98.00362527 251.68107124 -98.49609375 253.375 C-98.94160013 254.9726022 -99.38692715 256.57025443 -99.83203125 258.16796875 C-104.16763439 272.93709167 -104.16763439 272.93709167 -111.3359375 277.90234375 C-114.44405825 280.72348621 -115.12991764 282.91664774 -116.33203125 286.91796875 C-116.63657227 287.8912915 -116.63657227 287.8912915 -116.94726562 288.88427734 C-118.04634571 292.41908797 -119.063873 295.976375 -120.08203125 299.53515625 C-120.29150391 300.24704102 -120.50097656 300.95892578 -120.71679688 301.69238281 C-121.11649205 303.05705634 -121.5014958 304.42614995 -121.86914062 305.79980469 C-123.24826397 310.5251168 -125.23541521 312.89174092 -128.83203125 316.16796875 C-134.83092617 321.79810295 -136.7488694 327.92920559 -138.95703125 335.73046875 C-143.58943483 351.75784097 -143.58943483 351.75784097 -150.3203125 356.82421875 C-155.09978162 360.74060422 -156.30014718 365.91730152 -158.01953125 371.66796875 C-162.78726075 387.02957378 -162.78726075 387.02957378 -168.0234375 390.70703125 C-168.80589844 391.06539062 -169.58835937 391.42375 -170.39453125 391.79296875 C-171.26851562 392.19773437 -172.1425 392.6025 -173.04296875 393.01953125 C-175.84090171 394.17162129 -178.65893515 395.182915 -181.51953125 396.16796875 C-186.34280989 397.83967328 -189.85520391 399.98650688 -193.83203125 403.16796875 C-197.67344494 401.52822861 -200.66284308 399.02344125 -203.76953125 396.29296875 C-204.28193359 395.87789062 -204.79433594 395.4628125 -205.32226562 395.03515625 C-210.45143952 390.49906345 -213.27637543 384.79198905 -214.83203125 378.16796875 C-214.81018849 373.31957016 -213.93974137 368.82817492 -212.89453125 364.10546875 C-212.66701172 362.91630859 -212.43949219 361.72714844 -212.20507812 360.50195312 C-209.77969642 348.40162412 -206.49905789 336.22890206 -197.08203125 327.66796875 C-193.94113281 324.1780816 -193.03816909 320.82668397 -192.83203125 316.16796875 C-194.03860869 311.98516695 -195.6428115 310.16412912 -199.20703125 307.91796875 C-207.78759882 302.07741436 -209.06333901 290.96573512 -211.13330078 281.48046875 C-211.32649902 280.59617187 -211.51969727 279.711875 -211.71875 278.80078125 C-211.88592529 278.00559082 -212.05310059 277.21040039 -212.2253418 276.39111328 C-213.41697536 272.02450754 -214.82201074 269.92564884 -218.64453125 267.54296875 C-227.22636685 261.22277213 -228.82729618 251.20184148 -230.95776367 241.30029297 C-232.43290244 234.72105944 -234.47965676 229.47419993 -240.26953125 225.54296875 C-248.17304257 218.990485 -249.81271406 207.10846994 -252.03515625 197.5390625 C-252.77070681 194.20276403 -252.77070681 194.20276403 -253.83203125 191.16796875 C-259.06037349 194.67122345 -262.83516061 198.18604376 -266.453125 203.33203125 C-268.27480151 205.75749289 -270.315672 207.49039592 -272.83203125 209.16796875 C-273.49203125 209.16796875 -274.15203125 209.16796875 -274.83203125 209.16796875 C-276.0179224 212.47152268 -276.98884403 215.73734231 -277.70703125 219.16796875 C-280.64864757 232.56363693 -283.02222187 243.2947625 -294.83203125 251.16796875 C-297.14604156 255.84215417 -298.43186152 260.31815958 -299.58203125 265.41796875 C-301.59628144 273.53658899 -304.73964379 281.46699303 -311.95703125 286.23046875 C-316.35049304 289.19127996 -317.7242921 293.42386133 -319.83203125 298.16796875 C-325.41551696 310.42013175 -325.41551696 310.42013175 -332.7734375 313.33203125 C-336.55849914 315.60403505 -337.71776187 318.17525008 -339.33203125 322.10546875 C-341.52259467 327.40575159 -343.66727477 330.36731406 -348.83203125 333.16796875 C-350.00765625 333.53921875 -351.18328125 333.91046875 -352.39453125 334.29296875 C-356.84037737 336.71797572 -357.58542026 339.24145302 -359.6015625 343.73046875 C-362.56771317 349.60627199 -367.97620783 351.9173323 -373.78125 354.2734375 C-378.54694235 356.35218712 -379.6641866 358.57208458 -381.57421875 363.09765625 C-384.82006907 368.44020491 -390.37016278 370.50422948 -395.89453125 372.79296875 C-403.50540218 375.49980801 -403.50540218 375.49980801 -409.51953125 380.41796875 C-415.8893055 387.99283542 -424.29242671 390.73951727 -433.55859375 393.12890625 C-434.55221924 393.38679932 -434.55221924 393.38679932 -435.56591797 393.64990234 C-437.50055171 394.14703153 -439.43966132 394.62664284 -441.37890625 395.10546875 C-446.13220915 396.56802349 -449.51009376 398.7049121 -453.08203125 402.10546875 C-465.71465654 412.98730375 -485.2414084 412.67792716 -501.12841797 413.82470703 C-519.01875955 415.04156603 -519.01875955 415.04156603 -535.70703125 421.10546875 C-557.49254059 432.62555484 -586.17436218 431.48638914 -610.25366211 433.07836914 C-632.25505634 433.8045443 -632.25505634 433.8045443 -652.01953125 442.10546875 C-664.17554716 450.45756132 -680.76275176 451.22876285 -695.03515625 453.13671875 C-696.29062256 453.30751953 -697.54608887 453.47832031 -698.83959961 453.65429688 C-701.34156418 453.9920661 -703.84499127 454.31920283 -706.34985352 454.63476562 C-708.08319946 454.86776367 -708.08319946 454.86776367 -709.8515625 455.10546875 C-710.88385986 455.23824219 -711.91615723 455.37101562 -712.97973633 455.5078125 C-717.50297617 456.55470461 -720.61005919 458.80348598 -723.83203125 462.04296875 C-731.27640481 468.46930832 -741.07054033 470.35151185 -750.45703125 472.23046875 C-761.79870351 474.51330092 -769.53553939 476.33196163 -777.6015625 485.0546875 C-781.2063078 488.47004162 -785.14285001 489.75854248 -789.83203125 491.16796875 C-790.90195312 491.49152344 -791.971875 491.81507813 -793.07421875 492.1484375 C-794.19054687 492.48488281 -795.306875 492.82132813 -796.45703125 493.16796875 C-804.97765434 495.78893234 -809.83513955 497.81429245 -815.76953125 504.66796875 C-821.15973478 510.88489061 -825.92155605 513.01405804 -833.64453125 515.29296875 C-837.86709925 517.77683228 -838.27252453 520.24489891 -839.82421875 524.73046875 C-841.35852748 528.44135498 -843.48991534 530.02396986 -846.83203125 532.16796875 C-847.56164062 532.37292969 -848.29125 532.57789063 -849.04296875 532.7890625 C-851.82322641 533.60651367 -853.57897791 534.31350027 -855.83203125 536.16796875 C-857.2008333 539.35071173 -858.13970443 542.40842403 -859.02416992 545.74487305 C-861.55027768 555.26536346 -865.37855364 563.83940077 -873.390625 569.93359375 C-877.53435435 573.48215331 -877.17322141 579.77651079 -877.61376953 584.83032227 C-879.89619635 612.00350138 -879.89619635 612.00350138 -874.83203125 638.16796875 C-871.95102329 640.4811882 -871.95102329 640.4811882 -868.83203125 642.16796875 C-864.02704684 646.73856367 -862.33484151 651.74298359 -860.07421875 657.9140625 C-856.27129449 667.87581065 -850.77886657 674.24161153 -842.33203125 680.60546875 C-838.60242674 683.4247969 -835.64518377 686.43087578 -832.73046875 690.078125 C-827.60346943 695.72204401 -822.02178904 699.40135121 -815.20703125 702.73046875 C-808.84906651 705.83720152 -803.53353462 708.62317007 -800.33203125 715.29296875 C-796.87695265 719.26630914 -793.68228854 719.42307469 -788.625 720.39453125 C-784.45991346 721.24384859 -780.45392557 722.35682319 -776.39453125 723.60546875 C-775.73291992 723.79890869 -775.07130859 723.99234863 -774.38964844 724.19165039 C-767.40807201 726.35417159 -762.91142696 729.31810802 -759.30078125 735.58203125 C-755.81259029 739.34853531 -749.69516676 739.61435904 -744.8515625 740.31640625 C-743.50841222 740.51919161 -742.1653149 740.72232803 -740.82226562 740.92578125 C-738.74109912 741.23504167 -736.65956579 741.54081005 -734.5769043 741.83984375 C-722.95130446 743.52218689 -712.0568884 745.48058779 -702.83203125 753.16796875 C-702.40277344 753.83957031 -701.97351563 754.51117187 -701.53125 755.203125 C-699.19699762 757.90227201 -697.0739663 758.23303334 -693.64453125 759.10546875 C-683.9779541 761.90877612 -679.05703874 764.89789153 -673.765625 773.5703125 C-672.56617965 776.90768136 -673.04400616 778.72245478 -673.83203125 782.16796875 C-674.04538812 783.51945381 -674.24921916 784.87246486 -674.4453125 786.2265625 C-674.6778688 787.68628032 -674.91095094 789.14591444 -675.14453125 790.60546875 C-675.24958984 791.33056641 -675.35464844 792.05566406 -675.46289062 792.80273438 C-676.51830092 799.22170517 -678.47380107 804.22897949 -683.64453125 808.48046875 C-695.01311034 814.49912827 -708.70989169 811.94382901 -720.7734375 809.109375 C-726.60644407 807.3140307 -730.66214054 804.28513848 -735.03515625 800.13671875 C-738.84645572 796.86176849 -742.26579938 795.84297424 -747.14453125 794.98046875 C-748.30662109 794.74541626 -748.30662109 794.74541626 -749.4921875 794.50561523 C-753.53166245 793.70790037 -757.58415223 793.04080002 -761.65625 792.43359375 C-780.73859713 789.58456872 -780.73859713 789.58456872 -787.20703125 782.60546875 C-787.74328125 781.80109375 -788.27953125 780.99671875 -788.83203125 780.16796875 C-791.7958534 776.69022479 -793.95341239 775.54794856 -798.41015625 774.640625 C-800.02857422 774.28774414 -800.02857422 774.28774414 -801.6796875 773.92773438 C-803.93215329 773.46612112 -806.18475571 773.00517406 -808.4375 772.54492188 C-817.32595446 770.60552664 -824.64031702 768.05937439 -829.83203125 760.16796875 C-830.32703125 758.68296875 -830.32703125 758.68296875 -830.83203125 757.16796875 C-834.31332995 755.68519338 -837.73540052 754.46476331 -841.38671875 753.4765625 C-850.01260443 750.88879679 -855.8621523 745.73171 -861.83203125 739.16796875 C-861.83203125 738.50796875 -861.83203125 737.84796875 -861.83203125 737.16796875 C-862.93224609 736.77738281 -862.93224609 736.77738281 -864.0546875 736.37890625 C-866.88905038 735.14310809 -868.88219877 733.74198529 -871.26953125 731.79296875 C-873.80289018 729.74534475 -876.13019023 727.99503654 -878.95703125 726.35546875 C-882.5088358 723.65300877 -884.50976666 720.58732302 -886.97265625 716.8984375 C-891.34953991 710.47103902 -896.26379093 704.58967643 -901.83203125 699.16796875 C-906.79376663 694.20029524 -909.18315399 689.55911748 -911.14453125 682.85546875 C-911.63983476 681.25496357 -912.13589205 679.6546914 -912.6328125 678.0546875 C-912.84075439 677.35561279 -913.04869629 676.65653809 -913.26293945 675.9362793 C-913.80774302 674.09012902 -913.80774302 674.09012902 -914.83203125 672.16796875 C-918.13203125 671.83796875 -921.43203125 671.50796875 -924.83203125 671.16796875 C-924.83203125 627.27796875 -924.83203125 583.38796875 -924.83203125 538.16796875 C-921.53203125 537.83796875 -918.23203125 537.50796875 -914.83203125 537.16796875 C-914.52910156 536.05679688 -914.22617187 534.945625 -913.9140625 533.80078125 C-907.42574069 510.52085017 -907.42574069 510.52085017 -897.83203125 504.16796875 C-897.14109375 503.85085938 -896.45015625 503.53375 -895.73828125 503.20703125 C-892.59449338 501.49340917 -891.45661253 498.23197683 -889.83203125 495.16796875 C-886.25345402 488.84660042 -883.24854743 484.546563 -876.26953125 481.73046875 C-870.79666989 479.24280449 -868.63809394 475.13896459 -866.15234375 469.9140625 C-862.09219403 464.54457455 -854.56143485 461.99500765 -848.578125 459.25585938 C-844.17680025 457.14671793 -841.75808732 455.18175436 -838.83203125 451.16796875 C-832.08638775 445.4207779 -824.65072709 442.91168053 -816.20263672 440.85351562 C-810.27845176 439.40840297 -804.73634882 438.03715176 -801.08203125 432.79296875 C-794.73563434 424.94370677 -784.49844372 423.05195305 -775.08203125 421.04296875 C-763.35141657 418.73918338 -763.35141657 418.73918338 -753.58203125 412.23046875 C-742.27398351 402.32059611 -724.02147094 402.07631189 -709.72167969 400.25756836 C-707.08780112 399.9178299 -704.45967659 399.55289165 -701.83203125 399.16796875 C-700.93347412 399.03720947 -700.03491699 398.9064502 -699.10913086 398.77172852 C-694.02583888 397.91271919 -690.80496604 397.09226341 -687.14453125 393.23046875 C-681.71537476 387.59047123 -675.47596865 385.78726072 -667.89453125 384.60546875 C-667.12947266 384.48107422 -666.36441406 384.35667969 -665.57617188 384.22851562 C-658.0055614 383.0679693 -650.40089958 382.50864116 -642.76733398 381.93945312 C-627.90297091 381.24443139 -627.90297091 381.24443139 -613.83203125 377.16796875 C-613.15975722 375.16876082 -612.56896092 373.14186551 -612.01953125 371.10546875 C-610.78889057 366.79822635 -609.60098572 363.48556783 -606.89453125 359.91796875 C-605.62452626 358.20208042 -605.62452626 358.20208042 -604.83203125 356.16796875 C-605.17519306 354.13368302 -605.17519306 354.13368302 -606.09765625 352.08203125 C-607.96451569 347.03385421 -608.82396178 342.11724553 -609.51953125 336.79296875 C-609.64545654 335.8390625 -609.77138184 334.88515625 -609.90112305 333.90234375 C-611.71514554 319.08557508 -613.60687371 299.5280799 -605.83203125 286.16796875 C-604.18359375 284.375 -604.18359375 284.375 -602.45703125 282.98046875 C-601.89242188 282.51253906 -601.3278125 282.04460937 -600.74609375 281.5625 C-598.83203125 280.16796875 -598.83203125 280.16796875 -596.23046875 278.87890625 C-593.02642809 276.59328767 -592.7534666 274.75923967 -591.83203125 270.98046875 C-590.79546716 266.77939409 -589.70460377 263.94801735 -587.07421875 260.58203125 C-583.91585337 255.75107818 -585.00204486 251.7407177 -586.12109375 246.30664062 C-586.39695312 245.12650391 -586.6728125 243.94636719 -586.95703125 242.73046875 C-587.46229147 240.3781731 -587.96495106 238.02531716 -588.46484375 235.671875 C-588.7076709 234.5573999 -588.95049805 233.4429248 -589.20068359 232.29467773 C-592.2191278 217.34602538 -593.21524061 197.80665102 -585.14453125 184.35546875 C-582.87080046 182.20464232 -581.66146893 181.67635054 -578.83203125 180.60546875 C-575.87129939 179.26465672 -574.99846084 178.52460359 -573.6015625 175.53125 C-572.9554052 173.42926073 -572.33883095 171.31798166 -571.75 169.19921875 C-570.46770118 164.96490436 -568.39552101 161.73166405 -565.83203125 158.16796875 C-565.34476563 157.45511719 -564.8575 156.74226562 -564.35546875 156.0078125 C-560.44256872 150.47958708 -560.44256872 150.47958708 -557.390625 148.921875 C-553.75881264 146.43228149 -552.65222052 143.36158268 -550.89453125 139.41796875 C-547.31827994 131.88553136 -544.331645 125.9193836 -536.70703125 121.98046875 C-531.8585229 119.21251124 -531.32346281 115.32581302 -529.87890625 110.1875 C-528.26564776 105.5343328 -525.6799264 102.2175454 -521.83203125 99.16796875 C-519.40994349 98.0464573 -517.49524673 97.60277944 -514.83203125 97.16796875 C-514.71988281 96.43707031 -514.60773438 95.70617187 -514.4921875 94.953125 C-513.26099925 89.75882192 -510.26343885 84.99663245 -505.97265625 81.76953125 C-501.73038805 79.51264457 -497.45529255 78.51615848 -492.71484375 77.85546875 C-490.1315071 76.9121757 -490.01104164 75.59247508 -488.83203125 73.16796875 C-486.66015625 71.5 -486.66015625 71.5 -484.08203125 69.98046875 C-483.2415625 69.47128906 -482.40109375 68.96210938 -481.53515625 68.4375 C-474.87407619 65.30910257 -470.42315973 66.54414305 -463.76953125 68.94140625 C-460.60739 70.26176842 -457.90094368 71.77430289 -455.078125 73.69921875 C-452.7314963 75.23370986 -450.30725356 76.57341572 -447.84594727 77.91381836 C-434.93787627 85.01058297 -422.68383457 94.05202627 -417.66796875 108.52734375 C-417.37148438 109.584375 -417.075 110.64140625 -416.76953125 111.73046875 C-415.71514843 115.71100727 -415.71514843 115.71100727 -412.99609375 118.59375 C-411.61035597 119.21965015 -410.20582535 119.8056973 -408.78515625 120.34765625 C-404.32362749 122.22149833 -402.40054414 125.86701595 -400.55859375 130.08203125 C-399.72274962 132.16404299 -398.91485811 134.25758152 -398.140625 136.36328125 C-396.18800134 140.54830749 -393.66835367 142.62784385 -389.83203125 145.10546875 C-384.18211876 148.98978359 -381.79540406 154.07075053 -379.01953125 160.10546875 C-376.49153301 165.39600958 -374.38958095 169.23146268 -369.5625 172.7109375 C-358.79379882 181.77803804 -357.40923216 197.09729083 -356.11328125 210.18359375 C-355.70252753 216.00260482 -356.21616888 221.17539806 -357.38671875 226.86328125 C-359.35788051 236.55707676 -358.71174407 244.05907778 -354.83203125 253.16796875 C-354.05288734 250.94140336 -353.2821143 248.71272287 -352.51953125 246.48046875 C-352.28806396 245.80580566 -352.05659668 245.13114258 -351.81811523 244.43603516 C-350.33662377 240.00557136 -349.26876297 235.64058496 -348.39453125 231.04296875 C-347.56305965 227.23594989 -346.97622474 224.60778965 -344.01953125 221.98046875 C-340.83203125 220.16796875 -340.83203125 220.16796875 -337.765625 219.48046875 C-334.54525467 218.43442508 -334.54525467 218.43442508 -333.51171875 215.1484375 C-333.24617187 213.89675781 -332.980625 212.64507812 -332.70703125 211.35546875 C-332.39399079 209.99561703 -332.07884486 208.63624848 -331.76171875 207.27734375 C-331.60928711 206.59091797 -331.45685547 205.90449219 -331.29980469 205.19726562 C-328.78431545 194.28455866 -325.88784656 186.05826301 -316.83203125 179.16796875 C-316.17203125 178.83796875 -315.51203125 178.50796875 -314.83203125 178.16796875 C-314.05228698 176.08190378 -314.05228698 176.08190378 -313.46484375 173.5390625 C-313.21863281 172.58580078 -312.97242188 171.63253906 -312.71875 170.65039062 C-312.21783503 168.64801513 -311.71780937 166.64541691 -311.21875 164.64257812 C-307.5339237 150.3901282 -307.5339237 150.3901282 -302.5 146.25 C-301.68144531 145.83105469 -300.86289062 145.41210938 -300.01953125 144.98046875 C-298.70662109 144.26310547 -298.70662109 144.26310547 -297.3671875 143.53125 C-296.53058594 143.08136719 -295.69398438 142.63148438 -294.83203125 142.16796875 C-289.79287881 139.07208115 -287.07675227 136.19205292 -283.83203125 131.16796875 C-277.46779006 124.33805137 -269.84333208 124.18347934 -260.85449219 123.83398438 C-251.7740429 123.65535259 -244.47378769 125.12422588 -237.20703125 130.79296875 C-234.83203125 133.16796875 -234.83203125 133.16796875 -234.83203125 135.16796875 C-234.17203125 135.16796875 -233.51203125 135.16796875 -232.83203125 135.16796875 C-232.83203125 135.82796875 -232.83203125 136.48796875 -232.83203125 137.16796875 C-232.00703125 137.35359375 -231.18203125 137.53921875 -230.33203125 137.73046875 C-225.5726647 139.68520858 -222.1061135 142.1765713 -218.83203125 146.16796875 C-217.75 148.86328125 -217.75 148.86328125 -216.89453125 151.73046875 C-215.53973208 156.18976289 -214.34677248 157.96620812 -210.33203125 160.35546875 C-209.57921875 160.72027344 -208.82640625 161.08507812 -208.05078125 161.4609375 C-202.04926506 166.07830119 -200.54011357 174.88858828 -198.64453125 181.85546875 C-198.25491211 183.24088867 -198.25491211 183.24088867 -197.85742188 184.65429688 C-195.91384362 191.63008548 -195.91384362 191.63008548 -195.42456055 194.84692383 C-194.51044125 198.42769522 -191.87531204 199.23665594 -188.83203125 201.16796875 C-182.64477528 207.2079091 -180.3519817 214.69550127 -179 223.1171875 C-177.82986128 232.16191822 -177.82986128 232.16191822 -173.22119141 239.62353516 C-169.0216636 242.08358762 -164.5450997 243.11265125 -159.83203125 244.16796875 C-158.15199682 244.80019223 -156.47832303 245.45246501 -154.83203125 246.16796875 C-152.47138812 240.94441799 -150.6756585 235.78216081 -149.42529297 230.1965332 C-147.46235145 221.43084286 -144.94549743 214.2134462 -137.64453125 208.54296875 C-132.28481917 204.01698966 -131.3459578 197.50666123 -130.01953125 190.91796875 C-127.90681639 181.34482688 -124.93216713 172.47426686 -116.4453125 166.77734375 C-112.0613367 162.4039829 -111.19482126 155.75526457 -110.01953125 149.91796875 C-108.13805692 141.4009459 -105.82338076 132.47240134 -98.14453125 127.41796875 C-97.58378906 127.134375 -97.02304687 126.85078125 -96.4453125 126.55859375 C-91.74983806 122.51116299 -91.0650432 115.06741562 -89.95703125 109.29296875 C-87.84209637 99.23072798 -85.21116268 92.32616268 -76.69921875 86.06640625 C-72.01867166 81.30752364 -71.16606881 74.59951616 -69.95703125 68.29296875 C-67.92193649 58.54369798 -65.30965613 51.00811033 -56.83203125 45.16796875 C-56.17203125 45.16796875 -55.51203125 45.16796875 -54.83203125 45.16796875 C-53.79776103 42.13350193 -52.81379731 39.10379164 -51.9375 36.01953125 C-49.26732155 26.63413804 -46.11172434 19.78587156 -38.83203125 13.16796875 C-38.16042969 12.51570312 -37.48882813 11.8634375 -36.796875 11.19140625 C-32.00586959 6.67158983 -28.16892263 3.99385271 -21.83203125 2.16796875 C-21.24164062 1.99265625 -20.65125 1.81734375 -20.04296875 1.63671875 C-13.53805888 0.25758592 -6.62553694 0.39296288 0 0 Z M-475.83203125 131.16796875 C-479.20172962 134.62874005 -481.19240714 137.81840446 -483.14453125 142.23046875 C-485.28695333 146.7526065 -487.42650636 148.80162554 -491.8671875 151.03515625 C-496.63684874 153.78506035 -498.33062715 156.83108569 -499.76953125 162.04296875 C-501.84320722 168.67550436 -503.95487279 172.28900812 -509.89453125 176.16796875 C-513.25159071 178.45362626 -514.89056105 180.71568175 -516.83203125 184.16796875 C-517.34121094 184.93238281 -517.85039063 185.69679688 -518.375 186.484375 C-523.76154514 195.47900975 -526.01138894 206.80158335 -523.83203125 217.16796875 C-521.3651551 222.06354175 -517.17530464 224.97131954 -512.83203125 228.16796875 C-509.47081403 231.19402186 -506.7895071 233.64496716 -505.83203125 238.16796875 C-506.80859375 240.484375 -506.80859375 240.484375 -508.45703125 242.73046875 C-508.98554688 243.47425781 -509.5140625 244.21804688 -510.05859375 244.984375 C-511.83203125 247.16796875 -511.83203125 247.16796875 -513.8515625 248.91796875 C-516.66613992 252.11559517 -517.62182721 255.58838941 -518.89453125 259.60546875 C-523.00539151 272.30879024 -523.00539151 272.30879024 -528.70703125 275.98046875 C-533.0814564 279.12333728 -535.33256174 282.45907055 -537.83203125 287.16796875 C-538.24066406 287.83828125 -538.64929688 288.50859375 -539.0703125 289.19921875 C-543.95007409 297.78034749 -545.67265837 307.62784548 -547.83203125 317.16796875 C-547.28675781 317.55726563 -546.74148438 317.9465625 -546.1796875 318.34765625 C-539.07231811 323.62047389 -531.46549332 329.89280644 -527.83203125 338.16796875 C-528.23035156 338.66425781 -528.62867188 339.16054688 -529.0390625 339.671875 C-532.43829358 344.03049977 -534.9340717 347.97355313 -536.83203125 353.16796875 C-537.12078125 353.88984375 -537.40953125 354.61171875 -537.70703125 355.35546875 C-537.97936685 357.26436453 -537.97936685 357.26436453 -536.9296875 359.2265625 C-533.55490577 362.34996384 -529.8454923 361.93595722 -525.39453125 362.04296875 C-524.46745361 362.07487305 -523.54037598 362.10677734 -522.58520508 362.13964844 C-516.02638022 362.29278571 -509.54975965 362.03224404 -503.01953125 361.41796875 C-502.21523682 361.34433105 -501.41094238 361.27069336 -500.58227539 361.19482422 C-495.25704561 360.59836281 -490.74127644 359.34082451 -485.83203125 357.16796875 C-485.23390625 356.40484375 -484.63578125 355.64171875 -484.01953125 354.85546875 C-478.41677886 347.97208725 -470.19737194 345.7974524 -461.83203125 344.10546875 C-450.59078636 341.82261704 -442.97864052 338.83938754 -435.0078125 330.31640625 C-429.65625558 325.03210408 -423.16013899 322.69730456 -415.99609375 320.84375 C-413.57281673 320.1984413 -413.57281673 320.1984413 -410.83203125 318.16796875 C-409.88528322 315.70296015 -409.07328168 313.31800248 -408.33203125 310.79296875 C-406.21535397 303.66454591 -406.21535397 303.66454591 -404.11328125 300.94140625 C-402.6004594 299.25184587 -402.6004594 299.25184587 -403 297.10546875 C-403.86658532 294.86622794 -403.86658532 294.86622794 -406.14453125 292.16796875 C-409.21348422 288.09961611 -410.44737062 283.69501556 -411.83984375 278.83984375 C-412.85076562 276.11751871 -413.54906587 274.90763228 -415.83203125 273.16796875 C-417.10810478 272.61002028 -418.40153101 272.09058654 -419.70703125 271.60546875 C-425.20447483 268.87688411 -426.92204015 264.82317371 -428.83203125 259.16796875 C-435.22483103 236.6434614 -435.22483103 236.6434614 -430.08203125 226.91796875 C-429.5715625 225.9228125 -429.06109375 224.92765625 -428.53515625 223.90234375 C-426.83203125 221.16796875 -426.83203125 221.16796875 -424.70703125 219.19921875 C-421.02905336 215.2147427 -421.35453779 209.36815285 -420.83203125 204.16796875 C-420.72375 203.3584375 -420.61546875 202.54890625 -420.50390625 201.71484375 C-420.23431019 199.41968521 -420.23431019 199.41968521 -420.83203125 196.16796875 C-423.34027156 193.91868803 -423.34027156 193.91868803 -425.2421875 192.63671875 C-429.23174796 188.95103145 -430.44913164 182.39727801 -432.01953125 177.35546875 C-434.26630095 173.40425307 -436.51686182 172.33181827 -440.578125 170.50390625 C-445.44402435 167.61978566 -447.3744803 163.30886822 -449.26953125 158.16796875 C-451.20515533 153.34962624 -452.6742194 150.28632764 -456.83203125 147.16796875 C-458.16234375 146.64203125 -458.16234375 146.64203125 -459.51953125 146.10546875 C-461.83203125 145.16796875 -461.83203125 145.16796875 -462.89453125 143.41796875 C-463.20390625 142.67546875 -463.51328125 141.93296875 -463.83203125 141.16796875 C-466.55139703 136.50619885 -469.11726588 133.83283613 -473.83203125 131.16796875 C-474.49203125 131.16796875 -475.15203125 131.16796875 -475.83203125 131.16796875 Z M273.16796875 452.16796875 C273.00109427 454.75151093 273.00109427 454.75151093 273.16796875 457.16796875 C274.74329961 458.03680581 276.32861384 458.88755943 277.91796875 459.73046875 C279.24054688 460.44396484 279.24054688 460.44396484 280.58984375 461.171875 C283.40916289 462.26115739 284.43247659 462.35136645 287.16796875 461.16796875 C287.82796875 460.50796875 288.48796875 459.84796875 289.16796875 459.16796875 C288.97543712 456.15163989 288.75339877 453.96089295 286.93359375 451.49609375 C284.56980149 449.71801993 283.03521537 449.7993764 280.10546875 449.85546875 C278.78869141 449.86126953 278.78869141 449.86126953 277.4453125 449.8671875 C274.97134106 449.95897541 274.97134106 449.95897541 273.16796875 452.16796875 Z " fill="#000000" transform="translate(924.83203125,212.83203125)"/>
<path d="M0 0 C8.20344027 -0.39546869 12.48321104 2.00963422 18.5703125 7.25390625 C21.65863236 9.56459161 24.76319868 10.97152853 28.28515625 12.53515625 C33.32879867 14.93139201 37.09034084 17.09392586 39.578125 22.2578125 C39.81144531 22.92683594 40.04476563 23.59585938 40.28515625 24.28515625 C40.50816406 24.92324219 40.73117187 25.56132813 40.9609375 26.21875 C42.18455208 31.50689302 40.37217145 35.39652354 37.8125 40.01953125 C35.12404389 44.00752241 32.01120403 46.33582997 27.78515625 48.66015625 C25.36038883 50.23625507 24.27199499 51.47526326 22.53515625 53.72265625 C18.07821184 59.17003276 12.04111391 61.08943762 5.28515625 62.28515625 C3.74517734 62.3984945 2.20194835 62.47306311 0.65830994 62.51257324 C-0.69225998 62.55033119 -0.69225998 62.55033119 -2.07011414 62.58885193 C-3.04608047 62.61173782 -4.02204681 62.63462372 -5.02758789 62.65820312 C-6.06598816 62.68600357 -7.10438843 62.71380402 -8.17425537 62.7424469 C-11.61607807 62.83362406 -15.05802423 62.91872056 -18.5 63.00390625 C-20.9144345 63.06692677 -23.32885801 63.13036958 -25.74327087 63.19421387 C-32.12257827 63.36194098 -38.50200217 63.52471149 -44.88146973 63.68621826 C-55.00803205 63.94338821 -65.13440073 64.20805947 -75.2607708 64.47267151 C-78.75617249 64.56332447 -82.25162132 64.6519091 -85.74708557 64.7401123 C-97.455782 65.0391665 -109.16219681 65.38261028 -120.86767578 65.78955078 C-122.02918183 65.82901573 -123.19068789 65.86848068 -124.38739109 65.90914154 C-132.4777036 66.19908872 -140.48494136 66.70623092 -148.52734375 67.66015625 C-149.63013672 67.77359375 -150.73292969 67.88703125 -151.86914062 68.00390625 C-157.72577022 68.667587 -162.45855579 69.60640616 -167.71484375 72.28515625 C-188.68261556 82.76904216 -212.17667825 83.47819607 -235.20751953 84.99829102 C-255.73098639 86.02457985 -255.73098639 86.02457985 -273.30859375 95.55078125 C-282.73224324 102.34315198 -296.39965875 103.15031419 -307.53808594 104.84326172 C-321.39184215 106.12065611 -321.39184215 106.12065611 -333.375 111.91796875 C-334.53917317 113.6802589 -334.53917317 113.6802589 -335.42407227 115.4609375 C-340.85556795 123.13715005 -355.02692177 124.77915139 -363.52148438 126.80664062 C-369.82575762 128.42955769 -369.82575762 128.42955769 -374.5 132.6628418 C-375.82580522 135.28522034 -375.82580522 135.28522034 -376.73754883 137.91357422 C-378.88461103 143.1238071 -383.66105593 145.97205634 -388.65234375 148.16015625 C-389.66296875 148.53140625 -390.67359375 148.90265625 -391.71484375 149.28515625 C-391.24433594 150.05859375 -390.77382813 150.83203125 -390.2890625 151.62890625 C-384.59514907 161.1541279 -384.59514907 161.1541279 -383.46484375 165.53515625 C-381.19621181 172.34105207 -372.94935091 176.20077676 -366.90234375 179.28515625 C-363.30002192 181.54543661 -361.66091192 183.80733901 -359.46484375 187.3828125 C-355.38389682 191.81902043 -349.29943627 192.72995172 -343.58984375 193.72265625 C-320.78876062 198.01298367 -320.78876062 198.01298367 -312.9921875 207.34765625 C-309.89488058 209.98275785 -306.73318785 210.55484319 -302.83984375 211.28515625 C-301.62796387 211.52987671 -301.62796387 211.52987671 -300.39160156 211.77954102 C-292.46593099 213.30152063 -284.47041676 214.23148536 -276.46484375 215.22265625 C-251.381371 218.39339841 -251.381371 218.39339841 -241.90234375 225.91015625 C-237.84225571 228.95915309 -234.13211201 230.1204499 -229.1875 230.87109375 C-228.41835266 230.99307129 -227.64920532 231.11504883 -226.85675049 231.24072266 C-214.64528423 233.03314469 -202.27390784 233.54573139 -189.96484375 234.28515625 C-161.4648027 236.00688109 -161.4648027 236.00688109 -148.5546875 237.7578125 C-147.7075116 237.87265991 -146.86033569 237.98750732 -145.98748779 238.10583496 C-134.8153086 239.72971281 -123.51415567 242.24002734 -113.02734375 246.47265625 C-89.37748788 255.50457973 -58.0527951 252.62563871 -33.16674805 252.88645172 C-30.91354327 252.91070852 -28.66038916 252.93787116 -26.40722656 252.96575928 C104.64843262 262.69267918 104.64843262 262.69267918 232.16015625 244.91015625 C255.78115657 236.79728694 280.91860701 235.40733013 305.67221069 234.16885376 C315.66216817 233.66414269 325.59485809 233.00957769 335.53515625 231.84765625 C336.52136963 231.73744141 337.50758301 231.62722656 338.52368164 231.51367188 C345.9097427 230.58383984 352.47348469 229.01092981 358.47265625 224.34765625 C368.87858226 217.1714786 381.93823122 216.25832332 394.16015625 214.78515625 C412.57816414 213.5847123 412.57816414 213.5847123 428.96362305 206.88110352 C430.08752877 205.3613507 431.18650648 203.82326592 432.28515625 202.28515625 C440.85418026 196.2902947 451.80414508 194.69531033 461.83984375 192.51171875 C462.89429688 192.27195312 463.94875 192.0321875 465.03515625 191.78515625 C465.958125 191.58921875 466.88109375 191.39328125 467.83203125 191.19140625 C472.06098242 189.62911856 474.27710242 186.34493327 476.91015625 182.84765625 C480.04251375 179.11903781 483.5409022 177.47744894 487.89453125 175.4375 C495.22872591 171.90222643 497.46337356 167.43725119 500.828125 160.24609375 C502.63540547 156.57338974 504.78790916 153.51688778 507.28515625 150.28515625 C505.09394373 148.09394373 503.28456503 147.29988284 500.47265625 146.03515625 C495.7003688 143.683395 493.21277906 141.72094839 490.28515625 137.28515625 C490.04023437 136.16109375 489.7953125 135.03703125 489.54296875 133.87890625 C488.31523424 130.95191322 487.38361853 130.33139249 484.45581055 128.95654297 C480.69840969 127.73329996 476.91873226 126.66054968 473.09765625 125.66015625 C452.87710191 120.18505231 452.87710191 120.18505231 448.171875 113.10546875 C445.76792903 109.51199258 444.25736422 109.14623202 440.09765625 108.16015625 C439.46400146 108.00603271 438.83034668 107.85190918 438.17749023 107.69311523 C431.7974743 106.22503514 425.31627542 105.32747106 418.84765625 104.34765625 C404.98720148 102.22640045 393.40201237 100.07461387 382.17016602 91.19067383 C370.72176513 83.62912954 351.85253727 85.05199148 338.6081543 84.13110352 C295.59026845 81.09059894 295.59026845 81.09059894 282.0390625 71.734375 C278.21252198 69.72069197 274.47331485 69.25531609 270.22265625 68.66015625 C269.43955078 68.53898438 268.65644531 68.4178125 267.84960938 68.29296875 C253.85557467 66.20802755 239.78197952 65.95188249 225.6640625 65.56640625 C223.43813801 65.50324965 221.2122216 65.43980794 218.98631287 65.37609863 C213.12675778 65.20917986 207.26709889 65.04622636 201.40740967 64.88409424 C196.73093418 64.75411864 192.05453301 64.6215904 187.37813759 64.48876953 C183.93174171 64.39096045 180.48532711 64.29383217 177.03890991 64.19677734 C172.5147716 64.06921678 167.99071849 63.93904916 163.46670532 63.80712891 C153.34763707 63.51524781 143.23119977 63.25418522 133.10888672 63.109375 C130.58609239 63.0664598 128.06332892 63.02207809 125.54057121 62.97706604 C123.28325278 62.94285734 121.02645795 62.92885528 118.76893616 62.91589355 C106.39172186 62.74914311 96.81039731 60.25486399 87.28515625 52.28515625 C86.52203125 51.76050781 85.75890625 51.23585938 84.97265625 50.6953125 C77.90273228 45.75334262 73.9905572 39.78137925 72.22265625 31.28515625 C71.88952255 26.14240473 73.63396924 21.62611081 76.28515625 17.28515625 C80.42716025 12.91926015 85.48853036 10.61355804 90.9765625 8.359375 C94.35355271 6.78801746 97.30638623 4.7020275 100.33984375 2.5546875 C116.44422152 -7.95519759 158.10775755 4.52023198 175.90649414 7.76269531 C183.93868556 9.17192207 191.9757717 10.08102456 200.09765625 10.78515625 C201.17923004 10.88086914 201.17923004 10.88086914 202.28265381 10.97851562 C217.47128541 12.29526296 232.67619428 12.79728309 247.91015625 13.28515625 C321.02100526 15.6535751 321.02100526 15.6535751 336.28515625 26.28515625 C339.91208993 28.71912325 342.77086735 29.78216246 347.08984375 30.3828125 C348.21938477 30.54338135 349.34892578 30.7039502 350.51269531 30.86938477 C351.71635742 31.02721436 352.92001953 31.18504395 354.16015625 31.34765625 C355.40506836 31.519021 356.64998047 31.69038574 357.93261719 31.86694336 C365.7870239 32.91710218 373.63626645 33.72725436 381.53515625 34.34765625 C411.85644874 36.7811845 411.85644874 36.7811845 420.48046875 46.84765625 C424.26956908 50.14069052 427.61205504 50.61719651 432.47265625 51.41015625 C433.34962158 51.57064453 434.22658691 51.73113281 435.13012695 51.89648438 C439.50471596 52.6856475 443.8914388 53.38519358 448.28515625 54.05859375 C460.94045704 56.0054632 470.56055922 58.43979305 479.16015625 68.47265625 C483.10162243 71.83449505 488.15901474 72.83617541 493.15234375 73.890625 C501.49591446 75.67853301 509.37810882 78.75365632 515.09375 85.3828125 C516.28515625 87.28515625 516.28515625 87.28515625 516.28515625 89.28515625 C516.95546875 89.54039062 517.62578125 89.795625 518.31640625 90.05859375 C537.25264801 97.88225153 537.25264801 97.88225153 541.28515625 107.28515625 C543.90614203 112.19700364 546.45670494 116.15222575 550.953125 119.54296875 C559.15407375 125.94285626 560.952717 134.32065642 562.28515625 144.28515625 C564.49752977 175.22203768 564.49752977 175.22203768 556.2265625 185.95703125 C554.69489392 187.66175513 553.12301577 189.33127064 551.51171875 190.9609375 C549.4427122 193.12068995 547.88092186 195.20419934 546.28515625 197.72265625 C537.13756749 211.99997021 526.13102963 223.24053459 509.34765625 227.66015625 C504.8653402 229.00967076 503.72966657 231.32739748 501.55078125 235.29296875 C497.0296834 242.40951166 488.04998318 243.63229625 480.3984375 245.40234375 C477.81502366 245.9753634 475.25077937 246.46475867 472.640625 246.91796875 C465.47779744 248.23546206 461.9714505 249.9033671 457.1484375 255.35546875 C449.38253436 263.39814412 435.24316075 263.71268965 424.78125 265.25390625 C423.63003662 265.42470703 422.47882324 265.59550781 421.29272461 265.77148438 C418.99161891 266.10847375 416.68904838 266.43563792 414.38500977 266.75195312 C407.11062599 267.80353983 401.16398696 268.79016964 395.47265625 273.72265625 C389.37125041 278.9999761 381.90308314 280.52620981 374.11328125 281.8125 C373.32824219 281.94237808 372.54320312 282.07225616 371.734375 282.20606995 C363.76557541 283.46192105 355.78797441 284.05499623 347.74258423 284.56387329 C317.80335764 285.46925865 317.80335764 285.46925865 290.05859375 294.8359375 C268.42933371 306.13798746 236.3585661 303.78392363 212.66015625 304.41015625 C211.31780915 304.4484045 209.97547326 304.487048 208.63314819 304.52606201 C125.98288125 306.9193735 43.21154214 307.04374625 -96.09798813 304.46691132 C-98.03299527 304.41177607 -99.9681118 304.36052285 -101.90322876 304.30938721 C-162.01470596 302.67905977 -162.01470596 302.67905977 -178.15234375 293.28515625 C-194.51068103 284.57971402 -217.37728204 285.56291843 -235.58325195 284.41137695 C-243.61501249 283.88652984 -251.5373323 283.14164708 -259.484375 281.83984375 C-260.21354126 281.72180893 -260.94270752 281.60377411 -261.69396973 281.48216248 C-269.51321401 280.12025428 -277.31162367 277.98687669 -282.96484375 272.16015625 C-288.1930003 267.30366959 -295.92938536 267.25231724 -302.71484375 266.28515625 C-305.88766208 265.81627446 -309.05898065 265.33949405 -312.22900391 264.85205078 C-314.37392772 264.52404097 -316.52071992 264.20795067 -318.66943359 263.90576172 C-328.69338657 262.39985322 -337.50719218 260.24382488 -344.86328125 252.96875 C-350.93190601 247.45065449 -358.08763136 246.79979732 -365.90429688 245.35546875 C-375.48979054 243.44465559 -384.07802741 240.64946436 -389.71484375 232.28515625 C-390.04484375 231.29515625 -390.37484375 230.30515625 -390.71484375 229.28515625 C-393.01446484 228.43555733 -395.23441674 227.74671994 -397.58984375 227.09765625 C-411.52921932 222.79287336 -423.63640569 212.10186889 -431.0625 199.5078125 C-432.71484375 196.28515625 -432.71484375 196.28515625 -432.71484375 194.28515625 C-433.30265625 194.03378906 -433.89046875 193.78242187 -434.49609375 193.5234375 C-440.29302115 190.28818048 -443.83978466 183.88829104 -446.15234375 177.84765625 C-450.3703598 162.41189925 -450.40099991 139.00695813 -442.52734375 124.72265625 C-440.08314809 121.29337567 -436.99544417 119.09755467 -433.5703125 116.70703125 C-430.30287536 114.20314258 -428.50455692 110.99620144 -426.80078125 107.3046875 C-426.48367188 106.61761719 -426.1665625 105.93054688 -425.83984375 105.22265625 C-425.44152344 104.27712891 -425.44152344 104.27712891 -425.03515625 103.3125 C-421.4335187 97.78217488 -416.15108593 95.37619185 -410.27734375 92.97265625 C-404.60486432 90.50636085 -401.04553433 88.08849185 -397.20703125 83.1328125 C-391.45500271 76.01053632 -382.30305907 74.55639791 -373.859375 72.3984375 C-368.48104282 70.98343464 -364.86640167 69.96586518 -361.40234375 65.41015625 C-351.68938409 53.93309067 -333.93294443 53.89447863 -319.97851562 51.73046875 C-318.98271484 51.57191406 -317.98691406 51.41335938 -316.9609375 51.25 C-316.07075928 51.11198975 -315.18058105 50.97397949 -314.26342773 50.83178711 C-310.29706063 49.98106425 -307.4651529 49.31335768 -305.02734375 45.97265625 C-294.83620645 34.12890209 -273.24948996 34.6410635 -258.77734375 33.28515625 C-237.3375036 32.50758208 -237.3375036 32.50758208 -218.50390625 24.546875 C-198.85878427 10.69234574 -160.50218787 14.1376567 -137.89562988 13.50939941 C-104.14924565 12.53320975 -70.70035078 10.48076482 -37.46362305 4.36962891 C-24.974429 2.07508195 -12.63426404 0.96982258 0 0 Z " fill="#000000" transform="translate(582.71484375,660.71484375)"/>
<path d="M0 0 C0.97308105 0.01256836 1.94616211 0.02513672 2.94873047 0.03808594 C20.74912724 0.34601866 34.0435591 3.40444894 47.375 15.8125 C53.12994413 21.79085035 55.00017735 26.8783189 55.4375 35.0625 C55.20207447 41.6544148 52.87880257 46.03173064 48.375 50.75 C45.10197295 53.21710582 41.47477741 54.54876622 37.65234375 55.95703125 C34.12009671 57.34600026 30.84173949 59.12115527 27.51953125 60.94921875 C19.66555144 64.22475452 13.73799075 62.05298016 6 59.625 C-7.96375999 55.54249482 -18.40423985 53.15284972 -32.22216797 58.64624023 C-38.11510131 60.90838351 -43.85946146 62.03758384 -50.125 62.75 C-51.00172363 62.87221924 -51.87844727 62.99443848 -52.78173828 63.12036133 C-57.61415974 63.57534696 -60.30023514 63.28534943 -64.1171875 60.140625 C-65.81591797 58.51660156 -65.81591797 58.51660156 -67 57 C-67 56.34 -67 55.68 -67 55 C-67.680625 54.835 -68.36125 54.67 -69.0625 54.5 C-72.74187337 52.62117105 -74.6807565 50.17237316 -77.296875 47.02734375 C-79.10488318 44.81574761 -79.10488318 44.81574761 -81.75 42.25 C-85.61538462 38.38461538 -85.61538462 38.38461538 -87 36 C-86.57289228 32.6313601 -85.33447674 31.01351555 -83 28.625 C-79.63815697 24.96003998 -77.09341562 21.08874907 -74.5 16.875 C-67.02105759 5.10711938 -67.02105759 5.10711938 -59.453125 3.0234375 C-40.1015927 -1.12960991 -19.65419386 -0.27895126 0 0 Z " fill="#000000" transform="translate(950,775)"/>
<path d="M0 0 C0.77671051 -0.00006042 1.55342102 -0.00012085 2.35366821 -0.00018311 C48.11079938 0.05019279 48.11079938 0.05019279 57.5 8.1875 C64.15327794 15.89129551 68.44917162 26.79252121 67.8828125 37.0625 C66.90626728 42.48332242 64.83559776 47.34811755 60.6875 51.0625 C51.38192418 57.26621721 39.61644479 59.43283484 28.5 58.1875 C26.22672541 57.56510095 24.07918244 56.83352918 21.8984375 55.94140625 C15.09031251 53.80139302 7.81686155 53.99390735 0.75 54 C-0.21993896 54.00080566 -1.18987793 54.00161133 -2.18920898 54.00244141 C-9.93052357 54.06854556 -17.78658619 54.21749732 -25.0234375 57.2421875 C-33.10896775 60.32846245 -44.49407575 58.07159786 -52.34375 55.1171875 C-58.81470597 52.09106397 -62.44764177 48.95370511 -65.25 42.3125 C-68.18929462 33.63996586 -65.73893544 25.35740548 -62.2109375 17.2109375 C-59.22000973 11.27706476 -56.40065214 7.37072697 -50.5 4.1875 C-47.74871655 3.39262258 -45.35843866 2.83502682 -42.5625 2.4375 C-41.91732422 2.32535156 -41.27214844 2.21320312 -40.60742188 2.09765625 C-27.23687251 -0.04465609 -13.50948456 -0.01630421 0 0 Z " fill="#000000" transform="translate(619.5,814.8125)"/>
<path d="M0 0 C1.42236359 -0.00322888 2.84472688 -0.00659404 4.26708984 -0.01008606 C7.22168751 -0.01600992 10.17625621 -0.01793281 13.13085938 -0.01733398 C16.8720568 -0.01723227 20.61306491 -0.03092527 24.35421753 -0.04810619 C27.28345556 -0.05934739 30.21264937 -0.06124959 33.14190674 -0.06072426 C35.17713844 -0.06243863 37.21235636 -0.07318875 39.24755859 -0.08427429 C69.35306302 -0.01144685 69.35306302 -0.01144685 79.0625 7.54296875 C86.21906507 14.87408419 86.50856882 24.25989924 87 34.10546875 C86.84135816 39.79542277 84.31228126 43.48068749 80.3125 47.48046875 C71.98788572 52.70755213 61.55983119 52.31366636 52.05859375 52.23046875 C49.96036811 52.22217919 47.86214219 52.21396281 45.76391602 52.20581055 C43.53011064 52.19320342 41.2963053 52.18058935 39.0625 52.16796875 C26.03919839 52.10905345 13.02533664 52.05177501 0.0078125 52.4921875 C-0.88133347 52.52144318 -1.77047943 52.55069885 -2.68656921 52.58084106 C-6.80565658 52.72090054 -10.92237497 52.88310719 -15.03930664 53.07617188 C-25.50441872 53.5069969 -35.67660194 53.56414816 -44.125 46.60546875 C-46.046875 44.7890625 -46.046875 44.7890625 -47.375 43.16796875 C-47.375 42.50796875 -47.375 41.84796875 -47.375 41.16796875 C-47.99375 40.92046875 -48.6125 40.67296875 -49.25 40.41796875 C-51.91323525 38.85135978 -52.5095846 38.14132335 -53.375 35.16796875 C-52.60753789 32.45666437 -51.77079249 30.05995045 -50.6875 27.48046875 C-50.10618611 26.04112518 -49.52674274 24.60102467 -48.94921875 23.16015625 C-48.530354 22.1252002 -48.530354 22.1252002 -48.10302734 21.06933594 C-47.22900583 18.78668016 -46.60975137 16.470813 -46 14.10546875 C-44.37666276 9.09137383 -40.75072289 5.93440652 -36.375 3.16796875 C-32.01488545 1.47736274 -28.12010139 0.8214583 -23.4609375 0.5534668 C-22.81031342 0.5159389 -22.15968933 0.47841101 -21.48934937 0.4397459 C-14.32952868 0.05819466 -7.16882618 0.00604736 0 0 Z " fill="#000000" transform="translate(437.375,753.83203125)"/>
<path d="M0 0 C4.66033247 3.67972085 7.5021782 7.37386828 8.39453125 13.390625 C8.69598134 16.50560931 8.86859921 19.60390284 9 22.73046875 C9.06445312 23.70113281 9.12890625 24.67179688 9.1953125 25.671875 C9.45294668 31.84650745 8.96367206 36.7926739 5 41.73046875 C0.65485951 45.74521838 -4.07907698 47.5476619 -9.94921875 47.8671875 C-13.93603649 47.68852089 -17.81268346 47.18124715 -21.75 46.54296875 C-22.4711499 46.43017578 -23.1922998 46.31738281 -23.93530273 46.20117188 C-31.59637136 44.79101796 -36.53439524 40.98231542 -41 34.73046875 C-42.55730969 30.024124 -41.65911406 25.63072337 -40.875 20.85546875 C-40.71644531 19.68951172 -40.71644531 19.68951172 -40.5546875 18.5 C-39.49862858 11.95463481 -37.14986854 7.10396124 -31.78125 3.05859375 C-21.9055166 -1.60870491 -10.06632488 -6.389757 0 0 Z " fill="#000000" transform="translate(1019,618.26953125)"/>
<path d="M0 0 C0.67337402 0.15678223 1.34674805 0.31356445 2.04052734 0.47509766 C8.00845307 2.01392251 12.21377541 4.48334172 16.25 9.125 C19.55934794 15.53686164 16.73742319 23.61647724 14.95703125 30.16796875 C12.27477743 37.91019485 7.79182863 41.9115289 0.5625 45.5 C-5.70670774 48.00555071 -12.34474812 50.24258485 -19.0625 48.53515625 C-24.14196866 46.29021251 -27.74186164 43.53857428 -30.35546875 38.59765625 C-33.70396083 29.80969231 -34.20418359 19.53267493 -33.25 10.25 C-30.73351613 4.84421983 -26.95241932 1.50693922 -21.5625 -1 C-14.06060063 -2.69854325 -7.3876758 -1.76945249 0 0 Z " fill="#000000" transform="translate(945.25,555.75)"/>
<path d="M0 0 C5.16975731 3.61778149 9.23328188 8.29721821 13.2734375 13.09375 C14.96656991 14.96309077 16.72080579 16.48914464 18.6875 18.0625 C22.25825036 21.04351105 24.22020904 23.66659594 26 28 C24.9746948 33.24756898 22.36763777 36.06237704 18.4375 39.4375 C17.6338501 40.150271 17.6338501 40.150271 16.81396484 40.87744141 C12.98855549 44.2376445 9.04244943 47.42556191 4.98046875 50.49609375 C2.24220561 52.57544545 -0.37565145 54.77939738 -3 57 C-6.76858764 55.69346875 -9.22821896 54.1635582 -12.125 51.4375 C-15.54406834 48.2867058 -19.04711153 45.32999914 -22.6875 42.4375 C-33.74625701 33.38518414 -33.74625701 33.38518414 -34.3125 28.0625 C-31.54888413 21.61406296 -25.96073411 16.83018848 -21 12 C-20.236875 11.21625 -19.47375 10.4325 -18.6875 9.625 C-6.77740189 -2.00811908 -6.77740189 -2.00811908 0 0 Z " fill="#000000" transform="translate(614,561)"/>
</svg>
