<?xml version="1.0" encoding="UTF-8"?>
<!-- Generator: visioncortex VTracer 0.6.2 -->
<svg version="1.1" xmlns="http://www.w3.org/2000/svg" width="1280" height="1280">
<path d="M0 0 C2.39999951 -0.00071835 4.79999357 -0.00286713 7.1999917 -0.00549722 C15.61324273 -0.01470108 24.02647809 -0.01883809 32.43973398 -0.01804566 C40.21844245 -0.01744517 47.99708152 -0.02800435 55.77577245 -0.04378933 C62.51100272 -0.05695826 69.24621054 -0.06222573 75.98145354 -0.06159025 C79.97919797 -0.06133814 83.97688044 -0.06402806 87.97461176 -0.0747683 C137.7160908 -0.19893762 137.7160908 -0.19893762 146.94803476 6.16725707 C150.86877757 10.16937378 152.21072636 14.32973086 153.82303476 19.54225707 C155.67067336 25.1699106 157.33712018 29.35455572 161.56912851 33.60866332 C166.15456224 38.79163232 167.27870733 46.14250177 168.43631601 52.74928832 C168.56534311 53.48431075 168.69437021 54.21933318 168.82730722 54.97662902 C170.50300633 64.95538582 171.29725408 75.03247218 172.17752695 85.10597777 C173.1770868 103.09525692 173.1770868 103.09525692 180.38553476 119.10475707 C190.3207005 132.38650495 190.42412469 151.93350316 191.66141367 167.90016723 C192.31959147 176.39338539 193.16710694 184.7819301 194.69803476 193.16725707 C194.89707407 194.37696166 194.89707407 194.37696166 195.10013437 195.61110473 C196.13070355 200.80851875 197.91234215 203.68385441 201.52176523 207.52223754 C211.00626395 218.46139406 210.44147332 240.52682578 211.69022226 254.05006957 C211.78540644 255.07133941 211.78540644 255.07133941 211.88251352 256.11324096 C212.19451324 259.47664846 212.49318562 262.83980509 212.77078867 266.20631957 C214.04360898 281.99982314 214.04360898 281.99982314 221.64334726 295.44850707 C224.85707229 299.68215681 224.2379091 305.4656722 224.32303476 310.54225707 C224.36041758 311.3801477 224.39780039 312.21803832 224.43631601 313.08131957 C224.49581463 317.28588831 224.39673662 320.20226901 221.68240976 323.54225707 C216.94707044 328.08818282 216.94707044 328.08818282 214.82303476 329.79225707 C214.16045664 330.3413977 213.49787851 330.89053832 212.81522226 331.45631957 C201.32624962 338.31213703 189.2692016 338.01855581 176.26053476 338.41725707 C174.19081239 338.49375139 172.12114911 338.57186237 170.05155039 338.65163207 C165.01753361 338.84217084 159.98321985 339.01075249 154.94803476 339.16725707 C153.10190205 350.47996592 152.65838163 361.46316058 152.67679453 372.90578246 C152.6723962 374.73747526 152.66709007 376.56916606 152.66095591 378.40085387 C152.64954302 382.31462422 152.64400298 386.22834105 152.64307451 390.14212775 C152.64111712 396.34313441 152.62297468 402.54403183 152.60231638 408.7450006 C152.55336197 424.14017772 152.52226449 439.5353841 152.50101328 454.93062377 C152.48445049 466.91442794 152.46154528 478.89813701 152.41799253 490.8818776 C152.39633698 497.03396484 152.38814682 503.18587082 152.39038527 509.3379935 C152.38870789 513.17694158 152.37459541 517.01577304 152.35717249 520.85467887 C152.351617 522.62100279 152.35104664 524.38735134 152.3561101 526.15367675 C152.43028737 555.08312035 152.43028737 555.08312035 143.60355234 565.79958129 C139.16491638 570.16452694 135.5983207 570.89793463 129.44998789 570.88991332 C127.93308359 570.84157348 127.93308359 570.84157348 126.38553476 570.79225707 C124.86282969 570.80192504 124.86282969 570.80192504 123.30936289 570.81178832 C117.39008858 570.72673017 113.54302222 570.25738125 108.94803476 566.16725707 C101.27764401 557.62133785 99.79724486 544.40362247 99.80327463 533.4027307 C99.79974779 532.63977423 99.79622094 531.87681776 99.79258722 531.0907414 C99.78194576 528.54397474 99.77822712 525.99724557 99.77445078 523.4504602 C99.7681417 521.62009565 99.76137551 519.78973263 99.75418711 517.95937133 C99.73953763 514.0209031 99.7278043 510.08244071 99.71823931 506.1439569 C99.7027498 499.90588673 99.67879838 493.66786673 99.65334177 487.42983031 C99.58224497 469.69194761 99.52247939 451.95403596 99.47122812 434.2160852 C99.44283994 424.41691264 99.40741102 414.61778983 99.36457437 404.81866956 C99.33793618 398.62899983 99.31994849 392.43938632 99.30853713 386.24967074 C99.29934907 382.38123647 99.28195816 378.5128699 99.26235819 374.6444757 C99.25494485 372.86364863 99.25080543 371.08280411 99.25036287 369.30196166 C99.2457496 359.02257661 98.65899622 349.3312117 96.94803476 339.16725707 C89.68803476 339.16725707 82.42803476 339.16725707 74.94803476 339.16725707 C74.47365976 341.02350707 73.99928476 342.87975707 73.51053476 344.79225707 C73.24369883 345.8363977 72.97686289 346.88053832 72.70194101 347.95631957 C71.16542998 354.50042357 70.80257035 360.60133338 70.81102037 367.2948854 C70.80836855 368.31690183 70.80571672 369.33891826 70.80298454 370.39190489 C70.79529663 373.8325141 70.79473256 377.2730876 70.79413462 380.71370482 C70.79011969 383.19901155 70.78568142 385.68431762 70.78085506 388.1696229 C70.77014336 394.29394063 70.76413446 400.41824834 70.76014618 406.54257367 C70.75513217 413.87796829 70.74440405 421.21335183 70.73366445 428.54873989 C70.70805051 446.27685675 70.69300289 464.00497791 70.68015398 481.73310796 C70.67589845 487.6043486 70.67133271 493.47558892 70.66657066 499.34682918 C70.64131326 530.56662824 70.61926584 561.78642785 70.60684252 593.00623488 C70.60392122 600.23748058 70.60095368 607.46872626 70.59793711 614.69997191 C70.5975662 615.59835715 70.59719529 616.49674239 70.59681314 617.42235142 C70.58465397 646.55897598 70.55370226 675.6955402 70.51201558 704.83213641 C70.46923641 734.7869337 70.44260274 764.7416991 70.4373678 794.69652776 C70.43662735 798.92647376 70.43571667 803.15641971 70.43471003 807.38636565 C70.43451941 808.21885216 70.4343288 809.05133867 70.43413241 809.90905204 C70.4306181 823.30939656 70.41031724 836.70966547 70.38391339 850.10998221 C70.35777878 863.5765789 70.35003714 877.04308816 70.36101468 890.50970659 C70.36699421 898.51061781 70.35906563 906.51123263 70.33118384 914.51209903 C70.31190719 920.48553925 70.31874315 926.45864879 70.33575301 932.43210837 C70.33856378 934.84932407 70.33289514 937.26656743 70.31794007 939.6837385 C70.29885848 942.96841904 70.31060813 946.25161763 70.33000231 949.53626418 C70.31072848 950.9454168 70.31072848 950.9454168 70.29106528 952.38303715 C70.37847509 959.11624621 72.03903957 964.61138967 75.94803476 970.16725707 C78.39314541 971.90563719 80.69290799 972.74977795 83.57303476 973.54225707 C84.6456959 973.88728271 84.6456959 973.88728271 85.74002695 974.23927855 C87.16407754 974.69723809 88.59246602 975.14196261 90.0251832 975.57204223 C92.47073563 976.32905807 94.82320734 977.27605653 97.19803476 978.22975707 C103.27439466 980.45620955 109.57011902 981.88107198 115.8689332 983.32961059 C123.79178674 985.20067044 129.03334011 987.34129228 133.94803476 994.16725707 C134.21615976 995.05413207 134.48428476 995.94100707 134.76053476 996.85475707 C136.40319968 1000.05363086 138.53352827 1000.11441796 141.79178476 1001.19460082 C148.47999217 1004.21156395 151.3635375 1010.66390456 153.88553476 1017.16725707 C154.59023417 1019.16126183 155.28384846 1021.15939433 155.94803476 1023.16725707 C158.94744406 1022.08565566 158.94744406 1022.08565566 161.94803476 1020.16725707 C167.16060986 1007.6594457 166.23946417 992.73842418 166.219275 979.44728637 C166.22367234 977.51058271 166.22897812 975.57388093 166.23511362 973.637182 C166.24653191 969.49749832 166.25206694 965.35786527 166.25299501 961.21816611 C166.25495003 954.66540873 166.27307845 948.11275503 166.29375315 941.56003356 C166.34273407 925.29500216 166.37384004 909.02994303 166.39505625 892.76485229 C166.41159667 880.09872199 166.43443169 867.43268196 166.47807699 854.76661211 C166.49979391 848.25882863 166.50791697 841.75121695 166.50568426 835.24339974 C166.50735528 831.19268885 166.52142881 827.14208963 166.53889704 823.09141898 C166.5444775 821.22021081 166.54499941 819.34897932 166.53995943 817.47776961 C166.51256374 806.11160444 166.63641564 796.15480121 172.76053476 786.16725707 C176.69468159 778.71873591 178.10865247 770.62480542 179.76761484 762.4192102 C181.71711244 753.06383472 184.08332878 746.90193851 191.94803476 741.16725707 C192.9573707 740.75346801 192.9573707 740.75346801 193.98709726 740.33131957 C196.62377145 738.76612254 197.14006113 737.15278335 198.32303476 734.35475707 C201.82589251 727.0334688 205.55351614 724.63341426 212.94803476 721.85475707 C218.23090327 719.79378615 220.63039437 717.73775323 223.65897226 713.02663207 C226.25314288 709.28473749 230.11635976 707.55863354 234.13553476 705.66725707 C237.29038543 703.98467005 238.2675979 703.29875996 239.94803476 700.16725707 C240.4193169 696.88136499 240.41326979 693.61151598 240.42459726 690.29616332 C240.43972361 689.31420989 240.45484995 688.33225646 240.47043467 687.32054687 C240.50128336 685.21556853 240.52556253 683.11048563 240.54392099 681.00536132 C240.57313418 677.71857148 240.6203782 674.43250761 240.67313242 671.14601684 C240.74211506 666.80451978 240.80589293 662.46301421 240.86405039 658.12135863 C241.55212694 607.99319196 241.55212694 607.99319196 251.33035898 597.71413207 C255.79046296 592.95520529 257.60679177 588.36641689 259.44803476 582.16725707 C261.43957163 575.4620827 263.49455927 569.82866412 268.94803476 565.16725707 C271.00906992 564.16164184 271.00906992 564.16164184 272.94803476 563.41725707 C277.87376333 561.27278589 279.23180068 557.41446257 281.54178476 552.78835082 C284.64749573 546.99965067 288.99113501 545.104718 294.88553476 542.91725707 C300.54155597 540.71769327 302.9919918 538.15602838 306.39334726 533.24928832 C311.19323815 526.82129374 319.53782675 525.68429118 326.94803476 524.16725707 C331.99774624 523.45851365 337.05632863 522.98502095 342.13553476 522.54225707 C343.41750742 522.4210852 344.69948008 522.29991332 346.02030039 522.17506957 C361.87733308 520.71695162 377.63209025 520.0002414 393.55838633 520.03688598 C396.31332543 520.04223821 399.0681006 520.03690641 401.82303476 520.03053832 C410.7040475 520.02653098 419.56515397 520.15659207 428.43631601 520.59303832 C429.59742395 520.64722426 429.59742395 520.64722426 430.78198862 520.70250487 C440.34674785 521.23329871 447.51716081 523.46049964 454.82303476 529.79225707 C455.94803476 531.16725707 455.94803476 531.16725707 455.94803476 533.16725707 C456.54615976 533.39413207 457.14428476 533.62100707 457.76053476 533.85475707 C460.51098566 535.50502761 461.39300722 537.40919962 462.94803476 540.16725707 C462.48912851 540.90588988 462.03022226 541.6445227 461.55740976 542.40553832 C458.48113309 547.49173525 455.73465287 552.31437395 453.88553476 557.97975707 C451.67523063 564.47018405 448.69269345 568.55275196 442.76053476 572.04225707 C433.44868143 574.79001707 423.50975565 574.31191301 413.87700701 574.335922 C411.54760602 574.34322835 409.21839923 574.35899722 406.88905954 574.37726378 C400.27324819 574.42906042 393.65755012 574.47754489 387.04154062 574.4931848 C364.87224894 574.34170593 364.87224894 574.34170593 342.88162851 576.71022582 C342.1032815 576.83102004 341.32493448 576.95181426 340.52300119 577.07626891 C337.54160286 577.72398698 335.44259724 578.45457647 333.66998911 581.00896239 C332.59611602 583.1136168 332.59611602 583.1136168 331.80046701 585.23508239 C330.3647686 588.48932356 327.94718865 590.42990366 324.94803476 592.16725707 C323.22788886 592.81667253 321.49788522 593.4403802 319.76053476 594.04225707 C315.68645371 595.58775773 315.68645371 595.58775773 313.07303476 599.10475707 C312.66000867 600.44781396 312.29161599 601.8047798 311.94803476 603.16725707 C311.30858377 605.29418634 310.66212475 607.41901517 310.01053476 609.54225707 C309.67022226 610.67018676 309.32990976 611.79811645 308.97928476 612.96022582 C307.61445167 617.20464996 305.89953163 621.1649144 303.94803476 625.16725707 C303.30801523 626.50530395 303.30801523 626.50530395 302.65506601 627.87038207 C299.24521443 634.8700774 299.24521443 634.8700774 296.94803476 637.16725707 C295.51458459 644.74796119 295.81291679 652.71280947 295.85037851 660.39772582 C295.85179346 661.51415969 295.85320841 662.63059356 295.85466623 663.78085876 C295.86021109 667.30552016 295.87275296 670.83011525 295.88553476 674.35475707 C295.8905569 676.76165719 295.89511855 679.16855831 295.89920664 681.5754602 C295.91016239 687.43941466 295.92684454 693.30333113 295.94803476 699.16725707 C296.88832529 699.61891234 297.82861582 700.07056762 298.7974 700.53590941 C300.05481389 701.14965413 301.31204714 701.76376906 302.56912851 702.37819457 C303.18606577 702.67330932 303.80300303 702.96842406 304.43863535 703.27248168 C311.65433649 706.81978589 317.77540027 711.72299291 323.22928476 717.64381957 C326.63807559 720.807726 330.31273198 722.72732709 334.38553476 724.91725707 C341.12661049 728.73693961 345.68253766 731.9332739 348.94803476 739.16725707 C349.46365976 740.23717895 349.97928476 741.30710082 350.51053476 742.40944457 C351.54972595 744.61272973 352.56639749 746.82686884 353.55350351 749.05397582 C354.01369883 750.08135863 354.47389414 751.10874145 354.94803476 752.16725707 C355.39791758 753.20495238 355.84780039 754.2426477 356.31131601 755.31178832 C358.13435777 758.4923218 360.10356106 759.90581214 362.94803476 762.16725707 C364.71365976 765.04225707 364.71365976 765.04225707 366.19803476 768.16725707 C366.69819101 769.19850707 367.19834726 770.22975707 367.71365976 771.29225707 C372.15264265 781.63115393 371.09277268 793.99349469 371.14726496 805.04337478 C371.15928041 807.26324929 371.17877232 809.48294816 371.20038462 811.70274901 C371.26133863 818.00254606 371.31631299 824.30230453 371.34940195 830.60231566 C371.37030757 834.48188028 371.40553837 838.36108845 371.45015955 842.24044967 C371.4643096 843.71162155 371.47303976 845.18285605 371.47621393 846.65409255 C371.48110606 848.69973636 371.50584416 850.74530384 371.53153086 852.79079223 C371.54366114 854.53400252 371.54366114 854.53400252 371.55603647 856.31242919 C372.00064962 859.55043823 372.43536314 860.20842959 374.94803476 862.16725707 C376.84149474 862.61253836 376.84149474 862.61253836 378.94474417 862.54215389 C380.17013494 862.55303539 380.17013494 862.55303539 381.42028108 862.56413671 C382.31920543 862.55682737 383.21812978 862.54951802 384.14429426 862.54198718 C385.10206771 862.54604791 386.05984116 862.55010863 387.04663804 862.55429241 C390.28691011 862.56431416 393.52675674 862.5527678 396.76701975 862.54147887 C399.10124564 862.54421686 401.4354703 862.54826669 403.76969188 862.55352253 C409.53200412 862.56303984 415.29418832 862.55851027 421.05649639 862.54818032 C427.95615257 862.53659047 434.85576578 862.54236727 441.75542482 862.5487486 C455.27681921 862.56069359 468.79816707 862.55557598 482.3195589 862.54347033 C494.15653605 862.53294469 505.99349734 862.52839347 517.83047915 862.52976584 C519.00708088 862.52989189 519.00708088 862.52989189 520.20745235 862.53002048 C523.39146515 862.53037272 526.57547794 862.53075673 529.75949072 862.53118606 C559.65148895 862.53515436 589.54345912 862.52241937 619.43544932 862.5016595 C645.99360663 862.48330157 672.55173702 862.47747381 699.1099 862.4829309 C700.81412655 862.48327733 702.51835311 862.48362343 704.22257967 862.48396919 C705.06511398 862.48414018 705.90764829 862.48431118 706.77571395 862.48448736 C711.0169085 862.4853409 715.25810306 862.48616468 719.49929762 862.48695636 C720.3360143 862.48711344 721.17273097 862.48727052 722.0348027 862.48743236 C744.21902827 862.49142355 766.40325124 862.485945 788.58747524 862.47744507 C790.975079 862.47653802 793.36268276 862.47563237 795.75028653 862.47472984 C797.33419405 862.47412872 798.91810157 862.4735201 800.50200909 862.47290393 C811.54332717 862.46868295 822.58464015 862.46810417 833.62595878 862.47000942 C847.86059483 862.47245343 862.0952036 862.46837296 876.3298322 862.45279942 C883.19473056 862.44546182 890.05959456 862.44122446 896.92449617 862.44604278 C903.20834903 862.45011686 909.49212399 862.44496014 915.77596503 862.4324167 C918.04992605 862.42948697 920.3238944 862.42992435 922.59785355 862.43405978 C925.68895756 862.43917102 928.77980141 862.43197237 931.87088728 862.42173266 C932.75342347 862.42612915 933.63595965 862.43052563 934.54523936 862.43505535 C939.79299722 862.40195538 944.60904691 861.78165506 949.72418448 860.59581066 C951.94803476 860.16725707 951.94803476 860.16725707 955.94803476 860.16725707 C955.94279795 859.00492553 955.93756113 857.84259398 955.93216562 856.64504027 C955.89419243 847.35158534 955.87911208 838.05843129 955.90115976 828.76491332 C955.90280634 827.86871779 955.90445292 826.97252227 955.90614939 826.0491693 C955.95131893 810.55404835 956.99953109 795.4473599 958.88202524 780.07021117 C959.08990317 778.36615421 959.29282313 776.66148384 959.49036264 774.9561975 C961.95017466 754.04017067 961.95017466 754.04017067 969.44803476 746.72975707 C971.94803476 745.16725707 971.94803476 745.16725707 974.42069101 743.93678832 C977.56589296 741.73466084 978.37889348 739.79465217 979.88553476 736.29225707 C983.88897391 727.87996722 988.00624687 725.4143708 996.61990976 722.19069457 C1001.06095478 720.2384231 1003.46949229 716.78077307 1006.38553476 713.04225707 C1009.07650822 710.02311612 1011.2204659 708.65828461 1014.94803476 707.16725707 C1015.60803476 707.16725707 1016.26803476 707.16725707 1016.94803476 707.16725707 C1017.35022226 706.27006957 1017.35022226 706.27006957 1017.76053476 705.35475707 C1018.94803476 703.16725707 1018.94803476 703.16725707 1020.49898386 701.91362548 C1022.63350845 699.34113731 1022.32221708 697.34534886 1022.32034922 694.03786254 C1022.32657801 692.77159026 1022.3328068 691.50531798 1022.33922434 690.20067382 C1022.33052315 688.81192684 1022.32120374 687.42318361 1022.31131601 686.03444457 C1022.31079664 684.59972168 1022.31131734 683.16499806 1022.31282663 681.73027587 C1022.31273679 678.71225481 1022.30230069 675.69450013 1022.2842164 672.67653441 C1022.26181098 668.85836942 1022.26112472 665.0405992 1022.26745939 661.22238708 C1023.70846273 630.26340075 1023.70846273 630.26340075 1012.82303476 602.41725707 C1009.2727132 599.63874455 1005.60659376 597.03853324 1001.93631601 594.42116332 C996.29195431 590.16391273 990.85122054 585.3912414 986.11493206 580.13159871 C978.11787429 572.88208412 963.35000596 574.74706835 953.23624277 574.78871703 C951.34940198 574.78542206 949.46256312 574.78080543 947.57572842 574.77498937 C942.41543365 574.76282253 937.255304 574.76912246 932.09500957 574.77849436 C926.52028474 574.78530858 920.94558972 574.77474904 915.37087107 574.76621032 C905.71774134 574.75365949 896.06465641 574.75166554 886.41152048 574.75656676 C872.44175339 574.76338187 858.47205369 574.75084499 844.50229865 574.73305959 C821.8183588 574.70442601 799.13443072 574.68686381 776.45047617 574.67848754 C775.43320712 574.67810668 775.43320712 574.67810668 774.39538718 574.67771813 C764.07960316 574.67386798 753.76381899 574.67050716 743.44803476 574.66725707 C732.44722085 574.66379116 721.44640704 574.66014525 710.44559336 574.6560266 C709.76778488 574.65577631 709.0899764 574.65552603 708.39162827 574.65526816 C685.10677511 574.64659352 661.8219505 574.62618928 638.53711319 574.5965445 C624.60344623 574.57937291 610.66985014 574.57277596 596.73617399 574.57985055 C587.18953041 574.58403168 577.64293151 574.57767428 568.09629834 574.56305182 C562.59001661 574.55499922 557.08384572 574.55187389 551.57756472 574.56187415 C546.5330883 574.5709592 541.48881764 574.56620898 536.44435877 574.55065972 C534.62352165 574.54748 532.80266703 574.54932691 530.98184258 574.5568251 C516.15378966 574.61351658 503.92008288 573.66692225 492.20194101 563.67897582 C487.10796913 558.5595976 485.63590439 552.01394873 483.94803476 545.16725707 C483.64832773 544.08637816 483.64832773 544.08637816 483.34256601 542.98366332 C482.58803803 539.62937556 482.9609616 538.14140339 484.51053476 535.04225707 C492.04162831 526.15942879 503.05702403 521.83064267 514.65578896 520.85555166 C516.13526833 520.76927104 517.61509468 520.68881051 519.09515333 520.61311412 C519.89291683 520.57099198 520.69068033 520.52886983 521.51261849 520.48547126 C529.87427299 520.07482678 538.22420365 520.02460766 546.59413767 520.0335443 C548.29239628 520.03167015 549.99065446 520.02936708 551.68891197 520.02667898 C556.30092875 520.02062856 560.91292722 520.0206865 565.52494705 520.02187335 C570.52125961 520.02207911 575.51756656 520.01654191 580.51387644 520.01181579 C590.28490194 520.00354451 600.05592141 520.00076249 609.82695013 520.00020341 C617.78341018 519.99972631 625.73986826 519.99766195 633.69632769 519.99450278 C656.32242058 519.98570373 678.94850875 519.98108192 701.57460337 519.98183326 C702.79184696 519.98187321 704.00909055 519.98191317 705.26322031 519.98195434 C707.09135224 519.98201566 707.09135224 519.98201566 708.95641614 519.98207822 C728.66747399 519.98248387 748.37851266 519.97293267 768.08956497 519.95881597 C788.39549802 519.94438971 808.70142175 519.93754929 829.00736004 519.93840975 C840.38043008 519.9387397 851.75348005 519.93608242 863.12654543 519.9252317 C872.81804506 519.91604373 882.50951553 519.91401826 892.20101767 519.92074112 C897.12892257 519.92396585 902.05677181 519.92421351 906.98467112 519.91538787 C1004.3299093 519.75196441 1004.3299093 519.75196441 1019.94803476 535.16725707 C1020.40694101 535.8401477 1020.86584726 536.51303832 1021.33865976 537.20631957 C1023.43795145 539.7641944 1025.57376164 540.6704965 1028.57303476 542.04225707 C1038.36143106 546.78277267 1044.33022153 550.78415347 1049.94803476 560.16725707 C1054.47501033 567.27405853 1054.47501033 567.27405853 1060.51053476 573.04225707 C1069.11046511 579.92732035 1071.16662347 591.98518645 1073.01053476 602.22975707 C1074.47844489 610.26623833 1076.14744943 617.45934544 1079.78665781 624.81154418 C1085.21473821 635.82174973 1085.08056609 647.26032047 1084.91287851 659.30006957 C1084.90685381 661.59303272 1084.9036838 663.88600483 1084.90311289 666.17897582 C1084.90139118 669.74585923 1084.88522759 673.30940044 1084.82132578 676.87575316 C1083.83866103 690.38907094 1083.83866103 690.38907094 1088.08939219 702.67311645 C1090.61704146 704.97212359 1092.94319804 706.5663055 1095.94803476 708.16725707 C1097.43856656 709.23489938 1098.92007738 710.31544956 1100.38553476 711.41725707 C1101.0029957 711.83491332 1101.62045664 712.25256957 1102.25662851 712.68288207 C1103.94803476 714.16725707 1103.94803476 714.16725707 1105.14725351 716.56178832 C1108.16434929 720.92708742 1112.91294398 722.4675726 1117.61209726 724.6848352 C1125.12190695 728.3937884 1128.57959501 732.83342253 1132.19803476 740.47975707 C1133.7122994 744.06329829 1133.7122994 744.06329829 1135.94803476 747.16725707 C1139.24803476 747.49725707 1142.54803476 747.82725707 1145.94803476 748.16725707 C1145.94803476 862.01725707 1145.94803476 975.86725707 1145.94803476 1093.16725707 C1118.37734311 1095.46481471 1118.37734311 1095.46481471 1108.9750886 1095.42795348 C1107.86936272 1095.43177903 1106.76363685 1095.43560458 1105.62440413 1095.43954605 C1102.02560411 1095.44962745 1098.42697118 1095.44593284 1094.82816172 1095.44191527 C1092.20535244 1095.44627522 1089.58254443 1095.45146257 1086.95973825 1095.45740294 C1080.64199442 1095.4700017 1074.32429337 1095.47196305 1068.00653908 1095.46960268 C1062.86848925 1095.46780498 1057.7304522 1095.46959983 1052.59240389 1095.47382712 C1051.85561223 1095.47442231 1051.11882057 1095.4750175 1050.3597019 1095.47563073 C1048.86213722 1095.47684268 1047.36457255 1095.47805681 1045.86700787 1095.4792731 C1031.90211933 1095.49008826 1017.93725509 1095.48801306 1003.97236522 1095.48188826 C991.22418628 1095.47670643 978.47608345 1095.48801857 965.72791956 1095.50698648 C952.58391556 1095.5263914 939.43994754 1095.53461737 926.29592913 1095.53086323 C918.93774934 1095.52895752 911.57963455 1095.53137837 904.22146654 1095.54557776 C897.31258594 1095.55877801 890.40386059 1095.55619609 883.49498034 1095.54316688 C880.96709246 1095.54080644 878.43919374 1095.54351657 875.9113183 1095.55179 C844.98605828 1095.64568092 844.98605828 1095.64568092 834.88553476 1088.85475707 C834.0283082 1088.30174926 833.17108164 1087.74874145 832.28787851 1087.17897582 C828.81241753 1084.19089167 826.26587695 1081.53462481 825.63431406 1076.83058715 C825.56193443 1074.11008485 825.66313086 1071.44621977 825.82303476 1068.72975707 C825.83850351 1067.81387816 825.85397226 1066.89799926 825.86990976 1065.95436645 C826.15470266 1060.12030027 827.25238161 1056.7092091 831.39676523 1052.52834105 C843.1506646 1042.21546901 858.84856113 1042.72665957 873.54569101 1042.72585082 C875.43033977 1042.71405212 877.31497927 1042.70068189 879.19960642 1042.68582702 C884.13211989 1042.64986136 889.06455132 1042.62950732 893.99716806 1042.61427855 C901.89289335 1042.58933004 909.78843741 1042.54940418 917.68399477 1042.492378 C920.4218789 1042.47621282 923.15958726 1042.47228705 925.89751291 1042.46936584 C933.66889165 1042.43578093 941.12258818 1042.36247035 948.73781443 1040.59390807 C950.94803476 1040.16725707 950.94803476 1040.16725707 955.94803476 1040.16725707 C955.94803476 999.90725707 955.94803476 959.64725707 955.94803476 918.16725707 C952.31803476 917.83725707 948.68803476 917.50725707 944.94803476 917.16725707 C943.92788316 916.98434277 942.90773156 916.80142847 941.85666627 916.61297131 C937.70307368 915.97648114 933.60590687 916.02747038 929.40993071 916.03582931 C928.45166367 916.03377667 927.49339664 916.03172404 926.50609121 916.0296092 C923.28240593 916.02393699 920.05876334 916.02539672 916.83507395 916.02681518 C914.50564579 916.0242317 912.17621807 916.02121859 909.84679097 916.01781178 C904.10825883 916.01058419 898.36973784 916.00803908 892.63120148 916.00748272 C885.75788617 916.00656843 878.88457946 915.99989914 872.01126785 915.9931359 C855.40313727 915.97708347 838.79500761 915.97117432 822.18687066 915.96638715 C814.33334909 915.96405133 806.47982824 915.96044878 798.62630723 915.95669177 C771.75129817 915.94385947 744.87628951 915.93313801 718.00127745 915.92968917 C716.31464377 915.92946754 714.6280101 915.92924575 712.94137643 915.92902382 C711.25065351 915.92880318 709.5599306 915.92858269 707.86920768 915.92836237 C704.47727048 915.92791981 701.08533329 915.9274727 697.69339609 915.9270227 C696.85239441 915.9269133 696.01139272 915.92680391 695.14490614 915.92669121 C667.85094103 915.92305735 640.55700242 915.90712326 613.26304747 915.88383233 C584.41565183 915.85926069 555.56827136 915.84551766 526.72086495 915.84432125 C523.55713904 915.84414979 520.39341313 915.84393436 517.22968721 915.84368682 C516.45067161 915.84363105 515.67165601 915.84357528 514.86903388 915.84351782 C502.31161774 915.84236533 489.75422875 915.831327 477.19682179 915.81679976 C464.58843733 915.80246511 451.98008783 915.79918065 439.37169746 915.80723974 C432.53597791 915.81131487 425.70034207 915.81052888 418.86463404 915.79618239 C412.61578432 915.78354148 406.36709617 915.78455377 400.11824699 915.79677311 C397.84920744 915.79874721 395.58015683 915.79557379 393.31113289 915.78692874 C390.24342648 915.77597412 387.17630434 915.78322478 384.1086154 915.79532027 C383.2133607 915.78772508 382.31810599 915.78012989 381.39572236 915.77230453 C377.00581313 915.65997962 377.00581313 915.65997962 373.22275023 917.5509382 C371.46834076 919.77550141 371.57070885 921.2487407 371.56708384 924.0634973 C371.55862436 925.0729843 371.55016489 926.0824713 371.54144907 927.12254882 C371.54752176 928.22913848 371.55359446 929.33572814 371.55985117 930.47585082 C371.55459421 931.64189849 371.54933725 932.80794616 371.54392099 934.0093286 C371.53068668 937.87460655 371.53947158 941.73947472 371.54959726 945.60475707 C371.54757752 948.28371739 371.5446718 950.96266513 371.54089975 953.6416223 C371.53544056 959.26056419 371.54263803 964.87938782 371.55692148 970.49831176 C371.57324843 976.99618897 371.56796003 983.49378379 371.55144227 989.99165416 C371.53783198 995.56881003 371.53590546 1001.14588086 371.54375827 1006.72304797 C371.54843737 1010.05483781 371.54787692 1013.38646565 371.53914881 1016.71825194 C371.53155603 1020.43191845 371.54310882 1024.14503772 371.55985117 1027.85866332 C371.55377848 1028.96525298 371.54770578 1030.07184264 371.54144907 1031.21196532 C371.54990854 1032.22145232 371.55836802 1033.23093932 371.56708384 1034.27101684 C371.56821491 1035.14927627 371.56934599 1036.0275357 371.57051134 1036.93240905 C372.05085742 1039.77594254 372.62644183 1040.46725018 374.94803476 1042.16725707 C377.9978314 1042.61928592 377.9978314 1042.61928592 381.55904818 1042.54084468 C382.23734118 1042.5447962 382.91563418 1042.54874772 383.61448151 1042.55281898 C385.90412594 1042.56248089 388.19316575 1042.55064831 390.48279428 1042.53906798 C392.13429071 1042.54164094 393.78578551 1042.54554037 395.43727601 1042.55065757 C399.98889996 1042.56096856 404.54033114 1042.55260324 409.09194589 1042.54136074 C413.99608268 1042.53253278 418.90019146 1042.54100294 423.80432749 1042.54756713 C432.30844869 1042.5567387 440.81251597 1042.55538313 449.31663752 1042.54738212 C461.62642162 1042.53616519 473.93612868 1042.5451792 486.24590607 1042.55994392 C506.23499321 1042.58373852 526.22407087 1042.59708444 546.21317148 1042.60109496 C547.41029208 1042.60133983 548.60741268 1042.6015847 549.84080966 1042.60183699 C563.18665083 1042.60438105 576.53249127 1042.60495077 589.87833261 1042.60390258 C594.71195078 1042.60356958 599.54556894 1042.60328417 604.37918711 1042.60304809 C605.57182092 1042.6029853 606.76445473 1042.60292251 607.99322896 1042.60285782 C627.89405575 1042.60225258 647.7948388 1042.61715381 667.69564736 1042.64388114 C679.96966099 1042.65967776 692.24353328 1042.66195299 704.5175484 1042.64674712 C712.93550144 1042.63727018 721.35336944 1042.64205599 729.77131252 1042.65796094 C734.62556183 1042.66664339 739.47958505 1042.66882434 744.33382273 1042.65343451 C748.78417688 1042.63943829 753.23412299 1042.64403624 757.68445535 1042.66295553 C759.28821982 1042.66654722 760.89201715 1042.66348008 762.49575011 1042.65280586 C772.95440574 1042.58792624 784.38828926 1042.67214369 792.88553476 1049.54225707 C793.56615976 1050.40850707 794.24678476 1051.27475707 794.94803476 1052.16725707 C795.74854258 1052.81114379 795.74854258 1052.81114379 796.56522226 1053.46803832 C799.12518552 1055.56201748 800.74189451 1057.06265646 801.36209726 1060.38600707 C801.38700904 1063.01004741 801.18215091 1065.55421884 800.94803476 1068.16725707 C800.97123789 1069.05928832 800.99444101 1069.95131957 801.01834726 1070.87038207 C800.99731856 1078.23042785 798.35329956 1082.41989939 793.49490976 1087.84303832 C785.89553119 1094.77805405 777.10144429 1095.31736993 767.27421236 1095.30147815 C766.28910522 1095.30383038 765.30399807 1095.30618261 764.28903919 1095.30860612 C760.96795243 1095.31529535 757.6469048 1095.31483792 754.32581186 1095.31442809 C751.92870179 1095.31772675 749.53159227 1095.32145232 747.13448346 1095.32556957 C741.22440122 1095.33454471 735.31432603 1095.33881715 729.40423842 1095.34108854 C722.32601613 1095.3440513 715.24780377 1095.35274912 708.16958669 1095.36150282 C691.06134705 1095.38234462 673.95310568 1095.39281639 656.84485629 1095.40163242 C648.7517417 1095.4058391 640.65862786 1095.41106104 632.56551389 1095.41631695 C604.8627378 1095.43420644 577.1599615 1095.44920276 549.4571805 1095.45663714 C547.71808256 1095.4571119 545.97898462 1095.45758779 544.23988668 1095.45806481 C543.37745075 1095.45830118 542.51501482 1095.45853756 541.62644447 1095.4587811 C537.25691597 1095.4599823 532.88738747 1095.46119775 528.51785898 1095.46242309 C527.65071332 1095.46266324 526.78356765 1095.46290339 525.89014484 1095.46315081 C497.77237438 1095.47104453 469.65464608 1095.49447822 441.53689404 1095.52697903 C411.81020665 1095.56127686 382.08354394 1095.58098821 352.35683644 1095.58428138 C349.09353088 1095.58469893 345.83022534 1095.58517849 342.5669198 1095.58570457 C341.76340038 1095.58582776 340.95988095 1095.58595095 340.13201246 1095.58607787 C327.20138851 1095.58840988 314.27081356 1095.60406977 301.34020708 1095.62454641 C288.34284454 1095.64480224 275.34554084 1095.65028285 262.34816544 1095.64077578 C254.62745355 1095.63555998 246.90693758 1095.64144194 239.18625389 1095.66331045 C233.41959255 1095.67840927 227.6531031 1095.67257761 221.88644584 1095.65863993 C219.55464855 1095.65625474 217.22283245 1095.66063434 214.89106397 1095.67246858 C189.75388024 1095.79214165 189.75388024 1095.79214165 182.30891025 1089.86154515 C178.89586608 1086.23930414 177.46500168 1081.79799818 175.94803476 1077.16725707 C175.45303476 1077.86850707 174.95803476 1078.56975707 174.44803476 1079.29225707 C164.90334845 1090.26864633 150.82305498 1094.26594292 136.68113613 1095.3393147 C130.67689576 1095.61299273 124.67040809 1095.576228 118.66141367 1095.55544066 C116.66397424 1095.5595148 114.66653707 1095.56486136 112.6691041 1095.57137084 C107.28933719 1095.58494487 101.90974455 1095.57978852 96.52997494 1095.57023358 C90.88078004 1095.56259159 85.23159919 1095.56969454 79.58240366 1095.57439208 C70.10578361 1095.57983379 60.62923395 1095.57269693 51.15262461 1095.55837035 C40.21033233 1095.54201862 29.26820755 1095.54735707 18.32591927 1095.56384957 C8.90643131 1095.57747592 -0.51300633 1095.57937931 -9.93250096 1095.57153356 C-15.54799704 1095.56686702 -21.16341442 1095.56620473 -26.77890539 1095.57614303 C-32.05351736 1095.58482814 -37.32791361 1095.57876251 -42.60250235 1095.56146026 C-44.53379983 1095.5575049 -46.46511556 1095.55861311 -48.3964057 1095.56524825 C-51.03984041 1095.57349084 -53.68259101 1095.5631101 -56.32598257 1095.548208 C-57.08328865 1095.55490016 -57.84059474 1095.56159233 -58.62084949 1095.56848729 C-64.92500133 1095.4999204 -71.05260026 1094.2167371 -76.32149649 1090.61647582 C-80.88876931 1085.4016909 -82.43334199 1080.26270079 -84.07149649 1073.58131957 C-85.21022333 1069.61619106 -86.90084563 1066.53181837 -89.19649649 1063.13210082 C-90.4297534 1060.29955184 -90.06244295 1059.09888996 -89.05196524 1056.16725707 C-88.26739669 1054.96511246 -87.46446018 1053.77487476 -86.64962149 1052.59303832 C-83.34209624 1047.52181654 -82.51261282 1042.24616646 -81.48946524 1036.35475707 C-77.49446844 1014.09288447 -77.49446844 1014.09288447 -69.84884024 1008.35866332 C-68.2191852 1007.27813118 -66.5738859 1006.22128629 -64.92696524 1005.16725707 C-60.61277062 1002.16607821 -57.8663022 998.43965858 -55.05196524 994.04225707 C-48.349785 984.40787299 -36.44970858 983.13814392 -25.61446524 981.10475707 C-24.75006826 980.95458129 -23.88567129 980.80440551 -22.99508047 980.64967895 C-18.39339995 979.81260151 -14.93264394 978.92062594 -11.05196524 976.16725707 C-10.23598867 975.66967895 -9.42001211 975.17210082 -8.57930899 974.65944457 C2.76924725 967.69165842 2.76924725 967.69165842 12.94803476 959.16725707 C13.05639858 956.00740561 13.09825083 952.86906676 13.09901571 949.70844913 C13.10316552 948.69797543 13.10731533 947.68750174 13.11159089 946.64640763 C13.12439828 943.21488381 13.12996177 939.78338526 13.13558054 936.35184264 C13.14316803 933.88480177 13.15116885 931.41776213 13.15955049 928.95072383 C13.17902763 922.85192124 13.19366991 916.75312332 13.20620892 910.65430387 C13.21678566 905.58158357 13.22968509 900.50887357 13.24407625 895.43616271 C13.24614648 894.7053735 13.24821671 893.9745843 13.25034968 893.22164996 C13.25457497 891.73132213 13.25880106 890.24099431 13.26302793 888.75066649 C13.41391222 835.04240595 13.48664059 781.33384037 13.54534085 727.62540948 C13.55422305 719.51883428 13.56344425 711.41225948 13.57279062 703.3056848 C13.57432768 701.96203894 13.57432768 701.96203894 13.57589579 700.59124872 C13.60933497 671.57404841 13.67780606 642.55706661 13.76554005 613.53998358 C13.8555692 583.70940806 13.91291012 553.87895071 13.92827667 524.04823855 C13.93045778 519.83132384 13.93299664 515.61440941 13.93574572 511.39749503 C13.93653731 510.15262504 13.93653731 510.15262504 13.9373449 508.88260617 C13.94675383 495.54389258 13.99019786 482.20549863 14.04631631 468.86690891 C14.10201058 455.44543589 14.12083165 442.02430357 14.10256173 428.60272414 C14.09280882 420.63649318 14.11064601 412.67146559 14.1688734 404.70543533 C14.20934111 398.74335592 14.19699802 392.78257695 14.16481099 386.82039773 C14.15991292 384.41834566 14.17174039 382.01618487 14.20254537 379.61432535 C14.38826412 364.20799012 12.56645877 352.6231449 2.94803476 340.16725707 C0.21732875 339.25702173 -1.39371838 339.03725774 -4.20379019 339.02249694 C-5.04949072 339.01559844 -5.89519125 339.00869994 -6.76651907 339.0015924 C-7.69200048 338.99897902 -8.6174819 338.99636565 -9.57100821 338.99367309 C-10.5489887 338.98698607 -11.5269692 338.98029906 -12.53458548 338.97340941 C-14.66582246 338.9593383 -16.79707469 338.94745085 -18.92833471 338.93746161 C-22.33069285 338.92098638 -25.73294341 338.89773125 -29.13524771 338.87256408 C-38.81283499 338.80207261 -48.49047294 338.74253128 -58.16817617 338.69045043 C-64.0915967 338.65809376 -70.01490381 338.6166634 -75.93823004 338.57025504 C-78.16943769 338.55453035 -80.40067149 338.54207828 -82.63191748 338.53334785 C-99.88919205 338.46500845 -116.77540035 337.3587443 -134.05196524 336.16725707 C-134.05196524 304.81725707 -134.05196524 273.46725707 -134.05196524 241.16725707 C-130.75196524 241.16725707 -127.45196524 241.16725707 -124.05196524 241.16725707 C-121.5565115 227.75198094 -120.2493819 214.29711238 -119.23043203 200.7029016 C-116.55402874 166.31957629 -116.55402874 166.31957629 -106.92696524 155.35475707 C-99.97392003 146.86079226 -100.54090435 131.21680342 -99.7732482 120.57039428 C-96.69495997 78.82802502 -96.69495997 78.82802502 -85.96212149 66.83131957 C-83.57719862 63.50510813 -83.03220164 60.43901242 -82.48946524 56.47975707 C-82.37143545 55.71808227 -82.25340567 54.95640746 -82.13179922 54.1716516 C-81.4045546 49.28837968 -80.85127889 44.39395694 -80.34102774 39.48366332 C-80.15842398 37.76119384 -80.15842398 37.76119384 -79.97213125 36.00392699 C-79.73808779 33.73873774 -79.51921087 31.47191736 -79.3173461 29.20363402 C-78.51474123 21.27496247 -77.07048767 15.406647 -71.48946524 9.41725707 C-52.79026845 -4.64264533 -21.9737373 0.0037056 0 0 Z M-27.73647451 56.54366088 C-29.14923468 59.36124987 -29.68799377 61.42815303 -29.95821524 64.56178832 C-30.05989004 65.59239379 -30.16156485 66.62299926 -30.26632071 67.6848352 C-30.40771475 69.31582152 -30.40771475 69.31582152 -30.55196524 70.97975707 C-33.72308834 101.46828047 -33.72308834 101.46828047 -43.03414297 111.24953246 C-45.65406604 115.03788099 -46.09826528 118.24478725 -46.68087149 122.74538207 C-46.80023565 123.57829772 -46.91959982 124.41121337 -47.04258108 125.26936889 C-48.43058305 135.2804217 -49.33383832 145.34982942 -50.20601797 155.41676879 C-53.27696714 190.42627407 -53.27696714 190.42627407 -62.57930899 198.49147582 C-64.82659716 201.04873478 -65.33996275 203.98420308 -66.05196524 207.22975707 C-66.22075186 207.98635619 -66.38953848 208.74295531 -66.56343985 209.52248168 C-68.4290941 218.74833181 -69.04220346 228.1247167 -69.79659414 237.49101806 C-70.94155646 251.70409727 -72.35161789 265.59958778 -77.05196524 279.16725707 C-75.78241224 279.81560361 -74.51126817 280.46083522 -73.23946524 281.10475707 C-72.53176992 281.46440551 -71.82407461 281.82405395 -71.09493399 282.19460082 C-66.47925513 284.39212288 -62.25667732 284.31824787 -57.25217581 284.32115722 C-56.34180262 284.32553947 -55.43142943 284.32992172 -54.49346918 284.33443677 C-51.43036489 284.34783557 -48.36728937 284.35400599 -45.3041625 284.36012816 C-43.11319234 284.36802805 -40.92222349 284.37629693 -38.73125601 284.38490844 C-31.52697382 284.4111338 -24.32268579 284.42643302 -17.11837149 284.44069457 C-14.64108097 284.44605336 -12.1637905 284.45143087 -9.68650007 284.45682693 C0.6136444 284.4784532 10.9137873 284.49719237 21.21394873 284.50844932 C23.88613434 284.51138869 26.55831993 284.51434069 29.23050547 284.51735473 C29.89466681 284.51810078 30.55882816 284.51884683 31.24311561 284.51961549 C42.01030306 284.53227842 52.77732573 284.56551564 63.54443609 284.60715656 C74.59607455 284.64954813 85.64762419 284.67273303 96.69934279 284.67836988 C102.90572075 284.68203127 109.11181911 284.69413689 115.31811953 284.72647262 C121.15319713 284.75643932 126.98782425 284.76290579 132.82296228 284.75108886 C134.96761547 284.75086719 137.1122889 284.75924863 139.25687075 284.7767427 C142.17888381 284.79928646 145.09924268 284.79120831 148.02126169 284.77525878 C148.87524544 284.78914087 149.72922918 284.80302295 150.60909122 284.81732571 C155.5649936 284.75081485 155.5649936 284.75081485 159.48607588 281.77529883 C161.08989068 278.91419513 161.35547737 277.6545334 161.00662851 274.43678832 C160.91703867 273.55055785 160.82744883 272.66432738 160.73514414 271.75124145 C160.61977304 270.8366516 160.50440195 269.92206176 160.38553476 268.97975707 C160.29723398 268.08450316 160.2089332 267.18924926 160.11795664 266.26686645 C159.25300935 258.43711486 158.0865782 250.47518178 153.01053476 244.22975707 C142.27034345 230.85768719 142.44666346 209.82043876 141.29129648 193.3735559 C139.90162113 172.54763263 139.90162113 172.54763263 130.87772226 154.08913207 C121.92205176 140.5287241 122.22142256 120.16060124 120.94803476 104.41725707 C120.37083803 85.35765713 120.37083803 85.35765713 112.47928476 68.89772582 C110.21571026 66.33965566 108.98638768 63.35150186 107.61209726 60.24538207 C104.47380329 56.32619805 100.14250027 54.47384218 95.2629838 53.79213309 C92.10667063 53.64128113 88.97219192 53.61531709 85.81229258 53.6338098 C84.61786036 53.62519423 83.42342813 53.61657866 82.192801 53.60770202 C78.93876994 53.58897374 75.68538592 53.58811623 72.43133116 53.59702349 C69.70983914 53.60215412 66.98843737 53.5948249 64.26695466 53.58755141 C57.84888055 53.57059531 51.43104451 53.5740786 45.01297617 53.59084105 C38.39614794 53.60779902 31.77997766 53.59186862 25.16322112 53.55961818 C19.47212436 53.53293261 13.78123258 53.52564216 8.09007955 53.53413326 C4.69508131 53.53906064 1.3004798 53.53685638 -2.09446859 53.51634574 C-5.87473961 53.49898256 -9.65358821 53.51337433 -13.43380117 53.53615355 C-14.55699255 53.52446136 -15.68018393 53.51276916 -16.8374114 53.50072265 C-22.83956349 53.44361718 -22.83956349 53.44361718 -27.73647451 56.54366088 Z M1043.13553476 756.04225707 C1041.20774179 756.28588988 1041.20774179 756.28588988 1039.24100351 756.53444457 C1035.82291552 756.97065689 1035.82291552 756.97065689 1032.94803476 759.16725707 C1032.27662035 760.7103818 1031.6578324 762.27677007 1031.07303476 763.85475707 C1028.20596712 769.98832903 1023.76027846 771.98957488 1017.81131601 774.79225707 C1014.89742173 775.99699101 1014.89742173 775.99699101 1012.94803476 778.16725707 C1011.07476564 786.52962841 1010.75802658 795.24050334 1010.40149546 803.77939391 C1010.35919381 804.78081257 1010.31689215 805.78223122 1010.27330863 806.8139959 C1009.84794746 817.60421831 1009.77754098 828.38825892 1009.75516367 839.18556762 C1009.74723273 841.3794877 1009.73896214 843.57340657 1009.7303834 845.76732421 C1009.7045788 852.86286276 1009.68893073 859.95840616 1009.67459726 867.05397582 C1009.66922645 869.51273959 1009.66384895 871.97150335 1009.65846491 874.4302671 C1009.6369264 884.64543916 1009.61818303 894.86060987 1009.60684252 905.07579875 C1009.59052925 919.66279687 1009.5570712 934.24949723 1009.50044167 948.83638138 C1009.46182536 959.13491158 1009.44222161 969.43337107 1009.43692195 979.7319718 C1009.43326654 985.87098418 1009.42121757 992.00971339 1009.38881922 998.14864707 C1009.35887371 1003.90191402 1009.35237822 1009.65472406 1009.36420298 1015.40805221 C1009.36442462 1017.52047146 1009.35604504 1019.63291128 1009.33854914 1021.74525809 C1009.31600688 1024.62241889 1009.32408151 1027.49789972 1009.34003305 1030.37506652 C1009.32615097 1031.21540787 1009.31226888 1032.05574922 1009.29796612 1032.92155546 C1009.35189043 1036.85203992 1009.55513524 1038.73841271 1012.25515223 1041.68544364 C1015.83823433 1043.6571075 1019.00921112 1043.72075994 1022.99539804 1043.66896605 C1023.79110209 1043.67436904 1024.58680613 1043.67977202 1025.40662241 1043.68533874 C1028.02757971 1043.69781106 1030.64743553 1043.68134858 1033.26834726 1043.66335082 C1035.09247505 1043.66350581 1036.91660316 1043.66499484 1038.74072886 1043.66776061 C1042.55884004 1043.66914382 1046.37657521 1043.65659719 1050.19461679 1043.6338098 C1055.09203144 1043.60538504 1059.98882332 1043.6081744 1064.88628435 1043.62089992 C1068.65063421 1043.6278484 1072.41483966 1043.62007802 1076.17917109 1043.60764289 C1077.98531017 1043.60312313 1079.79146472 1043.60279616 1081.59760523 1043.60670829 C1084.11854822 1043.60961342 1086.63862671 1043.59314915 1089.15946054 1043.5713098 C1089.90758005 1043.57581145 1090.65569956 1043.5803131 1091.42648935 1043.58495116 C1095.28504218 1043.584484 1095.28504218 1043.584484 1098.63944924 1041.90262079 C1100.25155526 1039.76474729 1100.32379684 1038.67167433 1100.32555819 1036.01375747 C1100.33729305 1034.7385256 1100.33729305 1034.7385256 1100.34926498 1033.43753147 C1100.34257281 1032.50321946 1100.33588065 1031.56890745 1100.32898569 1030.60628295 C1100.33366566 1029.61383283 1100.33834563 1028.62138272 1100.34316742 1027.59885836 C1100.35517882 1024.25726608 1100.34563573 1020.9160793 1100.33621836 1017.57448363 C1100.34028163 1015.18461404 1100.34562213 1012.79474633 1100.35214853 1010.40488219 C1100.36443889 1004.57485339 1100.36259557 998.74495435 1100.35391061 992.91492149 C1100.34713629 988.17064183 1100.34621628 983.42639461 1100.34948206 978.6821115 C1100.35017161 977.66927222 1100.35017161 977.66927222 1100.35087509 976.63597153 C1100.35183429 975.26411709 1100.35280694 973.89226266 1100.35379286 972.52040824 C1100.36235594 959.64237387 1100.35250234 946.76440345 1100.33639176 933.88637957 C1100.32302419 922.86066979 1100.32528537 911.83505492 1100.33914804 900.80934691 C1100.35525076 887.99609789 1100.3614935 875.18290524 1100.35231125 862.3696475 C1100.35135568 860.99916229 1100.35041256 859.62867706 1100.34948206 858.25819182 C1100.34901923 857.58398045 1100.34855641 856.90976908 1100.34807955 856.21512707 C1100.34550096 851.48824193 1100.34983691 846.76139279 1100.35692072 842.03451324 C1100.36563446 835.64872522 1100.3594882 829.26311479 1100.34223795 822.8773458 C1100.33829456 820.54221365 1100.33937 818.20706637 1100.34602594 815.87194037 C1100.9141491 797.69648307 1100.9141491 797.69648307 1096.94803476 780.16725707 C1094.5533511 778.29517816 1094.5533511 778.29517816 1091.94803476 777.16725707 C1085.79183301 773.81040718 1081.57224654 770.26147306 1077.94803476 764.16725707 C1077.73147226 763.30745238 1077.51490976 762.4476477 1077.29178476 761.56178832 C1076.06001008 758.76407877 1076.06001008 758.76407877 1072.31522226 757.80397582 C1070.8226903 757.46536759 1069.32479664 757.14974601 1067.82303476 756.85475707 C1067.08826914 756.68653441 1066.35350351 756.51831176 1065.59647226 756.34499145 C1057.95692599 754.69737803 1050.891293 755.02072863 1043.13553476 756.04225707 Z M265.74100351 755.29616332 C257.832364 755.5928377 257.832364 755.5928377 250.94803476 759.16725707 C249.48721731 761.20403685 249.48721731 761.20403685 248.32303476 763.47975707 C245.256089 768.42050259 241.6640257 770.34017399 236.43631601 772.68288207 C233.37162947 774.51110952 232.40042784 775.9188448 230.94803476 779.16725707 C226.92167579 798.19067221 227.79928217 818.67020628 227.83450937 838.00026488 C227.83479225 840.21008339 227.83463154 842.41990199 227.83406687 844.62972045 C227.83378283 850.56223963 227.83961528 856.49473811 227.84664083 862.42725253 C227.85294052 868.65184523 227.85348335 874.87643853 227.85466623 881.10103393 C227.8577602 892.85847353 227.86594722 904.6159037 227.87601572 916.37333918 C227.88394299 925.76981388 227.88939472 935.16628759 227.89310312 944.56276488 C227.89336585 945.22659742 227.89362857 945.89042996 227.89389925 946.57437864 C227.89520451 949.9053979 227.8964659 953.23641717 227.89771116 956.56743646 C227.90813168 984.1007152 227.92569324 1011.6339856 227.94803476 1039.16725707 C229.03054577 1039.81719728 230.11305677 1040.4671375 231.22837114 1041.13677287 C231.83728358 1041.50236424 232.44619602 1041.86795561 233.07356036 1042.24462551 C236.10073003 1043.73462306 238.8721705 1043.65306123 242.20926523 1043.63722777 C243.24249918 1043.64051337 243.24249918 1043.64051337 244.29660654 1043.64386535 C246.55331542 1043.64615974 248.80868924 1043.62000724 251.06522226 1043.59303832 C252.64791053 1043.58810673 254.23060466 1043.58481286 255.81329966 1043.58307433 C259.12353908 1043.57545429 262.43334306 1043.55496132 265.74344492 1043.52394652 C269.9652145 1043.48443853 274.1867013 1043.46634325 278.40863466 1043.45663714 C282.46086799 1043.44661066 286.51303444 1043.42678322 290.56522226 1043.40553832 C291.70921299 1043.4004447 291.70921299 1043.4004447 292.87631464 1043.39524817 C305.89563087 1044.34080496 305.89563087 1044.34080496 317.6537621 1040.86609262 C319.96077523 1037.83795486 319.34982362 1033.99408337 319.31552744 1030.33432555 C319.31879628 1029.4201685 319.32206512 1028.50601144 319.32543302 1027.56415266 C319.33274105 1024.48743299 319.31852975 1021.41118431 319.30448008 1018.3344934 C319.30527063 1016.13343768 319.30736692 1013.9323821 319.31067514 1011.73132873 C319.31582284 1005.73882151 319.30224148 999.74648516 319.28514814 993.75400543 C319.27012427 987.47807916 319.27128625 981.20215523 319.27048349 974.92621398 C319.26678609 964.37152346 319.2518951 953.8168909 319.22928476 943.26222777 C319.20609803 932.43051659 319.1918702 921.59884639 319.18826914 910.76711059 C319.18793499 909.76927102 319.18793499 909.76927102 319.18759409 908.75127307 C319.18715145 907.41094118 319.18670942 906.07060929 319.18626802 904.7302774 C319.1821813 892.42052156 319.16989356 880.11077988 319.15525579 867.80103254 C319.15117372 864.07452888 319.14823927 860.3480256 319.14546061 856.62152076 C319.14052743 850.73727376 319.13025756 844.85305767 319.11602259 838.96882606 C319.11153986 836.81955789 319.1086706 834.6702856 319.10761499 832.52101302 C319.10192873 823.05633709 319.08036148 813.59065622 318.62546396 804.13507628 C318.56891012 802.92284739 318.51235628 801.71061849 318.45408869 800.46165538 C317.58137558 794.78031502 314.98988312 791.05540011 311.26444101 786.79616332 C309.83060592 785.02195195 308.68269283 783.18586651 307.51053476 781.22975707 C305.40080169 777.74237496 302.98763714 774.78258246 300.27615976 771.74928832 C298.94803476 770.16725707 298.94803476 770.16725707 297.57303476 767.66725707 C293.1237768 760.82224482 287.48456566 757.35435233 279.59647226 755.59303832 C274.87076746 754.83330112 270.47989157 755.10568426 265.74100351 755.29616332 Z M-15.05196524 1035.16725707 C-16.03584723 1035.37843673 -17.01972921 1035.58961638 -18.03342581 1035.80719543 C-20.04324033 1036.24415398 -22.04847505 1036.70216113 -24.05196524 1037.16725707 C-24.05196524 1038.48725707 -24.05196524 1039.80725707 -24.05196524 1041.16725707 C-11.23108267 1043.65780059 1.53827986 1043.47698023 14.54569101 1043.46803832 C16.91267073 1043.47193158 19.27964976 1043.47626754 21.6466279 1043.48102355 C26.57939544 1043.48844449 31.51209132 1043.48822199 36.44486094 1043.4829309 C42.76653506 1043.47710362 49.08791929 1043.49416552 55.40954542 1043.51727557 C60.28481875 1043.53198882 65.16002154 1043.53288854 70.03531313 1043.52976584 C72.36732612 1043.53027902 74.69934306 1043.53551596 77.0313344 1043.54557776 C80.28118778 1043.55789474 83.5304662 1043.55118166 86.78031015 1043.53957152 C87.74086817 1043.54721526 88.70142618 1043.554859 89.69109201 1043.56273437 C94.61219084 1043.52381683 97.92701911 1043.35197202 101.94803476 1040.16725707 C100.77091434 1036.63589581 100.1280255 1035.99352279 96.94803476 1034.16725707 C94.36162709 1033.62962769 91.96038882 1033.25353785 89.3467164 1032.9985559 C88.22408065 1032.87909842 88.22408065 1032.87909842 87.07876539 1032.75722766 C78.58256681 1031.92442491 70.09872951 1031.85817488 61.56912851 1031.86647582 C59.8605551 1031.86257169 58.15198264 1031.85823363 56.44341135 1031.85349059 C52.89291826 1031.8461031 49.34252475 1031.84626575 45.7920289 1031.85158324 C41.28862424 1031.85738581 36.78562981 1031.84039105 32.28229284 1031.81723857 C28.76366995 1031.80236806 25.24514307 1031.80164713 21.72649431 1031.8047483 C20.06784929 1031.80424234 18.40919781 1031.79914476 16.75058413 1031.78893638 C5.76859132 1031.72958205 -4.31827043 1032.76663729 -15.05196524 1035.16725707 Z " fill="#000000" transform="translate(134.05196523666382,130.83274292945862)"/>
<path d="M0 0 C1.68573716 -0.00330749 3.37147355 -0.00703489 5.05720896 -0.01114148 C9.65232342 -0.02106729 14.24742484 -0.02486282 18.84254849 -0.02753079 C23.81260987 -0.03146157 28.78266118 -0.04103707 33.75271606 -0.04974365 C45.72924088 -0.06941984 57.70576643 -0.07955837 69.68230334 -0.08847144 C75.33053511 -0.09286479 80.97876595 -0.09822849 86.62699699 -0.10346031 C105.41156984 -0.12045603 124.19614213 -0.13495235 142.98072147 -0.14220905 C147.84484928 -0.14411871 152.70897707 -0.14603909 157.57310486 -0.147995 C158.78194863 -0.14847874 159.9907924 -0.14896248 161.2362678 -0.14946087 C180.83959928 -0.15776989 200.44286993 -0.18312892 220.04617483 -0.21557567 C240.19593316 -0.24865413 260.34566053 -0.26665812 280.49544615 -0.26985329 C291.79971727 -0.27201655 303.10389939 -0.28073951 314.408144 -0.30631447 C324.02865874 -0.32803131 333.64906279 -0.3360666 343.26959927 -0.32634769 C348.17456406 -0.32180727 353.07930048 -0.32367478 357.98423386 -0.34310913 C362.48039644 -0.36076988 366.97616451 -0.35971959 371.47233146 -0.34421184 C373.09259599 -0.34184033 374.71288805 -0.34613543 376.33311058 -0.35804049 C386.83473474 -0.43038217 398.3158738 -0.37950524 406.85215759 6.52217102 C407.53278259 7.38842102 408.21340759 8.25467102 408.91465759 9.14717102 C409.44832947 9.57642883 409.98200134 10.00568665 410.53184509 10.44795227 C413.09180835 12.54193143 414.70851734 14.04257041 415.32872009 17.36592102 C415.35366234 19.99317058 415.16567238 22.53212143 414.91465759 25.14717102 C414.86245056 26.58963196 414.86245056 26.58963196 414.80918884 28.06123352 C414.52782127 33.70379401 414.11453238 37.06395942 409.91465759 41.14717102 C409.19278259 42.15779602 408.47090759 43.16842102 407.72715759 44.20967102 C403.55404274 49.22257678 397.15420235 51.09380955 390.91465759 52.14717102 C388.93448989 52.23761112 386.95168062 52.27723483 384.96945095 52.2802496 C383.17123635 52.28661117 383.17123635 52.28661117 381.33669418 52.29310125 C380.02328255 52.29271512 378.70987092 52.29232899 377.35665894 52.29193115 C375.94451169 52.29506605 374.53236537 52.29864112 373.12022024 52.30261856 C369.23989976 52.31230858 365.359594 52.31586572 361.47926319 52.31846154 C357.29449757 52.3223578 353.10974493 52.33199482 348.92498779 52.34101868 C341.6737488 52.35595382 334.42251083 52.36749977 327.17126274 52.37696648 C316.68279402 52.39083818 306.1943494 52.41202514 295.70589799 52.43539501 C278.68361194 52.47330915 261.66132155 52.5082771 244.63902283 52.53999329 C243.62010932 52.54189378 242.60119582 52.54379427 241.55140615 52.54575235 C227.08375983 52.57259829 212.6161101 52.59646965 198.1484567 52.61913735 C197.12924001 52.62073466 196.11002331 52.62233196 195.05992126 52.62397766 C194.04194401 52.62557113 193.02396675 52.62716459 191.9751417 52.62880635 C175.01572013 52.65555189 158.05632436 52.68993991 141.09693056 52.73063141 C130.63159111 52.75543312 120.16627944 52.77374485 109.70091522 52.78378702 C102.53426566 52.79116521 95.3676534 52.80567194 88.20102852 52.82585125 C84.06286437 52.83726715 79.92476045 52.84537521 75.78657913 52.84484291 C72.00116403 52.84441652 68.21588464 52.85308264 64.43050439 52.86909271 C62.40663806 52.87524201 60.38274926 52.87152293 58.3588776 52.86749738 C57.16267561 52.87434618 55.96647363 52.88119497 54.73402309 52.8882513 C53.69933752 52.88998755 52.66465194 52.8917238 51.59861225 52.89351267 C48.88258647 53.15020204 47.23384862 53.75275974 44.91465759 55.14717102 C48.24455645 60.43427107 51.66203655 61.41360759 57.41465759 62.83467102 C58.9259476 63.23109599 60.43639834 63.63073712 61.94590759 64.03388977 C62.94460876 64.28465271 62.94460876 64.28465271 63.96348572 64.54048157 C65.91465759 65.14717102 65.91465759 65.14717102 67.61544925 66.16953355 C70.71891699 67.48914704 73.28190034 67.39666387 76.65316296 67.39605999 C77.33309979 67.39866728 78.01303662 67.40127456 78.7135776 67.40396085 C81.00271815 67.41028072 83.29158643 67.40228537 85.58071899 67.39440918 C87.23435102 67.39599681 88.8879824 67.39845995 90.54161197 67.40172559 C95.09461982 67.40815395 99.64753909 67.4020593 104.20054114 67.39396131 C109.10813856 67.38739479 114.01572591 67.39233071 118.92332458 67.39584351 C128.54452305 67.4008922 138.16568721 67.39523426 147.78688141 67.38599321 C158.99716599 67.37561324 170.20744314 67.37567935 181.41773162 67.37616578 C201.43274608 67.37666683 221.44774459 67.36749638 241.4627533 67.35298157 C260.86575105 67.33891791 280.26873475 67.33180974 299.67173767 67.33247375 C300.86483414 67.33251371 302.05793061 67.33255367 303.28718152 67.33259483 C304.47824664 67.33263519 305.66931177 67.33267554 306.89646977 67.33271712 C328.99527926 67.33340843 351.09408279 67.32750528 373.19289034 67.3185639 C380.99711068 67.31555513 388.80132991 67.31448521 396.60555077 67.3140316 C406.13357621 67.31334682 415.66159163 67.30884607 425.18961283 67.29969879 C430.04631419 67.29510519 434.90300281 67.29202619 439.7597065 67.293293 C444.21688298 67.29439913 448.67403143 67.2908029 453.13120208 67.28364448 C454.73298844 67.28185172 456.33477774 67.28168038 457.93656417 67.28341176 C466.02477407 67.29117769 474.10367027 67.18269593 482.18446064 66.81850147 C482.88678499 66.79549224 483.58910935 66.77248301 484.31271626 66.74877654 C489.64742466 66.46444422 492.83553212 64.95488736 496.92247009 61.64717102 C500.94824189 58.61600167 505.91098043 57.14717102 510.91465759 57.14717102 C510.91465759 56.48717102 510.91465759 55.82717102 510.91465759 55.14717102 C499.89151313 53.40845145 489.0048986 52.81253484 477.84898376 52.66499329 C467.88930061 52.43582466 457.32833543 51.53349229 448.85215759 45.83467102 C447.56631775 45.0051593 447.56631775 45.0051593 446.25450134 44.15888977 C442.77904036 41.17080562 440.23249978 38.51453876 439.60093689 33.8105011 C439.52855726 31.0899988 439.62975369 28.42613372 439.78965759 25.70967102 C439.80512634 24.79379211 439.82059509 23.87791321 439.83653259 22.9342804 C440.12132549 17.10021422 441.21900444 13.68912305 445.36338806 9.508255 C458.15146412 -1.71200373 475.61984784 -0.31415304 491.49278259 -0.28642273 C493.79142917 -0.29099249 496.09007438 -0.29630041 498.38871765 -0.30230713 C503.19315663 -0.31121 507.99742914 -0.30884835 512.80186462 -0.2988739 C518.91859527 -0.28740433 525.03474686 -0.30758003 531.15140152 -0.33679104 C535.8958951 -0.35525758 540.6402527 -0.35483956 545.38477325 -0.34915352 C547.63791972 -0.34900149 549.89107612 -0.35494607 552.14418793 -0.36744499 C584.42791436 -0.52130002 584.42791436 -0.52130002 596.21543884 8.45967102 C604.00702764 16.19752472 604.12039596 28.14599625 604.17937432 38.44505177 C604.1822573 40.91647185 604.17551486 43.38776588 604.16862488 45.85917664 C604.1709314 47.66179392 604.1741092 49.46441025 604.17807937 51.26702464 C604.18640985 56.20377726 604.18231 61.14045232 604.17610693 66.07720518 C604.17157624 71.40792071 604.17856931 76.73862304 604.18406677 82.06933594 C604.19295618 92.50618839 604.19104066 102.94301206 604.18524149 113.37986563 C604.18072275 121.86398554 604.18011302 130.3480974 604.18228912 138.83221817 C604.18259559 140.04023146 604.18290206 141.24824475 604.18321781 142.4928645 C604.18385727 144.94702938 604.1845057 147.40119427 604.18516299 149.85535915 C604.19086509 172.86442989 604.18431053 195.87348469 604.17356226 218.88255282 C604.16462913 238.61660021 604.16617707 258.35062406 604.17539978 278.08467102 C604.18610844 301.00892163 604.19031339 323.93315827 604.18417525 346.85741103 C604.18353817 349.3031048 604.18290942 351.74879857 604.18228912 354.19449234 C604.18198057 355.3977701 604.18167202 356.60104787 604.18135412 357.8407886 C604.1796288 366.31167737 604.18253882 374.78255727 604.18724823 383.25344467 C604.19286377 393.58113615 604.19132651 403.90879723 604.18068674 414.23648523 C604.17543878 419.50375143 604.17335836 424.770967 604.17998505 430.0382328 C604.18596484 434.86440006 604.18263594 439.69046997 604.17202994 444.51662846 C604.16980448 446.25811871 604.17091291 447.99961727 604.17578152 449.74110214 C604.24331338 475.91442155 604.24331338 475.91442155 597.91465759 483.14717102 C589.22454374 491.59589283 575.84620931 492.45656367 564.34448338 492.3988533 C562.81258274 492.40321362 562.81258274 492.40321362 561.24973461 492.40766203 C557.83569993 492.41494709 554.4218458 492.40802553 551.0078125 492.40113831 C548.53214041 492.40344332 546.05646901 492.40662012 543.58079904 492.41059279 C538.2023131 492.41720084 532.82388013 492.41760575 527.44539642 492.41249847 C519.44726861 492.40492435 511.44917461 492.40880577 503.45104702 492.41491509 C489.16499373 492.42544137 474.87895834 492.42453582 460.59290335 492.41875726 C448.09026858 492.41372496 435.58764038 492.41241331 423.08500481 492.41480255 C422.25548051 492.41495532 421.42595621 492.41510809 420.57129481 492.41526549 C417.20392321 492.41588818 413.83655162 492.41652498 410.46918003 492.41718502 C378.8834123 492.42330239 347.29765597 492.41775719 315.71189 492.40699122 C287.65553104 492.39750097 259.59919023 492.39834861 231.54283142 492.40791321 C200.01611838 492.41862497 168.4894154 492.42286766 136.96270078 492.41668868 C133.60117591 492.41604725 130.23965103 492.41542157 126.87812614 492.41480255 C125.6366007 492.41456532 125.6366007 492.41456532 124.36999393 492.41432329 C111.87652296 492.41204929 99.38305927 492.41470716 86.88958931 492.41976166 C72.6817738 492.42548109 58.47397897 492.42404858 44.26616604 492.41320017 C36.31664407 492.40733036 28.36716691 492.40694027 20.41764612 492.41449252 C14.48086697 492.4195101 8.54412732 492.41406239 2.60735267 492.40454337 C0.20639574 492.40230896 -2.19456718 492.40344655 -4.59552025 492.40829495 C-7.86020768 492.4143819 -11.12465224 492.4081325 -14.38932705 492.3988533 C-15.32017869 492.40353563 -16.25103033 492.40821797 -17.21008959 492.41304219 C-35.25059592 492.31065199 -35.25059592 492.31065199 -41.71815491 485.90498352 C-49.48337796 475.92112532 -47.23262928 460.3241559 -47.2257843 448.42411804 C-47.22837111 446.62022737 -47.23138515 444.81633727 -47.2347877 443.01244795 C-47.24282365 438.07203906 -47.24464537 433.13164472 -47.24538517 428.19123006 C-47.24724164 422.85634935 -47.25479188 417.5214761 -47.26152039 412.18659973 C-47.27507932 400.5294656 -47.28112443 388.87233493 -47.28553104 377.21519423 C-47.28829721 369.9320274 -47.29253521 362.64886189 -47.29703522 355.36569595 C-47.30922397 335.18730694 -47.31952453 315.00891897 -47.32291031 294.83052635 C-47.32312987 293.54008883 -47.32334944 292.2496513 -47.32357566 290.92010961 C-47.32379394 289.62665074 -47.32401222 288.33319187 -47.32423711 287.00053728 C-47.32468057 284.37965608 -47.32512713 281.75877488 -47.32557678 279.13789368 C-47.32579821 277.83785639 -47.32601964 276.5378191 -47.32624778 275.19838674 C-47.33019542 254.13540583 -47.3476502 233.07245952 -47.3709363 212.00949197 C-47.39466926 190.36709925 -47.40711302 168.72472389 -47.40827823 147.08231795 C-47.40919381 134.93786395 -47.41491698 122.79345506 -47.43309784 110.64901352 C-47.44852495 100.30788994 -47.45360382 89.96682543 -47.44535974 79.62569253 C-47.4414627 74.35385267 -47.44233657 69.08213166 -47.45641708 63.81030655 C-47.46921246 58.97526084 -47.46790932 54.14042261 -47.45582637 49.30537696 C-47.45387912 47.56515845 -47.45690235 45.82492496 -47.46567073 44.08472745 C-47.5987757 15.85979747 -47.5987757 15.85979747 -40.08534241 6.14717102 C-29.05228213 -2.18391531 -13.26303737 -0.00238791 0 0 Z M8.91465759 94.14717102 C6.21041173 96.85141688 6.21222127 99.48637696 5.80484009 103.13258362 C5.7205584 103.8786217 5.63627672 104.62465977 5.54944104 105.39330506 C4.41606106 116.68663417 4.64448545 128.04447428 4.67173767 139.38056946 C4.6706628 141.99249316 4.66872107 144.60441662 4.66598511 147.21633911 C4.66098242 153.5343831 4.66653434 159.85237411 4.67583541 166.1704115 C4.68629607 173.54510941 4.68614722 180.91979633 4.68566283 188.29450026 C4.68516389 201.45975706 4.69427915 214.62498944 4.70884705 227.79023743 C4.72294254 240.53535914 4.73001717 253.28045938 4.72935486 266.02558899 C4.7293149 266.81130027 4.72927495 267.59701155 4.72923378 268.40653226 C4.72919342 269.19095127 4.72915307 269.97537028 4.72911149 270.78355956 C4.72842003 285.34197798 4.73431942 299.90038738 4.74326471 314.45880286 C4.74626835 319.58752832 4.74734274 324.7162521 4.74779701 329.84497833 C4.74855407 336.75618667 4.75493789 343.66737224 4.76496315 350.57857323 C4.76787212 353.1080658 4.76911678 355.63756095 4.76853561 358.16705513 C3.73264805 378.5759693 3.73264805 378.5759693 7.91465759 398.14717102 C9.23465759 398.14717102 10.55465759 398.14717102 11.91465759 398.14717102 C12.61884654 396.06981363 13.31588606 393.9898957 13.98803043 391.90194988 C14.58187884 390.13649221 15.22918082 388.38761092 15.94180202 386.66666126 C20.28006503 375.15416169 19.4836616 363.18322694 19.44810486 351.05805969 C19.45517069 348.52055359 19.46391849 345.9830517 19.47421265 343.44555664 C19.4943189 337.29300874 19.49575237 331.14070943 19.4875871 324.9881415 C19.48126187 319.98189672 19.48244713 314.9757057 19.48885918 309.96946144 C19.48976083 309.25424845 19.49066249 308.53903547 19.49159146 307.80214936 C19.49344286 306.34872099 19.49530542 304.89529263 19.49717902 303.44186429 C19.51372198 289.84125058 19.50506885 276.24074089 19.48819344 262.64013348 C19.47350588 250.2294805 19.48811773 237.81906984 19.51696361 225.40844806 C19.54644112 212.62975268 19.55730524 199.85116879 19.54778141 187.07244092 C19.54675898 185.6237366 19.54576436 184.17503226 19.5447979 182.7263279 C19.54432151 182.01374546 19.54384512 181.30116303 19.54335429 180.56698718 C19.54120082 175.57542911 19.55093719 170.58397788 19.56556892 165.59244347 C19.5850421 158.85594323 19.57787221 152.11996153 19.55336952 145.38345528 C19.54838606 142.92134191 19.55178667 140.45919395 19.56451797 137.99710846 C19.62900481 124.44661208 19.0954275 112.7940543 13.91465759 100.14717102 C13.5932055 99.20419253 13.27175341 98.26121405 12.94056034 97.28966045 C12.60201243 96.58263894 12.26346453 95.87561743 11.91465759 95.14717102 C10.92465759 94.81717102 9.93465759 94.48717102 8.91465759 94.14717102 Z M548.91465759 96.14717102 C548.78188416 96.9180304 548.64911072 97.68888977 548.51231384 98.48310852 C548.33571228 99.48599915 548.15911072 100.48888977 547.97715759 101.52217102 C547.71612244 103.01877258 547.71612244 103.01877258 547.44981384 104.54560852 C546.91465759 107.14717102 546.91465759 107.14717102 545.91465759 109.14717102 C543.2604418 109.7350372 540.65806442 110.22545534 537.97715759 110.64717102 C532.44929302 111.26717039 532.44929302 111.26717039 527.91465759 114.14717102 C527.61227664 116.15973886 527.61227664 116.15973886 527.66297531 118.50787258 C527.65775982 119.42962101 527.65254432 120.35136945 527.64717078 121.30104965 C527.65163223 122.32038796 527.65609367 123.33972627 527.66069031 124.38995361 C527.65757033 125.46760359 527.65445035 126.54525356 527.65123582 127.6555596 C527.64321596 131.29075741 527.649595 134.92579013 527.65586853 138.56098938 C527.65316042 141.15736998 527.64960051 143.75374981 527.64524841 146.35012817 C527.63633691 152.6849154 527.6382843 159.01965533 527.64407369 165.35444444 C527.64858369 170.50168683 527.64920597 175.64891594 527.64702606 180.79615974 C527.6467196 181.52771796 527.64641313 182.25927618 527.64609738 183.01300283 C527.64545795 184.49899057 527.64480952 185.98497831 527.64415219 187.47096605 C527.63844365 201.41828877 527.64501479 215.36558524 527.65575293 229.31290365 C527.66468705 241.28786466 527.66313856 253.26278689 527.65391541 265.23774719 C527.64321879 279.13235331 527.638995 293.02693638 527.64513993 306.92154604 C527.64577705 308.4024862 527.64640579 309.88342636 527.64702606 311.36436653 C527.64733461 312.09307953 527.64764316 312.82179253 527.64796107 313.57258774 C527.64968997 318.71486002 527.64676865 323.85711772 527.64206696 328.99938774 C527.6358806 335.91777035 527.64026846 342.83607832 527.65185547 349.75445366 C527.65450857 352.29942197 527.65372597 354.84439643 527.64933014 357.38936234 C527.64389882 360.85212772 527.65067954 364.31465476 527.66069031 367.77740479 C527.65622886 368.79451237 527.65176742 369.81161996 527.64717078 370.85954899 C527.65238628 371.78390517 527.65760177 372.70826135 527.66297531 373.66062832 C527.66330002 374.46037435 527.66362472 375.26012038 527.66395926 376.08410114 C527.79501313 378.45550713 527.79501313 378.45550713 529.91465759 381.14717102 C533.18585219 381.81287235 536.4296243 382.09841493 539.75059509 382.42451477 C543.42562273 383.26387293 544.67897047 384.15051058 546.91465759 387.14717102 C547.74278259 389.50654602 547.74278259 389.50654602 548.16465759 391.89717102 C548.31418884 392.69638977 548.46372009 393.49560852 548.61778259 394.31904602 C548.76473572 395.2239679 548.76473572 395.2239679 548.91465759 396.14717102 C549.24465759 396.14717102 549.57465759 396.14717102 549.91465759 396.14717102 C549.91465759 297.14717102 549.91465759 198.14717102 549.91465759 96.14717102 C549.58465759 96.14717102 549.25465759 96.14717102 548.91465759 96.14717102 Z M80.91465759 135.14717102 C79.79343639 139.08915736 79.84019298 142.85144244 79.91123962 146.9289093 C79.90043365 148.11019913 79.88962769 149.29148895 79.87849426 150.50857544 C79.85780092 153.73921164 79.87288104 156.9671736 79.90591669 160.19763422 C79.93372902 163.59129951 79.92068359 166.9848475 79.91365051 170.37858582 C79.90825033 176.08337075 79.93514423 181.78731327 79.98155212 187.49189758 C80.03461868 194.05985519 80.03831467 200.62639812 80.0147754 207.19449627 C79.9930971 213.53780856 80.00569854 219.88061588 80.03388596 226.2238884 C80.04531607 228.91028349 80.04531192 231.59630352 80.03575516 234.2827034 C80.02988977 238.05233696 80.06313897 241.81971776 80.10655212 245.58906555 C80.09754883 246.68663681 80.08854553 247.78420807 80.07926941 248.91503906 C80.23310631 257.01306225 82.42225551 263.37088549 86.91465759 270.14717102 C87.90465759 270.80717102 88.89465759 271.46717102 89.91465759 272.14717102 C90.35036072 271.41111633 90.78606384 270.67506165 91.23497009 269.91670227 C94.68190179 264.2688077 97.67330809 260.13515434 102.91465759 256.14717102 C104.60553981 254.1676016 106.27296231 252.16771906 107.91465759 250.14717102 C112.48907614 245.3319936 117.32740649 240.81810403 122.91465759 237.20967102 C125.46706969 235.4548877 127.19863045 233.87539225 129.28965759 231.64717102 C135.62980444 225.15408203 143.74709648 222.43009157 152.73008728 222.01802063 C155.77742473 222.03032854 158.80801314 222.13423622 161.85215759 222.27217102 C162.87245056 222.29537415 163.89274353 222.31857727 164.94395447 222.34248352 C173.03100075 222.67277769 180.46853412 224.09265249 186.66465759 229.58467102 C187.40715759 230.43029602 188.14965759 231.27592102 188.91465759 232.14717102 C192.43754169 235.34234497 195.82441072 237.69934377 199.97715759 240.02217102 C204.76194072 242.79117595 206.92031128 245.56758254 209.91465759 250.14717102 C211.23213083 250.84465685 212.56379953 251.51677059 213.91465759 252.14717102 C214.34778259 252.88967102 214.78090759 253.63217102 215.22715759 254.39717102 C216.83915089 257.02412305 217.91046137 258.0207266 220.28965759 259.83467102 C225.45091115 264.03365697 227.849078 269.95043224 229.91465759 276.14717102 C232.07286381 277.39709756 232.07286381 277.39709756 234.66465759 278.45967102 C243.14993184 282.54517344 245.8955386 288.61267821 248.91465759 297.14717102 C253.54861457 296.81617409 255.77705871 295.64641187 259.15684509 292.51435852 C261.24674648 290.88887966 263.35026325 290.04418027 265.78965759 289.02217102 C272.15635083 285.99679499 275.21479598 280.95528711 278.91465759 275.14717102 C281.82740931 270.585534 284.23850278 267.82088541 289.14122009 265.28388977 C293.44184861 262.52731951 296.32109093 258.37793803 297.62559509 253.47529602 C297.93133989 251.74107141 298.19204347 249.99795398 298.39512634 248.24873352 C298.91465759 246.14717102 298.91465759 246.14717102 301.91465759 244.14717102 C303.80184509 244.05435852 303.80184509 244.05435852 305.72715759 243.95967102 C309.18162593 243.57866348 310.84896708 242.75433487 313.22715759 240.20967102 C316.06134957 236.52979273 316.99031814 232.74660136 318.15684509 228.31513977 C318.91465759 226.14717102 318.91465759 226.14717102 321.10215759 224.20967102 C322.67648881 223.61492367 324.26223503 223.04400561 325.87559509 222.56513977 C330.00176577 221.25366173 331.55323161 220.67382031 334.10215759 216.95967102 C335.05300875 215.04588161 335.93173442 213.10904775 336.80528259 211.15888977 C339.43598989 206.10361268 342.21640697 204.25834121 347.35215759 201.77217102 C352.15204683 199.42603682 354.64616857 197.79300027 357.10215759 193.02217102 C359.5894398 188.22266459 361.92049379 186.15087365 366.89903259 184.04170227 C383.32043894 179.17058562 407.47275629 178.09216503 423.35215759 185.20967102 C427.87147807 187.76834828 431.24138598 191.20015059 434.77403259 194.96748352 C436.69434434 196.92283745 438.54035091 198.41441561 440.78965759 199.95967102 C445.05084586 202.9985264 448.38545807 206.79559461 451.83677673 210.68891907 C454.47350908 213.64428145 457.14377993 216.29014044 460.22715759 218.77217102 C464.66640719 222.46086707 467.23354171 227.09976725 469.91465759 232.14717102 C476.38738899 222.43807393 475.37279237 210.30840007 475.34825134 199.12763977 C475.35282029 197.2968527 475.35812798 195.46606734 475.36413574 193.63528442 C475.37302363 189.81861856 475.37068991 186.00216249 475.36070251 182.1855011 C475.34916587 177.30192796 475.36951774 172.41907289 475.39861965 167.53559399 C475.41697665 163.763422 475.41669109 159.99142275 475.41098213 156.2192173 C475.41082914 154.41833291 475.41685547 152.61743666 475.42927361 150.81659508 C475.44418817 148.30157193 475.43350736 145.78788535 475.41636658 143.27290344 C475.42603455 142.53564529 475.43570251 141.79838715 475.44566345 141.03878784 C475.37248892 135.89918588 474.26220555 133.02562983 470.91465759 129.14717102 C468.19240396 128.52450866 466.32940175 128.33229238 463.60496521 128.38526917 C462.86680777 128.37590922 462.12865033 128.36654928 461.36812449 128.3569057 C458.8926716 128.33295824 456.41942403 128.35193258 453.94395447 128.37080383 C452.16974087 128.36267369 450.3955374 128.35199063 448.62135315 128.33894348 C443.79837235 128.31155183 438.97616034 128.32221527 434.15316582 128.34121799 C429.10053813 128.35640725 424.04797635 128.34231934 418.99534607 128.332901 C410.50120747 128.32197663 402.00738154 128.33638456 393.51329041 128.36494446 C383.713411 128.39751584 373.91428219 128.38708472 364.11442137 128.35398602 C355.69122793 128.32668166 347.26825947 128.32295568 338.84503603 128.33861804 C333.81883757 128.34794122 328.79299063 128.34930696 323.76681519 128.32939911 C319.03213654 128.31195789 314.2984151 128.32428518 309.56383896 128.35876465 C307.8337805 128.36664431 306.10364037 128.36451259 304.37361526 128.35118866 C293.65823078 128.27632782 286.14814256 129.18982213 276.91465759 135.14717102 C277.71535415 137.28587088 277.71535415 137.28587088 279.67710876 137.90571594 C280.42967957 138.14395081 281.18225037 138.38218567 281.95762634 138.62763977 C282.78455994 138.90543274 283.61149353 139.18322571 284.46348572 139.46943665 C286.19922304 140.03859403 287.93878601 140.59623615 289.68223572 141.14131165 C296.47738437 143.45891455 300.61845084 146.52788384 303.8533783 153.03559875 C304.63463645 154.92974224 305.32396602 156.83035679 305.97715759 158.77217102 C307.75718718 164.03302999 309.83462636 167.30933342 313.91465759 171.14717102 C319.43950605 178.21046239 320.51044245 187.74187142 319.78965759 196.58467102 C318.48848768 201.88229138 317.03622215 206.64383307 312.46153259 209.88545227 C309.07791494 212.8902293 308.24235684 215.85069987 306.91465759 220.08467102 C304.39410341 228.07863793 300.50180985 231.94678766 293.91465759 237.14717102 C292.41940414 238.61052573 290.95908037 240.10076839 289.51231384 241.61201477 C280.96680372 249.80961609 269.8201599 250.82729425 258.47715759 250.64717102 C257.26809753 250.63726135 256.05903748 250.62735168 254.81333923 250.61714172 C227.51261238 250.06101247 227.51261238 250.06101247 221.21470642 244.70014954 C219.63385431 242.81173633 219.2477531 241.27953267 218.66465759 238.89717102 C217.02964694 233.66854319 214.29082381 230.40239302 209.91465759 227.14717102 C208.04065548 226.24300112 208.04065548 226.24300112 206.16465759 225.58467102 C201.95246658 223.72158653 201.63665083 222.37473481 199.91465759 218.14717102 C199.02288311 214.92528764 198.3602782 211.67855876 197.72715759 208.39717102 C197.5499115 207.55412415 197.37266541 206.71107727 197.19004822 205.84248352 C196.00787843 199.87229788 195.71099892 194.22095351 195.91465759 188.14717102 C195.94043884 186.91869446 195.96622009 185.6902179 195.99278259 184.42451477 C196.44369832 175.66240225 197.60000301 169.0567636 203.35215759 162.27217102 C205.91465759 160.14717102 205.91465759 160.14717102 208.47715759 158.95967102 C211.83149338 156.46542133 212.4354164 153.64176267 213.62950134 149.71748352 C216.09661232 144.78326157 219.93475667 142.30462506 225.00059509 140.56513977 C226.42594369 140.14015051 227.85582087 139.73007807 229.28965759 139.33467102 C230.02571228 139.11875305 230.76176697 138.90283508 231.52012634 138.68037415 C233.31448262 138.15604926 235.11407783 137.64970813 236.91465759 137.14717102 C236.91465759 136.15717102 236.91465759 135.16717102 236.91465759 134.14717102 C235.44217331 133.48624383 233.96113562 132.84437091 232.47715759 132.20967102 C231.65344666 131.85002258 230.82973572 131.49037415 229.98106384 131.11982727 C222.03058212 128.59795472 213.4359901 128.97989379 205.17808533 128.93843079 C203.30807358 128.92375511 203.30807358 128.92375511 201.40028381 128.90878296 C197.29961564 128.87901255 193.19898155 128.85718027 189.09825134 128.83857727 C188.39791566 128.83527995 187.69757998 128.83198263 186.97602201 128.82858539 C180.36117931 128.7978452 173.74633146 128.77117098 167.13143826 128.7541666 C158.7029449 128.73223385 150.2750859 128.69014138 141.84684604 128.62072903 C135.90009567 128.57342803 129.95351629 128.54922611 124.00658375 128.54196972 C120.46264221 128.53702788 116.91942004 128.52208609 113.37568474 128.48222542 C109.42421404 128.43835129 105.47355786 128.44226956 101.52183533 128.45014954 C99.77681984 128.42014862 99.77681984 128.42014862 97.99655151 128.38954163 C91.07441387 128.45147282 85.10350913 129.08147956 80.91465759 135.14717102 Z M387.81700134 234.30342102 C385.58314877 236.4684691 384.93670014 238.1441374 383.97715759 241.08467102 C381.66249834 247.24220086 378.61482894 249.36412396 372.78965759 252.08467102 C368.18136574 254.33282835 366.89089718 256.8815584 364.87950134 261.54951477 C362.07062516 267.70014074 360.17754746 270.46307536 353.91465759 273.14717102 C353.06645447 273.38951477 352.21825134 273.63185852 351.34434509 273.88154602 C347.99846386 275.62441663 347.70690895 277.36908798 346.53965759 280.89717102 C343.75070867 288.18330009 340.39712966 291.55867499 333.35215759 294.77217102 C329.82290762 296.65649705 328.95430713 298.89608053 327.41465759 302.52217102 C324.36833284 309.31017727 319.86804052 313.23653266 314.39439392 318.04804993 C309.92373543 322.03372354 306.64923957 325.87310139 303.89512634 331.25654602 C302.91465759 333.14717102 302.91465759 333.14717102 300.91465759 335.14717102 C301.34413917 340.32697919 302.5579465 345.35749816 303.78965759 350.39717102 C303.95079041 351.10357727 304.11192322 351.80998352 304.27793884 352.53779602 C305.49796715 357.54668597 305.49796715 357.54668597 308.91465759 361.14717102 C324.03390519 366.1487713 341.18867558 364.53832639 356.91807294 364.45135283 C360.9365263 364.43238447 364.954989 364.43081994 368.97348022 364.42727661 C376.55553608 364.41801457 384.13745956 364.39348141 391.71945757 364.36322814 C400.36295756 364.32950035 409.00646444 364.3131523 417.65001404 364.29814184 C435.4049698 364.26692542 453.15980299 364.2142808 470.91465759 364.14717102 C471.56496445 363.06809479 472.2152713 361.98901855 472.88528442 360.87724304 C473.43398083 359.96677247 473.43398083 359.96677247 473.99376202 359.03790855 C475.51694625 355.91058154 475.37930951 352.99602596 475.34043884 349.56123352 C475.33715073 348.86001373 475.33386261 348.15879395 475.33047485 347.43632507 C475.31486108 345.21428873 475.27094208 342.99381028 475.22715759 340.77217102 C475.21564722 339.29041271 475.2058677 337.8086399 475.19786072 336.32685852 C475.85766887 323.38160451 475.85766887 323.38160451 471.72715759 311.77217102 C468.89413176 309.12801358 466.36549147 307.83587696 462.91465759 306.14717102 C460.31444438 303.38936913 458.43213353 300.37105992 456.47715759 297.14717102 C453.60911545 292.49534656 450.45529579 289.15330209 445.85215759 286.14717102 C442.09101787 283.58639504 439.83670241 280.77172617 437.60215759 276.83467102 C434.52095665 271.92757322 430.93535809 267.39398622 425.97715759 264.33467102 C421.15136085 260.88767335 418.27416792 255.97558859 414.91465759 251.14717102 C411.59786189 246.46989325 407.79767821 243.56119718 402.98106384 240.52998352 C400.91465759 239.14717102 400.91465759 239.14717102 398.78965759 236.89717102 C395.68797781 234.00226989 391.7453376 232.13808111 387.81700134 234.30342102 Z M144.66465759 289.70967102 C143.70354809 291.16035373 142.78509712 292.64033764 141.91465759 294.14717102 C140.94334988 295.44475781 139.96475625 296.7369399 138.97715759 298.02217102 C136.73104352 300.80132975 136.73104352 300.80132975 136.91465759 303.14717102 C136.32684509 303.41916321 135.73903259 303.6911554 135.13340759 303.97138977 C128.5182973 307.47693237 123.47857225 313.1792548 119.97715759 319.70967102 C117.65231398 323.89620581 114.64667642 326.23786114 110.41465759 328.45967102 C106.07094027 331.39168021 103.64184279 335.56633364 101.47715759 340.27217102 C98.45895901 345.8256564 93.05266487 348.72183284 87.91465759 352.14717102 C86.12071313 353.77068211 86.12071313 353.77068211 84.91465759 355.14717102 C86.35788469 360.3384663 86.35788469 360.3384663 89.91465759 364.14717102 C92.54184937 364.6057568 92.54184937 364.6057568 95.56344604 364.5415802 C96.73977097 364.55292999 97.91609589 364.56427979 99.12806702 364.57597351 C101.0661171 364.57157761 101.0661171 364.57157761 103.0433197 364.5670929 C104.41657198 364.57443158 105.78981808 364.58301722 107.16305542 364.59275818 C110.89448677 364.61500427 114.62569751 364.61790335 118.35718608 364.61601067 C121.47109589 364.61589111 124.5849587 364.62444923 127.69885546 364.63278818 C135.04450293 364.65203336 142.39003674 364.65490203 149.73570251 364.64814758 C157.31633741 364.64150541 164.89648589 364.66437524 172.47702211 364.70146132 C178.98327695 364.73213797 185.48937516 364.74352059 191.9957009 364.7396245 C195.88261753 364.73755487 199.76915572 364.74306848 203.65600395 364.76751709 C207.31123378 364.78974867 210.96567177 364.78793756 214.62090492 364.76758957 C216.60253775 364.76254307 218.58418508 364.78222387 220.5657196 364.80259705 C221.74486435 364.79138824 222.92400909 364.78017944 224.1388855 364.76863098 C225.16371001 364.76934349 226.18853453 364.770056 227.24441433 364.7707901 C230.90831122 363.91510926 231.95831008 362.27878838 233.91465759 359.14717102 C234.40261483 356.07051365 234.40261483 356.07051365 232.91465759 353.14717102 C230.4280513 351.16611589 227.68021749 349.70279846 224.91465759 348.14717102 C219.69932111 344.56801853 217.77723803 341.08128992 215.19200134 335.51435852 C212.77805578 331.04080803 209.18665482 328.8999857 204.85215759 326.33467102 C201.60608763 323.91738488 200.19630807 321.72795569 198.18028259 318.29560852 C194.95737557 312.82462437 191.89691362 308.54869609 186.41465759 305.20967102 C181.34514134 302.08800581 178.95775424 298.14463179 175.91465759 293.14717102 C173.09685931 288.91471097 173.09685931 288.91471097 168.78575134 286.52607727 C155.70547242 284.34209317 155.70547242 284.34209317 144.66465759 289.70967102 Z M55.91465759 430.14717102 C54.54314887 430.51462557 53.16865682 430.87141054 51.78965759 431.20967102 C48.97738345 432.12671694 47.70253873 432.83344249 45.91465759 435.14717102 C47.22361479 438.2691458 47.22361479 438.2691458 49.91465759 440.14717102 C52.31071699 440.24625714 54.67777611 440.28461378 57.07417011 440.27859879 C57.82390934 440.28065142 58.57364856 440.28270405 59.34610716 440.28481889 C61.88462387 440.2905202 64.42308686 440.28902779 66.96160889 440.28761292 C68.78960679 440.29019479 70.61760414 440.29320745 72.44560069 440.29661632 C77.48968717 440.30471103 82.53375944 440.30647727 87.57785165 440.30721378 C93.01029429 440.30906016 98.44272949 440.31660558 103.87516785 440.323349 C115.76603793 440.33695236 127.65690466 440.34296071 139.54778123 440.34735966 C146.97158966 440.3501198 154.39539678 440.35435684 161.81920433 440.35886383 C182.36871795 440.3710612 202.91823052 440.38135823 223.46774769 440.38473892 C224.78399415 440.38495849 226.1002406 440.38517805 227.45637332 440.38540427 C229.43552534 440.38573169 229.43552534 440.38573169 231.45466024 440.38606572 C234.12841912 440.38650827 236.80217801 440.38695539 239.47593689 440.3874054 C240.13887625 440.38751479 240.80181561 440.38762418 241.48484404 440.38773688 C262.96393158 440.39136471 284.44298531 440.4072723 305.92205992 440.43059576 C328.63243607 440.4552111 351.34279291 440.46890592 374.05318278 440.47010684 C386.43184456 440.47102339 398.81046212 440.47677028 411.18911171 440.49492645 C421.73399845 440.51033812 432.27882731 440.51544174 442.82372317 440.50718835 C448.20247394 440.50328509 453.5811082 440.5041956 458.95984459 440.5182457 C463.8894229 440.53100441 468.81879739 440.5297697 473.7483755 440.51765499 C475.52646452 440.51570136 477.30456807 440.51876089 479.08263669 440.52749935 C489.16532616 440.57389149 498.16577016 440.00402508 507.91465759 437.14717102 C507.91465759 436.48717102 507.91465759 435.82717102 507.91465759 435.14717102 C507.10641541 434.82103821 506.29817322 434.4949054 505.46543884 434.15888977 C504.39680603 433.72189758 503.32817322 433.2849054 502.22715759 432.83467102 C501.17141541 432.40541321 500.11567322 431.9761554 499.02793884 431.53388977 C495.91465759 430.14717102 495.91465759 430.14717102 493.6412977 428.60289496 C490.33049991 426.83529549 487.91615347 426.64867581 484.17513466 426.46886921 C483.19494182 426.41925331 483.19494182 426.41925331 482.1949471 426.36863508 C474.38308725 426.00997997 466.5654137 425.99858602 458.74702454 426 C457.06454912 425.99669164 455.38207448 425.99296407 453.69960082 425.98885852 C449.11814727 425.97894274 444.53670681 425.97513885 439.95524406 425.97246921 C434.99815197 425.96853544 430.04106995 425.95896028 425.08398438 425.95025635 C413.14198952 425.93058968 401.19999394 425.9204434 389.25798696 425.91152856 C383.62519841 425.90713411 377.99241078 425.90177075 372.35962296 425.89653969 C353.62562187 425.87954582 334.89162135 425.86504923 316.15761375 425.85779095 C311.30774815 425.85588132 306.45788255 425.85396093 301.60801697 425.852005 C300.40272931 425.85152126 299.19744166 425.85103752 297.95563014 425.85053913 C278.40732763 425.84222901 258.8590861 425.8168673 239.31081025 425.78442433 C219.21526086 425.75134593 199.11974251 425.73334193 179.02416575 425.73014671 C167.75120855 425.72798357 156.4783406 425.71926229 145.20541 425.69368553 C135.61236777 425.67196887 126.01943654 425.66393336 116.42637251 425.67365231 C111.53557738 425.67819262 106.64501129 425.67632581 101.75424767 425.65689087 C97.27107757 425.63922956 92.78830312 425.64028084 88.30512865 425.65578816 C86.6896046 425.65815957 85.07405292 425.6538651 83.458571 425.64195951 C73.62206209 425.5739978 65.24886168 426.76254865 55.91465759 430.14717102 Z " fill="#000000" transform="translate(520.0853424072266,53.85282897949219)"/>
</svg>
