<?xml version="1.0" standalone="no"?>
<!DOCTYPE svg PUBLIC "-//W3C//DTD SVG 20010904//EN"
 "http://www.w3.org/TR/2001/REC-SVG-20010904/DTD/svg10.dtd">
<svg version="1.0" xmlns="http://www.w3.org/2000/svg"
 width="32.000000pt" height="32.000000pt" viewBox="0 0 32.000000 32.000000"
 preserveAspectRatio="xMidYMid meet">

<g transform="translate(0.000000,32.000000) scale(0.100000,-0.100000)"
fill="#000000" stroke="none">
<path d="M129 266 c-19 -44 -37 -56 -91 -56 -44 0 -45 -21 -4 -56 37 -32 38
-33 31 -88 -8 -65 -3 -68 57 -34 l40 23 38 -23 c59 -33 63 -30 55 34 -7 55 -6
56 31 88 41 35 40 56 -4 56 -54 0 -72 12 -91 56 -11 24 -25 44 -31 44 -6 0
-20 -20 -31 -44z"/>
</g>
</svg>
