<?xml version="1.0" encoding="UTF-8"?>
<!-- Generator: visioncortex VTracer 0.6.2 -->
<svg version="1.1" xmlns="http://www.w3.org/2000/svg" width="1280" height="1280">
<path d="M0 0 C1.47049805 -0.03673828 1.47049805 -0.03673828 2.97070312 -0.07421875 C12.60857916 -0.11243901 20.95889578 2.53561015 28.6875 8.375 C29.34621094 8.80554688 30.00492188 9.23609375 30.68359375 9.6796875 C39.6520274 15.76834888 41.65665725 24.07859079 43.6875 34.375 C44.26639073 39.34612557 44.55716209 44.31539425 44.8125 49.3125 C44.89027515 50.69007036 44.96889927 52.06759303 45.04833984 53.44506836 C45.20336711 56.17235754 45.35127573 58.89987528 45.4921875 61.62792969 C45.66009083 64.84915515 45.8420356 68.0690389 46.03125 71.2890625 C48.58171756 116.48971341 48.58171756 116.48971341 41.296875 127.69140625 C36.63877176 132.56432493 31.69097148 134.19019734 25.3125 135.4375 C24.52810547 135.6039502 23.74371094 135.77040039 22.93554688 135.94189453 C19.07146134 136.74937339 15.20433765 137.46933042 11.3046875 138.08203125 C3.24730468 139.36258127 -4.22975229 140.56571638 -10.3125 146.375 C-15.09897604 155.61408699 -13.72673484 167.69811939 -13.6867218 177.78016663 C-13.68946446 179.8630115 -13.69351831 181.94585498 -13.69876546 184.02869505 C-13.70933009 189.73502724 -13.70123774 195.44120228 -13.69001496 201.14752758 C-13.68116128 207.30762776 -13.68961965 213.46770763 -13.69587708 219.62780762 C-13.70481118 230.9897567 -13.70020776 242.35164125 -13.68871326 253.71358257 C-13.6781715 264.20516663 -13.67363849 274.69673275 -13.67500877 285.18832207 C-13.6750928 285.88460811 -13.67517683 286.58089416 -13.67526341 287.29827978 C-13.67561566 290.12472732 -13.67599967 292.95117485 -13.67642899 295.77762238 C-13.68039146 322.27444068 -13.66768623 348.77122726 -13.64690243 375.26803649 C-13.62851557 398.81989364 -13.62272493 422.37172042 -13.62817383 445.92358398 C-13.62852026 447.43715773 -13.62886636 448.95073148 -13.62921212 450.46430523 C-13.62938311 451.2125826 -13.62955411 451.96085996 -13.62973029 452.7318124 C-13.6305838 456.49837583 -13.63140759 460.26493927 -13.63219929 464.03150272 C-13.63235637 464.77455824 -13.63251345 465.51761376 -13.63267529 466.28318611 C-13.63666152 485.95899906 -13.63119534 505.63480907 -13.622688 525.31062025 C-13.62178094 527.42646194 -13.62087529 529.54230364 -13.61997276 531.65814534 C-13.61937166 533.06175839 -13.61876304 534.46537145 -13.61814686 535.86898449 C-13.61392076 545.66550988 -13.61334915 555.46202952 -13.61525235 565.25855552 C-13.61769102 577.87439917 -13.6134413 590.49020964 -13.59804235 603.1060474 C-13.59077479 609.1923105 -13.58674143 615.27853085 -13.59128571 621.36479759 C-13.59533824 626.92748537 -13.59026533 632.49008458 -13.57765963 638.05275887 C-13.57471245 640.0733116 -13.57519239 642.09387258 -13.57930271 644.11442328 C-13.58435533 646.84442134 -13.57729503 649.57411677 -13.56697559 652.30409336 C-13.57137208 653.10268077 -13.57576856 653.90126818 -13.58029827 654.7240552 C-13.70715879 659.01261642 -13.70715879 659.01261642 -11.3125 662.375 C-8.57899592 662.59829819 -5.9398195 662.7007625 -3.203125 662.71875 C-2.37608566 662.73269302 -1.54904633 662.74663605 -0.69694519 662.76100159 C1.08626382 662.7908894 2.86954323 662.81678479 4.65286255 662.83914185 C9.31462408 662.89917198 13.97562162 662.99169333 18.63671875 663.08984375 C20.03874794 663.11926308 20.03874794 663.11926308 21.46910095 663.14927673 C34.24416887 663.44558611 46.94430733 664.41445784 59.6875 665.375 C59.6875 681.545 59.6875 697.715 59.6875 714.375 C36.89126571 715.51481171 36.89126571 715.51481171 26.90234375 715.62109375 C24.70246848 715.65393202 22.50259878 715.68714477 20.30273438 715.72070312 C16.92768083 715.7685815 13.55266483 715.81332473 10.17749023 715.85180664 C6.85642181 715.89128969 3.53571448 715.94275741 0.21484375 715.99609375 C-0.80062027 716.0045079 -1.81608429 716.01292206 -2.86231995 716.02159119 C-4.2667057 716.04655418 -4.2667057 716.04655418 -5.69946289 716.07202148 C-6.52072159 716.08232895 -7.34198029 716.09263641 -8.18812561 716.10325623 C-10.61157017 716.25324855 -10.61157017 716.25324855 -13.3125 718.375 C-13.762863 720.92563994 -13.762863 720.92563994 -13.68139648 723.94775391 C-13.68827988 725.11722565 -13.69516327 726.28669739 -13.70225525 727.49160767 C-13.69609695 728.76539276 -13.68993866 730.03917786 -13.68359375 731.3515625 C-13.69653515 733.3592883 -13.70950032 735.36701422 -13.72376347 737.37473106 C-13.75366976 742.32170611 -13.75030382 747.26877421 -13.74829102 752.21582031 C-13.75802616 793.32379177 -13.75802616 793.32379177 -25.3125 805.375 C-41.21968377 820.41737806 -68.03599688 820.88768579 -88.85009766 820.60107422 C-90.61166407 820.58876345 -92.37324196 820.57801406 -94.13482666 820.56867981 C-97.88383906 820.54676959 -101.63265127 820.51648381 -105.38154984 820.48003769 C-111.31679981 820.42486013 -117.25187405 820.40424015 -123.18734741 820.39065552 C-125.23010451 820.3855898 -127.27286154 820.3804989 -129.31561852 820.37538338 C-130.33728764 820.3728475 -131.35895677 820.37031163 -132.41158557 820.36769891 C-146.19913632 820.33086476 -159.98598535 820.26595064 -173.77294922 820.13183594 C-183.11965367 820.04118855 -192.46535196 819.99677488 -201.81250799 820.00482762 C-206.74488749 820.00713759 -211.67459711 819.98572856 -216.60640335 819.90700912 C-221.23532485 819.83331049 -225.86049114 819.8202612 -230.48984528 819.85307884 C-232.18262845 819.85432702 -233.87560154 819.83346251 -235.56778336 819.78832817 C-244.20950295 819.31941559 -244.20950295 819.31941559 -251.83376646 822.65902185 C-254.15511207 825.33195153 -255.76932134 828.07330239 -257.4616909 831.19406319 C-259.4003069 834.5259114 -261.19488575 836.16990358 -264.3125 838.375 C-270.25881891 843.30406373 -272.49927239 849.79233561 -275.18164062 856.83789062 C-277.91372779 863.96213315 -280.64253584 869.49075698 -287.8125 873 C-293.94924487 876.21545144 -297.74309065 879.6329079 -301.58984375 885.375 C-311.69171171 897.1032458 -334.94250971 898.07416864 -349.3125 899.375 C-362.31590646 900.02424576 -375.03238267 898.33380888 -387.8125 896.0625 C-388.94034912 895.86213135 -390.06819824 895.6617627 -391.23022461 895.45532227 C-400.23918482 893.69971261 -406.9262955 891.42669207 -413.25 884.5625 C-416.38654526 881.27636566 -419.48313792 878.34127254 -423.125 875.625 C-426.83837888 872.84486045 -429.45880413 870.02138917 -432.3125 866.375 C-433.116875 865.59125 -433.92125 864.8075 -434.75 864 C-440.99999559 857.59756549 -445.36975844 851.19953505 -446.81640625 842.26171875 C-448.00787717 835.92817375 -448.00787717 835.92817375 -451.97851562 831.07373047 C-455.96481004 828.70896284 -460.18019735 826.98751591 -464.46435547 825.24560547 C-467.08512353 824.01104022 -469.163669 822.29675297 -471.3125 820.375 C-471.57675781 820.9628125 -471.84101562 821.550625 -472.11328125 822.15625 C-475.42673183 828.28667322 -481.15246247 832.41344349 -487.3125 835.375 C-488.3025 835.375 -489.2925 835.375 -490.3125 835.375 C-490.62380859 836.88126953 -490.62380859 836.88126953 -490.94140625 838.41796875 C-493.69578347 850.94738285 -497.4645233 862.59641205 -508.3125 870.375 C-516.08869492 876.39201724 -516.08869492 876.39201724 -522.75 883.5625 C-529.9539937 892.11192042 -540.74710214 894.33988173 -551.31640625 896.03515625 C-553.33885643 896.3794873 -555.33768174 896.7897065 -557.34375 897.21875 C-573.67858356 900.62208245 -588.8841137 899.90817764 -605.3125 897.1875 C-606.51680664 896.9915625 -607.72111328 896.795625 -608.96191406 896.59375 C-621.77338341 894.28818058 -633.0659796 890.43502633 -641.25 879.875 C-643.22628804 877.47949935 -645.10908574 875.88081161 -647.5625 874 C-648.34882812 873.39414063 -649.13515625 872.78828125 -649.9453125 872.1640625 C-651.42052612 871.04913207 -652.91297333 869.95621971 -654.4296875 868.8984375 C-662.66202001 862.65211517 -666.68557012 852.29395789 -668.5625 842.375 C-669.37222032 838.97015121 -669.93197898 837.69199497 -672.65234375 835.42578125 C-674.55512831 834.26427353 -676.48460821 833.14544176 -678.4375 832.0703125 C-682.71008662 829.55087963 -686.21032055 826.24161336 -689.3125 822.375 C-689.3125 821.715 -689.3125 821.055 -689.3125 820.375 C-690.23614961 820.37651888 -691.15979922 820.37803776 -692.11143821 820.37960267 C-746.93369079 820.46939738 -801.75593651 820.5378102 -856.57824796 820.57926132 C-863.17041087 820.58426375 -869.76257364 820.58944108 -876.35473633 820.59472656 C-877.66703968 820.5957758 -878.97934304 820.59682505 -880.33141316 820.59790608 C-901.54092028 820.61528041 -922.75038375 820.64680163 -943.95986503 820.68361118 C-965.74549209 820.72110348 -987.5310964 820.74325333 -1009.3167544 820.75135398 C-1022.74444933 820.75682459 -1036.17202084 820.77406205 -1049.59967775 820.80666587 C-1058.82507984 820.82791622 -1068.05041874 820.83417639 -1077.27584349 820.82900551 C-1082.58724898 820.82646001 -1087.89843977 820.83018047 -1093.20980644 820.8518219 C-1150.26244413 821.07215724 -1150.26244413 821.07215724 -1163.3125 812.375 C-1166.64971585 808.91917076 -1168.39088914 805.46004641 -1169.75 800.875 C-1170.74509495 797.52220851 -1171.85424232 795.48299254 -1174.25 792.9375 C-1182.15894169 784.35251292 -1182.26267117 773.04335741 -1182.96875 761.9921875 C-1183.08966222 760.27006367 -1183.21096872 758.54796748 -1183.3326416 756.82589722 C-1184.76584426 735.80900654 -1185.30329978 714.75130985 -1185.89068604 693.6975708 C-1186.4394031 674.10363924 -1186.99184102 654.52872123 -1188.65625 634.9921875 C-1188.75989868 633.69306427 -1188.86354736 632.39394104 -1188.97033691 631.05545044 C-1189.75159331 622.73093199 -1191.64237359 615.27964987 -1194.3125 607.375 C-1203.13474616 576.52055851 -1204.02689824 543.95914099 -1205.05859375 512.06640625 C-1205.10203069 510.72670336 -1205.10203069 510.72670336 -1205.14634514 509.35993576 C-1205.41391527 501.03758989 -1205.66804986 492.71484769 -1205.91430664 484.3918457 C-1206.67140381 458.97466118 -1208.04313344 433.70421507 -1210.3125 408.375 C-1213.6125 408.375 -1216.9125 408.375 -1220.3125 408.375 C-1220.3125 337.095 -1220.3125 265.815 -1220.3125 192.375 C-1217.0125 192.045 -1213.7125 191.715 -1210.3125 191.375 C-1208.04418563 189.83488834 -1208.04418563 189.83488834 -1206.75 187.625 C-1203.74112625 183.63912724 -1200.92171325 181.86889107 -1196.50390625 179.65625 C-1194.15718332 178.28419096 -1192.59625877 176.7975436 -1190.75 174.8125 C-1182.90932761 166.48291732 -1172.20004412 165.12976959 -1161.3125 164.3125 C-1160.25869141 164.22798584 -1159.20488281 164.14347168 -1158.11914062 164.05639648 C-1151.95815394 163.58293366 -1145.80571925 163.24792 -1139.63061523 163.03491211 C-1114.19423878 162.52071074 -1114.19423878 162.52071074 -1090.66796875 154.08203125 C-1072.47793938 144.82819792 -1047.83634948 145.77078289 -1027.875 144.62890625 C-1026.7705101 144.56569687 -1025.6660202 144.50248749 -1024.52806091 144.43736267 C-1018.98962069 144.12451955 -1013.45085716 143.82730432 -1007.91040039 143.55249023 C-997.64089966 143.02350203 -987.43658679 142.30978651 -977.234375 140.99609375 C-975.90352623 140.83355103 -975.90352623 140.83355103 -974.54579163 140.66772461 C-968.26949788 139.79383464 -963.34300754 137.93094152 -957.70831299 135.00811768 C-934.45475974 123.05803593 -902.95715661 124.83089201 -877.54516602 123.71826172 C-865.17589186 123.16573762 -852.86044599 122.51344719 -840.56640625 120.99609375 C-839.64253616 120.88773193 -838.71866608 120.77937012 -837.76679993 120.66772461 C-831.38394128 119.81034612 -826.37755275 117.99126797 -820.65452576 115.00811768 C-796.68842196 102.59038795 -763.4774186 104.77555671 -737.25512695 103.55249023 C-726.15250114 103.01560968 -715.11481737 102.28350296 -704.07421875 100.96875 C-703.09161575 100.85672241 -702.10901276 100.74469482 -701.09663391 100.62927246 C-695.64527009 99.93098519 -691.24304118 98.81249403 -686.3125 96.375 C-659.31099981 83.46123904 -626.11879717 84.63250023 -596.76498413 83.25869751 C-586.24398002 82.75964613 -575.78445793 82.10635007 -565.3125 80.9375 C-563.76550415 80.77217773 -563.76550415 80.77217773 -562.18725586 80.60351562 C-556.65890087 79.93119254 -552.32088421 78.79723673 -547.3125 76.375 C-545.13441407 75.51736232 -542.94656916 74.68412583 -540.75 73.875 C-539.67621094 73.4728125 -538.60242188 73.070625 -537.49609375 72.65625 C-527.66325792 69.41190032 -517.33320931 67.89365927 -507.0625 66.875 C-505.87358154 66.75318359 -504.68466309 66.63136719 -503.4597168 66.50585938 C-490.70436926 65.28021465 -477.91669428 64.59995982 -465.125 63.875 C-444.84535922 62.74911552 -444.84535922 62.74911552 -424.625 60.875 C-423.63669189 60.76865234 -422.64838379 60.66230469 -421.63012695 60.55273438 C-416.30503116 59.89508961 -412.14915505 58.68918902 -407.3125 56.375 C-381.52662487 46.22161819 -353.99195876 45.05260678 -326.59423828 43.71826172 C-314.76183827 43.13068468 -302.98441511 42.37818522 -291.21484375 40.99609375 C-290.23515625 40.88773193 -289.25546875 40.77937012 -288.24609375 40.66772461 C-280.89667562 39.741451 -275.40422973 37.52567232 -268.8359375 34.08203125 C-246.00626 23.02153339 -215.25688129 24.80023138 -190.54516602 23.71826172 C-178.15471502 23.16479167 -165.82475088 22.50679901 -153.51171875 20.96875 C-152.58051712 20.85672241 -151.64931549 20.74469482 -150.68989563 20.62927246 C-145.39883565 19.91228838 -141.11271369 18.72048853 -136.3125 16.375 C-108.34092612 2.99729075 -73.34252726 4.27329588 -42.92724609 3.10888672 C-35.1794815 2.79946328 -27.52729449 2.38251721 -19.83984375 1.33984375 C-13.19459038 0.44144218 -6.70243688 0.00899053 0 0 Z M-55.5625 56.6875 C-56.5426709 56.80512695 -57.5228418 56.92275391 -58.53271484 57.04394531 C-65.78681201 58.03481064 -71.27399668 60.16456024 -77.625 63.8125 C-82.21791804 66.11589696 -86.76794614 67.42900535 -91.75 68.5625 C-92.4097583 68.71710693 -93.0695166 68.87171387 -93.74926758 69.03100586 C-112.88059731 73.08356345 -132.88998962 73.1172297 -152.34350586 73.97680664 C-164.82247525 74.53568931 -177.25690924 75.15584019 -189.65234375 76.7578125 C-190.53046219 76.86592758 -191.40858063 76.97404266 -192.31330872 77.08543396 C-199.04833084 78.04009545 -203.94628396 80.3522149 -209.88671875 83.66796875 C-234.5573122 95.96106948 -270.1809393 93.03764609 -296.9609375 94.19750977 C-308.71454585 94.72550379 -320.41138435 95.43225133 -332.10546875 96.75390625 C-333.1194574 96.86226807 -334.13344604 96.97062988 -335.17816162 97.08227539 C-342.63286106 97.99448504 -348.23650274 100.15607089 -354.890625 103.66796875 C-377.18153581 114.78797791 -407.72071662 112.96465264 -432.00439453 114.03173828 C-444.56341673 114.59469925 -457.06870865 115.28127806 -469.55859375 116.75390625 C-470.52930817 116.86226807 -471.50002258 116.97062988 -472.50015259 117.08227539 C-479.78937027 118.01349455 -485.27295249 120.25168591 -491.7890625 123.66796875 C-514.61874 134.72846661 -545.36811871 132.94976862 -570.07983398 134.03173828 C-582.47028498 134.58520833 -594.80024912 135.24320099 -607.11328125 136.78125 C-608.04448288 136.89327759 -608.97568451 137.00530518 -609.93510437 137.12072754 C-615.22616435 137.83771162 -619.51228631 139.02951147 -624.3125 141.375 C-647.60098841 152.51297272 -675.15344287 152.68499443 -700.54296875 153.8984375 C-701.40050247 153.93973785 -702.25803619 153.98103821 -703.14155579 154.02359009 C-707.29021174 154.2198346 -711.43864181 154.40004424 -715.58911133 154.55322266 C-723.45690261 154.8699251 -731.1875587 155.48465689 -738.96875 156.72265625 C-739.68889282 156.83291138 -740.40903564 156.9431665 -741.15100098 157.0567627 C-746.24332678 157.93612216 -750.65326209 159.60279784 -755.3125 161.8125 C-756.05282471 162.15434326 -756.79314941 162.49618652 -757.5559082 162.84838867 C-758.41962036 163.25408081 -758.41962036 163.25408081 -759.30078125 163.66796875 C-784.51546754 174.87926879 -817.61566762 172.9358763 -844.61108398 174.03173828 C-857.36148466 174.55974196 -870.0616599 175.11653865 -882.72265625 176.78125 C-884.03815712 176.94929138 -884.03815712 176.94929138 -885.38023376 177.12072754 C-890.49094451 177.8593932 -894.65969189 179.12980132 -899.3125 181.375 C-926.40797197 194.33370399 -959.68938616 193.19744524 -989.14797974 194.49130249 C-999.45302529 194.95093439 -1009.69806529 195.49623265 -1019.9375 196.8125 C-1020.81817139 196.92271484 -1021.69884277 197.03292969 -1022.60620117 197.14648438 C-1027.64982565 197.87126814 -1031.71457483 199.17790761 -1036.3125 201.375 C-1061.01946443 212.6147841 -1089.4133573 212.68133792 -1116.125 213.9375 C-1141.17596762 213.27342589 -1141.17596762 213.27342589 -1162.8125 222.875 C-1165.3125 225.375 -1165.3125 225.375 -1167.875 226.625 C-1171.69574446 229.36809859 -1172.95963999 232.94135011 -1174.3125 237.375 C-1174.86149236 241.70081276 -1174.8318506 245.95739114 -1174.75 250.3125 C-1174.7382373 251.55217529 -1174.72647461 252.79185059 -1174.71435547 254.0690918 C-1174.53287498 264.30624109 -1173.82764763 274.48966398 -1172.9375 284.6875 C-1172.87464813 285.41597137 -1172.81179626 286.14444275 -1172.74703979 286.89498901 C-1171.86202374 296.91067337 -1170.24014175 305.79373954 -1166.9375 315.3125 C-1153.19300326 358.24497687 -1156.21835737 408.81952017 -1155.07421875 453.3203125 C-1154.74446175 465.7780668 -1154.16177728 478.19260091 -1153.18209839 490.61584473 C-1153.0633179 492.13023121 -1152.9487969 493.6449596 -1152.83914185 495.16003418 C-1152.2256904 503.48002084 -1151.0648779 511.16137864 -1148.40112305 519.11938477 C-1144.79122821 529.91506713 -1142.55620587 540.71710289 -1141.1875 552 C-1141.03152344 553.16789062 -1140.87554688 554.33578125 -1140.71484375 555.5390625 C-1136.95112379 585.39998121 -1136.59110093 615.61255965 -1135.71069336 645.65991211 C-1135.15279475 664.55510224 -1134.5155765 683.42583294 -1132.96484375 702.26953125 C-1132.91280855 702.95433752 -1132.86077335 703.63914379 -1132.80716133 704.34470177 C-1132.17764355 712.44685151 -1130.87209663 719.81331503 -1128.26750183 727.52061462 C-1126.77431961 731.98355632 -1125.74132209 736.54226054 -1124.6875 741.125 C-1124.38199219 742.42630859 -1124.38199219 742.42630859 -1124.0703125 743.75390625 C-1123.86921875 744.61371094 -1123.668125 745.47351563 -1123.4609375 746.359375 C-1123.26532227 747.19283447 -1123.06970703 748.02629395 -1122.86816406 748.88500977 C-1122.49583509 750.55345581 -1122.15424371 752.22904111 -1121.84277344 753.90991211 C-1121.03264567 758.43642913 -1121.03264567 758.43642913 -1118.78125 762.34765625 C-1111.02874551 766.63922123 -1101.94850815 766.22324648 -1093.3125 765.375 C-1092.29119995 765.30466553 -1092.29119995 765.30466553 -1091.24926758 765.23291016 C-1089.02890919 764.45472531 -1089.02890919 764.45472531 -1087.54858398 761.75805664 C-1086.1258276 757.86409352 -1086.14630421 755.35971054 -1086.53515625 751.24609375 C-1086.59650253 750.57514175 -1086.65784882 749.90418976 -1086.72105408 749.21290588 C-1086.85488688 747.79597049 -1086.99743069 746.37983378 -1087.14819336 744.96459961 C-1087.37163169 742.84446087 -1087.56199088 740.72331628 -1087.74804688 738.59960938 C-1088.58173169 729.80581121 -1090.45200483 721.74666205 -1093.3125 713.375 C-1098.51001777 695.87076095 -1100.39758934 678.00437234 -1101.80859375 659.86328125 C-1101.90687469 658.60428135 -1101.90687469 658.60428135 -1102.00714111 657.31984711 C-1103.66907788 635.6952427 -1104.27526836 614.04595433 -1104.89068604 592.37133789 C-1105.45740331 572.49440113 -1106.08839474 552.65092412 -1107.71875 532.828125 C-1107.77517166 532.10554253 -1107.83159332 531.38296005 -1107.88972473 530.63848114 C-1108.53122396 522.58244638 -1109.54337749 515.00973452 -1112.3125 507.375 C-1118.64535246 489.24329694 -1120.42769472 470.28055418 -1121.83984375 451.234375 C-1121.9041156 450.3792375 -1121.96838745 449.5241 -1122.03460693 448.64304924 C-1123.66526755 426.66621858 -1124.27530515 404.66328843 -1124.89068604 382.63928223 C-1125.44066644 363.02374172 -1125.99107105 343.43836805 -1127.7421875 323.88671875 C-1127.85735718 322.5726857 -1127.97252686 321.25865265 -1128.09118652 319.90480042 C-1129.08288282 309.68100948 -1131.26443928 300.15510849 -1134.3125 290.375 C-1135.24273635 286.21526386 -1135.81961475 282.64925292 -1135.3125 278.375 C-1134.06625135 276.45734063 -1132.62703885 274.77814813 -1131.16015625 273.0234375 C-1128.21483924 268.80160889 -1126.29604468 264.09441263 -1124.29296875 259.36572266 C-1121.61853401 253.2975508 -1118.66996098 250.13940658 -1112.390625 247.69140625 C-1106.08222897 245.7684636 -1099.61091305 245.63030868 -1093.0625 245.3125 C-1091.69571689 245.23577372 -1090.32901762 245.15754061 -1088.96240234 245.07788086 C-1086.14479797 244.91476029 -1083.32698759 244.75700508 -1080.50878906 244.60449219 C-1049.96131016 244.0474651 -1049.96131016 244.0474651 -1021.41796875 234.859375 C-1000.07185154 224.65619948 -971.49947768 225.88466848 -948.4375 224.8125 C-916.64912681 224.85506578 -916.64912681 224.85506578 -886.6875 216.5 C-863.36084582 204.39488022 -832.78437068 205.86620954 -807.19335938 204.71826172 C-794.76506504 204.14970377 -782.3974961 203.44203066 -770.0390625 201.96875 C-769.05859955 201.85672241 -768.0781366 201.74469482 -767.06796265 201.62927246 C-761.62771528 200.93018264 -757.23386622 199.80617178 -752.3125 197.375 C-725.21702803 184.41629601 -691.93561384 185.55255476 -662.47702026 184.25869751 C-652.17197471 183.79906561 -641.92693471 183.25376735 -631.6875 181.9375 C-630.80682861 181.82728516 -629.92615723 181.71707031 -629.01879883 181.60351562 C-623.97517435 180.87873186 -619.91042517 179.57209239 -615.3125 177.375 C-589.11741344 165.45823385 -558.75247901 165.91213774 -530.47509766 164.71826172 C-517.59876621 164.16343758 -504.77379023 163.50488702 -491.96875 161.99609375 C-490.99710907 161.88773193 -490.02546814 161.77937012 -489.02438354 161.66772461 C-481.92856074 160.75780031 -476.89484381 158.61580145 -470.66796875 155.08203125 C-452.4535334 145.81578183 -427.74405217 146.73864762 -407.7578125 145.6640625 C-406.63851349 145.60321976 -405.51921448 145.54237701 -404.36599731 145.47969055 C-398.75472623 145.17790224 -393.14342742 144.89427667 -387.52978516 144.64038086 C-376.46112233 144.10378991 -365.56789733 143.1755788 -354.61328125 141.46484375 C-353.57536438 141.30544815 -352.53744751 141.14605255 -351.46807861 140.98182678 C-344.86950678 139.87777748 -339.8641327 138.17457887 -334.06640625 134.82421875 C-312.1697281 123.30128599 -280.27978499 125.7226683 -256.32421875 124.71826172 C-243.84004102 124.18392584 -231.40331933 123.60471196 -219.00390625 121.99609375 C-218.13066711 121.88773193 -217.25742798 121.77937012 -216.35772705 121.66772461 C-210.17057594 120.78595548 -205.26513468 118.88956652 -199.70741272 116.00811768 C-176.6369113 104.14618096 -145.42004705 105.84986691 -120.19335938 104.71826172 C-107.79883823 104.15124879 -95.4591559 103.45169469 -83.1328125 101.99609375 C-82.16491791 101.88773193 -81.19702332 101.77937012 -80.19979858 101.66772461 C-72.75650056 100.71765944 -66.66733476 98.34490715 -59.97265625 95.078125 C-51.29867781 90.90438649 -41.98330441 89.5215154 -32.515625 88.421875 C-31.82042252 88.33955124 -31.12522003 88.25722748 -30.40895081 88.17240906 C-26.8707809 87.75696434 -23.333205 87.37131147 -19.78686523 87.0324707 C-18.47919189 86.88898193 -17.17151855 86.74549316 -15.82421875 86.59765625 C-14.05244263 86.42375366 -14.05244263 86.42375366 -12.24487305 86.24633789 C-9.1677709 85.62551691 -9.1677709 85.62551691 -7.41455078 83.10961914 C-6.25784277 80.23937403 -6.00300116 78.46618318 -6.16796875 75.3984375 C-6.21373047 74.480625 -6.25949219 73.5628125 -6.30664062 72.6171875 C-6.37044922 71.67101562 -6.43425781 70.72484375 -6.5 69.75 C-6.54447266 68.79609375 -6.58894531 67.8421875 -6.63476562 66.859375 C-6.86482787 61.29454309 -6.86482787 61.29454309 -9.3125 56.375 C-23.72371406 52.86675659 -41.00787495 54.89861254 -55.5625 56.6875 Z M-134.875 161.75 C-161.99580611 176.27275424 -202.07708094 173.84658997 -231.92236328 174.71386719 C-241.69983171 174.99833336 -251.35272838 175.52612515 -261.0625 176.75 C-262.46435547 176.9210022 -262.46435547 176.9210022 -263.89453125 177.09545898 C-269.20829361 177.82766648 -273.4897521 179.02575961 -278.3125 181.375 C-303.91416044 193.61927238 -334.91345841 193.02441064 -362.77780151 194.25686646 C-392.72470456 194.71565739 -392.72470456 194.71565739 -420.7890625 203.66796875 C-442.39844145 214.13725767 -471.32976124 212.82161889 -494.75 213.9375 C-513.35326047 214.80718262 -513.35326047 214.80718262 -531.91015625 216.33984375 C-532.63891464 216.41288223 -533.36767303 216.48592072 -534.11851501 216.56117249 C-540.97780656 217.32014838 -547.96248004 218.24578324 -554 221.75 C-576.04697271 233.21172893 -604.88712182 232.69191823 -629.12890625 233.87109375 C-629.99544327 233.91331558 -630.86198029 233.95553741 -631.754776 233.9990387 C-636.06568217 234.20686054 -640.37675078 234.40564672 -644.6887207 234.59008789 C-652.97486841 234.95757819 -661.22364922 235.47240931 -669.4765625 236.3125 C-670.23158051 236.38718506 -670.98659851 236.46187012 -671.76449585 236.53881836 C-679.22576475 237.3467495 -686.25703812 238.43914415 -692.8125 242.25 C-716.25980995 254.34139823 -747.29593025 252.90684463 -772.94946289 254.03173828 C-785.52806215 254.59461231 -798.05318077 255.27869382 -810.5625 256.75390625 C-811.53296768 256.86226807 -812.50343536 256.97062988 -813.50331116 257.08227539 C-820.79095733 258.01361733 -826.27431828 260.25240197 -832.7890625 263.66796875 C-855.61874 274.72846661 -886.36811871 272.94976862 -911.07983398 274.03173828 C-923.47028498 274.58520833 -935.80024912 275.24320099 -948.11328125 276.78125 C-949.51008369 276.94929138 -949.51008369 276.94929138 -950.93510437 277.12072754 C-956.22616435 277.83771162 -960.51228631 279.02951147 -965.3125 281.375 C-988.95453797 292.68206164 -1017.0815968 292.69686054 -1042.84375 293.8984375 C-1043.71133942 293.93973785 -1044.57892883 293.98103821 -1045.47280884 294.02359009 C-1049.69409243 294.22203094 -1053.91491627 294.40269683 -1058.13818359 294.55322266 C-1059.67286518 294.6184957 -1061.20753389 294.68407251 -1062.7421875 294.75 C-1063.43646851 294.76872162 -1064.13074951 294.78744324 -1064.84606934 294.80673218 C-1069.09016815 295.00470667 -1072.21057747 295.36095792 -1075.3125 298.375 C-1075.78234918 301.44435367 -1075.91949406 303.95346497 -1075.8359375 307.01953125 C-1075.83173294 307.88805222 -1075.82752838 308.75657318 -1075.82319641 309.65141296 C-1075.80278333 312.49764051 -1075.74599361 315.34182021 -1075.6875 318.1875 C-1075.66343405 320.16143849 -1075.64106553 322.13539838 -1075.62036133 324.109375 C-1075.56182466 328.98963482 -1075.47144536 333.86863131 -1075.36712646 338.74810791 C-1075.31839269 341.09163073 -1075.27721511 343.43506896 -1075.24072266 345.77880859 C-1074.99289154 360.6207248 -1074.12384197 375.39497907 -1072.9375 390.1875 C-1072.88032806 390.93692871 -1072.82315613 391.68635742 -1072.76425171 392.45849609 C-1072.14159061 400.4699878 -1071.2784403 407.86236056 -1068.3125 415.375 C-1064.66615042 426.45333818 -1062.63875979 437.70132561 -1061.125 449.25 C-1060.97039307 450.41031738 -1060.81578613 451.57063477 -1060.65649414 452.76611328 C-1058.11951554 473.44503828 -1057.22891357 494.26944144 -1056.56640625 515.078125 C-1056.53740297 515.98874317 -1056.5083997 516.89936134 -1056.47851753 517.83757401 C-1056.21059413 526.32739576 -1055.9556945 534.81759267 -1055.71069336 543.30810547 C-1055.15927729 562.27581685 -1054.55525809 581.20541486 -1052.83984375 600.109375 C-1052.77926851 600.79088875 -1052.71869328 601.4724025 -1052.65628242 602.17456818 C-1051.78523558 611.77957457 -1050.09971683 620.19846741 -1046.9375 629.3125 C-1037.96931076 657.32564478 -1037.70781663 688.79566202 -1036.82421875 717.96875 C-1036.78528503 719.21365204 -1036.74635132 720.45855408 -1036.70623779 721.74118042 C-1036.51584335 727.93411317 -1036.34990023 734.12625626 -1036.22216797 740.32080078 C-1036.16034684 742.60190207 -1036.09803282 744.88299006 -1036.03515625 747.1640625 C-1036.02159592 748.20921021 -1036.00803558 749.25435791 -1035.99406433 750.33117676 C-1035.79284449 756.81720216 -1035.00920395 760.67829605 -1030.3125 765.375 C-1027.84451647 765.49659324 -1025.40399884 765.55358991 -1022.93457031 765.56787109 C-1021.77597 765.58013733 -1021.77597 765.58013733 -1020.59396362 765.59265137 C-1018.02619208 765.61755525 -1015.45847606 765.6340356 -1012.890625 765.6484375 C-1012.01517784 765.65376118 -1011.13973068 765.65908485 -1010.23775482 765.66456985 C-1005.60252252 765.69132542 -1000.96731736 765.71069101 -996.33203125 765.72509766 C-991.54219053 765.74173539 -986.75303924 765.78649853 -981.96345901 765.8374691 C-978.28313402 765.87112219 -974.60297284 765.88267306 -970.92250824 765.88832474 C-969.15703829 765.89504456 -967.3915794 765.91028566 -965.62625885 765.93421555 C-963.1529379 765.96582466 -960.6814776 765.96591078 -958.20800781 765.95849609 C-957.11524033 765.9831041 -957.11524033 765.9831041 -956.00039673 766.00820923 C-952.33169522 765.96323457 -950.53563224 765.55024768 -947.62442648 763.26379162 C-944.79072692 759.72303562 -944.68821103 758.03660022 -944.69002342 753.54633236 C-944.68346462 752.86880882 -944.67690581 752.19128528 -944.67014825 751.49323073 C-944.65421758 749.21787709 -944.67395859 746.94423578 -944.69345093 744.66893005 C-944.68928858 743.02324014 -944.68292432 741.37755457 -944.67454493 739.73188072 C-944.65783241 735.20552288 -944.67224605 730.67971224 -944.69160604 726.15338457 C-944.70701853 721.27314685 -944.6935896 716.39298077 -944.68351746 711.51274109 C-944.66988987 703.05335914 -944.67421775 694.59413903 -944.69034958 686.13476372 C-944.71340911 673.89083694 -944.70611185 661.64707246 -944.69081838 649.40314031 C-944.66653276 629.5215947 -944.66234583 609.64010094 -944.67285156 589.75854492 C-944.67347539 588.56827425 -944.67409921 587.37800357 -944.67474194 586.15166409 C-944.67601321 583.7427892 -944.67728745 581.33391432 -944.67856465 578.92503944 C-944.67919703 577.73086713 -944.67982941 576.53669481 -944.68048096 575.30633545 C-944.6811191 574.11118407 -944.68175725 572.91603269 -944.68241473 571.6846646 C-944.68921421 558.42446094 -944.69121159 545.16425801 -944.69140625 531.90405273 C-944.69142908 530.71735296 -944.69145191 529.53065318 -944.69147544 528.30799281 C-944.69140616 508.50994959 -944.67936446 488.71192606 -944.66044676 468.91389233 C-944.64949058 456.70424339 -944.65030135 444.49469768 -944.6663865 432.2850538 C-944.67686603 423.91386766 -944.67707292 415.54272299 -944.66926835 407.17153405 C-944.66518724 402.34375307 -944.66608336 397.51610413 -944.68020058 392.68833923 C-944.69308294 388.26347575 -944.69207321 383.83883498 -944.68032809 379.41397036 C-944.67853512 377.81835558 -944.68176911 376.22272499 -944.69071047 374.62713426 C-944.81948594 350.19263431 -944.81948594 350.19263431 -936.3125 341.375 C-935.301875 340.55 -934.29125 339.725 -933.25 338.875 C-930.10334184 336.52732088 -930.10334184 336.52732088 -928.5625 332.875 C-925.96946854 327.96858423 -921.27590394 326.37033827 -916.3125 324.375 C-912.74050405 323.34743045 -909.16911288 322.7017588 -905.5 322.125 C-904.18612305 321.88523437 -904.18612305 321.88523437 -902.84570312 321.640625 C-896.47504706 320.57514942 -890.11961977 320.13576034 -883.67697144 319.83625793 C-882.75594285 319.7932949 -881.83491426 319.75033186 -880.88597572 319.70606691 C-871.17372425 319.28277107 -861.47051645 319.21206648 -851.75048828 319.19799805 C-849.79458503 319.19170842 -847.83868291 319.18505958 -845.88278198 319.17808533 C-839.5494668 319.15735821 -833.21615217 319.14672029 -826.8828125 319.13671875 C-824.6801744 319.13266094 -822.47753641 319.12854375 -820.27489853 319.12436867 C-809.92778003 319.10539454 -799.58066836 319.09114156 -789.23353589 319.0827567 C-777.37422628 319.07298067 -765.51510309 319.04661842 -753.65585911 319.00625581 C-744.42627639 318.97594156 -735.19674676 318.96127386 -725.96711528 318.95797569 C-720.48199083 318.95564501 -714.99706733 318.94694457 -709.51199722 318.92151451 C-652.03330387 318.66919527 -652.03330387 318.66919527 -639.3125 327.375 C-635.47833439 332.17978034 -634.68947408 337.18414789 -634.91796875 343.2265625 C-635.88145878 350.91540374 -637.3607619 359.25981627 -642.3125 365.375 C-642.3125 366.035 -642.3125 366.695 -642.3125 367.375 C-651.48084049 372.31179872 -661.21910182 372.52698465 -671.411026 372.51303101 C-672.69829477 372.51726293 -672.69829477 372.51726293 -674.01156896 372.52158034 C-676.85676181 372.52984251 -679.70191533 372.53125733 -682.54711914 372.53271484 C-684.59980375 372.53738933 -686.65248733 372.54253393 -688.70516968 372.54811096 C-693.11228906 372.55934993 -697.51940185 372.56780433 -701.92653084 372.57423019 C-708.90925191 372.58496249 -715.89192543 372.60522171 -722.87461853 372.62734985 C-742.7265301 372.68909683 -762.57843842 372.74322347 -782.43041992 372.77636719 C-793.4049082 372.7947693 -804.3793162 372.82377358 -815.3537454 372.8643719 C-821.15065117 372.88534523 -826.94745623 372.90088541 -832.74440193 372.90317917 C-838.20365879 372.90534204 -843.66270587 372.92137686 -849.12189865 372.94756889 C-851.11271314 372.95470085 -853.10355321 372.95689295 -855.09437752 372.95346642 C-867.02025832 372.9362355 -878.71673769 373.31439001 -890.3125 376.375 C-893.0720263 379.1345263 -892.56604692 380.71116465 -892.57256222 384.57855129 C-892.57827072 385.54810276 -892.57827072 385.54810276 -892.58409455 386.53724113 C-892.59448018 388.72407977 -892.5904915 390.9106622 -892.58665466 393.09751892 C-892.59110329 394.67278329 -892.59641609 396.24804542 -892.60252339 397.82330424 C-892.61675871 402.168412 -892.61836564 406.51344843 -892.61792648 410.85857618 C-892.61956981 415.53827557 -892.63262713 420.21794514 -892.64411926 424.89762878 C-892.66700498 435.13705421 -892.67489352 445.37645895 -892.67994571 455.61590648 C-892.68319821 462.00442932 -892.68971792 468.39294611 -892.6969471 474.78146553 C-892.71651672 492.45553233 -892.73291913 510.1295935 -892.73582363 527.80367184 C-892.7360112 528.93547441 -892.73619877 530.06727698 -892.73639202 531.2333766 C-892.73675828 533.52799547 -892.73712198 535.82261434 -892.73748314 538.11723321 C-892.73766595 539.25634654 -892.73784876 540.39545988 -892.73803711 541.5690918 C-892.73821766 542.70958871 -892.73839821 543.85008561 -892.73858423 545.02514303 C-892.74212806 563.51730707 -892.76916189 582.00935481 -892.806535 600.50147849 C-892.84456311 619.46882069 -892.8639807 638.43610511 -892.86428314 657.40348631 C-892.86486891 668.06041493 -892.8734377 678.71720479 -892.90228081 689.37409782 C-892.92672118 698.44624785 -892.93412744 707.51820852 -892.91903328 716.59038251 C-892.91183443 721.22269116 -892.91284886 725.85462537 -892.93544388 730.4868927 C-892.95590848 734.72281238 -892.95355228 738.95806678 -892.93256903 743.19397826 C-892.92904995 744.73097869 -892.9340854 746.26802592 -892.94827347 747.80496489 C-892.96625478 749.88599987 -892.95378266 751.96464868 -892.93332577 754.04560757 C-892.93414022 755.20380959 -892.93495468 756.36201161 -892.93579382 757.55531067 C-892.58365901 760.56759966 -892.58365901 760.56759966 -889.94508511 762.22493273 C-881.19638335 766.04687775 -870.58722301 765.63380084 -861.1875 765.8125 C-860.17961426 765.84690186 -859.17172852 765.88130371 -858.13330078 765.91674805 C-856.70219971 765.92508667 -856.70219971 765.92508667 -855.2421875 765.93359375 C-854.38866699 765.94704834 -853.53514648 765.96050293 -852.65576172 765.97436523 C-849.21332851 765.09385122 -848.25125018 763.28733978 -846.3125 760.375 C-845.7232513 757.53896039 -845.7232513 757.53896039 -845.81420898 754.47753906 C-845.80417343 753.31152161 -845.79413788 752.14550415 -845.78379822 750.94415283 C-845.79198074 749.68898865 -845.80016327 748.43382446 -845.80859375 747.140625 C-845.79418889 745.14291536 -845.77976741 743.1452057 -845.7644434 741.1475029 C-845.74323297 737.64000997 -845.74858644 734.1325426 -845.75 730.625 C-845.72447164 681.90129511 -845.72447164 681.90129511 -836.79296875 672.83203125 C-829.56945742 666.55759441 -820.45618338 667.00133374 -811.2734375 667.09765625 C-807.26069747 667.47351976 -805.1910034 668.57030438 -802.3125 671.375 C-794.81805483 681.34376491 -794.87688851 694.37345004 -794.93237495 706.4014473 C-794.94168665 708.6054308 -794.93104659 710.80859949 -794.91575623 713.01254272 C-794.88119191 718.46961797 -794.87389831 723.92661255 -794.87585449 729.38378906 C-794.8775207 734.03487998 -794.86384882 738.68535994 -794.82737541 743.33631516 C-794.8166022 745.49971301 -794.82863407 747.66222357 -794.84120178 749.82559204 C-794.83116623 751.13821014 -794.82113068 752.45082825 -794.81079102 753.80322266 C-794.81104027 755.5307225 -794.81104027 755.5307225 -794.81129456 757.29312134 C-794.17000401 761.25543336 -793.41557404 762.79636239 -790.3125 765.375 C-787.1399768 766.11349507 -784.03554479 766.06834818 -780.78979492 766.0378418 C-779.82509781 766.04820969 -778.8604007 766.05857758 -777.86647034 766.06925964 C-774.67487123 766.09638039 -771.48464178 766.08665493 -768.29296875 766.07421875 C-766.07342647 766.08012655 -763.85388739 766.08737279 -761.63435364 766.09590149 C-756.97961851 766.10779213 -752.32536119 766.10105875 -747.6706543 766.08178711 C-741.71168405 766.05893479 -735.75414296 766.08563548 -729.79531384 766.12684917 C-725.20980675 766.15245694 -720.62464 766.14983845 -716.0390873 766.13895607 C-713.84269224 766.13747085 -711.64627091 766.14514237 -709.44994164 766.16220665 C-706.37355065 766.18222244 -703.29966516 766.16374919 -700.22338867 766.13549805 C-698.86795456 766.15607269 -698.86795456 766.15607269 -697.48513794 766.17706299 C-696.63988052 766.1615892 -695.79462311 766.14611542 -694.92375183 766.13017273 C-693.83507199 766.12872773 -693.83507199 766.12872773 -692.72439861 766.12725353 C-688.66502225 764.86116374 -685.81969209 762.82708679 -683.3125 759.375 C-682.29834972 755.598809 -682.37527316 751.94229669 -682.43707275 748.05050659 C-682.42756395 746.90480765 -682.41805515 745.7591087 -682.4082582 744.5786916 C-682.38500473 740.73651507 -682.41182583 736.89632983 -682.43847656 733.05419922 C-682.43613064 730.30118546 -682.4233167 727.54824256 -682.41104126 724.79525757 C-682.38762898 718.09285667 -682.4017684 711.39103698 -682.42897978 704.6886705 C-682.45946792 696.88497935 -682.45461117 689.08143011 -682.44875237 681.27769627 C-682.43968556 667.35607374 -682.46551664 653.43472898 -682.50976562 639.51318359 C-682.55270674 626.00071666 -682.56685186 612.48860076 -682.55078125 598.97607422 C-682.53332108 584.26284741 -682.53155001 569.54977964 -682.55736518 554.83655941 C-682.56009833 553.26831954 -682.56282468 551.70007965 -682.56554413 550.13183975 C-682.56690548 549.36022165 -682.56826683 548.58860355 -682.56966944 547.79360308 C-682.57829665 542.35217614 -682.5760436 536.91081522 -682.56989288 531.46938705 C-682.56285014 524.84091877 -682.57402102 518.21277238 -682.60840073 511.58438478 C-682.62553636 508.20150243 -682.63468157 504.81910192 -682.62226486 501.43618774 C-682.61313123 497.77210602 -682.63458606 494.10946996 -682.66412354 490.44552612 C-682.65433417 489.37180468 -682.6445448 488.29808325 -682.63445878 487.19182479 C-682.63316263 481.45139335 -682.63316263 481.45139335 -685.57231331 476.71483803 C-688.26852294 475.39650296 -689.83692586 474.873023 -692.80386353 474.86706543 C-693.67305923 474.85578613 -694.54225494 474.84450684 -695.43778992 474.83288574 C-696.37822647 474.84098267 -697.31866302 474.84907959 -698.28759766 474.85742188 C-699.28812668 474.8504126 -700.2886557 474.84340332 -701.31950378 474.83618164 C-704.62214008 474.8185955 -707.92391771 474.8302253 -711.2265625 474.84375 C-713.52151657 474.8410557 -715.81646952 474.83717381 -718.11141968 474.83215332 C-722.91814048 474.82625777 -727.72456379 474.83482498 -732.53125 474.85351562 C-738.69993003 474.87633052 -744.86791494 474.86316584 -751.0365696 474.83922577 C-755.7737047 474.82479147 -760.51067417 474.82936252 -765.24781418 474.83973694 C-767.52286231 474.84240943 -769.79792538 474.83911619 -772.07295609 474.82981873 C-775.24777504 474.81968958 -778.4214574 474.83510287 -781.59619141 474.85742188 C-783.01291893 474.84527649 -783.01291893 474.84527649 -784.45826721 474.83288574 C-785.7536013 474.84980469 -785.7536013 474.84980469 -787.07510376 474.86706543 C-787.82540171 474.86857353 -788.57569965 474.87008163 -789.3487339 474.87163544 C-791.45849938 475.24092727 -791.45849938 475.24092727 -793.05409908 477.04675198 C-794.61653784 479.93751985 -794.68619371 481.85359998 -794.68431091 485.13490295 C-794.69106842 486.31090057 -794.69782593 487.48689819 -794.70478821 488.6985321 C-794.69706894 489.98532364 -794.68934967 491.27211517 -794.68139648 492.59790039 C-794.68386511 493.96979065 -794.68770415 495.34167903 -794.69281006 496.71356201 C-794.70114688 499.66721437 -794.70034123 502.62067392 -794.69262505 505.57432747 C-794.68102846 510.25304679 -794.69321813 514.93151899 -794.70924377 519.61021423 C-794.74542359 531.23699444 -794.75167552 542.86376919 -794.74914551 554.49060059 C-794.74743053 563.51684034 -794.75467913 572.54287774 -794.78912407 581.56906122 C-794.80584095 586.2109192 -794.80418921 590.85228246 -794.78830135 595.49413788 C-794.78246511 598.39664409 -794.79331519 601.2989207 -794.80854797 604.2013855 C-794.81399357 606.16852153 -794.79974371 608.13568203 -794.78468323 610.10276794 C-794.85341031 618.68339073 -795.65333032 627.3202444 -801.625 633.9375 C-808.18332519 637.44544138 -813.9758034 637.64290484 -821.25 637.25 C-822.53293945 637.21519531 -822.53293945 637.21519531 -823.84179688 637.1796875 C-830.56104714 636.85166918 -836.2431992 635.38565174 -841.15234375 630.5703125 C-844.24793561 624.7316517 -844.71653701 619.21238207 -844.93310547 612.74609375 C-844.97042219 611.78884903 -845.00773891 610.83160431 -845.04618645 609.84535217 C-845.48591877 597.33818155 -845.4567362 584.82566646 -845.4453125 572.3125 C-845.44598854 569.66137638 -845.44696029 567.01025413 -845.44821167 564.35913086 C-845.45001382 558.83935027 -845.44767914 553.31958321 -845.44287109 547.79980469 C-845.43743231 541.4843344 -845.43919636 535.16889644 -845.4446975 528.85342693 C-845.44928512 523.35968856 -845.44985198 517.86595972 -845.44725883 512.37222004 C-845.44572667 509.12231659 -845.44582837 505.87243101 -845.44879532 502.62252808 C-845.45750074 490.41269286 -845.40606137 478.21632001 -844.89404297 466.015625 C-844.85898714 465.12686172 -844.82393131 464.23809845 -844.78781319 463.32240295 C-844.41091857 455.51010048 -843.61747888 448.80838178 -838 442.97265625 C-836.26585913 441.42173562 -834.49599001 439.90976479 -832.69140625 438.44140625 C-830.51480696 436.55073133 -829.2630868 435.01134008 -827.8125 432.5625 C-824.54299587 427.529799 -818.58232562 426.13355806 -812.9953686 424.83745492 C-810.23457914 424.36156852 -807.68680099 424.24964568 -804.8866024 424.24915886 C-803.80357822 424.24655111 -802.72055403 424.24394336 -801.60471094 424.24125659 C-799.82852127 424.24460268 -799.82852127 424.24460268 -798.01644897 424.24801636 C-796.12283078 424.24567637 -796.12283078 424.24567637 -794.19095767 424.24328911 C-790.68899426 424.23911266 -787.1870581 424.24117894 -783.68509459 424.24427533 C-779.90715713 424.24653618 -776.12922437 424.2430463 -772.35128784 424.24029541 C-764.94943069 424.23584532 -757.54758368 424.23681104 -750.14572613 424.23970805 C-744.12715504 424.24196608 -738.1085868 424.24227286 -732.09001541 424.24118423 C-730.80525254 424.24095439 -730.80525254 424.24095439 -729.49453486 424.24071989 C-727.75449557 424.24040016 -726.01445628 424.24007595 -724.274417 424.2397473 C-707.95001189 424.23689447 -691.6256124 424.24017591 -675.30120821 424.24554767 C-661.30545761 424.25001073 -647.3097153 424.2492435 -633.31396484 424.24462891 C-617.05742113 424.2392714 -600.80088234 424.2371742 -584.54433787 424.24024117 C-582.80885164 424.24055971 -581.07336541 424.24087408 -579.33787918 424.24118423 C-578.48402777 424.24133851 -577.63017636 424.24149279 -576.75045066 424.24165174 C-570.74477937 424.24251372 -564.73911121 424.24106077 -558.7334404 424.23870468 C-551.40589425 424.23589322 -544.07835881 424.23667312 -536.75081389 424.24198543 C-533.01481883 424.24460502 -529.27884159 424.24565721 -525.54284668 424.24233627 C-521.48536672 424.23878431 -517.42793134 424.24303934 -513.37045288 424.24801636 C-512.19971076 424.24578564 -511.02896865 424.24355491 -509.8227495 424.24125659 C-485.68757255 424.29854259 -485.68757255 424.29854259 -478.0625 431.5 C-476.3125 434.375 -476.3125 434.375 -475.28515625 436.63671875 C-472.50155553 442.75689138 -469.49450942 446.28893402 -464.3359375 450.58203125 C-459.13055075 455.19452646 -458.7977508 460.80203964 -458.3125 467.375 C-458.18276514 471.4182151 -458.18749772 475.45736567 -458.2013855 479.50236511 C-458.20138648 480.69821883 -458.20138747 481.89407255 -458.20138848 483.12616426 C-458.20206227 485.73771271 -458.20454136 488.3491847 -458.21012688 490.96072006 C-458.21917043 495.21095158 -458.22122165 499.46117052 -458.22233582 503.71141052 C-458.22418157 509.08302926 -458.22769833 514.45464223 -458.23315342 519.82625852 C-458.24362991 530.37632058 -458.23935104 540.92633373 -458.22952271 551.47639465 C-458.22803522 553.13925193 -458.22654937 554.8021092 -458.22506511 556.46496648 C-458.2220148 559.83055312 -458.21888335 563.19613968 -458.21570611 566.56172621 C-458.20759574 575.20122502 -458.20015053 583.84072392 -458.19433594 592.48022461 C-458.193747 593.34682075 -458.19315806 594.21341688 -458.19255127 595.10627351 C-458.1836753 609.16637892 -458.19661145 623.22639172 -458.21662866 637.28648194 C-458.23660091 651.73068024 -458.22999795 666.17469879 -458.19948208 680.61887914 C-458.18157186 689.52462106 -458.18490718 698.4298416 -458.21546634 707.33555136 C-458.23447934 713.4342286 -458.2279816 719.53254216 -458.20132665 725.63118955 C-458.18672528 729.15021944 -458.18354638 732.66829578 -458.21085548 736.18727112 C-458.24017314 740.0015157 -458.21548474 743.81432146 -458.18551636 747.62858582 C-458.20269742 748.74112659 -458.21987848 749.85366737 -458.23758018 750.9999215 C-458.15998617 755.72623603 -458.00707112 759.46803741 -454.71050739 763.06195259 C-448.9898558 767.01809442 -441.73300569 766.19694309 -435.07136536 766.13017273 C-433.50073851 766.1363726 -431.93012019 766.14519129 -430.35952109 766.15639812 C-426.05018402 766.17949629 -421.74166106 766.16519799 -417.43234074 766.14468896 C-412.78267305 766.12905729 -408.13312821 766.1479799 -403.48347473 766.16249084 C-394.37830713 766.18532133 -385.27344643 766.17583729 -376.16828493 766.15498998 C-368.77048423 766.13871154 -361.37276734 766.13450505 -353.97495079 766.13895607 C-352.39614987 766.13990208 -352.39614987 766.13990208 -350.78545397 766.14086721 C-348.64734761 766.14221324 -346.50924127 766.14359281 -344.37113496 766.14500556 C-324.32137825 766.15694324 -304.27178993 766.13287246 -284.22207155 766.09598748 C-267.00907208 766.06508094 -249.79626635 766.06273003 -232.58325195 766.08178711 C-212.60102843 766.10388455 -192.61891353 766.11005788 -172.6366846 766.08946449 C-170.50732372 766.0873015 -168.37796282 766.08515241 -166.24860191 766.08301735 C-165.20086777 766.08195098 -164.15313363 766.08088462 -163.07364998 766.07978594 C-155.68105133 766.07330936 -148.28850849 766.07808993 -140.89591408 766.08704185 C-131.89231701 766.09756241 -122.88894741 766.09012463 -113.88539246 766.05958607 C-109.28940222 766.04442797 -104.69377148 766.03733189 -100.09777069 766.05177689 C-95.89403115 766.06475127 -91.69100529 766.05480143 -87.48734864 766.02621815 C-85.96328177 766.01991635 -84.43915223 766.02211942 -82.91511474 766.03348859 C-80.84912515 766.04764492 -78.78558179 766.03126825 -76.71973896 766.00699902 C-74.99618434 766.00496826 -74.99618434 766.00496826 -73.23781043 766.00289649 C-70.16435272 765.59691432 -70.16435272 765.59691432 -67.94350785 763.24594432 C-65.99553244 759.81706509 -65.8113441 757.73885835 -65.80913544 753.80789185 C-65.80332167 753.15866186 -65.79750791 752.50943187 -65.79151797 751.84052825 C-65.77690202 749.66170019 -65.79080925 747.4839959 -65.80456543 745.30517578 C-65.79995711 743.72874436 -65.79360465 742.15231724 -65.78565645 740.57589912 C-65.76893041 736.24133109 -65.77722427 731.90711449 -65.78960133 727.57254505 C-65.79863614 722.89898589 -65.7846899 718.22548799 -65.77368164 713.55194092 C-65.75587504 704.39542534 -65.75974593 695.23904076 -65.7713322 686.08252001 C-65.78035784 678.64226231 -65.7815943 671.20204138 -65.77723694 663.76177979 C-65.77631754 662.17467939 -65.77631754 662.17467939 -65.77537957 660.55551636 C-65.77410069 658.40621868 -65.77280384 656.256921 -65.7714892 654.10762334 C-65.76007713 633.94343155 -65.77320695 613.77931244 -65.79469067 593.61513257 C-65.81256221 576.30523426 -65.80945828 558.99544325 -65.79101562 541.68554688 C-65.76961999 521.59457316 -65.76117583 501.50366319 -65.77346468 481.41267967 C-65.77473891 479.2711932 -65.77599639 477.12970671 -65.77723694 474.98822021 C-65.77785404 473.93450859 -65.77847114 472.88079697 -65.77910694 471.79515469 C-65.78256377 464.36197643 -65.77672435 456.92883852 -65.76731873 449.4956665 C-65.75611188 440.439753 -65.75911108 431.38397822 -65.7804417 422.32808065 C-65.79096984 417.70569058 -65.79504399 413.08353197 -65.78184509 408.46114349 C-65.76995176 404.23208577 -65.77643287 400.00347472 -65.7977553 395.77445769 C-65.8022344 394.24223134 -65.79992585 392.70996749 -65.79025215 391.17776513 C-65.77812955 389.09867242 -65.79051818 387.0211198 -65.80913544 384.94210815 C-65.80978485 383.78629179 -65.81043426 382.63047543 -65.81110334 381.43963432 C-66.45013298 377.53376035 -67.29504769 375.9527461 -70.3125 373.375 C-73.29238971 372.87581821 -75.70331306 372.70458193 -78.68359184 372.74973011 C-79.54001833 372.74287171 -80.39644481 372.73601331 -81.27882361 372.72894707 C-84.16866197 372.71194845 -87.05717694 372.73077548 -89.94699097 372.7492218 C-92.03174537 372.7443458 -94.11649561 372.73727085 -96.20123589 372.72817773 C-101.9459116 372.70948802 -107.6901674 372.72202255 -113.43483162 372.739447 C-119.62461359 372.75278661 -125.81432944 372.73735204 -132.00410461 372.72528076 C-142.73673699 372.70822771 -153.46921107 372.70913171 -164.20183945 372.72228432 C-175.46896892 372.73595827 -186.73601482 372.73844804 -198.00314713 372.72630882 C-199.05400379 372.72518022 -199.05400379 372.72518022 -200.12608989 372.72402883 C-203.68420613 372.72013559 -207.24232207 372.71602119 -210.80043794 372.71180775 C-236.01996064 372.68220417 -261.23944686 372.67425927 -286.45898438 372.68041992 C-287.98454734 372.68078591 -289.51011031 372.68115107 -291.03567328 372.68151542 C-291.79153043 372.68169601 -292.54738759 372.6818766 -293.32614951 372.68206267 C-297.1497857 372.68296903 -300.9734219 372.68384712 -304.79705811 372.68469238 C-305.5551825 372.68486109 -306.31330689 372.68502981 -307.09440475 372.68520363 C-324.68370657 372.68896026 -342.27300394 372.6848935 -359.86230469 372.6784668 C-360.61530204 372.6781965 -361.3682994 372.6779262 -362.14411486 372.67764771 C-379.34515388 372.67142347 -396.54618958 372.66252925 -413.74722481 372.64947033 C-414.47083609 372.64892427 -415.19444737 372.64837822 -415.93998626 372.64781561 C-422.45066936 372.64289013 -428.9613524 372.63791025 -435.47203507 372.63243415 C-452.39086066 372.61823553 -469.30964192 372.61227369 -486.22847195 372.62097003 C-496.84885929 372.62626379 -507.46922977 372.62477568 -518.08961765 372.61826698 C-524.21580274 372.61482404 -530.34194168 372.614753 -536.46812248 372.6234951 C-542.08167149 372.63148502 -547.69514218 372.63027478 -553.30868997 372.62192919 C-555.33437875 372.62055547 -557.36007334 372.62254463 -559.38575433 372.62832729 C-590.36418037 372.71146198 -590.36418037 372.71146198 -596.9921875 366.8828125 C-603.13890367 359.86318989 -604.81008825 349.48093393 -605.3125 340.375 C-604.80615791 335.20902879 -603.20974608 331.69283018 -600.3125 327.4375 C-595.89172488 324.39821711 -591.50548454 323.50947761 -586.3125 322.375 C-585.20064048 322.11875184 -584.08878096 321.86250368 -582.94322872 321.59849042 C-571.70648761 319.22292325 -560.86182547 318.94548115 -549.40649414 318.97627258 C-547.33028137 318.97082348 -545.25407169 318.96406793 -543.17786694 318.95613068 C-537.51319297 318.93820669 -531.84865078 318.93864995 -526.18395519 318.94226015 C-520.06009519 318.9428865 -513.93627845 318.92624061 -507.81243896 318.91174316 C-497.21590546 318.88899741 -486.61941045 318.87697468 -476.02285767 318.87261391 C-464.91637565 318.86799784 -453.80992779 318.85718045 -442.70346069 318.83818626 C-441.66535036 318.83641607 -441.66535036 318.83641607 -440.6062681 318.83461012 C-437.09118883 318.82858421 -433.57610975 318.82244853 -430.06103075 318.81627061 C-405.20150347 318.77277591 -380.34197702 318.74302626 -355.48242188 318.72143555 C-331.34048233 318.70043645 -307.19856309 318.67316432 -283.05664062 318.63745117 C-281.93925532 318.63580196 -281.93925532 318.63580196 -280.79929657 318.63411942 C-273.31807035 318.62307053 -265.83684433 318.61189467 -258.35561844 318.6006258 C-243.11720697 318.57767528 -227.87879431 318.55557193 -212.64038086 318.53398132 C-211.93983304 318.5329877 -211.23928521 318.53199409 -210.51750867 318.53097036 C-163.78252216 318.46478105 -117.04751265 318.41839839 -70.3125 318.375 C-66.36657157 308.66729436 -66.01821264 299.40079472 -66.0378418 288.99267578 C-66.03348596 287.56913488 -66.02829993 286.14559631 -66.02235413 284.72206116 C-66.00905621 280.88570343 -66.00837438 277.04944474 -66.01091743 273.21306849 C-66.011992 270.00437699 -66.00709211 266.79570515 -66.002312 263.58701789 C-65.99125181 256.0212129 -65.99076171 248.45545759 -65.99682617 240.88964844 C-66.00288321 233.08802596 -65.99050331 225.28658305 -65.9692561 217.48499119 C-65.9516543 210.77479216 -65.94563592 204.0646504 -65.94889385 197.35442913 C-65.95070686 193.35146172 -65.94806743 189.34862287 -65.93417931 185.34567642 C-65.92162629 181.58792431 -65.92352077 177.83045389 -65.93659019 174.07270622 C-65.9389599 172.69402789 -65.93620716 171.31532986 -65.92796707 169.93667412 C-65.91753383 168.05563772 -65.92738383 166.17452133 -65.9382782 164.29348755 C-65.93811046 163.24088305 -65.93794271 162.18827854 -65.93776989 161.10377693 C-66.36467332 157.99507495 -67.15237029 156.61770486 -69.3125 154.375 C-71.3049757 153.79484066 -71.3049757 153.79484066 -73.5390625 153.9140625 C-74.39371094 153.91639893 -75.24835937 153.91873535 -76.12890625 153.92114258 C-77.05574219 153.94716553 -77.98257813 153.97318848 -78.9375 154 C-79.90300781 154.01506592 -80.86851562 154.03013184 -81.86328125 154.0456543 C-109.21866028 153.91866717 -109.21866028 153.91866717 -134.875 161.75 Z M-623.3125 479.375 C-623.3125 571.775 -623.3125 664.175 -623.3125 759.375 C-612.99290559 764.95001618 -612.99290559 764.95001618 -602.61328125 766.15136719 C-601.43987686 766.16713806 -601.43987686 766.16713806 -600.24276733 766.18322754 C-597.70265505 766.20925181 -595.16512958 766.19229498 -592.625 766.171875 C-590.83243335 766.17592749 -589.03986995 766.18175948 -587.24731445 766.18927002 C-583.50862933 766.19806558 -579.77081018 766.18542326 -576.03222656 766.15722656 C-571.2710322 766.12304217 -566.5118678 766.1427526 -561.75074768 766.17866135 C-558.05457624 766.2004778 -554.35887585 766.19338106 -550.66268921 766.17789459 C-548.90863802 766.17392918 -547.15454221 766.1786716 -545.40054321 766.19277191 C-542.93647108 766.20823969 -540.47555897 766.18448187 -538.01171875 766.15136719 C-536.95457169 766.16958527 -536.95457169 766.16958527 -535.87606812 766.18817139 C-528.16433013 765.99883502 -525.1373212 763.2874106 -517.3125 759.375 C-517.3125 666.975 -517.3125 574.575 -517.3125 479.375 C-524.78825555 476.38469778 -528.8194962 474.77817567 -536.29125977 474.85742188 C-537.12682404 474.8504126 -537.96238831 474.84340332 -538.82327271 474.83618164 C-541.55050141 474.81875796 -544.27666935 474.83016692 -547.00390625 474.84375 C-548.9186167 474.84105084 -550.83332582 474.8371649 -552.74803162 474.83215332 C-556.74646144 474.82627966 -560.74453208 474.83475311 -564.74291992 474.85351562 C-569.84932532 474.87631935 -574.95489026 474.86315946 -580.06126499 474.83922577 C-584.01029208 474.82472319 -587.95912219 474.82939392 -591.90815544 474.83973694 C-593.7902836 474.8423911 -595.67243008 474.83918095 -597.55453682 474.82981873 C-600.19121342 474.8195774 -602.82655664 474.835258 -605.46313477 474.85742188 C-606.22858109 474.84932495 -606.9940274 474.84122803 -607.78266907 474.83288574 C-614.27866542 474.93326261 -616.73123814 476.44999473 -623.3125 479.375 Z M-607.3125 822.375 C-609.78328768 825.76262084 -609.51913673 829.04316344 -609.4375 833.125 C-609.41945313 834.29546875 -609.40140625 835.4659375 -609.3828125 836.671875 C-609.35960937 837.56390625 -609.33640625 838.4559375 -609.3125 839.375 C-591.88183903 846.747485 -571.60996336 847.29021213 -553.8984375 840.46875 C-552.61839844 839.92734375 -552.61839844 839.92734375 -551.3125 839.375 C-551.23099256 837.31316367 -551.1730806 835.25038651 -551.125 833.1875 C-551.09019531 832.03894531 -551.05539062 830.89039063 -551.01953125 829.70703125 C-551.34067767 826.05452593 -552.06354467 824.24254911 -554.3125 821.375 C-557.13589154 820.43386949 -558.88762209 820.24369837 -561.81225586 820.22973633 C-563.1739817 820.22016655 -563.1739817 820.22016655 -564.56321716 820.21040344 C-566.03045982 820.20873421 -566.03045982 820.20873421 -567.52734375 820.20703125 C-568.53463028 820.20370285 -569.54191681 820.20037445 -570.57972717 820.19694519 C-572.7106175 820.19188134 -574.84151577 820.1895367 -576.97241211 820.18969727 C-580.23369393 820.18751093 -583.49463743 820.16934979 -586.75585938 820.15039062 C-588.82551968 820.14745658 -590.89518158 820.14547186 -592.96484375 820.14453125 C-593.94098129 820.13734573 -594.91711884 820.13016022 -595.9228363 820.12275696 C-596.83380569 820.12583359 -597.74477509 820.12891022 -598.68334961 820.13208008 C-599.48260361 820.13065506 -600.2818576 820.12923004 -601.10533142 820.12776184 C-603.59014058 820.40610018 -605.18615535 821.07746512 -607.3125 822.375 Z M-382.3125 823.375 C-383.81406874 826.37813748 -383.40531204 829.16567522 -383.375 832.5 C-383.36597656 833.78132813 -383.35695313 835.06265625 -383.34765625 836.3828125 C-383.33605469 837.37023438 -383.32445312 838.35765625 -383.3125 839.375 C-368.9552235 848.36837231 -348.96857747 845.49690129 -333.12890625 842.2265625 C-330.20802709 841.585324 -330.20802709 841.585324 -328.3125 839.375 C-328.30369688 836.67830994 -328.40591151 834.11603346 -328.625 831.4375 C-328.67333984 830.70853516 -328.72167969 829.97957031 -328.77148438 829.22851562 C-328.99843119 826.0943514 -329.31499322 823.36752035 -330.3125 820.375 C-337.23584988 820.29904289 -344.15909263 820.24643949 -351.08276367 820.21020508 C-353.43892431 820.19510253 -355.79505677 820.17461909 -358.15112305 820.14868164 C-361.53441312 820.11236344 -364.91733208 820.09528833 -368.30078125 820.08203125 C-369.35711258 820.06654739 -370.41344391 820.05106354 -371.50178528 820.03511047 C-372.48257553 820.03488388 -373.46336578 820.03465729 -374.47387695 820.03442383 C-375.33769485 820.02776199 -376.20151276 820.02110016 -377.09150696 820.01423645 C-379.80303893 820.45467993 -380.63790044 821.24373387 -382.3125 823.375 Z " fill="#000000" transform="translate(1220.3125,190.625)"/>
<path d="M0 0 C5.14438322 0.00256594 10.28876483 0.00017448 15.43314815 -0.00138617 C24.06430075 -0.0031955 32.69544473 -0.00083404 41.32659602 0.00395441 C51.24911861 0.00939636 61.17162064 0.00762983 71.09414274 0.00212801 C79.67573702 -0.00243649 88.25732519 -0.00303751 96.8389203 -0.00043333 C101.93711627 0.00111099 107.03530263 0.00137465 112.13349795 -0.00196981 C116.92965776 -0.00489752 121.72579153 -0.00278472 126.52194858 0.00292444 C128.26277061 0.00422608 130.00359492 0.00390332 131.744416 0.00166178 C137.33026699 -0.00485751 142.91319113 0.03862575 148.49822688 0.1343255 C149.3985416 0.14746113 150.29885632 0.16059676 151.2264533 0.17413044 C154.03252808 0.22464869 156.83638991 0.30454442 159.64152217 0.39241266 C160.49327496 0.40601167 161.34502774 0.41961067 162.22259122 0.43362176 C168.93169436 0.69286876 175.2914042 2.17934268 180.35156983 6.84212077 C182.73276263 9.45107652 184.36530783 11.83684 185.81072688 15.0718255 C187.94610215 18.94713618 190.76053233 21.04604186 194.24432063 23.71635675 C201.08246052 31.05224686 201.07602202 39.53315527 201.01580501 49.1084466 C201.02123499 50.50078291 201.02836255 51.89311347 201.03704524 53.28543329 C201.05518112 57.0439286 201.04825093 60.80198153 201.0355289 64.56048393 C201.02534633 68.50980201 201.03480946 72.45908418 201.04107356 76.40840387 C201.04833646 83.0407458 201.03879987 89.67290917 201.01971126 96.30522394 C200.99796299 103.94941575 201.00498429 111.59318039 201.02701688 119.23736179 C201.04523126 125.8228356 201.04769931 132.4081816 201.0372622 138.99367249 C201.03105797 142.9169745 201.03010583 146.84007648 201.04340816 150.76336527 C201.05505385 154.45556944 201.04678427 158.14722903 201.02383113 161.83937502 C201.01610965 163.8231469 201.02782641 165.8069654 201.04034114 167.79071283 C200.94946012 177.50252643 199.52224089 186.89746258 192.49822688 194.1343255 C191.67322688 194.9387005 190.84822688 195.7430755 189.99822688 196.5718255 C187.39876563 199.07110882 187.39876563 199.07110882 185.49822688 202.1968255 C181.37061874 208.25924996 176.40039577 210.40102736 169.49822688 212.1343255 C166.23666624 212.52022291 163.02208595 212.53658692 159.74049067 212.50854731 C158.79937818 212.51252171 157.85826568 212.51649612 156.88863462 212.52059096 C153.75679556 212.53016222 150.6254141 212.5184269 147.49358821 212.50663996 C145.23914111 212.5090697 142.98469509 212.5127908 140.73025203 212.51770258 C134.62047792 212.52709276 128.51086456 212.51770028 122.40110302 212.50437045 C115.99481273 212.49302997 109.58853006 212.49716565 103.18223262 212.49911737 C92.41961144 212.49999985 81.65706808 212.48900378 70.89446712 212.47050714 C59.84757273 212.45152717 48.80075165 212.44441428 37.75384212 212.44999933 C24.41257994 212.45672449 11.07136678 212.45338098 -2.26989484 212.44089556 C-7.35206319 212.43626751 -12.43421163 212.43536796 -17.5163815 212.4374814 C-23.51234998 212.43937506 -29.50822532 212.43117802 -35.50417256 212.41542101 C-37.69621131 212.41120378 -39.88825956 212.4103102 -42.08030057 212.41311121 C-75.08219353 212.44886132 -75.08219353 212.44886132 -82.50177312 206.1343255 C-94.2451721 190.7086743 -92.08027785 166.61779105 -91.973212 148.4413867 C-91.95534589 144.75560632 -91.95917165 141.06983521 -91.95993352 137.38402033 C-91.958074 131.20483524 -91.94089111 125.02584934 -91.91339421 118.84672785 C-91.88190213 111.74440963 -91.87140083 104.64230835 -91.87286532 97.53992534 C-91.87422491 89.91073342 -91.86030331 82.28162289 -91.84197211 74.65245581 C-91.83774859 72.4819626 -91.8362952 70.31148288 -91.83549428 68.14098597 C-91.83307817 64.06998081 -91.81352479 59.99922137 -91.79230046 55.92827082 C-91.79320683 54.74970011 -91.79411321 53.5711294 -91.79504704 52.35684443 C-91.67922606 37.02615209 -90.82168584 18.18317149 -79.45489812 6.6187005 C-61.60405264 -6.94794206 -21.35102432 -0.01401569 0 0 Z M-37.50177312 55.1343255 C-38.1183006 58.34481518 -38.04748609 61.53029226 -38.01935124 64.7905755 C-38.02636052 65.7810589 -38.0333698 66.7715423 -38.04059148 67.79204035 C-38.05822741 71.07308546 -38.0465285 74.35327129 -38.03302312 77.6343255 C-38.03571641 79.90971782 -38.03959747 82.18510901 -38.0446198 84.46049738 C-38.05052246 89.23209309 -38.04192693 94.00338954 -38.02325749 98.7749505 C-38.00046786 104.89885003 -38.01358679 111.0220484 -38.03754735 117.14592218 C-38.0519844 121.84531699 -38.04740889 126.54454488 -38.03703618 131.24394464 C-38.03436312 133.50224626 -38.03765891 135.76056292 -38.04695439 138.01884699 C-38.05708527 141.17233294 -38.04166667 144.32467501 -38.01935124 147.4780755 C-38.02744817 148.41635187 -38.03554509 149.35462824 -38.04388738 150.32133722 C-38.09687193 155.17772222 -38.09687193 155.17772222 -35.74408269 159.21357965 C-33.35040298 160.1964817 -31.68903214 160.51434018 -29.10724187 160.5225091 C-28.24534245 160.53196558 -27.38344304 160.54142206 -26.49542546 160.5511651 C-25.56939519 160.54509241 -24.64336492 160.53901972 -23.68927312 160.532763 C-22.72457097 160.53563318 -21.75986882 160.53850336 -20.76593328 160.54146051 C-18.72165648 160.54350166 -16.67736019 160.53796831 -14.63312078 160.52543879 C-11.54070173 160.50952582 -8.44961774 160.52521308 -5.35724187 160.54448175 C9.33054904 160.65126122 9.33054904 160.65126122 23.49822688 157.1343255 C25.44120012 155.19135226 24.61842986 152.24928369 24.62264705 149.66377497 C24.61905177 148.73229639 24.6154565 147.80081781 24.61175227 146.84111261 C24.6118983 145.86560953 24.61204432 144.89010645 24.61219478 143.88504267 C24.61149521 140.64389598 24.60370079 137.40280597 24.59588313 134.16166925 C24.59401911 131.92107407 24.59259513 129.68047849 24.59159541 127.43988276 C24.58776901 121.52973041 24.57793768 115.61960246 24.56689143 109.70945978 C24.55667994 103.68376734 24.55209835 97.65807097 24.54705501 91.63237238 C24.53631552 79.79967934 24.51923764 67.96700445 24.49822688 56.1343255 C15.85167877 53.58098213 7.85697521 51.51819006 -1.23224187 51.63823175 C-2.15596089 51.63677652 -3.07967992 51.63532129 -4.03139043 51.63382196 C-5.94936644 51.63545882 -7.86735873 51.64676537 -9.78522038 51.66777277 C-12.72319731 51.69716489 -15.65941007 51.68824982 -18.59747624 51.67534113 C-20.4757402 51.68156786 -22.35399853 51.68995041 -24.23224187 51.70073175 C-25.5415492 51.6963283 -25.5415492 51.6963283 -26.87730718 51.69183588 C-27.68948201 51.70452005 -28.50165685 51.71720423 -29.33844304 51.73027277 C-30.40309033 51.73837725 -30.40309033 51.73837725 -31.48924565 51.74664545 C-34.42275722 52.31173782 -35.53142314 52.82361474 -37.50177312 55.1343255 Z M81.49822688 56.1343255 C80.75584606 59.32010588 80.82545357 62.44578035 80.86712337 65.704638 C80.85996806 66.674154 80.85281276 67.64366999 80.84544063 68.64256525 C80.82852625 71.84863072 80.84797293 75.05330332 80.86932063 78.2593255 C80.86849219 80.48605194 80.86603375 82.71277832 80.86201167 84.93950129 C80.85915178 89.60684343 80.87387409 94.27370619 80.90130305 98.94096613 C80.93538563 104.92688481 80.92936915 110.91194611 80.91064048 116.89790583 C80.90007738 121.49613335 80.90900214 126.094161 80.9240253 130.69236994 C80.92921261 132.8995986 80.92871868 135.10684809 80.92248034 137.31407404 C80.91703665 140.39784441 80.93737704 143.48038294 80.96477962 146.564013 C80.95825374 147.47842157 80.95172786 148.39283014 80.94500422 149.33494806 C81.01208646 154.33031666 81.01208646 154.33031666 83.25492549 158.7001214 C85.73783477 160.2875134 87.00321125 160.63967728 89.92449641 160.65190363 C91.22702861 160.67081659 91.22702861 160.67081659 92.55587459 160.69011164 C93.95433116 160.67796625 93.95433116 160.67796625 95.38103938 160.6655755 C96.35048488 160.66940241 97.31993037 160.67322931 98.318753 160.67717218 C100.37142672 160.67989322 102.42413499 160.67251864 104.47674251 160.65580988 C107.59148097 160.63454227 110.70387597 160.65553291 113.81853938 160.6812005 C115.81854441 160.67855454 117.818548 160.67342403 119.81853938 160.6655755 C120.73869838 160.67367243 121.65885737 160.68176935 122.60689998 160.69011164 C129.90280811 160.58643211 133.14395107 159.07603583 140.49822688 156.1343255 C140.49822688 123.1343255 140.49822688 90.1343255 140.49822688 56.1343255 C132.98760021 53.05677367 132.98760021 53.05677367 125.28973079 51.95732355 C124.4452035 51.94448832 123.60067622 51.93165308 122.7305572 51.9184289 C121.82115382 51.91104197 120.91175044 51.90365503 119.97478938 51.89604425 C118.5672993 51.88393663 118.5672993 51.88393663 117.13137507 51.87158442 C115.14593035 51.85775579 113.16046198 51.84702817 111.17498469 51.83915949 C108.1416492 51.82193014 105.10939914 51.77803133 102.07635188 51.73393488 C100.14667239 51.72380903 98.21698364 51.71529259 96.28728938 51.70854425 C95.38193446 51.69103617 94.47657954 51.67352808 93.54378963 51.65548944 C92.69295802 51.65841501 91.84212642 51.66134058 90.96551204 51.6643548 C90.22177333 51.65848856 89.47803462 51.65262232 88.71175838 51.64657831 C85.28742551 52.40112314 83.82422818 53.4908146 81.49822688 56.1343255 Z " fill="#000000" transform="translate(902.5017731189728,613.865674495697)"/>
<path d="M0 0 C1.17691406 0.01675781 2.35382813 0.03351562 3.56640625 0.05078125 C12.92634943 0.39818105 18.02121239 1.78716606 24.45703125 8.6015625 C26.19051992 10.52997118 27.90815011 12.47275703 29.609375 14.4296875 C31.62603989 16.59793178 33.32747722 18.0799641 35.8125 19.625 C39.97114274 22.72359655 42.32902193 26.0827989 44 31 C43.36483134 35.71839575 41.10277102 38.49047917 38 42 C35.7727857 43.68138222 33.56332208 45.26348048 31.25 46.8125 C26.21295733 50.27526312 21.82542432 53.80875966 17.74609375 58.40625 C13.83010811 61.98057247 9.64523453 62.24918775 4.51953125 62.23046875 C3.27236328 62.22853516 2.02519531 62.22660156 0.74023438 62.22460938 C-0.55591797 62.21236328 -1.85207031 62.20011719 -3.1875 62.1875 C-4.46431641 62.18685547 -5.74113281 62.18621094 -7.05664062 62.18554688 C-27.84977146 62.08933187 -27.84977146 62.08933187 -32.3125 58.25 C-33.27929688 57.43402344 -33.27929688 57.43402344 -34.265625 56.6015625 C-39.15912364 52.08279123 -43.94081473 47.29916694 -48 42 C-48 41.34 -48 40.68 -48 40 C-48.5775 39.773125 -49.155 39.54625 -49.75 39.3125 C-52.5663661 37.66961977 -54.08077114 35.60466773 -56 33 C-54.73470925 28.50118846 -52.19823386 25.81330434 -49.12890625 22.44921875 C-46.13135754 19.00066271 -43.42176114 15.34586582 -40.72851562 11.65625 C-37.48860633 7.32583465 -33.89655372 3.44827686 -29 1 C-26.36963926 0.76167872 -23.76088599 0.57558781 -21.125 0.4375 C-20.35631592 0.3957666 -19.58763184 0.3540332 -18.7956543 0.31103516 C-12.5224816 -0.00985999 -6.28103381 -0.17332682 0 0 Z " fill="#000000" transform="translate(1058,858)"/>
</svg>
