<?xml version="1.0" encoding="UTF-8"?>
<!-- Generator: visioncortex VTracer 0.6.2 -->
<svg version="1.1" xmlns="http://www.w3.org/2000/svg" width="1280" height="1280">
<path d="M0 0 C0.69996094 0.1738623 1.39992188 0.34772461 2.12109375 0.52685547 C7.64760205 2.03727829 10.62358432 3.70108996 13.875 8.375 C13.875 9.035 13.875 9.695 13.875 10.375 C14.535 10.62765625 15.195 10.8803125 15.875 11.140625 C19.60794696 12.67657713 23.24150266 14.36858616 26.875 16.125 C27.57367187 16.44726562 28.27234375 16.76953125 28.9921875 17.1015625 C34.81054605 19.93389553 38.2549302 23.20849994 41.25 29.0625 C43.49845007 32.26221741 46.34876098 33.04198972 49.875 34.375 C57.15869785 37.318023 61.58727497 40.06554621 64.875 47.375 C65.205 48.365 65.535 49.355 65.875 50.375 C68.43076565 51.55972437 68.43076565 51.55972437 71.5 52.5625 C77.77541995 55.03846545 80.94668024 58.01820033 84.875 63.375 C87.89844534 67.26457822 90.58404096 70.37533316 94.875 72.875 C99.17648145 75.38079659 101.82370676 78.49881646 104.875 82.375 C108.27657523 86.54415159 111.40265226 90.17950842 115.9375 93.125 C121.22901422 96.83834331 123.55200822 102.49712685 125.875 108.375 C125.875 109.035 125.875 109.695 125.875 110.375 C127.4528125 110.74625 127.4528125 110.74625 129.0625 111.125 C133.73084585 112.5151714 136.67176413 114.34519341 139.22265625 118.6484375 C141.11920638 122.33095175 142.71532456 125.71173277 143.6875 129.75 C145.30039816 133.31535383 147.32528852 133.73197787 150.78515625 135.27734375 C157.70301884 138.91083793 159.96508081 145.72721983 162.66015625 152.6328125 C164.60899607 157.03180142 167.49419061 159.37540926 171.30859375 162.13671875 C178.06919592 168.0329517 180.92307742 176.7374537 182.75 185.25 C183.98982024 190.48958813 185.02940003 193.24433878 189.375 196.5 C190.1278125 196.95632813 190.880625 197.41265625 191.65625 197.8828125 C197.16159453 201.58535055 198.80136381 206.33520948 200.4375 212.4375 C200.75763062 213.55934692 200.75763062 213.55934692 201.08422852 214.70385742 C202.34197886 219.16932528 203.36166998 223.64588839 204.3125 228.1875 C205.35269693 232.56810247 205.35269693 232.56810247 208.6875 235.625 C209.739375 236.2025 210.79125 236.78 211.875 237.375 C220.66890979 244.97467512 221.08653072 258.74030054 222.9375 269.5 C224.15135166 276.23790539 225.60656264 281.20434577 230.3125 286.3125 C240.13137107 297.06157991 240.73570346 312.56136708 241.55859375 326.48046875 C242.02526333 330.74963122 243.31917931 334.38398171 244.875 338.375 C245.535 338.375 246.195 338.375 246.875 338.375 C248.66600365 334.34524179 249.75367133 330.2230805 250.87915039 325.97485352 C253.59580583 315.82229863 256.43068408 307.20304004 263.625 299.3125 C270.16066115 290.77983128 269.00781237 276.62617587 269.0859375 266.34765625 C269.1140291 264.23371652 269.14269369 262.11978434 269.171875 260.00585938 C269.21281519 256.73527435 269.24977785 253.46482663 269.27636719 250.1940918 C269.37210108 239.31096418 269.55376436 228.52689765 271.1640625 217.74609375 C271.27100433 216.99505875 271.37794617 216.24402374 271.48812866 215.4702301 C272.53480431 209.29231997 274.74905619 204.50094381 279.25 200 C282.34500257 198.08404603 284.22334513 197.375 287.875 197.375 C294.62108986 200.88296673 297.57615831 205.77731662 300.875 212.375 C302.20369858 214.04536393 303.53604368 215.71284732 304.875 217.375 C304.875 218.035 304.875 218.695 304.875 219.375 C305.8959375 219.6225 305.8959375 219.6225 306.9375 219.875 C315.46223962 224.22805853 320.10151224 233.99173801 323.875 242.375 C324.82137889 245.41513749 325.39345862 248.21822871 325.875 251.375 C326.555625 251.41625 327.23625 251.4575 327.9375 251.5 C332.35415211 252.8155985 335.04272202 254.71376262 337.875 258.375 C339.29551162 261.52362795 340.56349206 264.63234935 341.65795898 267.90478516 C343.7705356 274.00190086 347.29286746 277.28428989 352.375 281 C358.55812211 286.31131531 360.60384134 293.77582554 362.18481445 301.50512695 C363.85918167 309.5819095 363.85918167 309.5819095 369.375 315.5625 C370.1278125 316.00980469 370.880625 316.45710938 371.65625 316.91796875 C377.191206 320.55271978 378.80715941 325.36052927 380.4375 331.4375 C380.65237061 332.18684814 380.86724121 332.93619629 381.08862305 333.70825195 C382.33944107 338.13222269 383.30520308 342.54921189 384.1875 347.0625 C385.44211199 352.34620878 387.41249683 354.01171816 391.87890625 356.85546875 C399.58904047 362.72482728 400.39602178 374.53857317 401.875 383.375 C402.5263551 387.04460618 403.19028301 390.71147149 403.875 394.375 C404.01550781 395.16132812 404.15601563 395.94765625 404.30078125 396.7578125 C404.75631007 399.17539232 404.75631007 399.17539232 405.875 402.375 C407.72482472 403.63327123 407.72482472 403.63327123 409.875 404.375 C421.08052593 415.93069862 421.13651361 435.15452747 422.69750977 450.2421875 C424.08527019 463.78818778 424.08527019 463.78818778 429.8125 475.875 C442.75255386 493.97185751 440.82237628 523.49161232 441.4296875 544.859375 C441.45062344 545.57654442 441.47155937 546.29371384 441.49312973 547.03261566 C441.97471635 563.89294327 442.028577 580.7510508 442.00537109 597.6171875 C441.99965577 601.80018956 442.00308246 605.98312821 442.008811 610.16612816 C442.12240663 708.05679911 442.12240663 708.05679911 427.84765625 722.4140625 C424.90351044 726.83319621 424.54543459 731.3695287 423.8125 736.5625 C423.6475 737.62807129 423.4825 738.69364258 423.3125 739.79150391 C422.81891491 742.98402375 422.34417916 746.1788119 421.875 749.375 C418.02628209 775.42749996 418.02628209 775.42749996 409.875 783.375 C407.71875 784.02734375 407.71875 784.02734375 405.875 784.375 C405.52888672 786.15390625 405.52888672 786.15390625 405.17578125 787.96875 C399.18901737 817.99611259 399.18901737 817.99611259 392.875 824.375 C391.70324219 824.92671875 390.53148437 825.4784375 389.32421875 826.046875 C385.98715239 827.82355797 385.13574504 829.49582562 384.01953125 833.078125 C383.54778014 834.92020075 383.1044802 836.76975886 382.6875 838.625 C378.50260611 855.97461841 378.50260611 855.97461841 372.4375 860.625 C371.88191406 861.06328125 371.32632813 861.5015625 370.75390625 861.953125 C369.29730699 863.05541633 367.80713745 864.11341559 366.3046875 865.15234375 C363.37437885 867.83296372 362.64281925 869.93025941 361.4375 873.6875 C359.20694686 879.93024308 356.73910978 885.09888054 350.87890625 888.55078125 C348.875 889.375 348.875 889.375 345.875 889.375 C345.70484375 890.01566406 345.5346875 890.65632812 345.359375 891.31640625 C341.94596296 903.4993822 335.36779893 911.00528731 326.40234375 919.80078125 C324.06912856 922.17727091 321.94880362 924.62181688 319.82836914 927.18383789 C314.24940197 933.91552296 308.30910476 939.941192 301.78515625 945.75390625 C299.05244023 948.21518471 296.45853401 950.75876303 293.875 953.375 C276.82550946 970.375 276.82550946 970.375 267.875 970.375 C267.875 971.035 267.875 971.695 267.875 972.375 C267.215 972.375 266.555 972.375 265.875 972.375 C265.689375 973.24125 265.50375 974.1075 265.3125 975 C263.38797907 979.51844045 261.05250578 981.82363741 256.875 984.375 C254.70200389 985.18581945 252.51281958 985.95406014 250.3125 986.6875 C244.53398147 988.72619841 242.00459607 990.76088874 239.21875 996.19140625 C236.0167674 1001.39462798 231.38893418 1003.07848921 225.88232422 1005.01269531 C216.54647257 1008.29262539 210.83572012 1011.51106373 204.2421875 1018.95703125 C200.61615386 1022.66085109 196.75506146 1023.93485954 191.875 1025.375 C189.91167628 1026.02682348 187.95328433 1026.69368199 186 1027.375 C185.11570312 1027.66375 184.23140625 1027.9525 183.3203125 1028.25 C179.32099784 1030.08994029 177.16207117 1033.00482928 174.5 1036.4375 C169.87672843 1041.61116104 165.3539265 1042.79673368 158.65625 1043.23046875 C157.7384375 1043.27816406 156.820625 1043.32585937 155.875 1043.375 C154.8746875 1043.47425781 153.874375 1043.57351563 152.84375 1043.67578125 C147.17643354 1044.04072208 143.68428454 1043.88450211 139.25 1040.125 C135.81094932 1036.7294816 133.90677413 1034.02725463 133.8125 1029.125 C135.2393096 1024.08920142 137.91507422 1020.76588133 141.875 1017.375 C142.73867188 1017.13910156 143.60234375 1016.90320312 144.4921875 1016.66015625 C147.30125585 1015.50506983 147.30125585 1015.50506983 147.9921875 1011.734375 C148.25970445 1010.20044288 148.51138671 1008.6636932 148.75 1007.125 C150.92269368 995.60464385 154.37113414 985.75993007 163.875 978.375 C166.54397469 976.07476523 167.43794344 974.33433004 168.375 970.9375 C168.62507813 970.05191406 168.87515625 969.16632812 169.1328125 968.25390625 C169.63390874 966.3101803 170.10727637 964.3591246 170.5546875 962.40234375 C172.87235209 952.31138835 175.57889359 944.38491471 184.10546875 938.04296875 C187.71526536 934.64035694 188.25712281 929.91062403 189.0234375 925.18359375 C189.22453125 923.99056641 189.425625 922.79753906 189.6328125 921.56835938 C190.0396906 919.09232586 190.44341074 916.61577104 190.84375 914.13867188 C193.0046837 901.38505999 195.86870544 891.38219379 204.43359375 881.59375 C208.90780864 874.70661163 208.61271172 865.93676224 209.25 858 C209.37309957 856.51705362 209.49664898 855.03414453 209.62060547 853.55126953 C209.82173013 851.13730129 210.02162564 848.72325539 210.21841431 846.30892944 C210.6713909 840.75862889 211.15281616 835.21145985 211.65133667 829.66506958 C212.01984754 825.545355 212.37720517 821.42470564 212.73321533 817.30389404 C212.90525901 815.33450368 213.08104461 813.36543489 213.26141357 811.39678955 C216.54220879 775.40985725 215.7985763 740.18984999 212.81530762 704.21661377 C212.47327091 700.03380704 212.15095651 695.84957597 211.82913494 691.66517258 C211.43907226 686.6043174 211.03854663 681.54430755 210.63671875 676.484375 C210.56302252 675.54717369 210.48932629 674.60997238 210.41339684 673.64437103 C209.48566048 652.35924823 209.48566048 652.35924823 200.1328125 633.96484375 C192.03023824 623.7233912 190.74102136 608.01818943 189.00170898 595.43994141 C188.24768346 590.36951038 187.25762758 585.50378832 183.26171875 581.93359375 C182.70097656 581.56363281 182.14023437 581.19367187 181.5625 580.8125 C172.96558954 573.77536654 170.89350197 561.47492674 168.734375 551.125 C168.01632494 547.99169066 167.31419045 545.24247793 165.875 542.375 C165.1325 542.08625 164.39 541.7975 163.625 541.5 C157.07075562 538.81871821 154.41468305 532.7661664 151.6875 526.5625 C149.92786943 522.31495989 148.54012895 518.22189198 147.5 513.75 C146.58120624 510.38662674 146.58120624 510.38662674 144.09375 508.0859375 C142.70007492 507.44630304 141.29041819 506.84038752 139.8671875 506.26953125 C135.50152958 504.30926524 133.50254759 500.93032478 131.7890625 496.68359375 C131.1172314 494.78680744 130.47442527 492.87937896 129.8671875 490.9609375 C127.89886946 485.83091174 125.41986429 484.07697312 120.6484375 481.5 C115.69720211 478.35912821 113.40536667 473.43573334 110.875 468.375 C108.12267418 464.44310597 106.29373185 462.40155789 101.875 460.5625 C97.45528954 458.58438989 96.16530495 455.87715082 94.09765625 451.63671875 C92.22063887 448.16453644 89.84814937 445.95172945 86.875 443.375 C86.215 443.375 85.555 443.375 84.875 443.375 C80.3067506 453.02300163 83.97828529 467.32275625 86.875 477.375 C87.81098605 479.57007962 88.80992744 481.73956916 89.875 483.875 C101.37281339 507.29858509 100.07672643 545.58444172 92.875 570.375 C91.95284272 572.25816949 90.97330944 574.11437077 89.9375 575.9375 C82.45925175 589.72783402 82.36099673 608.12425455 81.08911133 623.44335938 C79.95715069 635.74501564 77.29358094 648.58868448 67.8125 657.26171875 C65.47942404 659.80646491 64.81623375 661.81387414 63.875 665.125 C63.37613281 666.84396484 63.37613281 666.84396484 62.8671875 668.59765625 C62.18139827 671.20851526 61.53779119 673.80251237 60.9453125 676.43359375 C56.6892375 695.19760325 56.6892375 695.19760325 48.75 700.4375 C43.88191708 703.71816458 42.75282221 708.84866915 40.8828125 714.23046875 C38.55264279 720.92293292 36.55693957 725.76566565 30.5 729.8125 C26.875 731.375 26.875 731.375 23.75 730.875 C17.36387374 727.54310804 14.42593182 723.98247846 11.875 717.375 C9.47849218 708.32951089 8.91555594 698.91111513 8.01953125 689.63085938 C7.28275759 677.2111374 7.28275759 677.2111374 2.0625 666.3125 C-6.50557873 654.11705947 -7.58013436 637.77533576 -9.66992188 623.43823242 C-10.14698549 620.22701074 -10.64823966 617.02099979 -11.16796875 613.81640625 C-11.32418701 612.85162354 -11.48040527 611.88684082 -11.64135742 610.89282227 C-12.6903214 605.43196134 -14.69610508 602.63503709 -18.9375 599.25 C-27.11136618 592.39595074 -29.77722068 582.09964071 -32.265625 572.11328125 C-32.54921875 571.20964844 -32.8328125 570.30601562 -33.125 569.375 C-33.785 569.045 -34.445 568.715 -35.125 568.375 C-36.74991866 582.03693744 -37.61415137 595.6298298 -38.125 609.375 C-38.52772334 620.21089244 -38.96958058 631.01414792 -40.078125 641.8046875 C-40.15490479 642.5663623 -40.23168457 643.32803711 -40.31079102 644.11279297 C-41.59067298 655.71083172 -45.18973408 665.25851408 -52.71484375 674.28125 C-57.76031461 681.77258624 -57.86800079 693.8969708 -58.94726562 702.68725586 C-59.96388598 710.52370446 -61.35122174 718.61638911 -66 725.1875 C-66.47179687 725.87457031 -66.94359375 726.56164062 -67.4296875 727.26953125 C-69.125 729.375 -69.125 729.375 -71.69140625 731.703125 C-74.60019148 734.89671905 -75.2412043 737.11798931 -76.1875 741.3125 C-76.34541016 741.99272217 -76.50332031 742.67294434 -76.66601562 743.3737793 C-77.816231 748.4866685 -78.72189446 753.63998472 -79.62182617 758.80175781 C-83.32877051 780.06138035 -83.32877051 780.06138035 -90.1875 788.5 C-93.5116809 792.86548261 -95.00596777 796.73262158 -95.84619141 802.09082031 C-95.96829294 802.83077869 -96.09039448 803.57073708 -96.21619606 804.33311844 C-97.5028387 812.80799832 -97.55990659 821.24313601 -97.5234375 829.796875 C-97.52546816 831.51589073 -97.52838772 833.23490561 -97.53213501 834.95391846 C-97.53651665 838.53056156 -97.5302668 842.10697744 -97.51611328 845.68359375 C-97.4990739 850.20288362 -97.50915026 854.72164194 -97.52640915 859.24091339 C-97.71797153 881.8055342 -97.71797153 881.8055342 -95.8515625 904.265625 C-95.74371429 905.09632507 -95.63586609 905.92702515 -95.52474976 906.78289795 C-95.1726789 909.22301878 -95.1726789 909.22301878 -94.125 912.375 C-92.21393413 913.86852745 -92.21393413 913.86852745 -90.125 914.375 C-82.72050945 922.57590377 -81.14533619 934.91488808 -79.125 945.375 C-76.16407355 962.4102304 -76.16407355 962.4102304 -65.390625 975.3515625 C-62.03138385 978.35171236 -61.24901417 981.13027569 -60.125 985.375 C-59.35746367 987.77867249 -58.56357669 990.17401796 -57.75 992.5625 C-57.37101562 993.73167969 -56.99203125 994.90085937 -56.6015625 996.10546875 C-54.95240201 999.75718127 -53.05158636 1001.67628525 -50.125 1004.375 C-43.69852603 1012.08409663 -39.91298139 1020.26814425 -38.625 1030.25 C-39.44327705 1035.36423154 -41.9091512 1038.27777059 -45.6875 1041.6875 C-51.04434635 1045.39608594 -56.88692163 1044.88242795 -63.06640625 1043.9140625 C-71.02985468 1042.18508902 -78.1354312 1039.39223307 -83.125 1032.6875 C-87.31627417 1027.84133924 -93.90753928 1027.3747914 -99.96533203 1026.30712891 C-118.164053 1023.09957785 -118.164053 1023.09957785 -124.5625 1015 C-129.61873588 1008.95971821 -134.60766284 1007.51737598 -142.0703125 1005.5144043 C-150.08841874 1003.30385695 -156.92541367 999.82932607 -161.91796875 992.87890625 C-164.84198589 989.56157 -168.01776486 988.17248595 -172 986.375 C-179.65658184 982.88053037 -185.82987406 979.61281486 -189.125 971.375 C-189.125 970.715 -189.125 970.055 -189.125 969.375 C-192.01930172 967.84782236 -194.90967406 966.75130379 -198 965.6875 C-203.16488509 963.62914138 -206.18021261 961.07716051 -209.125 956.375 C-209.7224968 954.9851705 -210.30595886 953.5892206 -210.875 952.1875 C-212.09838028 949.49812817 -212.75709655 948.56490587 -215.41796875 947.19140625 C-217.18310925 946.56304752 -218.95273907 945.94716208 -220.7265625 945.34375 C-226.30296589 943.09139163 -228.10262411 938.46168847 -230.375 933.3125 C-232.69916038 928.39204653 -235.18629538 926.79799677 -239.98828125 924.48828125 C-245.50188979 921.61556017 -247.38802121 916.83869998 -249.8125 911.4375 C-251.97199495 906.89090267 -253.65391565 904.64745937 -258 902.125 C-266.75743298 896.74392672 -270.16378641 885.64863443 -273.125 876.25 C-274.71431445 871.5033421 -276.84074742 869.40539068 -281.125 866.88671875 C-286.44925175 862.86233315 -288.02544164 857.14681602 -289.625 851 C-292.04230893 842.36359773 -294.21585558 835.44921819 -301.34375 829.50390625 C-306.51702975 823.32092935 -307.94667323 815.5676673 -309.1875 807.8125 C-309.3525 806.85956055 -309.5175 805.90662109 -309.6875 804.92480469 C-310.46306945 800.44123171 -311.1925111 795.9514073 -311.90234375 791.45703125 C-312.0868811 790.35113647 -312.0868811 790.35113647 -312.27514648 789.22290039 C-312.6041679 787.24991989 -312.9121764 785.27346798 -313.21875 783.296875 C-313.79921423 780.28544476 -313.79921423 780.28544476 -316.02734375 779.21875 C-316.71957031 778.9403125 -317.41179687 778.661875 -318.125 778.375 C-337.27090193 755.71823586 -330.29830677 707.30649008 -330.25537109 679.36181641 C-330.24967443 675.62449892 -330.25306721 671.88725269 -330.258811 668.14993763 C-330.36384461 587.52694458 -330.36384461 587.52694458 -318.125 571.375 C-317.465 570.385 -316.805 569.395 -316.125 568.375 C-315.465 568.375 -314.805 568.375 -314.125 568.375 C-313.0181929 562.41121803 -311.96283137 556.44200348 -310.9765625 550.45703125 C-310.77546875 549.26529297 -310.574375 548.07355469 -310.3671875 546.84570312 C-309.95401988 544.39676972 -309.55044662 541.94619922 -309.15625 539.49414062 C-306.36631056 523.22243687 -306.36631056 523.22243687 -299.5625 518.0625 C-295.08069236 514.57886778 -292.89274147 512.65591577 -291.6953125 506.89453125 C-291.45683594 505.81236328 -291.21835937 504.73019531 -290.97265625 503.61523438 C-290.49515977 501.35035242 -290.02113634 499.08473517 -289.55078125 496.81835938 C-287.35252877 486.89095715 -284.2258992 480.53872765 -276.125 474.375 C-273.09423249 471.9002299 -272.49385331 469.75712351 -271.6953125 465.96484375 C-271.45683594 464.89169922 -271.21835937 463.81855469 -270.97265625 462.71289062 C-270.49678286 460.47371343 -270.02277611 458.23413858 -269.55078125 455.99414062 C-267.37400536 446.22193016 -264.77695623 437.14297082 -256.125 431.375 C-255.465 431.375 -254.805 431.375 -254.125 431.375 C-251.94090706 421.5742987 -249.97914567 411.8274972 -248.625 401.875 C-247.13946729 391.27711617 -245.05667945 380.53587679 -236.60180664 373.1796875 C-233.67210993 369.86215613 -233.01120976 367.11990141 -232.43359375 362.875 C-232.3187413 362.13797852 -232.20388885 361.40095703 -232.08555603 360.64160156 C-230.56296647 350.37582989 -229.79810703 340.00793202 -228.97094727 329.66796875 C-228.20904608 320.27713323 -227.30549373 311.06071709 -225.16015625 301.87109375 C-224.91918968 300.83825256 -224.91918968 300.83825256 -224.6733551 299.7845459 C-223.11022041 293.56767356 -220.68125657 288.93125657 -216.125 284.375 C-210.78778198 284.48174436 -207.74163749 286.09401862 -203.50390625 288.98828125 C-199.64029843 291.24046643 -195.41672955 292.49469017 -191.17578125 293.87109375 C-184.69714332 297.0647885 -182.26972393 302.51271919 -180 309 C-179.7419458 309.69859131 -179.4838916 310.39718262 -179.21801758 311.11694336 C-177.69242198 315.35750808 -176.64623404 319.50024432 -175.8125 323.9375 C-174.7855863 328.52149431 -173.48886574 330.36993851 -169.6875 333.125 C-168.92566406 333.57359375 -168.16382813 334.0221875 -167.37890625 334.484375 C-161.51508818 339.40307162 -160.26829873 347.04826898 -159 354.25 C-158.84402344 355.08402344 -158.68804687 355.91804688 -158.52734375 356.77734375 C-157.88242954 360.22576931 -157.24961061 363.67614012 -156.63378906 367.12988281 C-156.4684668 368.01772461 -156.30314453 368.90556641 -156.1328125 369.8203125 C-155.98730957 370.62227051 -155.84180664 371.42422852 -155.69189453 372.25048828 C-155.17335595 374.65068562 -155.17335595 374.65068562 -153.125 377.375 C-152.031875 376.776875 -150.93875 376.17875 -149.8125 375.5625 C-146.28767841 373.69973841 -143.36669933 373.14143948 -139.4375 372.625 C-136.54313671 372.0579145 -136.54313671 372.0579145 -134.125 370.375 C-131.95603209 365.87306904 -130.88003587 361.27862719 -129.69628906 356.44335938 C-127.5050487 348.50994554 -123.83020459 342.08290961 -117.125 337.375 C-112.17192689 333.28565723 -111.03605921 329.75716136 -109.6875 323.75 C-105.1182139 305.68618622 -105.1182139 305.68618622 -97.4375 300.625 C-96.87675781 300.34140625 -96.31601562 300.0578125 -95.73828125 299.765625 C-90.92172519 295.61382365 -90.32303895 287.97482668 -89.25 282.0625 C-87.15996057 271.56397823 -84.78490509 263.65550302 -75.89453125 257.04296875 C-72.27223903 253.62857851 -71.72873691 248.85383685 -70.94140625 244.11328125 C-70.73580078 242.91123047 -70.53019531 241.70917969 -70.31835938 240.47070312 C-69.9010609 237.96820423 -69.48438421 235.46560157 -69.06835938 232.96289062 C-65.82534448 214.02004662 -65.82534448 214.02004662 -61.1875 207.5 C-60.70410156 206.80132812 -60.22070312 206.10265625 -59.72265625 205.3828125 C-58.125 203.375 -58.125 203.375 -56.12695312 201.57275391 C-49.13167647 193.89330507 -49.93575832 177.8944015 -48.97094727 167.87646484 C-47.65798934 154.44828648 -46.26948126 140.99881729 -39.0625 129.3125 C-28.12583635 111.17954302 -30.36101299 85.65476121 -29.62890625 65.046875 C-29.58668442 63.86319839 -29.54446259 62.67952179 -29.5009613 61.4599762 C-29.29021483 55.47814642 -29.09129753 49.49622017 -28.90991211 43.51342773 C-27.78242831 8.03242831 -27.78242831 8.03242831 -21.125 1.375 C-15.10880237 -3.66559802 -7.06010415 -1.75994439 0 0 Z " fill="#000000" transform="translate(584.125,119.625)"/>
</svg>
