<?xml version="1.0" encoding="UTF-8"?>
<!-- Generator: visioncortex VTracer 0.6.2 -->
<svg version="1.1" xmlns="http://www.w3.org/2000/svg" width="1280" height="1280">
<path d="M0 0 C1.84256502 -0.00104511 3.68512983 -0.00252782 5.5276942 -0.00440437 C10.57382841 -0.00828288 15.61994339 -0.00597663 20.66607727 -0.00262641 C26.16247886 -0.00008305 31.65887757 -0.00335227 37.15527874 -0.00586975 C46.78288896 -0.00947789 56.41049358 -0.00937403 66.03810406 -0.00682259 C79.68431139 -0.00321599 93.33051407 -0.00468738 106.97672141 -0.00760163 C131.7357045 -0.01288534 156.49468538 -0.01325214 181.25366879 -0.01045418 C181.98667415 -0.01037138 182.71967952 -0.01028859 183.47489717 -0.01020328 C184.20908136 -0.01012035 184.94326555 -0.01003742 185.69969775 -0.00995198 C208.07745627 -0.00742765 230.45521389 -0.00677794 252.83297253 -0.00797462 C254.33216142 -0.0080521 255.83135031 -0.00812926 257.33053921 -0.00820609 C263.3553441 -0.00851657 269.380149 -0.00883524 275.40495389 -0.00916586 C292.24631368 -0.01008282 309.08767347 -0.01065345 325.92903328 -0.010952 C327.07936067 -0.01097246 327.07936067 -0.01097246 328.252927 -0.01099335 C352.68528328 -0.01140256 377.11763924 -0.01027608 401.54999542 -0.00810242 C402.34230909 -0.00803217 403.13462276 -0.00796192 403.95094593 -0.00788954 C416.81715855 -0.00674463 429.68337116 -0.00552515 442.54958377 -0.00429937 C493.57419728 0.00055663 544.59880817 0.00033169 595.62342167 -0.00452995 C608.48199272 -0.00575117 621.34056377 -0.00696223 634.19913483 -0.00810242 C634.99091455 -0.00817287 635.78269428 -0.00824331 636.59846734 -0.0083159 C661.0047274 -0.01047254 685.41098724 -0.01138627 709.81724739 -0.010952 C710.96674758 -0.01093162 710.96674758 -0.01093162 712.13946999 -0.01091083 C728.96281331 -0.01059833 745.7861566 -0.00996465 762.6094999 -0.00904149 C768.62919606 -0.00871236 774.64889223 -0.00839928 780.6685884 -0.00809078 C782.16609457 -0.00801339 783.66360075 -0.00793466 785.16110692 -0.00785459 C807.53144907 -0.00666165 829.90179019 -0.00767616 852.27213222 -0.01020328 C853.00505479 -0.01028608 853.73797736 -0.01036887 854.4931097 -0.01045418 C855.22467671 -0.01053686 855.95624371 -0.01061954 856.70997941 -0.01070473 C881.39945355 -0.01346464 906.08892504 -0.01244492 930.7783988 -0.00717343 C945.01008973 -0.00423609 959.2417744 -0.00404702 973.47346516 -0.00781961 C982.97980135 -0.01006168 992.48613253 -0.00866696 1001.99246797 -0.00431484 C1007.40866977 -0.00193618 1012.82485914 -0.00112253 1018.24106055 -0.00472082 C1023.17416254 -0.00796472 1028.10724113 -0.00655912 1033.04034143 -0.00154016 C1034.80812855 -0.00053803 1036.57591764 -0.00118574 1038.34370319 -0.0037461 C1071.06166192 -0.04774742 1071.06166192 -0.04774742 1077.61731815 4.29771614 C1083.6878156 10.38121251 1086.116573 19.48760761 1088.48450565 27.53209114 C1089.2744133 30.14247579 1089.2744133 30.14247579 1090.96964795 31.88933804 C1092.92739318 34.86408914 1092.8697271 36.95605477 1092.94879138 40.50364071 C1093.00110363 42.44535021 1093.00110363 42.44535021 1093.05447269 44.42628616 C1093.07726742 45.84630606 1093.09945833 47.26633577 1093.12110043 48.68637371 C1093.15370516 50.17471094 1093.18716545 51.66302965 1093.22143202 53.15132955 C1093.55476828 68.68167846 1093.58381531 84.21552715 1093.57000446 99.74876175 C1093.56741281 103.95530598 1093.5707488 108.16184689 1093.57324779 112.36839062 C1093.57682148 119.70322181 1093.5767737 127.03804561 1093.57420063 134.37287712 C1093.57038504 145.27964909 1093.57236875 156.18641495 1093.57540894 167.09318689 C1093.58064877 186.57720236 1093.58022898 206.06121452 1093.57733002 225.54523029 C1093.57480771 242.58237073 1093.57416093 259.61950996 1093.57535267 276.65665054 C1093.57542905 277.78973525 1093.57550544 278.92281995 1093.57558414 280.09024056 C1093.5758955 284.69033151 1093.57621391 289.29042245 1093.5765439 293.8905134 C1093.57959654 336.95701979 1093.57683869 380.02352408 1093.57144701 423.09003014 C1093.56669468 461.34081917 1093.56713296 499.59160487 1093.571908 537.84239388 C1093.57726125 580.86828111 1093.57938738 623.8941665 1093.57629573 666.92005402 C1093.57597503 671.50430079 1093.57566219 676.08854757 1093.57535267 680.67279434 C1093.57527359 681.80146899 1093.57519451 682.93014365 1093.57511304 684.09302056 C1093.57397573 701.13419337 1093.57530538 718.17536485 1093.57783222 735.21653748 C1093.58068855 754.5756903 1093.57998253 773.93483933 1093.57455148 793.29399168 C1093.57161244 804.12770608 1093.57142758 814.96141225 1093.57519765 825.79512644 C1093.57743734 833.02817077 1093.57604935 840.26120849 1093.57169288 847.49425184 C1093.56931113 851.61665772 1093.56850702 855.73904725 1093.57209887 859.86145263 C1093.57533463 863.61334528 1093.57394882 867.36520709 1093.56891821 871.1170975 C1093.56744023 873.09795277 1093.57084904 875.07880986 1093.57447249 877.05966237 C1093.53476583 895.92426454 1093.53476583 895.92426454 1090.94881863 898.76649966 C1090.45141566 899.21508235 1089.95401269 899.66366504 1089.4415369 900.12584114 C1088.59045761 902.21178313 1088.59045761 902.21178313 1088.04700565 904.54771614 C1087.81304081 905.40880989 1087.57907597 906.26990364 1087.33802128 907.15709114 C1086.86992266 908.95211393 1086.40883692 910.74898196 1085.95520878 912.54771614 C1084.34371247 918.41723115 1082.36298727 923.30194372 1077.4415369 927.12584114 C1071.92695877 929.93320693 1067.39000493 930.64244376 1061.24695683 930.80284309 C1060.34027602 930.83585927 1059.43359522 930.86887545 1058.49943924 930.90289211 C1046.18933474 931.3041899 1033.87003654 931.29022589 1021.55481815 931.29380989 C1019.58479766 931.29621561 1017.61477716 931.29862392 1015.64475697 931.30127031 C1009.47960155 931.30932747 1003.31446066 931.31186231 997.14930058 931.31114388 C990.84908397 931.31054213 984.54895269 931.32113376 978.24875766 931.33688754 C972.11437767 931.35166392 965.98003797 931.35512875 959.84564114 931.35453415 C957.26759522 931.35570324 954.68954846 931.36006374 952.11151409 931.36786652 C929.0425036 931.43121404 929.0425036 931.43121404 918.22351933 930.29893684 C917.53714295 930.2297388 916.85076658 930.16054075 916.14359093 930.0892458 C910.59818039 929.40367158 904.70890534 928.05762184 900.38294315 924.37193489 C899.92790409 923.77509895 899.47286503 923.17826302 899.0040369 922.56334114 C898.53095097 921.96392708 898.05786503 921.36451302 897.57044315 920.74693489 C894.65413408 916.55915542 894.77853834 912.098202 894.4415369 907.12584114 C894.36290409 905.97341927 894.28427128 904.82099739 894.20325565 903.63365364 C893.95930123 897.15143617 893.83247428 891.95468453 897.9180994 886.67271614 C907.11650635 877.33279524 923.54300963 878.78090278 935.7540369 878.06334114 C938.33371506 877.90995487 940.91316346 877.75263493 943.49231815 877.59068489 C944.6129163 877.52486214 945.73351444 877.45903938 946.88807011 877.391222 C949.37342663 877.40402573 949.37342663 877.40402573 950.4415369 876.12584114 C950.24851551 863.35673356 949.41227503 850.65631842 944.5665369 838.75084114 C937.27864649 820.4338253 936.58164229 800.09852813 935.05481815 780.63365364 C934.99933308 779.93969994 934.943848 779.24574623 934.88668156 778.53076363 C934.60271638 774.82483151 934.39492546 771.12911341 934.27893925 767.41392708 C934.24978931 766.6424131 934.22063938 765.87089912 934.19060612 765.07600594 C934.13793174 763.6013415 934.10075369 762.12601238 934.08174992 760.65052986 C933.95993984 757.45835744 933.73221188 755.50550079 931.76651484 752.93804258 C928.85277838 750.66693397 927.3455621 750.62506523 923.67865753 750.62329382 C922.49242432 750.61302352 921.30619111 750.60275322 920.08401144 750.5921717 C918.12333067 750.60578992 918.12333067 750.60578992 916.1230402 750.61968327 C914.71772046 750.61520894 913.3124054 750.60898249 911.90710032 750.60115793 C908.02368682 750.58467431 904.14066296 750.59327084 900.25724931 750.60576956 C896.04066424 750.61497867 891.82414652 750.60110792 887.60757446 750.59013039 C880.21033506 750.57410664 872.81320933 750.57306992 865.41595936 750.58172798 C854.416257 750.59456812 843.41665795 750.58466004 832.41696182 750.57022843 C812.77483119 750.54525419 793.13274869 750.54341445 773.49060681 750.55150255 C756.30178913 750.55856609 739.11299017 750.55864175 721.9241724 750.55163956 C719.62149555 750.55072824 717.31881869 750.54981748 715.01614183 750.54890727 C711.54653438 750.54752419 708.07692694 750.54613311 704.6073195 750.54472114 C672.33613991 750.53173396 640.06496661 750.52663407 607.79378605 750.53825474 C605.96776675 750.53891169 605.96776675 750.53891169 604.10485818 750.53958192 C594.21814314 750.54318902 584.33142818 750.54702365 574.44471322 750.55087285 C535.86973498 750.56572343 497.29482752 750.55693897 458.71985722 750.52891731 C415.4133276 750.49751896 372.1068399 750.48250989 328.80029869 750.49271733 C324.1864996 750.49375416 319.57270051 750.49474138 314.95890141 750.49570084 C313.2547604 750.49607417 313.2547604 750.49607417 311.51619231 750.49645504 C294.3351949 750.4999011 277.15423439 750.49056621 259.97324467 750.47492981 C240.44410552 750.4571976 220.91505646 750.45697524 201.38592124 750.48028146 C190.44659976 750.49282261 179.50748501 750.49145764 168.56817548 750.4704006 C161.27135677 750.45773155 153.97469821 750.46307175 146.67789705 750.48338541 C142.51352941 750.49446597 138.34956987 750.49746999 134.1852206 750.47871011 C130.40178248 750.4618285 126.61910817 750.46767318 122.83571796 750.49217596 C120.82348836 750.49920703 118.81121958 750.4815501 116.79906237 750.46309033 C115.01971255 750.48148238 115.01971255 750.48148238 113.20441628 750.50024599 C112.18020657 750.50036104 111.15599687 750.5004761 110.10075051 750.50059464 C106.50223258 751.34669468 105.44349232 753.12147934 103.4415369 756.12584114 C105.4215369 760.58084114 105.4215369 760.58084114 107.4415369 765.12584114 C108.0809119 764.85771614 108.7202869 764.58959114 109.3790369 764.31334114 C117.83393675 761.03491059 125.3237083 758.97848446 134.45374393 758.96470833 C135.2463512 758.95974342 136.03895847 758.95477852 136.85558414 758.94966316 C139.47018152 758.93509505 142.08471815 758.92824715 144.6993494 758.92271614 C146.52673181 758.91695865 148.35411422 758.911201 150.18149662 758.90544319 C154.01297123 758.89494726 157.84442495 758.88909593 161.6759119 758.88560677 C166.56125874 758.88013639 171.44632486 758.85613363 176.33158398 758.82763481 C180.10822165 758.8089131 183.88479313 758.8037977 187.66147327 758.80227089 C189.46102139 758.79926342 191.26056888 758.7913001 193.06007099 758.77808571 C216.94288187 758.6152767 216.94288187 758.6152767 226.4415369 766.12584114 C226.97649784 766.54220833 227.51145878 766.95857552 228.06263065 767.38755989 C230.68643293 769.48282646 232.56664613 771.31350498 234.4415369 774.12584114 C234.64179066 777.22977443 234.63207044 780.03742543 234.4415369 783.12584114 C234.39641972 784.1583802 234.35130253 785.19091927 234.30481815 786.25474739 C233.59799961 794.02975132 231.50909015 798.58348962 225.95325565 804.09459114 C218.58887025 810.05023719 210.7937455 811.27279764 201.53699589 811.28697395 C200.75574848 811.29193886 199.97450108 811.29690376 199.16957951 811.30201912 C196.59225413 811.31658742 194.0149904 811.32343567 191.43763065 811.32896614 C190.55252371 811.33179352 189.66741676 811.3346209 188.7554884 811.33753395 C184.06676912 811.35250922 179.37808045 811.36174773 174.68933964 811.36607552 C169.87359153 811.37154163 165.0581288 811.39553496 160.24246979 811.42404747 C156.51640383 811.44278784 152.79040485 811.44788559 149.06429577 811.44941139 C147.29069372 811.45241541 145.5170922 811.4603667 143.74353695 811.47359657 C119.85931874 811.6389696 119.85931874 811.6389696 112.0040369 805.81334114 C111.1584119 805.25646614 110.3127869 804.69959114 109.4415369 804.12584114 C104.56866235 805.48070042 102.55879968 807.68223324 99.9180994 811.83287239 C97.55065709 817.11264453 96.42066432 822.66813402 95.26575565 828.32237434 C94.35916508 832.67971548 93.35726062 836.5487993 91.4024744 840.55943489 C88.93894197 845.77843125 88.32449528 850.99543906 87.6915369 856.68834114 C87.56649784 857.67769661 87.44145878 858.66705208 87.31263065 859.68638802 C86.64691912 865.19862583 86.2083199 870.57398088 86.4415369 876.12584114 C90.16739146 879.85169569 101.71686959 878.24918707 106.67311758 878.26375112 C107.82845686 878.26215676 108.98379614 878.26056239 110.1741457 878.25891972 C111.42919794 878.26116274 112.68425019 878.26340577 113.97733432 878.26571676 C117.45071396 878.27179119 120.92407008 878.2717277 124.39745385 878.27064382 C128.18024425 878.27057092 131.96302664 878.27629556 135.74581313 878.28128868 C142.37241097 878.28925091 148.99900335 878.29357327 155.62560558 878.29550552 C165.4798354 878.29840865 175.33405438 878.30703619 185.18827937 878.31691864 C201.76908802 878.3334253 218.34989709 878.34561578 234.93071079 878.3556366 C258.62204187 878.37005885 282.31336098 878.39281943 306.00468352 878.41730171 C315.51373878 878.42709167 325.02279432 878.43661266 334.53184986 878.44613171 C335.58828813 878.44719047 336.64472641 878.44824924 337.73317796 878.44934009 C362.87603409 878.4744874 388.01889241 878.49698507 413.16175175 878.51866341 C414.26178101 878.51961384 415.36181027 878.52056428 416.49517375 878.52154352 C442.16037878 878.54369594 467.82558446 878.56457274 493.49079227 878.5832386 C494.59465884 878.58404235 495.6985254 878.5848461 496.83584246 878.58567421 C502.40209926 878.58972502 507.96835606 878.59376659 513.53461286 878.59780747 C514.6347163 878.59860646 515.73481974 878.59940545 516.86825965 878.60022866 C519.08871412 878.60184097 521.30916858 878.6034518 523.52962305 878.60506112 C560.21829842 878.63169382 596.90696287 878.66505967 633.59562532 878.70583927 C638.77712935 878.71158914 643.95863347 878.71724776 649.14013767 878.72284317 C650.15987695 878.72394497 651.17961623 878.72504678 652.2302567 878.72618197 C668.63849556 878.74368422 685.0467312 878.75385325 701.45497747 878.76109562 C717.9457037 878.76848908 734.43641148 878.78289516 750.9271253 878.80452137 C760.72231255 878.81713765 770.51746721 878.82418731 780.31266272 878.82327118 C786.85938422 878.82320154 793.40607235 878.83035696 799.95278093 878.84332123 C803.68032359 878.85049484 807.4077964 878.85457478 811.13534454 878.84979873 C815.15881666 878.84471441 819.18210553 878.8551259 823.20556355 878.86692142 C824.35153816 878.8629859 825.49751278 878.85905037 826.67821389 878.85499558 C850.83811744 878.98091934 850.83811744 878.98091934 858.4415369 886.12584114 C863.31345294 892.09393829 863.01439672 897.65181071 862.4415369 905.12584114 C862.3590369 906.25377083 862.2765369 907.38170052 862.1915369 908.54380989 C861.50897834 914.72238686 860.59367493 919.17329916 856.2696619 923.75865364 C840.86954201 935.27583732 815.01418332 931.55356489 796.74876979 931.49884108 C792.44759158 931.48933517 788.14643802 931.4974615 783.84525812 931.50323939 C776.32374327 931.51096025 768.8022977 931.50764927 761.28078747 931.49691582 C750.09559177 931.48099871 738.91044392 931.48240715 727.72524031 931.4872081 C708.90001546 931.49478268 690.07482002 931.48830731 671.24960041 931.47359657 C652.60492186 931.45904447 633.9602562 931.4503088 615.31557178 931.44941139 C613.57354663 931.44931975 613.57354663 931.44931975 611.79632904 931.44922626 C607.08165994 931.44899673 602.36699084 931.44880955 597.65232173 931.44867812 C554.71063233 931.44746756 511.76896091 931.43178587 468.82727909 931.40709114 C428.32369694 931.38380357 387.8201257 931.36962485 347.3165369 931.36607552 C346.0688938 931.365964 344.82125069 931.36585249 343.53580022 931.36573759 C338.50560409 931.36528872 333.47540795 931.36484674 328.44521181 931.36440516 C325.93822741 931.36418478 323.431243 931.36396349 320.9242586 931.36374128 C318.42327932 931.36351992 315.92230004 931.36330115 313.42132076 931.36308498 C273.5535789 931.3595663 233.68583908 931.34810508 193.81809927 931.33527865 C182.15737924 931.33156431 170.49665934 931.32829832 158.83593893 931.32602978 C134.31712523 931.32121436 109.79831804 931.31409414 85.27950884 931.29788211 C75.14220952 931.29125072 65.00491543 931.28608722 54.86761379 931.28542137 C46.4564417 931.28486674 38.04527973 931.28097417 29.63411158 931.27264545 C25.40586978 931.2685523 21.17764281 931.26594381 16.94939907 931.26776066 C7.11269329 931.27114265 -2.72234362 931.24195138 -12.5584631 931.12584114 C-14.27309248 931.10591627 -14.27309248 931.10591627 -16.02236083 931.08558887 C-19.08647554 931.03769906 -22.14783951 930.96007667 -25.21087742 930.86706352 C-26.06181082 930.85350585 -26.91274422 930.83994818 -27.78946348 930.82597966 C-33.91764895 930.58018028 -39.72814649 929.15381367 -44.05368737 924.52619748 C-47.83872048 919.48534269 -49.20665846 913.12383771 -50.77208614 907.11729622 C-50.96198116 906.40339729 -51.15187618 905.68949837 -51.3475256 904.95396614 C-51.50946407 904.31362434 -51.67140255 903.67328255 -51.83824825 903.01353645 C-52.47276541 901.02373429 -52.47276541 901.02373429 -54.06099934 899.40454805 C-56.00868189 896.4407383 -56.0592909 894.30829909 -56.23809803 890.77883536 C-56.30239041 889.52880183 -56.36668279 888.27876831 -56.43292342 886.99085499 C-56.63126825 880.88437506 -56.69556232 874.78742756 -56.68430424 868.67793369 C-56.68535017 867.27194145 -56.68683348 865.86594948 -56.6887086 864.45995811 C-56.69257556 860.62123147 -56.69028702 856.78253025 -56.68693065 852.94380407 C-56.6843815 848.75780079 -56.68765881 844.57180125 -56.69017398 840.38579851 C-56.6937781 833.05700199 -56.69368076 825.72821283 -56.69112682 818.39941597 C-56.68733909 807.50029658 -56.6892809 796.60118339 -56.69233513 785.70206404 C-56.69759859 766.23021547 -56.69714519 746.75837018 -56.69425622 727.2865213 C-56.69173913 710.23685761 -56.69108466 693.18719512 -56.69227886 676.13753128 C-56.69235525 675.00589789 -56.69243163 673.87426451 -56.69251033 672.7083392 C-56.69282168 668.11432675 -56.69314009 663.52031431 -56.6934701 658.92630186 C-56.69652914 615.82751513 -56.69375612 572.72873049 -56.6883732 529.62994408 C-56.68363243 491.38207466 -56.68404817 453.13420858 -56.68883419 414.88633919 C-56.69419666 371.88824095 -56.69630736 328.89014456 -56.69322193 285.89204603 C-56.69290123 281.30182652 -56.69258839 276.711607 -56.69227886 272.12138748 C-56.69219978 270.99121036 -56.69212071 269.86103324 -56.69203923 268.69660833 C-56.69090452 251.67265699 -56.69222699 234.648707 -56.69475842 217.62475586 C-56.69762585 198.24482499 -56.69688573 178.86489792 -56.69147767 159.48496752 C-56.68855481 148.65534556 -56.68833012 137.82573181 -56.69212385 126.99611007 C-56.6943837 119.74086891 -56.69293948 112.48563427 -56.68861908 105.23039407 C-56.68626466 101.11055944 -56.68537503 96.990741 -56.68902506 92.87090694 C-56.70141567 77.46327354 -56.63295017 62.05884484 -56.23802662 46.65561962 C-56.20504589 44.81705115 -56.20504589 44.81705115 -56.17139889 42.94133988 C-56.13652405 41.82181542 -56.10164922 40.70229097 -56.06571758 39.54884154 C-56.04034171 38.56934417 -56.01496585 37.58984681 -55.98882102 36.58066771 C-55.4883681 33.72600872 -54.71703614 32.96537416 -52.5584631 31.12584114 C-51.53845829 28.82901446 -51.53845829 28.82901446 -50.7615881 26.23130989 C-50.28205685 24.79755013 -50.28205685 24.79755013 -49.7928381 23.33482552 C-49.14152965 21.33567041 -48.50072293 19.33306047 -47.8709631 17.32701302 C-45.38501012 9.98260035 -42.45283251 6.09630412 -35.85956529 2.0947557 C-25.82975814 -2.12844925 -10.76972684 -0.01557571 0 0 Z M5.4415369 56.12584114 C2.69356889 65.86391984 2.00641484 75.44817338 2.05842686 85.53516197 C2.05467923 86.92461008 2.04962337 88.31405515 2.04339802 89.70349437 C2.03016785 93.49149947 2.03532967 97.27928125 2.04373152 101.0672917 C2.04957158 105.19961219 2.03796868 109.33189162 2.02866983 113.46420074 C2.01479319 120.69640277 2.0120135 127.92854225 2.01662922 135.16075516 C2.02347483 145.91483302 2.01318691 156.66884779 1.99967166 167.42291689 C1.97478836 187.74397243 1.97024116 208.06500165 1.97213763 228.38606998 C1.97351106 244.07028353 1.96969133 259.75448796 1.96221256 275.43869972 C1.96116223 277.69250506 1.96011462 279.94631039 1.9590697 282.20011573 C1.95855036 283.31888087 1.95803101 284.43764601 1.95749593 285.59031312 C1.95697579 286.71111632 1.95645565 287.83191953 1.95591974 288.98668647 C1.95539575 290.10936055 1.95487176 291.23203464 1.95433189 292.38872915 C1.93975423 323.95224449 1.93146394 355.51575649 1.93608189 387.07927513 C1.93625384 388.26861175 1.9364258 389.45794836 1.93660296 390.68332548 C1.93749185 396.71134137 1.93843666 402.73935724 1.93940097 408.76737311 C1.939592 409.96456086 1.93978304 411.1617486 1.93997986 412.39521476 C1.94036695 414.81621201 1.94075728 417.23720925 1.94115084 419.6582065 C1.94712717 457.36896001 1.93165214 495.07965223 1.89954472 532.79039192 C1.86350612 575.15430272 1.84412925 617.51817467 1.84908342 659.88210177 C1.84955342 664.39432509 1.84996367 668.90654842 1.85033512 673.41877174 C1.85043751 674.52980811 1.85053989 675.64084447 1.85064538 676.7855486 C1.85184211 693.58518747 1.83984898 710.38478443 1.82119083 727.184412 C1.80000282 746.2712084 1.7960544 765.35791663 1.81549042 784.4447169 C1.82585247 795.13547016 1.82225559 805.82600867 1.79895957 816.51674273 C1.7847954 823.6462009 1.78860902 830.77549908 1.80740534 837.90494628 C1.81761822 841.97435898 1.81972148 846.04335174 1.80008465 850.11273924 C1.78240931 853.80870686 1.78739948 857.50389697 1.81111304 861.19982444 C1.81771998 863.16768781 1.79959772 865.13558569 1.7807132 867.10336953 C1.79271834 868.26016888 1.80472348 869.41696823 1.81709242 870.60882211 C1.81698373 871.60951329 1.81687505 872.61020447 1.81676307 873.64121963 C2.2240579 876.35099455 2.2240579 876.35099455 4.82283458 877.94540153 C9.28757932 879.95798673 13.67935556 879.5979154 18.5040369 879.56334114 C19.49725956 879.58332161 20.49048222 879.60330208 21.51380253 879.62388802 C22.47093143 879.62324348 23.42806034 879.62259895 24.41419315 879.62193489 C25.28310184 879.62378792 26.15201054 879.62564095 27.04724979 879.62755013 C30.44190882 878.916219 31.48392211 878.00455648 33.4415369 875.12584114 C34.07843054 872.06037067 34.11573852 869.02676435 34.16419315 865.90318489 C34.19467747 864.9823008 34.22516178 864.0614167 34.25656986 863.11262703 C34.32102222 861.12961299 34.37725159 859.1463181 34.42612553 857.16285896 C34.55758958 851.93287596 34.75580025 846.70539731 34.9493494 841.47740364 C34.98694874 840.42722557 35.02454807 839.3770475 35.06328678 838.29504585 C36.07601691 811.19198903 37.25072798 782.7787947 47.1668787 757.25914192 C49.63706929 750.58731127 50.38244836 743.96977367 51.0352869 736.91490364 C51.22218082 734.96591667 51.22218082 734.96591667 51.41285038 732.97755623 C52.95601993 716.19143531 53.40026313 699.34244136 53.9415369 682.50084114 C54.56688959 663.13687582 55.30604654 643.81992557 56.91419315 624.50865364 C57.00563099 623.39404825 57.00563099 623.39404825 57.09891605 622.25692558 C58.52723797 605.0862715 60.83378948 588.45148547 67.14208317 572.33621407 C69.53566678 565.79333155 70.36849913 559.35709366 71.0352869 552.44615364 C71.15988285 551.19472572 71.2844788 549.94329781 71.41285038 548.65394783 C73.01404438 531.81517215 73.4086846 514.89945544 73.9415369 498.00084114 C74.55670509 478.58390501 75.25907126 459.21829406 76.9493494 439.86021614 C77.01270985 439.13389866 77.07607029 438.40758118 77.14135075 437.65925407 C78.73217319 419.68012455 80.61563355 401.45413225 87.92200565 384.73887825 C90.12741193 378.84360885 90.48421149 372.71339876 91.0352869 366.48521614 C91.0969051 365.81934235 91.15852329 365.15346855 91.22200871 364.46741676 C92.84684614 346.80667973 93.37158836 329.09541229 93.9415369 311.37584114 C94.56119551 292.17271277 95.28170436 273.02155953 96.94544315 253.87584114 C97.00853672 253.1468486 97.07163029 252.41785606 97.13663578 251.66677284 C100.38866137 214.61129036 100.38866137 214.61129036 106.96888065 202.25865364 C108.84268687 198.2724664 109.43886345 194.5948627 110.0040369 190.25084114 C110.18954105 188.84282234 110.18954105 188.84282234 110.37879276 187.40635872 C112.26139729 171.71227168 112.66290132 155.86159726 113.31720829 140.0799427 C113.49251513 135.91457641 113.67828761 131.74969234 113.86333561 127.58474922 C114.05594904 123.22732011 114.24366833 118.86969099 114.42978764 114.51198006 C114.51950461 112.41345187 114.61007226 110.31495985 114.70157719 108.21650887 C115.14180463 98.02945903 115.52272502 87.84660036 115.5821619 77.64927864 C115.59038975 76.89555473 115.59861759 76.14183083 115.60709476 75.3652668 C115.60545138 68.52361108 115.47032209 59.15462632 110.4415369 54.12584114 C107.43021573 53.56559534 105.38929817 53.53457723 102.7384119 55.18834114 C98.13942983 59.00011007 94.21511335 63.51161647 90.4415369 68.12584114 C89.93211552 68.70736946 89.42269413 69.28889778 88.89783573 69.88804817 C85.889028 74.51147344 86.29440641 80.49184247 85.8790369 85.87584114 C85.8180582 86.61714272 85.75707951 87.35844429 85.69425297 88.12220955 C83.82821043 111.29740867 83.60179631 134.59293322 83.01981449 157.82730293 C82.99069918 158.98882157 82.99069918 158.98882157 82.96099567 160.17380524 C82.92203749 161.72813657 82.88313505 163.2824693 82.84428883 164.83680344 C79.97066154 279.3015694 79.97066154 279.3015694 68.9337244 297.62974739 C66.19267905 302.21489917 65.21307937 307.59456028 63.86731815 312.73326302 C62.09289954 319.06708346 60.045457 323.86051994 54.2540369 327.50084114 C44.10014948 329.75726057 34.9658863 327.08531403 25.9415369 322.25084114 C18.94875791 316.30697899 16.89357583 307.86515153 15.4415369 299.12584114 C15.2928112 296.37323258 15.21521853 293.72017196 15.2540369 290.97349739 C15.26294956 289.82026733 15.26294956 289.82026733 15.27204227 288.6437397 C15.39956184 278.85012655 16.02096168 269.08230172 16.6915369 259.31334114 C16.791404 257.84223885 16.791404 257.84223885 16.89328861 256.34141731 C18.34666639 235.2504203 19.85554666 214.34308827 26.28919315 194.09190559 C32.85655293 172.42593309 32.40141667 147.98188691 33.0040369 125.43834114 C33.02455112 124.68158089 33.04506535 123.92482063 33.06620121 123.14512825 C33.37116613 111.60831279 33.56850953 100.07081562 33.61777592 88.52998543 C33.62517927 86.94942061 33.6357671 85.36886693 33.64981937 83.78834724 C34.3335585 68.2795098 34.3335585 68.2795098 29.4415369 54.12584114 C27.15351091 53.67706019 27.15351091 53.67706019 24.5040369 53.76255989 C23.52692753 53.76320442 22.54981815 53.76384895 21.5430994 53.76451302 C20.00782597 53.78868294 20.00782597 53.78868294 18.4415369 53.81334114 C17.41802128 53.81011848 16.39450565 53.80689583 15.3399744 53.80357552 C9.84086556 53.48270188 9.84086556 53.48270188 5.4415369 56.12584114 Z M184.36004919 56.47079509 C184.05694013 57.34696029 183.75383108 58.22312549 183.4415369 59.12584114 C182.96974003 60.14935677 182.49794315 61.17287239 182.0118494 62.22740364 C178.77502573 70.11825486 176.24157412 77.94863282 174.26624393 86.25132942 C173.27111769 90.34730077 172.0711289 94.11525836 170.39856815 97.98912239 C168.15731178 103.41126297 167.38982602 108.69682765 166.7540369 114.50084114 C166.63737675 115.45216927 166.52071659 116.40349739 166.40052128 117.38365364 C165.00840916 129.02391313 164.27224179 140.6579647 163.87191486 152.36914253 C163.79050253 154.73247634 163.70444758 157.09560289 163.61716557 159.45872688 C163.36955664 166.17174899 163.12587458 172.88488883 162.8946619 179.59849739 C162.26798386 197.70250726 161.4628767 215.76212081 159.96106815 233.81724739 C159.90034248 234.55848854 159.83961681 235.29972969 159.77705097 236.06343269 C158.34746143 253.27432485 156.18981189 270.72341428 149.74099064 286.88107491 C147.10612199 293.90744391 146.48424046 300.95393074 145.8477869 308.39146614 C145.78616871 309.07979782 145.72455051 309.7681295 145.6610651 310.47731972 C144.10658298 327.91276262 143.52403471 345.386356 142.9415369 362.87584114 C142.30763632 381.84535308 141.54016405 400.76609335 139.9649744 419.68443489 C139.90374897 420.43022049 139.84252354 421.17600609 139.77944279 421.94439125 C138.41272555 438.3755638 136.24840461 454.38276207 130.5899744 469.93443489 C127.80220612 477.68139641 126.71720897 484.99352549 125.91419315 493.18443489 C125.78529194 494.49133781 125.65639072 495.79824074 125.52358341 497.14474678 C123.99667774 513.30262277 123.50145852 529.5113131 122.96143436 545.7261219 C122.71604095 553.05902234 122.45460682 560.39135457 122.18763065 567.72349739 C122.14535406 568.89846716 122.14535406 568.89846716 122.1022234 570.09717369 C121.55458285 585.13407896 120.61236716 600.12416871 119.4415369 615.12584114 C124.10204842 618.0810283 127.11918329 619.63191193 132.75794315 619.62193489 C133.9284119 619.62531868 135.09888065 619.62870247 136.30481815 619.6321888 C137.52556034 619.60946907 138.74630253 619.58674934 140.0040369 619.56334114 C141.87962284 619.53699593 141.87962284 619.53699593 143.7930994 619.51011848 C156.50750855 619.68379605 156.50750855 619.68379605 168.4415369 616.12584114 C170.74675568 613.01115623 171.48852513 609.83784834 172.4415369 606.12584114 C175.57318382 598.81866501 179.33638806 590.54962583 186.3790369 586.39146614 C190.28340779 583.50302849 191.5878584 580.61124733 193.5040369 576.25084114 C197.06418863 568.33776162 200.2301291 562.87452731 208.4415369 559.12584114 C211.2542555 556.83347549 212.16178889 554.58616163 213.3165369 551.18834114 C215.34097649 545.90016626 217.57165262 543.4612506 222.74695683 541.05308723 C227.61756625 539.37703626 232.65004611 539.75674512 237.7540369 539.75084114 C238.85682987 539.72634895 239.95962284 539.70185677 241.09583378 539.67662239 C247.61808856 539.65325909 253.12637961 540.03532426 258.4415369 544.12584114 C263.74204545 550.51224015 263.00531749 558.24145508 262.4415369 566.12584114 C261.75476775 573.25316489 260.90632226 579.40175735 256.4415369 585.12584114 C254.21544862 586.79137458 251.96193964 588.26482976 249.56263065 589.66880989 C245.56480138 592.41501674 244.1338021 595.45750713 242.9415369 600.06334114 C241.30907381 605.73531751 239.9971475 609.38953035 234.7540369 612.43834114 C233.1143494 613.27365364 233.1143494 613.27365364 231.4415369 614.12584114 C232.26021943 616.30843955 232.26021943 616.30843955 234.45866781 616.96424741 C242.1571211 619.15660466 249.31232401 619.5470535 257.28759098 619.50006294 C258.65796913 619.50280889 260.02834516 619.50686553 261.39871603 619.5121066 C265.13610239 619.52262428 268.87324716 619.51460977 272.61062276 619.5033561 C276.65228832 619.4944718 280.6939237 619.5029698 284.73558903 619.50921822 C292.6423217 619.51868396 300.5489628 619.51212573 308.45568865 619.49995527 C317.67234106 619.48629978 326.88897193 619.48797629 336.1056319 619.4900886 C352.55640478 619.4932753 369.0071343 619.48162955 385.45789433 619.46202278 C401.40354578 619.44302314 417.34914642 619.43593484 433.29480839 619.44151497 C450.67684949 619.4475798 468.05886828 619.44738255 485.44090754 619.43602914 C487.29624085 619.43482191 489.15157415 619.43361592 491.00690746 619.43241119 C491.91965866 619.43180766 492.83240986 619.43120412 493.77282019 619.43058229 C500.18986527 619.42671105 506.60690203 619.4270937 513.02394772 619.42899704 C520.85016284 619.43112441 528.67633358 619.42585404 536.50253623 619.41138349 C540.4918689 619.40416526 544.48113711 619.40004037 548.4704752 619.40462685 C552.1290012 619.40873051 555.78739463 619.40346116 559.44590063 619.39100077 C561.38205382 619.38672831 563.3182211 619.39213308 565.25437015 619.39799005 C577.67710001 619.51882542 577.67710001 619.51882542 589.4415369 616.12584114 C588.7974128 613.08308156 588.7974128 613.08308156 586.7696619 612.16880989 C586.08388065 611.8865052 585.3980994 611.60420052 584.6915369 611.31334114 C579.45103523 608.80538677 576.49553102 605.82547664 574.39075565 600.43443489 C573.73683312 598.53831201 573.11461946 596.63082245 572.53138065 594.71177864 C570.53022119 589.96350781 566.90557409 587.4753344 562.4415369 585.12584114 C561.7815369 585.12584114 561.1215369 585.12584114 560.4415369 585.12584114 C550.4415369 565.12584114 550.4415369 565.12584114 549.46888065 563.01255989 C548.00507712 560.32428192 545.85738989 558.97986785 543.4415369 557.12584114 C536.90155652 551.06439591 533.94970736 545.29749571 531.46888065 536.83287239 C529.95576782 532.84584883 528.40551552 531.56591834 524.5665369 529.81334114 C517.92815042 526.22861244 515.99347548 521.2602055 513.4649744 514.52427864 C511.5219547 509.97078973 508.88485226 506.9730045 504.5665369 504.43834114 C500.70548212 501.5811606 499.02131799 498.6866024 496.8165369 494.50084114 C496.4246619 493.78879524 496.0327869 493.07674934 495.6290369 492.3431263 C493.53866836 488.47366472 491.83155075 484.68363511 490.4415369 480.50084114 C488.70061443 475.68912487 485.85266828 473.94875962 481.55481815 471.39537239 C475.57653052 467.80397963 474.3646999 462.331503 472.5665369 455.96568489 C470.85289481 451.63992865 468.59062343 449.6764451 464.4415369 447.68834114 C458.48355529 444.58522572 456.35434754 439.07721968 453.6915369 433.25084114 C450.97341456 427.54579227 448.48237524 423.61645071 443.39075565 419.73521614 C437.44283269 414.8243058 434.40267433 408.65087004 432.5040369 401.31334114 C431.30120083 396.9098254 430.54335602 394.50892557 426.5665369 392.12584114 C425.19976861 391.442457 423.82497022 390.77482627 422.4415369 390.12584114 C417.14639484 386.56180321 415.35800584 383.3177889 413.39856815 377.43052864 C412.40662721 375.04177289 411.38276239 373.79912283 409.4415369 372.12584114 C406.42749185 373.16450783 405.57347994 373.85919805 404.13294315 376.77037239 C403.76040409 377.81580208 403.38786503 378.86123177 403.0040369 379.93834114 C400.8551461 385.39522141 398.95648232 389.36836843 393.4884119 392.10240364 C390.04463426 393.87531139 387.91369836 395.04661495 386.32044315 398.68834114 C385.71827609 400.74373805 385.12769337 402.8025542 384.54700565 404.86412239 C381.51376456 413.81379134 375.61242393 420.22722852 368.4805994 426.13365364 C364.49347658 430.02911847 362.55716273 435.18559364 360.6055994 440.32896614 C358.27072553 445.94123179 355.00727936 448.07163372 349.6837244 450.89927864 C347.0433743 452.34365135 345.69979027 453.32271797 344.76575565 456.22740364 C344.55563847 457.06013802 344.34552128 457.89287239 344.1290369 458.75084114 C341.74912525 466.93915105 338.00556455 472.13692452 331.3087244 477.38755989 C328.06592295 480.40648593 326.36611251 484.2509445 324.39075565 488.15709114 C324.02143925 488.88541145 323.65212284 489.61373177 323.27161503 490.36412239 C322.51226428 491.86724746 321.76217694 493.37508953 321.02161503 494.88755989 C317.07192012 502.59594546 311.30912477 506.3704005 303.9415369 510.50084114 C299.57899117 512.99779332 295.94414648 515.16402837 292.8790369 519.25084114 C292.0746619 520.19959114 291.2702869 521.14834114 290.4415369 522.12584114 C285.42597667 522.01484672 282.87433475 520.25361169 279.1915369 517.00084114 C275.5748609 513.89237472 271.96506412 511.03212822 268.0040369 508.37584114 C263.43747948 505.22773896 260.66841343 502.23606877 257.8790369 497.43834114 C257.18348604 492.17202745 259.48189076 488.40561722 262.4415369 484.12584114 C264.16419315 482.67662239 264.16419315 482.67662239 265.9415369 481.43834114 C270.71698621 477.84380555 271.66672232 472.28008679 273.20325565 466.78209114 C275.1322571 461.08636447 278.44674833 456.91695507 282.4415369 452.50084114 C283.1015369 451.76607552 283.7615369 451.03130989 284.4415369 450.27427864 C286.4415369 448.12584114 286.4415369 448.12584114 288.44544315 446.34849739 C291.67258467 442.75506584 293.3585847 438.41943003 295.35364628 434.05748177 C298.00356426 428.48063268 300.8257595 424.38141429 306.5665369 421.62584114 C311.45020149 419.07784223 312.73084157 414.66238653 314.3790369 409.62584114 C315.87766456 405.44427707 317.10317513 402.1860061 320.4415369 399.12584114 C321.7317617 398.66346444 323.02360077 398.20558104 324.3165369 397.75084114 C328.13160927 396.02699363 329.30758657 393.83768067 330.83655643 389.99595833 C331.57042481 387.99021506 332.29313811 385.98081176 333.0118494 383.96959114 C335.83943267 376.08804217 339.74419105 370.11322635 346.4415369 365.12584114 C351.49945677 360.70016126 353.68581306 355.94114189 356.31458378 349.92076302 C359.04912722 344.03735138 362.37603274 341.73200515 368.13294315 338.71568489 C371.75808222 336.21918472 372.89828884 332.71851556 374.71888065 328.81724739 C377.60293225 324.31132551 381.00290347 322.53996978 386.07825565 321.07896614 C387.42481386 320.8241803 388.77554369 320.59076196 390.1290369 320.37584114 C390.86307743 320.25515266 391.59711796 320.13446419 392.35340214 320.01011848 C407.89094455 317.69284341 428.02063298 316.84819448 441.4415369 326.12584114 C443.1212244 328.74693489 443.1212244 328.74693489 444.3165369 331.56334114 C446.83217575 336.65548107 449.08278287 338.75499296 454.2930994 340.93052864 C460.16265883 344.19613806 461.88149637 350.34843526 464.0977869 356.28599739 C466.0675634 360.44886808 468.46017358 362.54119916 472.3790369 364.87584114 C477.31580921 368.50285753 479.54831603 373.35584453 482.2852869 378.73521614 C485.93128838 385.85918829 489.17341436 391.93313178 495.4415369 397.12584114 C500.11888487 401.04176037 501.64387658 404.71905288 503.4493494 410.40709114 C505.42310355 415.81548833 507.46244502 418.34681311 512.4415369 421.12584114 C517.62962648 424.85347655 519.94549423 428.33573622 522.5040369 434.12584114 C524.86400784 439.40049783 527.02902 443.20838711 531.4415369 447.12584114 C538.27370474 453.23883341 542.92212937 460.59469183 545.2540369 469.43834114 C546.67501186 474.24731751 548.05872218 476.05030386 552.4415369 478.50084114 C553.32067753 478.94814583 554.19981815 479.39545052 555.1055994 479.85630989 C561.0137864 483.06728108 562.42767135 489.5191447 564.3165369 495.53990364 C566.0903359 499.61717772 568.38963481 501.63346144 572.3790369 503.50084114 C577.15758086 506.03639507 579.64678598 509.8343709 582.4415369 514.37584114 C584.61187644 517.360058 585.94265158 518.15392855 589.4415369 519.12584114 C592.95497019 514.98283311 594.25142521 510.30195472 595.9649744 505.21959114 C598.15776077 500.6251816 600.92820085 498.75955061 605.5665369 496.81724739 C609.32643795 494.60524039 610.14856811 492.01962975 611.4415369 488.06334114 C611.9351684 486.70813985 612.43521665 485.35525929 612.9415369 484.00474739 C613.3127869 483.0130555 613.3127869 483.0130555 613.6915369 482.00132942 C616.54045626 474.87717625 620.34223349 469.6678756 626.4415369 465.12584114 C630.58824438 461.47232579 632.48883517 458.27387298 634.4415369 453.12584114 C636.96384566 446.47611805 639.89432058 442.11254874 646.4415369 439.06334114 C651.29620419 436.22158468 652.45176217 432.13700472 654.14075565 426.96568489 C656.05211705 422.79283283 658.68265621 420.82827844 662.90638065 419.14146614 C663.72235722 418.88880989 664.53833378 418.63615364 665.3790369 418.37584114 C669.28165369 416.92169969 671.15139296 415.66596712 673.4415369 412.18834114 C676.75973866 407.21568585 680.76389813 404.88418368 686.4415369 403.12584114 C690.17302399 402.65599064 693.70061334 402.83063901 697.4415369 403.12584114 C699.00194706 403.17611458 699.00194706 403.17611458 700.59388065 403.22740364 C706.61980765 403.51045089 710.78841609 403.93803241 715.4415369 408.12584114 C716.82021971 409.75519355 718.15427783 411.42333721 719.4415369 413.12584114 C722.97404686 417.03906331 726.25766088 419.24590004 731.0040369 421.50084114 C736.75752207 424.51025689 739.01580571 426.16258528 741.4415369 432.12584114 C744.52319783 439.55916699 744.52319783 439.55916699 750.2540369 444.93834114 C759.55288202 451.1434306 763.97572838 463.50425116 767.3009119 473.78209114 C768.65352669 476.5614366 769.4935742 477.01796144 772.3165369 478.12584114 C776.22400743 479.67100059 778.07595021 481.64588716 780.4415369 485.12584114 C781.304636 487.26505607 782.09475569 489.43490243 782.8165369 491.62584114 C785.30894672 498.39969114 787.51889564 501.0998826 793.94544315 504.41905403 C796.90324803 506.44155148 797.83223232 508.10121647 799.3790369 511.30943489 C799.88177128 512.31941536 800.38450565 513.32939583 800.9024744 514.36998177 C801.41036503 515.42379036 801.91825565 516.47759895 802.4415369 517.56334114 C803.45129252 519.65076741 804.47179325 521.73303708 805.5040369 523.80943489 C805.94876347 524.73296761 806.39349003 525.65650032 806.85169315 526.60801888 C808.67813604 529.50054121 810.69473727 531.11747294 813.4415369 533.12584114 C820.11680487 539.4819175 822.92845506 546.26805207 825.6290369 554.93834114 C827.90735073 558.94503098 830.20111798 559.76349898 834.2227869 561.75474739 C839.91623188 565.27305582 841.93458299 572.23994935 844.4415369 578.12584114 C846.44954153 581.65715962 847.82267592 583.74128143 851.28919315 585.89537239 C854.78440533 588.36844073 856.85183749 591.04495977 859.0665369 594.62584114 C859.45333622 595.23588997 859.84013554 595.8459388 860.23865604 596.47447395 C863.21845403 601.35176991 865.16023093 606.27841665 866.68763065 611.79771614 C867.29836565 614.28591815 867.29836565 614.28591815 869.4415369 616.12584114 C878.41719024 619.43665743 887.93573949 619.47092734 897.3790369 619.56334114 C898.55200321 619.58541634 899.72496952 619.60749153 900.93348026 619.63023567 C902.05891239 619.62749641 903.18434452 619.62475716 904.34388065 619.62193489 C905.34926884 619.62378792 906.35465702 619.62564095 907.39051151 619.62755013 C911.44222845 618.96128796 913.97884041 617.31188006 917.4415369 615.12584114 C917.36113163 613.93474739 917.28072636 612.74365364 917.19788456 611.51646614 C916.81008212 605.72027089 916.43569844 599.92325158 916.0665369 594.12584114 C915.99773319 593.04595924 915.92892948 591.96607735 915.85804081 590.85347176 C914.80360729 574.0889927 914.08001342 557.33171984 913.5545435 540.54286385 C912.82031214 516.3336494 912.82031214 516.3336494 911.0040369 492.18834114 C910.83871464 490.47771492 910.83871464 490.47771492 910.67005253 488.73253059 C909.9758622 482.50954086 908.64392203 476.97660762 906.4415369 471.12584114 C903.06703586 461.2456406 900.81270244 451.51123289 899.2540369 441.18834114 C899.09942997 440.18561165 898.94482304 439.18288216 898.78553104 438.14976692 C895.0887348 412.02520463 894.73114067 385.48761413 893.83973026 359.15513802 C893.26088109 342.17907461 892.54727944 325.24287442 891.03138065 308.32115364 C890.9195998 307.01637062 890.80781895 305.7115876 890.69265079 304.3672657 C890.03568322 297.56598672 888.9822023 291.47578651 886.4415369 285.12584114 C872.0711663 245.57353584 874.3338943 199.24885749 873.1993494 157.69224739 C872.87273441 145.89459138 872.21989577 134.1831704 871.0665369 122.43834114 C870.95253544 121.23717659 870.83853397 120.03601204 870.72107792 118.79844856 C870.01596092 112.17260971 868.76221356 106.35296556 866.4415369 100.12584114 C865.56862795 97.34573886 864.75650691 94.54841681 863.9415369 91.75084114 C863.72360477 91.00971077 863.50567265 90.2685804 863.28113651 89.50499153 C862.12102113 85.53935706 861.02760599 81.56676817 860.0040369 77.56334114 C858.72405404 72.79650839 857.08988066 68.18903174 855.3790369 63.56334114 C854.992439 62.5074781 854.992439 62.5074781 854.59803104 61.4302845 C853.49236825 58.50416169 852.67881443 56.36311867 850.4415369 54.12584114 C848.36724181 53.82213415 848.36724181 53.82213415 845.93900448 53.87169081 C844.98348955 53.8659151 844.02797462 53.86013938 843.04350469 53.85418865 C841.98433088 53.85801344 840.92515708 53.86183823 839.8338871 53.86577892 C838.71139807 53.86197325 837.58890905 53.85816758 836.4324052 53.85424659 C832.62596054 53.84384199 828.81966256 53.84785322 825.01320744 53.85168648 C822.27474733 53.848343 819.53629597 53.84200573 816.79784101 53.83581775 C810.82062995 53.82394019 804.84344945 53.81960618 798.86622715 53.82013893 C789.97808246 53.82093026 781.08997651 53.81040209 772.20184215 53.79772336 C754.481051 53.77294855 736.76026918 53.76419696 719.0394631 53.75918687 C717.66195892 53.75879511 717.66195892 53.75879511 716.25662637 53.75839543 C714.87644958 53.75800502 714.87644958 53.75800502 713.46839043 53.75760672 C703.28550729 53.75452808 693.10262677 53.74802469 682.91974545 53.74139404 C652.18255235 53.72174332 621.44536209 53.70534027 590.70816231 53.70251751 C589.72445078 53.70242345 588.74073926 53.70232939 587.72721829 53.70223248 C583.7404163 53.70185398 579.7536143 53.70148998 575.7668123 53.7011295 C572.76589042 53.70085777 569.76496855 53.7005811 566.76404667 53.70030403 C565.27662042 53.700172 565.27662042 53.700172 563.75914516 53.7000373 C532.58920164 53.69713068 501.41932009 53.67502616 470.24939823 53.63878059 C435.25970772 53.59809464 400.27005943 53.57435925 365.28034395 53.574058 C361.55261067 53.57396117 357.8248774 53.57379444 354.09714413 53.57357788 C352.72026915 53.57351171 352.72026915 53.57351171 351.31557852 53.5734442 C336.51516988 53.57232225 321.71482308 53.55488316 306.91443438 53.53175856 C292.0516897 53.50896655 277.18902899 53.50465802 262.32627327 53.51930786 C253.48631297 53.52748662 244.64661636 53.52167249 235.80668781 53.49612701 C229.91046159 53.48045686 224.01442396 53.48276874 218.11820254 53.50003374 C214.75277918 53.50936988 211.38828533 53.50788792 208.02283264 53.49006767 C204.40642237 53.47214152 200.7913933 53.48452454 197.17502785 53.50501537 C196.11819521 53.492452 195.06136257 53.47988863 193.97250471 53.46694455 C188.48490673 53.32642822 188.48490673 53.32642822 184.36004919 56.47079509 Z M924.4415369 56.12584114 C922.04032288 63.52774857 921.22057582 70.83722983 921.32117558 78.56089973 C921.32651153 79.34054274 921.33184748 80.12018574 921.33734512 80.92345428 C921.4116646 89.00876177 921.67672734 97.08595884 921.99231815 105.16490364 C922.0524387 106.74403394 922.1125113 108.32316607 922.17253971 109.90229988 C922.29858771 113.19143871 922.42764602 116.48044411 922.55848026 119.76939583 C922.68912489 123.0651082 922.81407819 126.36095253 922.93348026 129.65709114 C923.55385157 146.74349081 924.32588272 163.79851982 925.82825565 180.83287239 C925.93535358 182.11840004 926.04245152 183.40392769 926.15279484 184.72841072 C927.12334612 194.89425735 929.90123929 203.66992457 933.67395878 213.09117317 C944.9439577 242.96527338 942.09058879 281.92915286 943.13831425 313.58311653 C943.98128425 340.32199505 943.98128425 340.32199505 945.8790369 367.00084114 C945.98917118 368.23922737 946.09930546 369.4776136 946.21277714 370.75352669 C946.87752035 377.26504137 948.09302328 383.02462486 950.4415369 389.12584114 C956.22146104 405.86647507 958.39707106 422.25553201 959.9337244 439.86412239 C959.99940113 440.61613552 960.06507786 441.36814865 960.13274479 442.14295006 C961.80096693 461.56070958 962.4056631 481.00640452 963.01972294 500.48039436 C963.56895271 517.83682341 964.12667635 535.15950955 965.8477869 552.44615364 C965.95981449 553.60726662 966.07184208 554.76837959 966.18726444 555.96467781 C966.88697404 562.37695172 968.12677663 568.10910058 970.4415369 574.12584114 C976.22620013 590.88020111 978.39806887 607.28000302 979.9337244 624.90318489 C980.03223949 626.03252827 980.03223949 626.03252827 980.13274479 627.18468666 C981.77962143 646.36534837 982.40100188 665.57072969 983.01972294 684.80662727 C983.58716458 702.37835929 984.22128471 719.911932 985.8477869 737.42271614 C985.95981449 738.68045845 986.07184208 739.93820076 986.18726444 741.23405647 C986.85832403 747.90882133 987.96896347 753.88563879 990.4415369 760.12584114 C1001.66508115 791.01697545 1001.82074319 826.01553469 1002.7071619 858.56724739 C1002.7397913 859.73884407 1002.77242069 860.91044075 1002.80603886 862.11754036 C1002.85291159 864.16959393 1002.88165929 866.22218664 1002.88758183 868.27476692 C1002.95681123 871.93210579 1003.08551303 874.44466251 1004.7930994 877.71177864 C1009.14895896 880.03747357 1013.52695606 879.66094952 1018.3790369 879.56334114 C1019.86307011 879.57397591 1019.86307011 879.57397591 1021.37708378 879.58482552 C1026.66611014 879.53858655 1030.10236503 879.44142212 1034.4415369 876.12584114 C1035.18960622 873.5780733 1035.18960622 873.5780733 1035.06598139 870.60882211 C1035.07798653 869.45202276 1035.08999167 868.29522341 1035.10236061 867.10336953 C1035.08394432 865.18437554 1035.08394432 865.18437554 1035.06515598 863.226614 C1035.06976181 861.85477853 1035.07656033 860.48294896 1035.08536208 859.11113399 C1035.10327732 855.31586651 1035.08978589 851.52124327 1035.07147195 847.72600124 C1035.05705089 843.60664104 1035.07149652 839.48736923 1035.08235693 835.36801219 C1035.09737825 828.13957263 1035.09369041 820.9113271 1035.07793903 813.68289185 C1035.05457976 802.93362649 1035.05970198 792.18450817 1035.07064793 781.4352298 C1035.08926922 762.23730342 1035.07949205 743.03946959 1035.0581703 723.84155073 C1035.03963483 707.03395077 1035.0311898 690.22638194 1035.03273869 673.41877174 C1035.0328762 671.74833264 1035.0328762 671.74833264 1035.03301649 670.0441473 C1035.03340964 665.52377723 1035.03385925 661.00340717 1035.03438788 656.48303712 C1035.03926365 614.03946629 1035.01656866 571.59595067 1034.98043165 529.152397 C1034.94846266 491.44350105 1034.93638348 453.73465231 1034.94251347 416.02574348 C1034.94290031 413.60628669 1034.94328677 411.1868299 1034.94367284 408.76737311 C1034.94386418 407.57124379 1034.94405553 406.37511447 1034.94425267 405.14273881 C1034.94520701 399.12158425 1034.94612138 393.1004297 1034.94699192 387.07927513 C1034.94725261 385.29746274 1034.94725261 385.29746274 1034.94751857 383.47965414 C1034.95187547 351.98199534 1034.94185514 320.48434165 1034.92715406 288.98668647 C1034.92663392 287.86588326 1034.92611378 286.74508006 1034.92557788 285.59031312 C1034.92505853 284.47154798 1034.92453919 283.35278284 1034.92400411 282.20011573 C1034.92348637 281.08339113 1034.92296863 279.96666654 1034.9224352 278.81610181 C1034.9213871 276.56708364 1034.92032689 274.31806548 1034.91925448 272.06904733 C1034.91187511 256.39257932 1034.90978547 240.71611853 1034.91124848 225.03964901 C1034.91309535 204.82745976 1034.90500881 184.61531499 1034.87960702 164.40314028 C1034.86645385 153.71502816 1034.86142423 143.02698701 1034.86824556 132.33886854 C1034.8719625 125.19542097 1034.86472788 118.05203806 1034.84865318 110.90860777 C1034.83979562 106.84091979 1034.83555817 102.77337757 1034.84458035 98.7056866 C1034.85270032 94.99716382 1034.84677927 91.2889255 1034.83016346 87.58043347 C1034.8249157 85.63480368 1034.83416562 83.68915075 1034.84419787 81.74353975 C1035.01532869 66.9747148 1035.01532869 66.9747148 1029.4415369 54.12584114 C1025.79400024 53.67351765 1022.1139043 53.80177827 1018.4415369 53.81334114 C1017.41802128 53.79722786 1016.39450565 53.78111458 1015.3399744 53.76451302 C1014.36286503 53.76386848 1013.38575565 53.76322395 1012.3790369 53.76255989 C1011.48056034 53.75957893 1010.58208378 53.75659798 1009.65638065 53.75352669 C1008.92548222 53.87639046 1008.19458378 53.99925423 1007.4415369 54.12584114 C1001.45582423 63.10441014 1003.16486636 76.76355236 1003.2540369 87.18834114 C1003.26296892 88.92068049 1003.27167253 90.65302104 1003.28015995 92.38536263 C1003.31222507 97.63250653 1003.37237999 102.87906919 1003.4415369 108.12584114 C1003.45120487 108.9029847 1003.46087284 109.68012825 1003.47083378 110.48082161 C1003.70049226 128.21428401 1004.49110639 145.87749822 1005.8165369 163.56334114 C1005.87370884 164.3624894 1005.93088078 165.16163765 1005.98978519 165.98500252 C1006.66760537 175.28428091 1007.78571748 184.14757323 1010.4415369 193.12584114 C1017.38046478 217.12602853 1019.25962479 241.95660703 1020.6915369 266.81334114 C1020.73273655 267.52193275 1020.7739362 268.23052437 1020.81638432 268.96058846 C1023.07498906 308.96457071 1023.07498906 308.96457071 1014.04700565 319.77037239 C1006.75944477 325.92313061 996.9505823 328.63480366 987.54700565 328.37584114 C983.29484125 327.87094592 980.48439529 326.16242984 977.49231815 323.18834114 C974.59328904 318.85912433 973.38709916 314.28699941 971.9415369 309.31334114 C969.67481929 301.45254652 969.67481929 301.45254652 966.35169315 294.00474739 C964.11797874 289.76607246 963.20484468 285.57142255 962.3790369 280.87584114 C962.1337122 279.52172127 962.1337122 279.52172127 961.88343143 278.14024544 C953.676154 230.69417477 954.20101517 181.33774244 953.1993494 133.28990364 C952.88302368 118.38422273 952.26060659 103.55205911 951.0665369 88.68834114 C950.98050709 87.55181099 950.98050709 87.55181099 950.8927393 86.39232063 C950.72802676 84.2616285 950.54509925 82.13336158 950.3555994 80.00474739 C950.251991 78.79375374 950.14838261 77.58276009 950.04163456 76.33506966 C949.10262211 71.31337775 946.71758443 68.13288145 943.0665369 64.68834114 C940.76895587 62.46847955 938.63729799 60.23584077 936.6290369 57.75084114 C934.7123282 55.09422894 934.7123282 55.09422894 932.4415369 54.12584114 C927.93773538 53.65652935 927.93773538 53.65652935 924.4415369 56.12584114 Z M688.4415369 469.12584114 C684.37157309 473.72928858 682.79388369 478.30779245 680.88294315 484.06724739 C678.63613286 488.83486923 675.64450109 490.6193299 670.8790369 492.62584114 C666.36672617 495.11003802 665.87285611 499.1379711 664.5118494 503.83287239 C661.43746 513.29166898 656.16822094 519.78990742 648.67200565 526.11802864 C644.25602566 530.09318401 642.55004312 534.82523034 640.5040369 540.31334114 C638.31683963 545.930268 635.64243645 548.04696881 630.2540369 550.68834114 C627.19846212 551.96131404 627.19846212 551.96131404 625.4415369 555.12584114 C624.95165206 557.72710099 624.56265278 560.25380236 624.2540369 562.87584114 C624.15929081 563.56677864 624.06454472 564.25771614 623.96692753 564.96959114 C623.23301501 570.93052944 623.07402019 576.11478715 626.5665369 581.25084114 C628.47719133 583.35410602 630.43071567 584.81432079 632.82825565 586.32115364 C636.88999122 589.17992503 638.87508061 592.52395595 641.1290369 596.87584114 C641.51494999 597.58377815 641.90086308 598.29171516 642.2984705 599.02110481 C644.30571858 602.75233034 646.04671303 606.47897166 647.5665369 610.43834114 C648.96762155 613.7580282 649.35332615 614.07325396 652.6915369 616.06334114 C653.9290369 616.41396614 655.1665369 616.76459114 656.4415369 617.12584114 C657.57860081 617.47209038 658.71566471 617.81833961 659.8871851 618.17508125 C665.5617755 619.57296201 671.24821081 619.41286252 677.06116581 619.40049934 C678.93113224 619.40816574 678.93113224 619.40816574 680.83887577 619.41598701 C684.24014085 619.42746356 687.64116129 619.42996289 691.04242849 619.42742372 C693.89467605 619.42634849 696.74690154 619.43125186 699.59914434 619.43602914 C706.33878049 619.44710279 713.07836091 619.44757507 719.81800175 619.44151497 C726.73666321 619.4354887 733.65512061 619.44775671 740.57374728 619.46908504 C746.54097005 619.4867941 752.50812845 619.49268749 758.47537649 619.4894473 C762.02709688 619.48764763 765.57867198 619.49013632 769.13036823 619.50416183 C773.10217129 619.51926036 777.07372204 619.50968937 781.04554081 619.49815559 C782.1982346 619.50579933 783.35092838 619.51344307 784.53855228 619.52131844 C792.8688675 619.46827244 800.36309107 618.13072078 808.4415369 616.12584114 C808.4415369 615.46584114 808.4415369 614.80584114 808.4415369 614.12584114 C807.91044315 613.89509895 807.3793494 613.66435677 806.8321619 613.42662239 C806.12575565 613.10048958 805.4193494 612.77435677 804.6915369 612.43834114 C803.99544315 612.12509895 803.2993494 611.81185677 802.5821619 611.48912239 C796.55863614 607.65297186 795.02042947 601.6266846 792.88294315 595.18443489 C790.97030227 591.12590424 788.46954573 589.38320662 784.70813847 587.05113411 C779.7447914 583.83069263 777.61182945 580.5569301 775.2540369 575.18834114 C771.50329764 567.00699337 767.35853825 560.74895276 760.74231815 554.52818489 C755.70642533 549.38305361 753.6569346 543.95768223 751.5821619 537.20005989 C750.50357196 534.29303836 749.8684348 532.96141366 747.4415369 531.12584114 C746.4927869 530.69271614 745.5440369 530.25959114 744.5665369 529.81334114 C738.4674979 526.51986008 736.40236019 522.30355969 733.9415369 516.06334114 C731.52734809 509.97146283 728.7345286 506.87494262 723.5430994 502.91490364 C716.46522151 496.99153473 712.09299988 486.86868366 710.0118494 478.01646614 C709.53812454 475.90725229 709.53812454 475.90725229 707.4415369 474.12584114 C705.42103196 473.39071067 705.42103196 473.39071067 703.0899744 472.83677864 C701.81380253 472.5080677 701.81380253 472.5080677 700.5118494 472.17271614 C699.62239628 471.95099739 698.73294315 471.72927864 697.8165369 471.50084114 C696.9193494 471.27138802 696.0221619 471.04193489 695.0977869 470.80552864 C692.88053539 470.23942187 690.66184628 469.67981055 688.4415369 469.12584114 Z M106.4415369 675.12584114 C106.24069832 677.24557723 106.24069832 677.24557723 106.42981815 679.66099739 C106.47686893 680.55238411 106.52391972 681.44377083 106.57239628 682.36216927 C106.63233768 683.29480598 106.69227909 684.2274427 106.7540369 685.18834114 C106.80237675 686.12484505 106.85071659 687.06134895 106.90052128 688.02623177 C106.77023092 692.41743724 106.77023092 692.41743724 108.4415369 696.12584114 C110.23550265 696.22374427 112.03337623 696.25031322 113.83001143 696.25003964 C115.59863565 696.25341058 115.59863565 696.25341058 117.40298966 696.25684962 C118.71753025 696.2542226 120.03207084 696.25159559 121.386446 696.24888897 C122.78776815 696.24962772 124.18909012 696.25080535 125.59041157 696.25238547 C129.47658103 696.25547498 133.36272461 696.25226252 137.24889216 696.24810733 C141.46329514 696.24469048 145.67769535 696.2470406 149.89209884 696.24868482 C157.29005408 696.25076466 164.68800131 696.24910443 172.08595562 696.24504662 C183.0865679 696.23902941 194.08717508 696.23870915 205.0877887 696.2395886 C223.58956721 696.24090478 242.09134215 696.23755247 260.59311962 696.2315712 C278.92136051 696.22566117 297.24959992 696.22180667 315.57784176 696.22071838 C316.71596373 696.22064964 317.85408569 696.2205809 319.0266962 696.22051008 C324.80626412 696.22017176 330.58583203 696.21987038 336.36539995 696.21958321 C377.33894075 696.21748086 418.31247962 696.21073811 459.28601933 696.20128059 C499.0998213 696.19210135 538.91362275 696.1850152 578.72742558 696.18077278 C580.56715814 696.18057549 580.56715814 696.18057549 582.44405702 696.18037422 C594.76056874 696.17905574 607.07708045 696.17777992 619.39359217 696.17653536 C644.48541505 696.17399891 669.57723788 696.17117766 694.66906071 696.16818428 C695.82282982 696.16804699 696.97659894 696.1679097 698.16533076 696.16776825 C775.25740028 696.15856221 852.34946873 696.14271639 929.4415369 696.12584114 C929.66680986 692.66839092 929.86887235 689.2099709 930.0665369 685.75084114 C930.13099003 684.76599739 930.19544315 683.78115364 930.2618494 682.76646614 C930.3134119 681.82545052 930.3649744 680.88443489 930.4180994 679.91490364 C930.47046757 679.04559212 930.52283573 678.17628059 930.57679081 677.2806263 C930.66644903 674.90980618 930.66644903 674.90980618 928.4415369 673.12584114 C913.81697886 669.58903555 897.99508067 670.84170932 883.05240437 670.86890603 C879.01871637 670.87401584 874.98504363 670.86744529 870.95135784 670.86241937 C863.89348104 670.85521972 856.83563488 670.85540048 849.77775669 670.86051369 C839.28222221 670.86809661 828.78671344 670.86420186 818.29117912 670.85809707 C799.54326426 670.84757775 780.79536306 670.84847353 762.04744691 670.8542549 C745.6406618 670.85928938 729.2338817 670.86059784 712.82709599 670.85820961 C711.73807655 670.85805684 710.64905712 670.85790407 709.5270371 670.85774667 C705.1061635 670.85712398 700.68528991 670.85648717 696.26441631 670.85582714 C654.80762167 670.84971148 613.35083571 670.85525237 571.8940424 670.86602094 C535.07588488 670.87551188 498.25774118 670.87466262 461.43958378 670.86509895 C420.05778574 670.85438575 378.67599537 670.85014523 337.29419613 670.85632348 C332.88145669 670.8569649 328.46871726 670.85759058 324.05597782 670.85820961 C322.96947802 670.85836776 321.88297821 670.85852592 320.76355417 670.85868887 C304.36855428 670.86096218 287.97355995 670.85830629 271.57856083 670.8532505 C252.93355208 670.84752948 234.28855909 670.84896703 215.6435523 670.85981199 C205.2133208 670.86567894 194.78312344 670.86607602 184.35289282 670.85851964 C177.38053595 670.85402618 170.40820637 670.85684172 163.43585353 670.86552918 C159.46694885 670.8702736 155.49811187 670.87194089 151.52920938 670.86471722 C127.50737488 668.74250942 127.50737488 668.74250942 106.4415369 675.12584114 Z " fill="#000000" transform="translate(121.55846309661865,174.87415885925293)"/>
<path d="M0 0 C1.0160582 -0.0071553 2.03211639 -0.01431061 3.07896423 -0.02168274 C4.73490601 -0.02571609 4.73490601 -0.02571609 6.42430115 -0.02983093 C7.59569138 -0.03640213 8.7670816 -0.04297333 9.97396851 -0.04974365 C13.84991015 -0.06945017 17.72581306 -0.08113449 21.60179138 -0.09111023 C22.94159909 -0.09516126 24.2814066 -0.09927828 25.62121391 -0.10346031 C31.92059433 -0.12249874 38.21996317 -0.13673009 44.5193668 -0.14507228 C51.76338988 -0.15482654 59.00710594 -0.18110392 66.25102097 -0.22157317 C71.86740121 -0.25186035 77.4836941 -0.26655318 83.10015434 -0.26985329 C86.44632854 -0.27219035 89.79191501 -0.2829859 93.13804817 -0.30631447 C96.88084643 -0.33078312 100.62285287 -0.32972597 104.3657074 -0.32279968 C105.45549896 -0.33560974 106.54529053 -0.3484198 107.66810608 -0.36161804 C118.49626347 -0.28902781 127.5394155 2.33812562 135.82054138 9.43623352 C137.67800767 11.00380623 139.52620321 12.20329618 141.59788513 13.45967102 C146.96852753 17.25659029 149.63755588 23.90853611 150.91038513 30.20967102 C150.81793006 36.03434041 149.14834036 40.46627875 145.33616638 44.90888977 C141.6206073 48.34729759 137.69884562 50.19321592 133.04710388 52.08076477 C130.11416195 53.50295509 127.97057325 55.420418 125.64866638 57.68232727 C119.96403129 62.30648814 114.81729789 62.59034159 107.80345154 62.57954407 C106.80771118 62.58973572 105.81197083 62.59992737 104.78605652 62.61042786 C101.50712945 62.64053133 98.22849467 62.64981995 94.94944763 62.65888977 C92.67114798 62.67573838 90.39285761 62.69388886 88.11457825 62.71328735 C82.12727256 62.76077349 76.14000452 62.79059202 70.15257263 62.81672668 C64.03921575 62.84653903 57.92598857 62.89306711 51.81272888 62.93818665 C39.8245155 63.02420412 27.83627541 63.0915565 15.84788513 63.14717102 C13.49716552 68.03066434 12.47278881 71.56272961 12.47183764 77.06968284 C12.46763069 77.73419115 12.46342374 78.39869946 12.4590893 79.08334439 C12.44866362 81.30637947 12.45955158 83.52878631 12.47036171 85.75181198 C12.46723148 87.36997945 12.46278713 88.98814481 12.45714861 90.60630548 C12.44543967 95.06670585 12.45247029 99.52691205 12.46248247 103.98730935 C12.47007701 108.83473087 12.46031899 113.68212209 12.45275247 118.52953935 C12.44190195 127.02994716 12.44225558 135.53029785 12.44989395 144.03070831 C12.46122172 156.67113326 12.45545038 169.31150985 12.44626903 181.95193445 C12.43045321 204.52627632 12.43184851 227.10059276 12.44050577 249.67493707 C12.44804571 269.43234959 12.45002569 289.18975278 12.44643784 308.94716644 C12.4460941 310.9112762 12.4460941 310.9112762 12.44574343 312.91506494 C12.44480944 318.23011426 12.44385424 323.54516357 12.44286413 328.86021288 C12.44011295 343.71871468 12.43840126 358.57721651 12.43750572 373.43571854 C12.43746478 374.11237505 12.43742385 374.78903156 12.43738167 375.48619281 C12.43615362 397.05126593 12.43953554 418.61633582 12.44605446 440.18140793 C12.44637058 441.23074122 12.44637058 441.23074122 12.44669309 442.30127317 C12.45012799 453.66182351 12.45378635 465.02237378 12.45746361 476.38292404 C12.47202951 521.43097626 12.47135958 566.47900173 12.45677185 611.52705383 C12.45310828 622.87708916 12.44947513 634.22712448 12.44605446 645.57715988 C12.44584311 646.2760219 12.44563177 646.97488392 12.44541402 647.69492358 C12.43894503 669.23376646 12.43620274 690.77260713 12.43750572 712.31145096 C12.43756685 713.32577273 12.43756685 713.32577273 12.43762922 714.36058585 C12.43860873 729.87096219 12.44072002 745.38133824 12.44360864 760.89171433 C12.44457082 766.19844707 12.44550934 771.5051798 12.44643784 776.81191254 C12.44667507 778.11860574 12.4469123 779.42529893 12.44715672 780.7715889 C12.450571 800.5153146 12.44657477 820.25902994 12.43899918 840.00275421 C12.43042836 862.45247077 12.43255087 884.90215787 12.44884141 907.35187075 C12.4576606 919.92047478 12.45821044 932.48901503 12.44690288 945.05761742 C12.44018508 953.44929287 12.44434551 961.84091708 12.45741719 970.23258492 C12.46456507 975.01641458 12.46696966 979.80011736 12.45619924 984.5839431 C12.44649732 988.93753046 12.45064127 993.29087858 12.46574122 997.64444856 C12.46875811 999.20804976 12.46677644 1000.77167083 12.45912341 1002.3352562 C12.44944111 1004.46487702 12.45846826 1006.59367846 12.47183764 1008.72326255 C12.47214256 1010.48903165 12.47214256 1010.48903165 12.47245363 1012.29047285 C12.86207256 1017.41545808 12.86207256 1017.41545808 15.84788513 1027.14717102 C405.24788513 1027.14717102 794.64788513 1027.14717102 1195.84788513 1027.14717102 C1198.53187212 1017.77160447 1198.53187212 1017.77160447 1199.22393262 1008.72326255 C1199.23024305 1007.71808618 1199.23024305 1007.71808618 1199.23668096 1006.69260322 C1199.24701853 1004.47457304 1199.23626473 1002.25718511 1199.22540855 1000.0391655 C1199.22854206 998.41512556 1199.23298884 996.79108773 1199.23862165 995.16705453 C1199.25028356 990.7090243 1199.2433247 986.25118946 1199.23328779 981.79316248 C1199.22567057 976.94141672 1199.23546025 972.08970068 1199.24301779 967.23795915 C1199.25385149 958.73628086 1199.25352499 950.23465974 1199.24587631 941.73297882 C1199.23453355 929.09094284 1199.2403276 916.44895511 1199.24950123 903.80691945 C1199.26530409 881.23001612 1199.26392717 858.65313825 1199.2552645 836.07623249 C1199.24772172 816.32145644 1199.24574592 796.56668973 1199.24933243 776.81191254 C1199.24956158 775.50220049 1199.24979074 774.19248845 1199.25002684 772.84308816 C1199.25096083 767.52675916 1199.25191603 762.21043016 1199.25290613 756.89410116 C1199.25565708 742.03321785 1199.25736893 727.1723345 1199.25826454 712.31145096 C1199.25832595 711.29638432 1199.25832595 711.29638432 1199.25838859 710.26081128 C1199.25961633 688.69959273 1199.25623618 667.13837741 1199.24971581 645.57715988 C1199.24950506 644.87788535 1199.24929431 644.17861081 1199.24907718 643.45814614 C1199.24564234 632.1023827 1199.24198395 620.74661933 1199.23830666 609.39085596 C1199.22373438 564.3424963 1199.22441688 519.29416338 1199.23899841 474.24580383 C1199.24266194 462.89100523 1199.24629508 451.53620661 1199.24971581 440.18140793 C1199.24992715 439.48226412 1199.25013849 438.7831203 1199.25035624 438.06279032 C1199.2568237 416.52043263 1199.25956784 394.97807717 1199.25826454 373.43571854 C1199.25822379 372.75955836 1199.25818304 372.08339818 1199.25814105 371.38674831 C1199.25716161 355.87902948 1199.25505046 340.37131096 1199.25216162 324.86359239 C1199.25119944 319.55811708 1199.25026092 314.25264176 1199.24933243 308.94716644 C1199.2490952 307.64078955 1199.24885796 306.33441266 1199.24861354 304.9884486 C1199.24519785 285.24109732 1199.24919798 265.4937564 1199.25677109 245.74640656 C1199.26533587 223.30106432 1199.26323199 200.85575155 1199.24692886 178.410413 C1199.2381008 165.84094741 1199.2375726 153.27154559 1199.24886738 140.70208162 C1199.25557428 132.31507916 1199.25144466 123.92812803 1199.23835307 115.5411332 C1199.23119011 110.75676219 1199.22883163 105.97251827 1199.23957102 101.18815109 C1199.24923478 96.83880418 1199.24518437 92.48969754 1199.23002904 88.14036827 C1199.22699868 86.57382585 1199.22902914 85.0072637 1199.23664685 83.44073687 C1199.24624531 81.31676033 1199.23737911 79.19362069 1199.22393262 77.06968284 C1199.22372935 75.89277447 1199.22352607 74.71586611 1199.22331663 73.50329386 C1198.77526123 69.49795879 1197.58888018 66.7639944 1195.84788513 63.14717102 C1194.99607839 63.1470828 1194.14427166 63.14699458 1193.26665259 63.14690368 C1105.41734233 63.13763753 1017.56802914 63.12519052 915.12275696 63.07287598 C913.72438177 63.07214925 912.32600659 63.07142253 910.9276314 63.07069582 C881.57552894 63.05541972 852.22342713 63.03911595 822.87132591 63.021625 C808.12684789 63.01283985 793.38236975 63.00425217 778.63789151 62.99585122 C776.41373916 62.99458281 774.18958682 62.99330878 771.96543448 62.9920345 C737.71561947 62.9724616 703.465809 62.95712458 669.21598816 62.95405579 C668.47955665 62.95398972 667.74312514 62.95392365 666.98437752 62.95385559 C655.11088089 62.95281613 643.23738424 62.9521321 631.36388758 62.95149523 C597.16557479 62.94965551 562.96727147 62.94518874 528.76896477 62.92332745 C528.06573734 62.92287919 527.36250991 62.92243093 526.63797256 62.92196909 C511.20060324 62.91208164 495.76323521 62.90084249 480.3258678 62.88832342 C474.11443541 62.88331001 467.90300288 62.8784912 461.69157028 62.87373924 C461.01175513 62.87321447 460.33193998 62.87268969 459.63152436 62.87214901 C437.72605151 62.85533612 415.82061308 62.85436491 393.91513606 62.86169949 C371.23606391 62.86921858 348.5570505 62.85913104 325.87799414 62.82850812 C312.79817114 62.8113998 299.71851699 62.8082827 286.63869256 62.82499682 C277.90726885 62.83478957 269.17598374 62.82654891 260.44458521 62.80351054 C255.46571171 62.79089369 250.48717697 62.7862452 245.50830986 62.80354176 C240.97874729 62.81912326 236.44982573 62.81172838 231.92031468 62.7860103 C230.29192914 62.78078997 228.66348974 62.78393654 227.03514418 62.7964855 C216.19293723 62.87404419 208.28104872 61.69328749 199.78538513 54.58467102 C197.13814774 52.38802723 195.33776599 51.40831791 192.22288513 50.14717102 C186.80740975 47.85740626 184.42946943 44.74793723 182.03538513 39.45967102 C179.93730819 33.33835864 180.7980304 27.07193924 183.22288513 21.14717102 C188.14887599 12.34820908 197.48428322 5.54696597 206.84788513 2.14717102 C212.14035951 0.65512463 216.71147794 -0.10323716 222.24791574 -0.10582864 C222.95196892 -0.10888174 223.65602209 -0.11193483 224.38141021 -0.11508045 C226.73308615 -0.12285431 229.08450313 -0.11645904 231.43618011 -0.11009789 C233.14950251 -0.11279213 234.86282371 -0.11636044 236.57614267 -0.12072235 C241.29607903 -0.13018611 246.01593827 -0.12717782 250.73587845 -0.12216681 C255.8664943 -0.11890311 260.99709356 -0.1271803 266.12770414 -0.13398516 C275.12392807 -0.14429999 284.12013046 -0.14712638 293.11635971 -0.14507294 C306.49431834 -0.14202678 319.8722531 -0.15033844 333.25020709 -0.16082219 C358.53299986 -0.18018121 383.81578186 -0.18579238 409.09858006 -0.1869363 C411.8874141 -0.1870658 414.67624813 -0.18720168 417.46508217 -0.18734312 C418.50317444 -0.18739413 418.50317444 -0.18739413 419.56223827 -0.18744618 C434.89939737 -0.18826315 450.23655482 -0.1926432 465.57371304 -0.19765481 C471.88943828 -0.19971154 478.20516355 -0.2016916 484.52088881 -0.20368731 C485.56765181 -0.20401908 485.56765181 -0.20401908 486.63556154 -0.20435755 C526.62693154 -0.2170062 566.61830045 -0.22525574 606.60967255 -0.22434044 C608.10633351 -0.22430888 609.60299448 -0.22427741 611.09965545 -0.22424602 C617.85691747 -0.22409926 624.61417949 -0.22392292 631.37144151 -0.22373825 C634.38465763 -0.22365601 637.39787374 -0.22357571 640.41108986 -0.22349563 C641.91925935 -0.22345484 643.42742883 -0.2234128 644.93559832 -0.22336951 C692.61698525 -0.22200926 740.29834247 -0.23663919 787.97972107 -0.26445007 C799.99133038 -0.27145222 812.00293971 -0.27839118 824.01454926 -0.28497887 C825.12397939 -0.28558749 825.12397939 -0.28558749 826.25582226 -0.28620841 C849.0560485 -0.29864074 871.85627229 -0.30617 894.65650177 -0.30869484 C895.37247377 -0.30877474 896.08844578 -0.30885464 896.8261139 -0.30893697 C912.54445851 -0.31064362 928.26280297 -0.31116587 943.98114765 -0.31059621 C949.60570005 -0.31040325 955.23025246 -0.31029916 960.85480486 -0.31023875 C962.25403371 -0.31022293 963.65326256 -0.31020252 965.05249141 -0.31017751 C987.33694491 -0.30982503 1009.62137297 -0.32121397 1031.90581918 -0.33848514 C1054.98058997 -0.3562779 1078.05532176 -0.35942179 1101.13009948 -0.34586088 C1114.4308656 -0.3384657 1127.73152025 -0.34214673 1141.03227458 -0.36174556 C1149.9183309 -0.37373344 1158.80430637 -0.3711677 1167.69035896 -0.35680457 C1172.75246627 -0.34903155 1177.81435768 -0.34751879 1182.87644988 -0.36371927 C1187.48840299 -0.37834971 1192.09996177 -0.37431958 1196.71189775 -0.35587154 C1198.36339997 -0.35244979 1200.01493362 -0.35561691 1201.6664037 -0.36647395 C1211.16536667 -0.42470214 1219.55732929 0.42299153 1228.69692895 3.09435853 C1234.32555325 4.52195394 1240.10856461 5.26419863 1245.84788513 6.14717102 C1245.84788513 361.22717102 1245.84788513 716.30717102 1245.84788513 1082.14717102 C1240.23788513 1082.80717102 1234.62788513 1083.46717102 1228.84788513 1084.14717102 C1226.77736024 1084.51323007 1224.70683534 1084.87928913 1222.57356727 1085.25644088 C1213.51329063 1086.68441765 1204.38397888 1086.42197869 1195.2369709 1086.3988533 C1193.14573562 1086.40094181 1191.05450106 1086.40390596 1188.9632681 1086.40766203 C1183.21736005 1086.41544372 1177.47151928 1086.41079353 1171.72561234 1086.40410613 C1165.47415031 1086.39903142 1159.22269858 1086.4055531 1152.97123802 1086.41059279 C1142.01484612 1086.41781786 1131.0584774 1086.41766357 1120.10208511 1086.41249847 C1108.34876144 1086.40699148 1096.59544931 1086.40583889 1084.84212494 1086.40997314 C1084.09913132 1086.41023149 1083.35613771 1086.41048984 1082.59062913 1086.41075601 C1079.56441266 1086.41182258 1076.53819621 1086.41292 1073.51197977 1086.41405656 C1045.33893345 1086.42463009 1017.16589488 1086.42535488 988.99284744 1086.41976166 C988.15836557 1086.41959607 987.32388369 1086.41943048 986.46411448 1086.41925987 C985.21038416 1086.41901108 985.21038416 1086.41901108 983.93132594 1086.41875726 C958.46638652 1086.41371069 933.00145029 1086.41240821 907.53651047 1086.41480255 C905.83118462 1086.41495751 904.12585878 1086.41511182 902.42053294 1086.41526549 C895.56749291 1086.41588643 888.71445289 1086.41652376 881.86141287 1086.41718502 C862.70419815 1086.41901904 843.54698341 1086.42016024 824.3897686 1086.42075729 C823.08120251 1086.42079823 823.08120251 1086.42079823 821.74620074 1086.42084 C793.94833909 1086.42165855 766.15047856 1086.41940478 738.35261726 1086.41505814 C737.00022136 1086.41484739 737.00022136 1086.41484739 735.62050433 1086.41463238 C720.97922279 1086.4123425 706.33794128 1086.40990357 691.69665978 1086.40745204 C633.63297009 1086.39774024 575.56928962 1086.39818942 517.50559998 1086.40791321 C502.87408003 1086.41035561 488.24256009 1086.41277772 473.61104012 1086.41505814 C472.71011328 1086.41519903 471.80918645 1086.41533993 470.8809588 1086.41548509 C443.11383503 1086.41979785 415.34671203 1086.42162594 387.57958794 1086.42075729 C386.70782446 1086.42073013 385.83606098 1086.42070296 384.93788043 1086.42067496 C365.80070824 1086.42004999 346.66353613 1086.41878268 327.52636402 1086.41693629 C320.6788252 1086.41627801 313.83128639 1086.41565185 306.98374757 1086.41503487 C305.2802686 1086.41488009 303.57678962 1086.41472263 301.87331065 1086.41456247 C276.41678729 1086.41217575 250.96026754 1086.4142073 225.50374463 1086.41925987 C224.66942834 1086.41942546 223.83511206 1086.41959105 222.97551346 1086.41976166 C222.14273726 1086.41992702 221.30996107 1086.42009239 220.45194923 1086.42026276 C192.3578256 1086.42578041 164.26371124 1086.42374757 136.16958894 1086.41320017 C133.15187512 1086.41209547 130.13416129 1086.41102206 127.11644745 1086.40997314 C126.3758543 1086.40971273 125.63526116 1086.40945232 124.8722258 1086.40918401 C113.15210821 1086.40524138 101.43200218 1086.40798342 89.71188564 1086.41351116 C78.18368035 1086.41880568 66.6555007 1086.41676911 55.12729667 1086.40748298 C48.96224779 1086.40271939 42.79724265 1086.40111136 36.63219513 1086.40829495 C31.02073895 1086.41476686 25.40936522 1086.41199431 19.79791502 1086.40193363 C17.7834476 1086.3999238 15.76897332 1086.40123965 13.75451136 1086.4063455 C2.52843165 1086.43277388 -8.02747159 1085.77958121 -19.15211487 1084.14717102 C-24.10211487 1083.81717102 -29.05211487 1083.48717102 -34.15211487 1083.14717102 C-34.15211487 727.73717102 -34.15211487 372.32717102 -34.15211487 6.14717102 C-28.70711487 5.65217102 -28.70711487 5.65217102 -23.15211487 5.14717102 C-19.48401327 4.28219859 -19.48401327 4.28219859 -16.27711487 3.14717102 C-10.75626255 1.30236533 -5.84146164 0.0283844 0 0 Z " fill="#000000" transform="translate(34.15211486816406,97.85282897949219)"/>
<path d="M0 0 C1.24073308 -0.00694553 2.48146616 -0.01389106 3.75979722 -0.02104706 C7.20136521 -0.0361838 10.64206994 -0.03336383 14.08359933 -0.02289402 C17.79605638 -0.01590693 21.50842469 -0.03189629 25.22085571 -0.04489136 C32.49307375 -0.0665457 39.76513539 -0.06640069 47.03737508 -0.05826581 C52.94825287 -0.05196811 58.85908501 -0.05310074 64.76996231 -0.05953789 C65.61097362 -0.06043954 66.45198492 -0.0613412 67.31848142 -0.06227018 C69.02696165 -0.06412137 70.73544186 -0.06598393 72.44392206 -0.06785773 C88.46969986 -0.08444154 104.49538965 -0.07571245 120.52116217 -0.05887216 C135.18227447 -0.04417832 149.84318178 -0.05879807 164.50426768 -0.08764232 C179.55737734 -0.1170373 194.6103924 -0.12800808 209.66352952 -0.11846012 C211.3663655 -0.11743757 213.06920149 -0.11644296 214.77203751 -0.11547661 C215.6098671 -0.11500022 216.4476967 -0.11452383 217.31091508 -0.114033 C223.21330354 -0.1118688 229.11560244 -0.12167338 235.01797104 -0.13624763 C242.21323406 -0.15376635 249.40823582 -0.15366055 256.60348855 -0.13089598 C260.27433355 -0.11974875 263.94471819 -0.11660145 267.61554337 -0.13519669 C271.59582464 -0.15509992 275.57538553 -0.13622714 279.55566406 -0.11352539 C280.71471186 -0.12536112 281.87375965 -0.13719685 283.0679301 -0.14939123 C290.13551593 -0.06732607 293.54120813 0.89738897 298.90481567 5.5146637 C302.1875408 7.0054241 305.6067102 8.07185548 309.0317688 9.1865387 C315.01048702 11.25410696 319.24022183 13.96228647 322.77981567 19.3896637 C324.72627553 24.79649662 324.37936153 28.83903633 322.21731567 34.0771637 C318.64061591 41.44242349 313.06821807 46.33639529 306.90481567 51.5146637 C306.07981567 52.2571637 305.25481567 52.9996637 304.40481567 53.7646637 C290.40042361 63.56773814 266.41458563 59.6634259 250.20852661 59.65992737 C247.42764149 59.66238454 244.6467588 59.6662999 241.86587524 59.67010498 C235.13161656 59.67835561 228.39736663 59.68115718 221.66310331 59.68171736 C216.18685166 59.68219476 210.71060286 59.68426061 205.23435211 59.68741798 C189.67381093 59.69620579 174.1132766 59.70083978 158.55273291 59.70008751 C157.2985715 59.70002758 157.2985715 59.70002758 156.01907349 59.69996643 C155.18193464 59.69992555 154.3447958 59.69988467 153.48228911 59.69984255 C139.89876259 59.69943561 126.31526373 59.7090222 112.73174521 59.7231048 C98.75066535 59.73748429 84.76959896 59.74437426 70.78851151 59.74351102 C62.95238717 59.74317981 55.1162919 59.74589399 47.28017426 59.75668907 C40.61423671 59.76581434 33.94834145 59.76795236 27.28240034 59.76117965 C23.88640765 59.75792593 20.49056189 59.75891394 17.09456635 59.7665329 C13.40361987 59.77427576 9.71288423 59.76959282 6.02194214 59.76190186 C4.96278084 59.76704542 3.90361953 59.77218898 2.81236243 59.77748841 C-11.13327568 59.71356683 -23.77771079 57.60286004 -34.09518433 47.5146637 C-39.53446172 41.51270244 -43.86747638 35.48457197 -44.18502808 27.15919495 C-43.84736046 21.99028291 -42.59579366 18.46406909 -39.09518433 14.5146637 C-33.62750264 9.92842188 -27.07493363 7.96135339 -20.36471558 5.82325745 C-17.06200572 4.7649351 -17.06200572 4.7649351 -15.14678764 2.46504307 C-10.34491509 -0.60399055 -5.5836049 -0.0395469 0 0 Z " fill="#000000" transform="translate(480.0951843261719,984.4853363037109)"/>
<path d="M0 0 C5.00706782 1.75455424 10.29518039 2.47217771 15.515625 3.36572266 C25.98435098 5.30202803 32.14540727 9.6387771 39.5703125 17.17578125 C40.31152344 17.89314453 41.05273438 18.61050781 41.81640625 19.34960938 C47.81013469 25.35947892 50.64649378 31.25728038 53.1953125 39.23828125 C54.46811283 42.76615172 56.22395083 44.27718884 59.26171875 46.51953125 C65.67053756 52.5589194 66.75458643 61.47989635 67.0234375 69.80859375 C67.22686505 83.7133883 67.4112542 96.50428759 57.6953125 107.36328125 C55.8203125 108.98828125 55.8203125 108.98828125 53.8203125 108.98828125 C53.53800781 109.85324219 53.25570312 110.71820313 52.96484375 111.609375 C51.88637064 114.79326318 50.74577002 117.9256442 49.5078125 121.05078125 C48.92580078 122.55318359 48.92580078 122.55318359 48.33203125 124.0859375 C45.09784423 130.29524229 40.43781719 132.92645611 34.3828125 135.80078125 C29.04894768 138.46515422 25.2327523 140.73214162 22.2890625 146.12890625 C18.16454288 151.35037258 11.88807049 152.79273522 5.6328125 153.73828125 C4.8603418 153.85969482 4.08787109 153.9811084 3.29199219 154.10620117 C-13.20185151 156.45467331 -35.98065085 157.67112498 -50.171875 147.5703125 C-52.83735038 145.34526975 -55.1939457 142.97289741 -57.5546875 140.42578125 C-60.47198798 137.71685937 -63.42469131 136.09832902 -66.90625 134.21875 C-78.59546624 127.89211235 -81.04116395 118.62170078 -84.87475586 106.45996094 C-86.50598772 101.47793528 -88.38805869 97.82741177 -91.78125 93.796875 C-97.66640604 86.18562571 -97.37803819 78.50380016 -96.359375 69.44580078 C-95.455068 62.93107014 -93.74311139 57.53386349 -89.1796875 52.64453125 C-85.60268025 48.68774299 -84.48226461 44.57798069 -83.1796875 39.48828125 C-81.09340361 31.33632012 -78.36774663 25.48500881 -70.9296875 21.05078125 C-68.1796875 19.98828125 -68.1796875 19.98828125 -66.1796875 19.98828125 C-65.9321875 19.10140625 -65.6846875 18.21453125 -65.4296875 17.30078125 C-63.47421416 12.11877689 -61.27283458 9.29107899 -56.234375 7.00390625 C-50.91602259 4.72468854 -45.52756463 3.48633542 -39.8671875 2.36328125 C-38.82481934 2.15380859 -37.78245117 1.94433594 -36.70849609 1.72851562 C-8.97381535 -3.65063814 -8.97381535 -3.65063814 0 0 Z M-20.7734375 54.08984375 C-25.83102849 54.41015785 -28.48884671 55.22932091 -32.1796875 58.98828125 C-33.52960777 63.56206174 -33.78569897 68.24465936 -34.1796875 72.98828125 C-34.28667969 73.81199219 -34.39367187 74.63570312 -34.50390625 75.484375 C-35.08694708 82.54564724 -31.53012368 87.99047969 -28.1796875 93.98828125 C-27.77363281 95.09236328 -27.77363281 95.09236328 -27.359375 96.21875 C-25.49498885 99.01532922 -23.39033631 99.23590183 -20.1796875 99.98828125 C-17.53208928 100.27176146 -14.95687307 100.48992378 -12.3046875 100.61328125 C-11.61632812 100.65195312 -10.92796875 100.690625 -10.21875 100.73046875 C-8.53945504 100.82376291 -6.85960983 100.90706363 -5.1796875 100.98828125 C-4.87675781 100.20324219 -4.57382812 99.41820312 -4.26171875 98.609375 C1.7551784 83.5208483 1.7551784 83.5208483 6.8203125 80.98828125 C6.38074116 78.65079599 5.92042972 76.32038943 5.43359375 73.9921875 C5.01570147 71.94531387 4.63968053 69.88954997 4.30078125 67.828125 C2.98904769 60.84407352 2.98904769 60.84407352 -1.6171875 55.73828125 C-7.74753105 52.6956475 -14.17230513 53.83136568 -20.7734375 54.08984375 Z " fill="#000000" transform="translate(756.1796875,330.01171875)"/>
<path d="M0 0 C1.18851059 -0.00095673 2.37702118 -0.00191345 3.60154724 -0.00289917 C6.10684258 -0.00357656 8.61213972 -0.00175317 11.11743164 0.00244141 C14.89799069 0.00776239 18.67842914 0.00249855 22.45898438 -0.00390625 C60.91311585 -0.01847917 60.91311585 -0.01847917 66.7421875 4.48046875 C69.98220082 7.76710097 72.68176355 11.39285944 75.37109375 15.1328125 C77.69945706 18.14442773 79.98380627 20.8285152 82.99609375 23.1953125 C85.64665258 25.35761049 87.0230437 26.98736239 88.37109375 30.1328125 C88.19727298 33.90063333 87.78931986 35.66114639 85.26171875 38.51171875 C84.3903125 39.23230469 83.51890625 39.95289063 82.62109375 40.6953125 C81.71617187 41.46101562 80.81125 42.22671875 79.87890625 43.015625 C79.05132813 43.71429687 78.22375 44.41296875 77.37109375 45.1328125 C76.39764128 46.09694964 75.43492676 47.07243339 74.49609375 48.0703125 C72.37109375 50.1328125 72.37109375 50.1328125 70.18359375 51.1953125 C68.22100617 51.98064436 68.22100617 51.98064436 67.49609375 53.9453125 C65.81500373 57.21409864 63.51543075 59.32592611 60.37109375 61.1328125 C51.91992011 62.58073496 43.28667979 62.33363289 34.734375 62.37109375 C33.94474051 62.37516928 33.15510601 62.3792448 32.3415432 62.38344383 C28.1719528 62.40417588 24.00239419 62.41853972 19.83276367 62.42797852 C15.53882059 62.43909427 11.24538833 62.47358944 6.95162678 62.51315022 C3.63414051 62.539306 0.31677731 62.54766875 -3.00080299 62.55125999 C-4.58400792 62.55611845 -6.16720762 62.56771133 -7.7503109 62.58629799 C-9.96375845 62.61069817 -12.1758629 62.60972526 -14.3894043 62.6027832 C-16.27395576 62.61158257 -16.27395576 62.61158257 -18.19657898 62.62055969 C-23.99469255 61.79662497 -27.69065456 58.23857958 -31.81640625 54.3203125 C-35.12879963 51.28208681 -38.42291977 48.99550921 -42.31640625 46.7578125 C-47.85295172 43.32187455 -51.71598468 39.49303397 -53.62890625 33.1328125 C-53.36456178 28.36705939 -51.459631 25.15900189 -48.50390625 21.5078125 C-45.34522886 18.89847031 -42.08977509 16.43826019 -38.82421875 13.96484375 C-36.76606522 12.24727435 -35.21404759 10.54763082 -33.56640625 8.4453125 C-30.04593726 4.15323386 -25.97940597 1.71142817 -20.47035217 0.76004028 C-13.63854167 0.11012842 -6.86001032 -0.01239856 0 0 Z " fill="#000000" transform="translate(930.62890625,937.8671875)"/>
</svg>
